<?xml version="1.0" encoding="utf-8" standalone="no"?>
<!DOCTYPE svg PUBLIC "-//W3C//DTD SVG 1.1//EN"
  "http://www.w3.org/Graphics/SVG/1.1/DTD/svg11.dtd">
<svg xmlns:xlink="http://www.w3.org/1999/xlink" width="469.433247pt" height="191.566969pt" viewBox="0 0 469.433247 191.566969" xmlns="http://www.w3.org/2000/svg" version="1.1">
 <metadata>
  <rdf:RDF xmlns:dc="http://purl.org/dc/elements/1.1/" xmlns:cc="http://creativecommons.org/ns#" xmlns:rdf="http://www.w3.org/1999/02/22-rdf-syntax-ns#">
   <cc:Work>
    <dc:type rdf:resource="http://purl.org/dc/dcmitype/StillImage"/>
    <dc:date>2026-04-01T22:14:01.589022</dc:date>
    <dc:format>image/svg+xml</dc:format>
    <dc:creator>
     <cc:Agent>
      <dc:title>Matplotlib v3.10.5, https://matplotlib.org/</dc:title>
     </cc:Agent>
    </dc:creator>
   </cc:Work>
  </rdf:RDF>
 </metadata>
 <defs>
  <style type="text/css">*{stroke-linejoin: round; stroke-linecap: butt}</style>
 </defs>
 <g id="figure_1">
  <g id="patch_1">
   <path d="M 0 191.566969 
L 469.433247 191.566969 
L 469.433247 0 
L 0 0 
z
" style="fill: #ffffff"/>
  </g>
  <g id="axes_1">
   <g id="patch_2">
    <path d="M 28.14625 166.65525 
L 162.638334 166.65525 
L 162.638334 22.90475 
L 28.14625 22.90475 
z
" style="fill: #ffffff"/>
   </g>
   <g id="line2d_1">
    <path d="M 30.732636 163.890817 
L 160.051948 25.669183 
" clip-path="url(#p1bf6b63751)" style="fill: none; stroke-dasharray: 2.22,0.96; stroke-dashoffset: 0; stroke: #bbbbbb; stroke-width: 0.6"/>
   </g>
   <g id="matplotlib.axis_1">
    <g id="xtick_1">
     <g id="line2d_2">
      <defs>
       <path id="m8f2bc90c0d" d="M 0 0 
L 0 -2.5 
" style="stroke: #000000; stroke-width: 0.8"/>
      </defs>
      <g>
       <use xlink:href="#m8f2bc90c0d" x="30.732636" y="166.65525" style="stroke: #000000; stroke-width: 0.8"/>
      </g>
     </g>
     <g id="text_1">
      <!-- 0.0 -->
      <g transform="translate(25.867636 175.165719) scale(0.07 -0.07)">
       <defs>
        <path id="ArialMT-30" d="M 266 2259 
Q 266 3072 433 3567 
Q 600 4063 929 4331 
Q 1259 4600 1759 4600 
Q 2128 4600 2406 4451 
Q 2684 4303 2865 4023 
Q 3047 3744 3150 3342 
Q 3253 2941 3253 2259 
Q 3253 1453 3087 958 
Q 2922 463 2592 192 
Q 2263 -78 1759 -78 
Q 1097 -78 719 397 
Q 266 969 266 2259 
z
M 844 2259 
Q 844 1131 1108 757 
Q 1372 384 1759 384 
Q 2147 384 2411 759 
Q 2675 1134 2675 2259 
Q 2675 3391 2411 3762 
Q 2147 4134 1753 4134 
Q 1366 4134 1134 3806 
Q 844 3388 844 2259 
z
" transform="scale(0.015625)"/>
        <path id="ArialMT-2e" d="M 581 0 
L 581 641 
L 1222 641 
L 1222 0 
L 581 0 
z
" transform="scale(0.015625)"/>
       </defs>
       <use xlink:href="#ArialMT-30"/>
       <use xlink:href="#ArialMT-2e" transform="translate(55.615234 0)"/>
       <use xlink:href="#ArialMT-30" transform="translate(83.398438 0)"/>
      </g>
     </g>
    </g>
    <g id="xtick_2">
     <g id="line2d_3">
      <g>
       <use xlink:href="#m8f2bc90c0d" x="56.596499" y="166.65525" style="stroke: #000000; stroke-width: 0.8"/>
      </g>
     </g>
     <g id="text_2">
      <!-- 0.2 -->
      <g transform="translate(51.731499 175.165719) scale(0.07 -0.07)">
       <defs>
        <path id="ArialMT-32" d="M 3222 541 
L 3222 0 
L 194 0 
Q 188 203 259 391 
Q 375 700 629 1000 
Q 884 1300 1366 1694 
Q 2113 2306 2375 2664 
Q 2638 3022 2638 3341 
Q 2638 3675 2398 3904 
Q 2159 4134 1775 4134 
Q 1369 4134 1125 3890 
Q 881 3647 878 3216 
L 300 3275 
Q 359 3922 746 4261 
Q 1134 4600 1788 4600 
Q 2447 4600 2831 4234 
Q 3216 3869 3216 3328 
Q 3216 3053 3103 2787 
Q 2991 2522 2730 2228 
Q 2469 1934 1863 1422 
Q 1356 997 1212 845 
Q 1069 694 975 541 
L 3222 541 
z
" transform="scale(0.015625)"/>
       </defs>
       <use xlink:href="#ArialMT-30"/>
       <use xlink:href="#ArialMT-2e" transform="translate(55.615234 0)"/>
       <use xlink:href="#ArialMT-32" transform="translate(83.398438 0)"/>
      </g>
     </g>
    </g>
    <g id="xtick_3">
     <g id="line2d_4">
      <g>
       <use xlink:href="#m8f2bc90c0d" x="82.460361" y="166.65525" style="stroke: #000000; stroke-width: 0.8"/>
      </g>
     </g>
     <g id="text_3">
      <!-- 0.4 -->
      <g transform="translate(77.595361 175.165719) scale(0.07 -0.07)">
       <defs>
        <path id="ArialMT-34" d="M 2069 0 
L 2069 1097 
L 81 1097 
L 81 1613 
L 2172 4581 
L 2631 4581 
L 2631 1613 
L 3250 1613 
L 3250 1097 
L 2631 1097 
L 2631 0 
L 2069 0 
z
M 2069 1613 
L 2069 3678 
L 634 1613 
L 2069 1613 
z
" transform="scale(0.015625)"/>
       </defs>
       <use xlink:href="#ArialMT-30"/>
       <use xlink:href="#ArialMT-2e" transform="translate(55.615234 0)"/>
       <use xlink:href="#ArialMT-34" transform="translate(83.398438 0)"/>
      </g>
     </g>
    </g>
    <g id="xtick_4">
     <g id="line2d_5">
      <g>
       <use xlink:href="#m8f2bc90c0d" x="108.324223" y="166.65525" style="stroke: #000000; stroke-width: 0.8"/>
      </g>
     </g>
     <g id="text_4">
      <!-- 0.6 -->
      <g transform="translate(103.459223 175.165719) scale(0.07 -0.07)">
       <defs>
        <path id="ArialMT-36" d="M 3184 3459 
L 2625 3416 
Q 2550 3747 2413 3897 
Q 2184 4138 1850 4138 
Q 1581 4138 1378 3988 
Q 1113 3794 959 3422 
Q 806 3050 800 2363 
Q 1003 2672 1297 2822 
Q 1591 2972 1913 2972 
Q 2475 2972 2870 2558 
Q 3266 2144 3266 1488 
Q 3266 1056 3080 686 
Q 2894 316 2569 119 
Q 2244 -78 1831 -78 
Q 1128 -78 684 439 
Q 241 956 241 2144 
Q 241 3472 731 4075 
Q 1159 4600 1884 4600 
Q 2425 4600 2770 4297 
Q 3116 3994 3184 3459 
z
M 888 1484 
Q 888 1194 1011 928 
Q 1134 663 1356 523 
Q 1578 384 1822 384 
Q 2178 384 2434 671 
Q 2691 959 2691 1453 
Q 2691 1928 2437 2201 
Q 2184 2475 1800 2475 
Q 1419 2475 1153 2201 
Q 888 1928 888 1484 
z
" transform="scale(0.015625)"/>
       </defs>
       <use xlink:href="#ArialMT-30"/>
       <use xlink:href="#ArialMT-2e" transform="translate(55.615234 0)"/>
       <use xlink:href="#ArialMT-36" transform="translate(83.398438 0)"/>
      </g>
     </g>
    </g>
    <g id="xtick_5">
     <g id="line2d_6">
      <g>
       <use xlink:href="#m8f2bc90c0d" x="134.188086" y="166.65525" style="stroke: #000000; stroke-width: 0.8"/>
      </g>
     </g>
     <g id="text_5">
      <!-- 0.8 -->
      <g transform="translate(129.323086 175.165719) scale(0.07 -0.07)">
       <defs>
        <path id="ArialMT-38" d="M 1131 2484 
Q 781 2613 612 2850 
Q 444 3088 444 3419 
Q 444 3919 803 4259 
Q 1163 4600 1759 4600 
Q 2359 4600 2725 4251 
Q 3091 3903 3091 3403 
Q 3091 3084 2923 2848 
Q 2756 2613 2416 2484 
Q 2838 2347 3058 2040 
Q 3278 1734 3278 1309 
Q 3278 722 2862 322 
Q 2447 -78 1769 -78 
Q 1091 -78 675 323 
Q 259 725 259 1325 
Q 259 1772 486 2073 
Q 713 2375 1131 2484 
z
M 1019 3438 
Q 1019 3113 1228 2906 
Q 1438 2700 1772 2700 
Q 2097 2700 2305 2904 
Q 2513 3109 2513 3406 
Q 2513 3716 2298 3927 
Q 2084 4138 1766 4138 
Q 1444 4138 1231 3931 
Q 1019 3725 1019 3438 
z
M 838 1322 
Q 838 1081 952 856 
Q 1066 631 1291 507 
Q 1516 384 1775 384 
Q 2178 384 2440 643 
Q 2703 903 2703 1303 
Q 2703 1709 2433 1975 
Q 2163 2241 1756 2241 
Q 1359 2241 1098 1978 
Q 838 1716 838 1322 
z
" transform="scale(0.015625)"/>
       </defs>
       <use xlink:href="#ArialMT-30"/>
       <use xlink:href="#ArialMT-2e" transform="translate(55.615234 0)"/>
       <use xlink:href="#ArialMT-38" transform="translate(83.398438 0)"/>
      </g>
     </g>
    </g>
    <g id="xtick_6">
     <g id="line2d_7">
      <g>
       <use xlink:href="#m8f2bc90c0d" x="160.051948" y="166.65525" style="stroke: #000000; stroke-width: 0.8"/>
      </g>
     </g>
     <g id="text_6">
      <!-- 1.0 -->
      <g transform="translate(155.186948 175.165719) scale(0.07 -0.07)">
       <defs>
        <path id="ArialMT-31" d="M 2384 0 
L 1822 0 
L 1822 3584 
Q 1619 3391 1289 3197 
Q 959 3003 697 2906 
L 697 3450 
Q 1169 3672 1522 3987 
Q 1875 4303 2022 4600 
L 2384 4600 
L 2384 0 
z
" transform="scale(0.015625)"/>
       </defs>
       <use xlink:href="#ArialMT-31"/>
       <use xlink:href="#ArialMT-2e" transform="translate(55.615234 0)"/>
       <use xlink:href="#ArialMT-30" transform="translate(83.398438 0)"/>
      </g>
     </g>
    </g>
    <g id="text_7">
     <!-- Predicted probability -->
     <g transform="translate(59.152292 186.283219) scale(0.08 -0.08)">
      <defs>
       <path id="ArialMT-50" d="M 494 0 
L 494 4581 
L 2222 4581 
Q 2678 4581 2919 4538 
Q 3256 4481 3484 4323 
Q 3713 4166 3852 3881 
Q 3991 3597 3991 3256 
Q 3991 2672 3619 2267 
Q 3247 1863 2275 1863 
L 1100 1863 
L 1100 0 
L 494 0 
z
M 1100 2403 
L 2284 2403 
Q 2872 2403 3119 2622 
Q 3366 2841 3366 3238 
Q 3366 3525 3220 3729 
Q 3075 3934 2838 4000 
Q 2684 4041 2272 4041 
L 1100 4041 
L 1100 2403 
z
" transform="scale(0.015625)"/>
       <path id="ArialMT-72" d="M 416 0 
L 416 3319 
L 922 3319 
L 922 2816 
Q 1116 3169 1280 3281 
Q 1444 3394 1641 3394 
Q 1925 3394 2219 3213 
L 2025 2691 
Q 1819 2813 1613 2813 
Q 1428 2813 1281 2702 
Q 1134 2591 1072 2394 
Q 978 2094 978 1738 
L 978 0 
L 416 0 
z
" transform="scale(0.015625)"/>
       <path id="ArialMT-65" d="M 2694 1069 
L 3275 997 
Q 3138 488 2766 206 
Q 2394 -75 1816 -75 
Q 1088 -75 661 373 
Q 234 822 234 1631 
Q 234 2469 665 2931 
Q 1097 3394 1784 3394 
Q 2450 3394 2872 2941 
Q 3294 2488 3294 1666 
Q 3294 1616 3291 1516 
L 816 1516 
Q 847 969 1125 678 
Q 1403 388 1819 388 
Q 2128 388 2347 550 
Q 2566 713 2694 1069 
z
M 847 1978 
L 2700 1978 
Q 2663 2397 2488 2606 
Q 2219 2931 1791 2931 
Q 1403 2931 1139 2672 
Q 875 2413 847 1978 
z
" transform="scale(0.015625)"/>
       <path id="ArialMT-64" d="M 2575 0 
L 2575 419 
Q 2259 -75 1647 -75 
Q 1250 -75 917 144 
Q 584 363 401 755 
Q 219 1147 219 1656 
Q 219 2153 384 2558 
Q 550 2963 881 3178 
Q 1213 3394 1622 3394 
Q 1922 3394 2156 3267 
Q 2391 3141 2538 2938 
L 2538 4581 
L 3097 4581 
L 3097 0 
L 2575 0 
z
M 797 1656 
Q 797 1019 1065 703 
Q 1334 388 1700 388 
Q 2069 388 2326 689 
Q 2584 991 2584 1609 
Q 2584 2291 2321 2609 
Q 2059 2928 1675 2928 
Q 1300 2928 1048 2622 
Q 797 2316 797 1656 
z
" transform="scale(0.015625)"/>
       <path id="ArialMT-69" d="M 425 3934 
L 425 4581 
L 988 4581 
L 988 3934 
L 425 3934 
z
M 425 0 
L 425 3319 
L 988 3319 
L 988 0 
L 425 0 
z
" transform="scale(0.015625)"/>
       <path id="ArialMT-63" d="M 2588 1216 
L 3141 1144 
Q 3050 572 2676 248 
Q 2303 -75 1759 -75 
Q 1078 -75 664 370 
Q 250 816 250 1647 
Q 250 2184 428 2587 
Q 606 2991 970 3192 
Q 1334 3394 1763 3394 
Q 2303 3394 2647 3120 
Q 2991 2847 3088 2344 
L 2541 2259 
Q 2463 2594 2264 2762 
Q 2066 2931 1784 2931 
Q 1359 2931 1093 2626 
Q 828 2322 828 1663 
Q 828 994 1084 691 
Q 1341 388 1753 388 
Q 2084 388 2306 591 
Q 2528 794 2588 1216 
z
" transform="scale(0.015625)"/>
       <path id="ArialMT-74" d="M 1650 503 
L 1731 6 
Q 1494 -44 1306 -44 
Q 1000 -44 831 53 
Q 663 150 594 308 
Q 525 466 525 972 
L 525 2881 
L 113 2881 
L 113 3319 
L 525 3319 
L 525 4141 
L 1084 4478 
L 1084 3319 
L 1650 3319 
L 1650 2881 
L 1084 2881 
L 1084 941 
Q 1084 700 1114 631 
Q 1144 563 1211 522 
Q 1278 481 1403 481 
Q 1497 481 1650 503 
z
" transform="scale(0.015625)"/>
       <path id="ArialMT-20" transform="scale(0.015625)"/>
       <path id="ArialMT-70" d="M 422 -1272 
L 422 3319 
L 934 3319 
L 934 2888 
Q 1116 3141 1344 3267 
Q 1572 3394 1897 3394 
Q 2322 3394 2647 3175 
Q 2972 2956 3137 2557 
Q 3303 2159 3303 1684 
Q 3303 1175 3120 767 
Q 2938 359 2589 142 
Q 2241 -75 1856 -75 
Q 1575 -75 1351 44 
Q 1128 163 984 344 
L 984 -1272 
L 422 -1272 
z
M 931 1641 
Q 931 1000 1190 694 
Q 1450 388 1819 388 
Q 2194 388 2461 705 
Q 2728 1022 2728 1688 
Q 2728 2322 2467 2637 
Q 2206 2953 1844 2953 
Q 1484 2953 1207 2617 
Q 931 2281 931 1641 
z
" transform="scale(0.015625)"/>
       <path id="ArialMT-6f" d="M 213 1659 
Q 213 2581 725 3025 
Q 1153 3394 1769 3394 
Q 2453 3394 2887 2945 
Q 3322 2497 3322 1706 
Q 3322 1066 3130 698 
Q 2938 331 2570 128 
Q 2203 -75 1769 -75 
Q 1072 -75 642 372 
Q 213 819 213 1659 
z
M 791 1659 
Q 791 1022 1069 705 
Q 1347 388 1769 388 
Q 2188 388 2466 706 
Q 2744 1025 2744 1678 
Q 2744 2294 2464 2611 
Q 2184 2928 1769 2928 
Q 1347 2928 1069 2612 
Q 791 2297 791 1659 
z
" transform="scale(0.015625)"/>
       <path id="ArialMT-62" d="M 941 0 
L 419 0 
L 419 4581 
L 981 4581 
L 981 2947 
Q 1338 3394 1891 3394 
Q 2197 3394 2470 3270 
Q 2744 3147 2920 2923 
Q 3097 2700 3197 2384 
Q 3297 2069 3297 1709 
Q 3297 856 2875 390 
Q 2453 -75 1863 -75 
Q 1275 -75 941 416 
L 941 0 
z
M 934 1684 
Q 934 1088 1097 822 
Q 1363 388 1816 388 
Q 2184 388 2453 708 
Q 2722 1028 2722 1663 
Q 2722 2313 2464 2622 
Q 2206 2931 1841 2931 
Q 1472 2931 1203 2611 
Q 934 2291 934 1684 
z
" transform="scale(0.015625)"/>
       <path id="ArialMT-61" d="M 2588 409 
Q 2275 144 1986 34 
Q 1697 -75 1366 -75 
Q 819 -75 525 192 
Q 231 459 231 875 
Q 231 1119 342 1320 
Q 453 1522 633 1644 
Q 813 1766 1038 1828 
Q 1203 1872 1538 1913 
Q 2219 1994 2541 2106 
Q 2544 2222 2544 2253 
Q 2544 2597 2384 2738 
Q 2169 2928 1744 2928 
Q 1347 2928 1158 2789 
Q 969 2650 878 2297 
L 328 2372 
Q 403 2725 575 2942 
Q 747 3159 1072 3276 
Q 1397 3394 1825 3394 
Q 2250 3394 2515 3294 
Q 2781 3194 2906 3042 
Q 3031 2891 3081 2659 
Q 3109 2516 3109 2141 
L 3109 1391 
Q 3109 606 3145 398 
Q 3181 191 3288 0 
L 2700 0 
Q 2613 175 2588 409 
z
M 2541 1666 
Q 2234 1541 1622 1453 
Q 1275 1403 1131 1340 
Q 988 1278 909 1158 
Q 831 1038 831 891 
Q 831 666 1001 516 
Q 1172 366 1500 366 
Q 1825 366 2078 508 
Q 2331 650 2450 897 
Q 2541 1088 2541 1459 
L 2541 1666 
z
" transform="scale(0.015625)"/>
       <path id="ArialMT-6c" d="M 409 0 
L 409 4581 
L 972 4581 
L 972 0 
L 409 0 
z
" transform="scale(0.015625)"/>
       <path id="ArialMT-79" d="M 397 -1278 
L 334 -750 
Q 519 -800 656 -800 
Q 844 -800 956 -737 
Q 1069 -675 1141 -563 
Q 1194 -478 1313 -144 
Q 1328 -97 1363 -6 
L 103 3319 
L 709 3319 
L 1400 1397 
Q 1534 1031 1641 628 
Q 1738 1016 1872 1384 
L 2581 3319 
L 3144 3319 
L 1881 -56 
Q 1678 -603 1566 -809 
Q 1416 -1088 1222 -1217 
Q 1028 -1347 759 -1347 
Q 597 -1347 397 -1278 
z
" transform="scale(0.015625)"/>
      </defs>
      <use xlink:href="#ArialMT-50"/>
      <use xlink:href="#ArialMT-72" transform="translate(66.699219 0)"/>
      <use xlink:href="#ArialMT-65" transform="translate(100 0)"/>
      <use xlink:href="#ArialMT-64" transform="translate(155.615234 0)"/>
      <use xlink:href="#ArialMT-69" transform="translate(211.230469 0)"/>
      <use xlink:href="#ArialMT-63" transform="translate(233.447266 0)"/>
      <use xlink:href="#ArialMT-74" transform="translate(283.447266 0)"/>
      <use xlink:href="#ArialMT-65" transform="translate(311.230469 0)"/>
      <use xlink:href="#ArialMT-64" transform="translate(366.845703 0)"/>
      <use xlink:href="#ArialMT-20" transform="translate(422.460938 0)"/>
      <use xlink:href="#ArialMT-70" transform="translate(450.244141 0)"/>
      <use xlink:href="#ArialMT-72" transform="translate(505.859375 0)"/>
      <use xlink:href="#ArialMT-6f" transform="translate(539.160156 0)"/>
      <use xlink:href="#ArialMT-62" transform="translate(594.775391 0)"/>
      <use xlink:href="#ArialMT-61" transform="translate(650.390625 0)"/>
      <use xlink:href="#ArialMT-62" transform="translate(706.005859 0)"/>
      <use xlink:href="#ArialMT-69" transform="translate(761.621094 0)"/>
      <use xlink:href="#ArialMT-6c" transform="translate(783.837891 0)"/>
      <use xlink:href="#ArialMT-69" transform="translate(806.054688 0)"/>
      <use xlink:href="#ArialMT-74" transform="translate(828.271484 0)"/>
      <use xlink:href="#ArialMT-79" transform="translate(856.054688 0)"/>
     </g>
    </g>
   </g>
   <g id="matplotlib.axis_2">
    <g id="ytick_1">
     <g id="line2d_8">
      <defs>
       <path id="md1c7e1430f" d="M 0 0 
L 2.5 0 
" style="stroke: #000000; stroke-width: 0.8"/>
      </defs>
      <g>
       <use xlink:href="#md1c7e1430f" x="28.14625" y="163.890817" style="stroke: #000000; stroke-width: 0.8"/>
      </g>
     </g>
     <g id="text_8">
      <!-- 0.0 -->
      <g transform="translate(14.91625 166.396052) scale(0.07 -0.07)">
       <use xlink:href="#ArialMT-30"/>
       <use xlink:href="#ArialMT-2e" transform="translate(55.615234 0)"/>
       <use xlink:href="#ArialMT-30" transform="translate(83.398438 0)"/>
      </g>
     </g>
    </g>
    <g id="ytick_2">
     <g id="line2d_9">
      <g>
       <use xlink:href="#md1c7e1430f" x="28.14625" y="136.24649" style="stroke: #000000; stroke-width: 0.8"/>
      </g>
     </g>
     <g id="text_9">
      <!-- 0.2 -->
      <g transform="translate(14.91625 138.751725) scale(0.07 -0.07)">
       <use xlink:href="#ArialMT-30"/>
       <use xlink:href="#ArialMT-2e" transform="translate(55.615234 0)"/>
       <use xlink:href="#ArialMT-32" transform="translate(83.398438 0)"/>
      </g>
     </g>
    </g>
    <g id="ytick_3">
     <g id="line2d_10">
      <g>
       <use xlink:href="#md1c7e1430f" x="28.14625" y="108.602163" style="stroke: #000000; stroke-width: 0.8"/>
      </g>
     </g>
     <g id="text_10">
      <!-- 0.4 -->
      <g transform="translate(14.91625 111.107398) scale(0.07 -0.07)">
       <use xlink:href="#ArialMT-30"/>
       <use xlink:href="#ArialMT-2e" transform="translate(55.615234 0)"/>
       <use xlink:href="#ArialMT-34" transform="translate(83.398438 0)"/>
      </g>
     </g>
    </g>
    <g id="ytick_4">
     <g id="line2d_11">
      <g>
       <use xlink:href="#md1c7e1430f" x="28.14625" y="80.957837" style="stroke: #000000; stroke-width: 0.8"/>
      </g>
     </g>
     <g id="text_11">
      <!-- 0.6 -->
      <g transform="translate(14.91625 83.463071) scale(0.07 -0.07)">
       <use xlink:href="#ArialMT-30"/>
       <use xlink:href="#ArialMT-2e" transform="translate(55.615234 0)"/>
       <use xlink:href="#ArialMT-36" transform="translate(83.398438 0)"/>
      </g>
     </g>
    </g>
    <g id="ytick_5">
     <g id="line2d_12">
      <g>
       <use xlink:href="#md1c7e1430f" x="28.14625" y="53.31351" style="stroke: #000000; stroke-width: 0.8"/>
      </g>
     </g>
     <g id="text_12">
      <!-- 0.8 -->
      <g transform="translate(14.91625 55.818744) scale(0.07 -0.07)">
       <use xlink:href="#ArialMT-30"/>
       <use xlink:href="#ArialMT-2e" transform="translate(55.615234 0)"/>
       <use xlink:href="#ArialMT-38" transform="translate(83.398438 0)"/>
      </g>
     </g>
    </g>
    <g id="ytick_6">
     <g id="line2d_13">
      <g>
       <use xlink:href="#md1c7e1430f" x="28.14625" y="25.669183" style="stroke: #000000; stroke-width: 0.8"/>
      </g>
     </g>
     <g id="text_13">
      <!-- 1.0 -->
      <g transform="translate(14.91625 28.174417) scale(0.07 -0.07)">
       <use xlink:href="#ArialMT-31"/>
       <use xlink:href="#ArialMT-2e" transform="translate(55.615234 0)"/>
       <use xlink:href="#ArialMT-30" transform="translate(83.398438 0)"/>
      </g>
     </g>
    </g>
    <g id="text_14">
     <!-- Observed fraction -->
     <g transform="translate(9.32625 126.348125) rotate(-90) scale(0.08 -0.08)">
      <defs>
       <path id="ArialMT-4f" d="M 309 2231 
Q 309 3372 921 4017 
Q 1534 4663 2503 4663 
Q 3138 4663 3647 4359 
Q 4156 4056 4423 3514 
Q 4691 2972 4691 2284 
Q 4691 1588 4409 1038 
Q 4128 488 3612 205 
Q 3097 -78 2500 -78 
Q 1853 -78 1343 234 
Q 834 547 571 1087 
Q 309 1628 309 2231 
z
M 934 2222 
Q 934 1394 1379 917 
Q 1825 441 2497 441 
Q 3181 441 3623 922 
Q 4066 1403 4066 2288 
Q 4066 2847 3877 3264 
Q 3688 3681 3323 3911 
Q 2959 4141 2506 4141 
Q 1863 4141 1398 3698 
Q 934 3256 934 2222 
z
" transform="scale(0.015625)"/>
       <path id="ArialMT-73" d="M 197 991 
L 753 1078 
Q 800 744 1014 566 
Q 1228 388 1613 388 
Q 2000 388 2187 545 
Q 2375 703 2375 916 
Q 2375 1106 2209 1216 
Q 2094 1291 1634 1406 
Q 1016 1563 777 1677 
Q 538 1791 414 1992 
Q 291 2194 291 2438 
Q 291 2659 392 2848 
Q 494 3038 669 3163 
Q 800 3259 1026 3326 
Q 1253 3394 1513 3394 
Q 1903 3394 2198 3281 
Q 2494 3169 2634 2976 
Q 2775 2784 2828 2463 
L 2278 2388 
Q 2241 2644 2061 2787 
Q 1881 2931 1553 2931 
Q 1166 2931 1000 2803 
Q 834 2675 834 2503 
Q 834 2394 903 2306 
Q 972 2216 1119 2156 
Q 1203 2125 1616 2013 
Q 2213 1853 2448 1751 
Q 2684 1650 2818 1456 
Q 2953 1263 2953 975 
Q 2953 694 2789 445 
Q 2625 197 2315 61 
Q 2006 -75 1616 -75 
Q 969 -75 630 194 
Q 291 463 197 991 
z
" transform="scale(0.015625)"/>
       <path id="ArialMT-76" d="M 1344 0 
L 81 3319 
L 675 3319 
L 1388 1331 
Q 1503 1009 1600 663 
Q 1675 925 1809 1294 
L 2547 3319 
L 3125 3319 
L 1869 0 
L 1344 0 
z
" transform="scale(0.015625)"/>
       <path id="ArialMT-66" d="M 556 0 
L 556 2881 
L 59 2881 
L 59 3319 
L 556 3319 
L 556 3672 
Q 556 4006 616 4169 
Q 697 4388 901 4523 
Q 1106 4659 1475 4659 
Q 1713 4659 2000 4603 
L 1916 4113 
Q 1741 4144 1584 4144 
Q 1328 4144 1222 4034 
Q 1116 3925 1116 3625 
L 1116 3319 
L 1763 3319 
L 1763 2881 
L 1116 2881 
L 1116 0 
L 556 0 
z
" transform="scale(0.015625)"/>
       <path id="ArialMT-6e" d="M 422 0 
L 422 3319 
L 928 3319 
L 928 2847 
Q 1294 3394 1984 3394 
Q 2284 3394 2536 3286 
Q 2788 3178 2913 3003 
Q 3038 2828 3088 2588 
Q 3119 2431 3119 2041 
L 3119 0 
L 2556 0 
L 2556 2019 
Q 2556 2363 2490 2533 
Q 2425 2703 2258 2804 
Q 2091 2906 1866 2906 
Q 1506 2906 1245 2678 
Q 984 2450 984 1813 
L 984 0 
L 422 0 
z
" transform="scale(0.015625)"/>
      </defs>
      <use xlink:href="#ArialMT-4f"/>
      <use xlink:href="#ArialMT-62" transform="translate(77.783203 0)"/>
      <use xlink:href="#ArialMT-73" transform="translate(133.398438 0)"/>
      <use xlink:href="#ArialMT-65" transform="translate(183.398438 0)"/>
      <use xlink:href="#ArialMT-72" transform="translate(239.013672 0)"/>
      <use xlink:href="#ArialMT-76" transform="translate(272.314453 0)"/>
      <use xlink:href="#ArialMT-65" transform="translate(322.314453 0)"/>
      <use xlink:href="#ArialMT-64" transform="translate(377.929688 0)"/>
      <use xlink:href="#ArialMT-20" transform="translate(433.544922 0)"/>
      <use xlink:href="#ArialMT-66" transform="translate(461.328125 0)"/>
      <use xlink:href="#ArialMT-72" transform="translate(489.111328 0)"/>
      <use xlink:href="#ArialMT-61" transform="translate(522.412109 0)"/>
      <use xlink:href="#ArialMT-63" transform="translate(578.027344 0)"/>
      <use xlink:href="#ArialMT-74" transform="translate(628.027344 0)"/>
      <use xlink:href="#ArialMT-69" transform="translate(655.810547 0)"/>
      <use xlink:href="#ArialMT-6f" transform="translate(678.027344 0)"/>
      <use xlink:href="#ArialMT-6e" transform="translate(733.642578 0)"/>
     </g>
    </g>
   </g>
   <g id="FillBetweenPolyCollection_1">
    <path d="M 31.634689 157.476659 
L 31.634689 163.394317 
L 70.623759 131.189017 
L 92.005933 132.000331 
L 128.807526 66.882835 
L 147.405926 79.237434 
L 147.405926 40.906317 
L 147.405926 40.906317 
L 128.807526 27.309402 
L 92.005933 41.926567 
L 70.623759 58.370983 
L 31.634689 157.476659 
z
" clip-path="url(#p1bf6b63751)" style="fill: #cc4466; fill-opacity: 0.25"/>
   </g>
   <g id="patch_3">
    <path d="M 28.14625 166.65525 
L 28.14625 22.90475 
" style="fill: none; stroke: #000000; stroke-width: 0.6; stroke-linejoin: miter; stroke-linecap: square"/>
   </g>
   <g id="patch_4">
    <path d="M 28.14625 166.65525 
L 162.638334 166.65525 
" style="fill: none; stroke: #000000; stroke-width: 0.6; stroke-linejoin: miter; stroke-linecap: square"/>
   </g>
   <g id="text_15">
    <!-- 12 h -->
    <g transform="translate(87.607917 9.32625) scale(0.08 -0.08)">
     <defs>
      <path id="ArialMT-68" d="M 422 0 
L 422 4581 
L 984 4581 
L 984 2938 
Q 1378 3394 1978 3394 
Q 2347 3394 2619 3248 
Q 2891 3103 3008 2847 
Q 3125 2591 3125 2103 
L 3125 0 
L 2563 0 
L 2563 2103 
Q 2563 2525 2380 2717 
Q 2197 2909 1863 2909 
Q 1613 2909 1392 2779 
Q 1172 2650 1078 2428 
Q 984 2206 984 1816 
L 984 0 
L 422 0 
z
" transform="scale(0.015625)"/>
     </defs>
     <use xlink:href="#ArialMT-31"/>
     <use xlink:href="#ArialMT-32" transform="translate(55.615234 0)"/>
     <use xlink:href="#ArialMT-20" transform="translate(111.230469 0)"/>
     <use xlink:href="#ArialMT-68" transform="translate(139.013672 0)"/>
    </g>
    <!-- Brier = 0.0602  (n = 215) -->
    <g transform="translate(51.812917 17.90475) scale(0.08 -0.08)">
     <defs>
      <path id="ArialMT-42" d="M 469 0 
L 469 4581 
L 2188 4581 
Q 2713 4581 3030 4442 
Q 3347 4303 3526 4014 
Q 3706 3725 3706 3409 
Q 3706 3116 3547 2856 
Q 3388 2597 3066 2438 
Q 3481 2316 3704 2022 
Q 3928 1728 3928 1328 
Q 3928 1006 3792 729 
Q 3656 453 3456 303 
Q 3256 153 2954 76 
Q 2653 0 2216 0 
L 469 0 
z
M 1075 2656 
L 2066 2656 
Q 2469 2656 2644 2709 
Q 2875 2778 2992 2937 
Q 3109 3097 3109 3338 
Q 3109 3566 3000 3739 
Q 2891 3913 2687 3977 
Q 2484 4041 1991 4041 
L 1075 4041 
L 1075 2656 
z
M 1075 541 
L 2216 541 
Q 2509 541 2628 563 
Q 2838 600 2978 687 
Q 3119 775 3209 942 
Q 3300 1109 3300 1328 
Q 3300 1584 3169 1773 
Q 3038 1963 2805 2039 
Q 2572 2116 2134 2116 
L 1075 2116 
L 1075 541 
z
" transform="scale(0.015625)"/>
      <path id="ArialMT-3d" d="M 3381 2694 
L 356 2694 
L 356 3219 
L 3381 3219 
L 3381 2694 
z
M 3381 1303 
L 356 1303 
L 356 1828 
L 3381 1828 
L 3381 1303 
z
" transform="scale(0.015625)"/>
      <path id="ArialMT-28" d="M 1497 -1347 
Q 1031 -759 709 28 
Q 388 816 388 1659 
Q 388 2403 628 3084 
Q 909 3875 1497 4659 
L 1900 4659 
Q 1522 4009 1400 3731 
Q 1209 3300 1100 2831 
Q 966 2247 966 1656 
Q 966 153 1900 -1347 
L 1497 -1347 
z
" transform="scale(0.015625)"/>
      <path id="ArialMT-35" d="M 266 1200 
L 856 1250 
Q 922 819 1161 601 
Q 1400 384 1738 384 
Q 2144 384 2425 690 
Q 2706 997 2706 1503 
Q 2706 1984 2436 2262 
Q 2166 2541 1728 2541 
Q 1456 2541 1237 2417 
Q 1019 2294 894 2097 
L 366 2166 
L 809 4519 
L 3088 4519 
L 3088 3981 
L 1259 3981 
L 1013 2750 
Q 1425 3038 1878 3038 
Q 2478 3038 2890 2622 
Q 3303 2206 3303 1553 
Q 3303 931 2941 478 
Q 2500 -78 1738 -78 
Q 1113 -78 717 272 
Q 322 622 266 1200 
z
" transform="scale(0.015625)"/>
      <path id="ArialMT-29" d="M 791 -1347 
L 388 -1347 
Q 1322 153 1322 1656 
Q 1322 2244 1188 2822 
Q 1081 3291 891 3722 
Q 769 4003 388 4659 
L 791 4659 
Q 1378 3875 1659 3084 
Q 1900 2403 1900 1659 
Q 1900 816 1576 28 
Q 1253 -759 791 -1347 
z
" transform="scale(0.015625)"/>
     </defs>
     <use xlink:href="#ArialMT-42"/>
     <use xlink:href="#ArialMT-72" transform="translate(66.699219 0)"/>
     <use xlink:href="#ArialMT-69" transform="translate(100 0)"/>
     <use xlink:href="#ArialMT-65" transform="translate(122.216797 0)"/>
     <use xlink:href="#ArialMT-72" transform="translate(177.832031 0)"/>
     <use xlink:href="#ArialMT-20" transform="translate(211.132812 0)"/>
     <use xlink:href="#ArialMT-3d" transform="translate(238.916016 0)"/>
     <use xlink:href="#ArialMT-20" transform="translate(297.314453 0)"/>
     <use xlink:href="#ArialMT-30" transform="translate(325.097656 0)"/>
     <use xlink:href="#ArialMT-2e" transform="translate(380.712891 0)"/>
     <use xlink:href="#ArialMT-30" transform="translate(408.496094 0)"/>
     <use xlink:href="#ArialMT-36" transform="translate(464.111328 0)"/>
     <use xlink:href="#ArialMT-30" transform="translate(519.726562 0)"/>
     <use xlink:href="#ArialMT-32" transform="translate(575.341797 0)"/>
     <use xlink:href="#ArialMT-20" transform="translate(630.957031 0)"/>
     <use xlink:href="#ArialMT-20" transform="translate(658.740234 0)"/>
     <use xlink:href="#ArialMT-28" transform="translate(686.523438 0)"/>
     <use xlink:href="#ArialMT-6e" transform="translate(719.824219 0)"/>
     <use xlink:href="#ArialMT-20" transform="translate(775.439453 0)"/>
     <use xlink:href="#ArialMT-3d" transform="translate(803.222656 0)"/>
     <use xlink:href="#ArialMT-20" transform="translate(861.621094 0)"/>
     <use xlink:href="#ArialMT-32" transform="translate(889.404297 0)"/>
     <use xlink:href="#ArialMT-31" transform="translate(945.019531 0)"/>
     <use xlink:href="#ArialMT-35" transform="translate(1000.634766 0)"/>
     <use xlink:href="#ArialMT-29" transform="translate(1056.25 0)"/>
    </g>
   </g>
   <g id="line2d_14">
    <path d="M 31.634689 162.083999 
L 70.623759 94.78 
L 92.005933 80.957837 
L 128.807526 34.883958 
L 147.405926 55.905165 
" clip-path="url(#p1bf6b63751)" style="fill: none; stroke: #cc4466; stroke-width: 1.2; stroke-linecap: square"/>
    <defs>
     <path id="m739b08e228" d="M 0 2.5 
C 0.663008 2.5 1.29895 2.236584 1.767767 1.767767 
C 2.236584 1.29895 2.5 0.663008 2.5 0 
C 2.5 -0.663008 2.236584 -1.29895 1.767767 -1.767767 
C 1.29895 -2.236584 0.663008 -2.5 0 -2.5 
C -0.663008 -2.5 -1.29895 -2.236584 -1.767767 -1.767767 
C -2.236584 -1.29895 -2.5 -0.663008 -2.5 0 
C -2.5 0.663008 -2.236584 1.29895 -1.767767 1.767767 
C -1.29895 2.236584 -0.663008 2.5 0 2.5 
z
" style="stroke: #ffffff; stroke-width: 0.5"/>
    </defs>
    <g clip-path="url(#p1bf6b63751)">
     <use xlink:href="#m739b08e228" x="31.634689" y="162.083999" style="fill: #cc4466; stroke: #ffffff; stroke-width: 0.5"/>
     <use xlink:href="#m739b08e228" x="70.623759" y="94.78" style="fill: #cc4466; stroke: #ffffff; stroke-width: 0.5"/>
     <use xlink:href="#m739b08e228" x="92.005933" y="80.957837" style="fill: #cc4466; stroke: #ffffff; stroke-width: 0.5"/>
     <use xlink:href="#m739b08e228" x="128.807526" y="34.883958" style="fill: #cc4466; stroke: #ffffff; stroke-width: 0.5"/>
     <use xlink:href="#m739b08e228" x="147.405926" y="55.905165" style="fill: #cc4466; stroke: #ffffff; stroke-width: 0.5"/>
    </g>
   </g>
   <g id="text_16">
    <!-- n=153 -->
    <g style="fill: #999999" transform="translate(23.911486 153.7907) scale(0.055 -0.055)">
     <defs>
      <path id="ArialMT-33" d="M 269 1209 
L 831 1284 
Q 928 806 1161 595 
Q 1394 384 1728 384 
Q 2125 384 2398 659 
Q 2672 934 2672 1341 
Q 2672 1728 2419 1979 
Q 2166 2231 1775 2231 
Q 1616 2231 1378 2169 
L 1441 2663 
Q 1497 2656 1531 2656 
Q 1891 2656 2178 2843 
Q 2466 3031 2466 3422 
Q 2466 3731 2256 3934 
Q 2047 4138 1716 4138 
Q 1388 4138 1169 3931 
Q 950 3725 888 3313 
L 325 3413 
Q 428 3978 793 4289 
Q 1159 4600 1703 4600 
Q 2078 4600 2393 4439 
Q 2709 4278 2876 4000 
Q 3044 3722 3044 3409 
Q 3044 3113 2884 2869 
Q 2725 2625 2413 2481 
Q 2819 2388 3044 2092 
Q 3269 1797 3269 1353 
Q 3269 753 2831 336 
Q 2394 -81 1725 -81 
Q 1122 -81 723 278 
Q 325 638 269 1209 
z
" transform="scale(0.015625)"/>
     </defs>
     <use xlink:href="#ArialMT-6e"/>
     <use xlink:href="#ArialMT-3d" transform="translate(55.615234 0)"/>
     <use xlink:href="#ArialMT-31" transform="translate(114.013672 0)"/>
     <use xlink:href="#ArialMT-35" transform="translate(169.628906 0)"/>
     <use xlink:href="#ArialMT-33" transform="translate(225.244141 0)"/>
    </g>
   </g>
   <g id="text_17">
    <!-- n=10 -->
    <g style="fill: #999999" transform="translate(64.429814 86.486702) scale(0.055 -0.055)">
     <use xlink:href="#ArialMT-6e"/>
     <use xlink:href="#ArialMT-3d" transform="translate(55.615234 0)"/>
     <use xlink:href="#ArialMT-31" transform="translate(114.013672 0)"/>
     <use xlink:href="#ArialMT-30" transform="translate(169.628906 0)"/>
    </g>
   </g>
   <g id="text_18">
    <!-- n=5 -->
    <g style="fill: #999999" transform="translate(87.341246 72.664538) scale(0.055 -0.055)">
     <use xlink:href="#ArialMT-6e"/>
     <use xlink:href="#ArialMT-3d" transform="translate(55.615234 0)"/>
     <use xlink:href="#ArialMT-35" transform="translate(114.013672 0)"/>
    </g>
   </g>
   <g id="text_19">
    <!-- n=15 -->
    <g style="fill: #999999" transform="translate(122.613581 45.941689) scale(0.055 -0.055)">
     <use xlink:href="#ArialMT-6e"/>
     <use xlink:href="#ArialMT-3d" transform="translate(55.615234 0)"/>
     <use xlink:href="#ArialMT-31" transform="translate(114.013672 0)"/>
     <use xlink:href="#ArialMT-35" transform="translate(169.628906 0)"/>
    </g>
   </g>
   <g id="text_20">
    <!-- n=32 -->
    <g style="fill: #999999" transform="translate(141.211981 47.611867) scale(0.055 -0.055)">
     <use xlink:href="#ArialMT-6e"/>
     <use xlink:href="#ArialMT-3d" transform="translate(55.615234 0)"/>
     <use xlink:href="#ArialMT-33" transform="translate(114.013672 0)"/>
     <use xlink:href="#ArialMT-32" transform="translate(169.628906 0)"/>
    </g>
   </g>
  </g>
  <g id="axes_2">
   <g id="patch_5">
    <path d="M 178.6044 166.65525 
L 313.096484 166.65525 
L 313.096484 22.90475 
L 178.6044 22.90475 
z
" style="fill: #ffffff"/>
   </g>
   <g id="line2d_15">
    <path d="M 181.190786 163.890817 
L 310.510098 25.669183 
" clip-path="url(#pdf6471ffec)" style="fill: none; stroke-dasharray: 2.22,0.96; stroke-dashoffset: 0; stroke: #bbbbbb; stroke-width: 0.6"/>
   </g>
   <g id="matplotlib.axis_3">
    <g id="xtick_7">
     <g id="line2d_16">
      <g>
       <use xlink:href="#m8f2bc90c0d" x="181.190786" y="166.65525" style="stroke: #000000; stroke-width: 0.8"/>
      </g>
     </g>
     <g id="text_21">
      <!-- 0.0 -->
      <g transform="translate(176.325786 175.165719) scale(0.07 -0.07)">
       <use xlink:href="#ArialMT-30"/>
       <use xlink:href="#ArialMT-2e" transform="translate(55.615234 0)"/>
       <use xlink:href="#ArialMT-30" transform="translate(83.398438 0)"/>
      </g>
     </g>
    </g>
    <g id="xtick_8">
     <g id="line2d_17">
      <g>
       <use xlink:href="#m8f2bc90c0d" x="207.054648" y="166.65525" style="stroke: #000000; stroke-width: 0.8"/>
      </g>
     </g>
     <g id="text_22">
      <!-- 0.2 -->
      <g transform="translate(202.189648 175.165719) scale(0.07 -0.07)">
       <use xlink:href="#ArialMT-30"/>
       <use xlink:href="#ArialMT-2e" transform="translate(55.615234 0)"/>
       <use xlink:href="#ArialMT-32" transform="translate(83.398438 0)"/>
      </g>
     </g>
    </g>
    <g id="xtick_9">
     <g id="line2d_18">
      <g>
       <use xlink:href="#m8f2bc90c0d" x="232.918511" y="166.65525" style="stroke: #000000; stroke-width: 0.8"/>
      </g>
     </g>
     <g id="text_23">
      <!-- 0.4 -->
      <g transform="translate(228.053511 175.165719) scale(0.07 -0.07)">
       <use xlink:href="#ArialMT-30"/>
       <use xlink:href="#ArialMT-2e" transform="translate(55.615234 0)"/>
       <use xlink:href="#ArialMT-34" transform="translate(83.398438 0)"/>
      </g>
     </g>
    </g>
    <g id="xtick_10">
     <g id="line2d_19">
      <g>
       <use xlink:href="#m8f2bc90c0d" x="258.782373" y="166.65525" style="stroke: #000000; stroke-width: 0.8"/>
      </g>
     </g>
     <g id="text_24">
      <!-- 0.6 -->
      <g transform="translate(253.917373 175.165719) scale(0.07 -0.07)">
       <use xlink:href="#ArialMT-30"/>
       <use xlink:href="#ArialMT-2e" transform="translate(55.615234 0)"/>
       <use xlink:href="#ArialMT-36" transform="translate(83.398438 0)"/>
      </g>
     </g>
    </g>
    <g id="xtick_11">
     <g id="line2d_20">
      <g>
       <use xlink:href="#m8f2bc90c0d" x="284.646235" y="166.65525" style="stroke: #000000; stroke-width: 0.8"/>
      </g>
     </g>
     <g id="text_25">
      <!-- 0.8 -->
      <g transform="translate(279.781235 175.165719) scale(0.07 -0.07)">
       <use xlink:href="#ArialMT-30"/>
       <use xlink:href="#ArialMT-2e" transform="translate(55.615234 0)"/>
       <use xlink:href="#ArialMT-38" transform="translate(83.398438 0)"/>
      </g>
     </g>
    </g>
    <g id="xtick_12">
     <g id="line2d_21">
      <g>
       <use xlink:href="#m8f2bc90c0d" x="310.510098" y="166.65525" style="stroke: #000000; stroke-width: 0.8"/>
      </g>
     </g>
     <g id="text_26">
      <!-- 1.0 -->
      <g transform="translate(305.645098 175.165719) scale(0.07 -0.07)">
       <use xlink:href="#ArialMT-31"/>
       <use xlink:href="#ArialMT-2e" transform="translate(55.615234 0)"/>
       <use xlink:href="#ArialMT-30" transform="translate(83.398438 0)"/>
      </g>
     </g>
    </g>
    <g id="text_27">
     <!-- Predicted probability -->
     <g transform="translate(209.610442 186.283219) scale(0.08 -0.08)">
      <use xlink:href="#ArialMT-50"/>
      <use xlink:href="#ArialMT-72" transform="translate(66.699219 0)"/>
      <use xlink:href="#ArialMT-65" transform="translate(100 0)"/>
      <use xlink:href="#ArialMT-64" transform="translate(155.615234 0)"/>
      <use xlink:href="#ArialMT-69" transform="translate(211.230469 0)"/>
      <use xlink:href="#ArialMT-63" transform="translate(233.447266 0)"/>
      <use xlink:href="#ArialMT-74" transform="translate(283.447266 0)"/>
      <use xlink:href="#ArialMT-65" transform="translate(311.230469 0)"/>
      <use xlink:href="#ArialMT-64" transform="translate(366.845703 0)"/>
      <use xlink:href="#ArialMT-20" transform="translate(422.460938 0)"/>
      <use xlink:href="#ArialMT-70" transform="translate(450.244141 0)"/>
      <use xlink:href="#ArialMT-72" transform="translate(505.859375 0)"/>
      <use xlink:href="#ArialMT-6f" transform="translate(539.160156 0)"/>
      <use xlink:href="#ArialMT-62" transform="translate(594.775391 0)"/>
      <use xlink:href="#ArialMT-61" transform="translate(650.390625 0)"/>
      <use xlink:href="#ArialMT-62" transform="translate(706.005859 0)"/>
      <use xlink:href="#ArialMT-69" transform="translate(761.621094 0)"/>
      <use xlink:href="#ArialMT-6c" transform="translate(783.837891 0)"/>
      <use xlink:href="#ArialMT-69" transform="translate(806.054688 0)"/>
      <use xlink:href="#ArialMT-74" transform="translate(828.271484 0)"/>
      <use xlink:href="#ArialMT-79" transform="translate(856.054688 0)"/>
     </g>
    </g>
   </g>
   <g id="matplotlib.axis_4">
    <g id="ytick_7">
     <g id="line2d_22">
      <g>
       <use xlink:href="#md1c7e1430f" x="178.6044" y="163.890817" style="stroke: #000000; stroke-width: 0.8"/>
      </g>
     </g>
    </g>
    <g id="ytick_8">
     <g id="line2d_23">
      <g>
       <use xlink:href="#md1c7e1430f" x="178.6044" y="136.24649" style="stroke: #000000; stroke-width: 0.8"/>
      </g>
     </g>
    </g>
    <g id="ytick_9">
     <g id="line2d_24">
      <g>
       <use xlink:href="#md1c7e1430f" x="178.6044" y="108.602163" style="stroke: #000000; stroke-width: 0.8"/>
      </g>
     </g>
    </g>
    <g id="ytick_10">
     <g id="line2d_25">
      <g>
       <use xlink:href="#md1c7e1430f" x="178.6044" y="80.957837" style="stroke: #000000; stroke-width: 0.8"/>
      </g>
     </g>
    </g>
    <g id="ytick_11">
     <g id="line2d_26">
      <g>
       <use xlink:href="#md1c7e1430f" x="178.6044" y="53.31351" style="stroke: #000000; stroke-width: 0.8"/>
      </g>
     </g>
    </g>
    <g id="ytick_12">
     <g id="line2d_27">
      <g>
       <use xlink:href="#md1c7e1430f" x="178.6044" y="25.669183" style="stroke: #000000; stroke-width: 0.8"/>
      </g>
     </g>
    </g>
   </g>
   <g id="FillBetweenPolyCollection_2">
    <path d="M 182.157037 157.86603 
L 182.157037 163.696985 
L 280.924257 111.984687 
L 302.42347 47.68178 
L 302.42347 29.294498 
L 302.42347 29.294498 
L 280.924257 30.676007 
L 182.157037 157.86603 
z
" clip-path="url(#pdf6471ffec)" style="fill: #3366aa; fill-opacity: 0.25"/>
   </g>
   <g id="patch_6">
    <path d="M 178.6044 166.65525 
L 178.6044 22.90475 
" style="fill: none; stroke: #000000; stroke-width: 0.6; stroke-linejoin: miter; stroke-linecap: square"/>
   </g>
   <g id="patch_7">
    <path d="M 178.6044 166.65525 
L 313.096484 166.65525 
" style="fill: none; stroke: #000000; stroke-width: 0.6; stroke-linejoin: miter; stroke-linecap: square"/>
   </g>
   <g id="text_28">
    <!-- 24 h -->
    <g transform="translate(238.066067 9.32625) scale(0.08 -0.08)">
     <use xlink:href="#ArialMT-32"/>
     <use xlink:href="#ArialMT-34" transform="translate(55.615234 0)"/>
     <use xlink:href="#ArialMT-20" transform="translate(111.230469 0)"/>
     <use xlink:href="#ArialMT-68" transform="translate(139.013672 0)"/>
    </g>
    <!-- Brier = 0.0347  (n = 196) -->
    <g transform="translate(202.271067 17.90475) scale(0.08 -0.08)">
     <defs>
      <path id="ArialMT-37" d="M 303 3981 
L 303 4522 
L 3269 4522 
L 3269 4084 
Q 2831 3619 2401 2847 
Q 1972 2075 1738 1259 
Q 1569 684 1522 0 
L 944 0 
Q 953 541 1156 1306 
Q 1359 2072 1739 2783 
Q 2119 3494 2547 3981 
L 303 3981 
z
" transform="scale(0.015625)"/>
      <path id="ArialMT-39" d="M 350 1059 
L 891 1109 
Q 959 728 1153 556 
Q 1347 384 1650 384 
Q 1909 384 2104 503 
Q 2300 622 2425 820 
Q 2550 1019 2634 1356 
Q 2719 1694 2719 2044 
Q 2719 2081 2716 2156 
Q 2547 1888 2255 1720 
Q 1963 1553 1622 1553 
Q 1053 1553 659 1965 
Q 266 2378 266 3053 
Q 266 3750 677 4175 
Q 1088 4600 1706 4600 
Q 2153 4600 2523 4359 
Q 2894 4119 3086 3673 
Q 3278 3228 3278 2384 
Q 3278 1506 3087 986 
Q 2897 466 2520 194 
Q 2144 -78 1638 -78 
Q 1100 -78 759 220 
Q 419 519 350 1059 
z
M 2653 3081 
Q 2653 3566 2395 3850 
Q 2138 4134 1775 4134 
Q 1400 4134 1122 3828 
Q 844 3522 844 3034 
Q 844 2597 1108 2323 
Q 1372 2050 1759 2050 
Q 2150 2050 2401 2323 
Q 2653 2597 2653 3081 
z
" transform="scale(0.015625)"/>
     </defs>
     <use xlink:href="#ArialMT-42"/>
     <use xlink:href="#ArialMT-72" transform="translate(66.699219 0)"/>
     <use xlink:href="#ArialMT-69" transform="translate(100 0)"/>
     <use xlink:href="#ArialMT-65" transform="translate(122.216797 0)"/>
     <use xlink:href="#ArialMT-72" transform="translate(177.832031 0)"/>
     <use xlink:href="#ArialMT-20" transform="translate(211.132812 0)"/>
     <use xlink:href="#ArialMT-3d" transform="translate(238.916016 0)"/>
     <use xlink:href="#ArialMT-20" transform="translate(297.314453 0)"/>
     <use xlink:href="#ArialMT-30" transform="translate(325.097656 0)"/>
     <use xlink:href="#ArialMT-2e" transform="translate(380.712891 0)"/>
     <use xlink:href="#ArialMT-30" transform="translate(408.496094 0)"/>
     <use xlink:href="#ArialMT-33" transform="translate(464.111328 0)"/>
     <use xlink:href="#ArialMT-34" transform="translate(519.726562 0)"/>
     <use xlink:href="#ArialMT-37" transform="translate(575.341797 0)"/>
     <use xlink:href="#ArialMT-20" transform="translate(630.957031 0)"/>
     <use xlink:href="#ArialMT-20" transform="translate(658.740234 0)"/>
     <use xlink:href="#ArialMT-28" transform="translate(686.523438 0)"/>
     <use xlink:href="#ArialMT-6e" transform="translate(719.824219 0)"/>
     <use xlink:href="#ArialMT-20" transform="translate(775.439453 0)"/>
     <use xlink:href="#ArialMT-3d" transform="translate(803.222656 0)"/>
     <use xlink:href="#ArialMT-20" transform="translate(861.621094 0)"/>
     <use xlink:href="#ArialMT-31" transform="translate(889.404297 0)"/>
     <use xlink:href="#ArialMT-39" transform="translate(945.019531 0)"/>
     <use xlink:href="#ArialMT-36" transform="translate(1000.634766 0)"/>
     <use xlink:href="#ArialMT-29" transform="translate(1056.25 0)"/>
    </g>
   </g>
   <g id="line2d_28">
    <path d="M 182.157037 162.79382 
L 280.924257 53.31351 
L 302.42347 34.883958 
" clip-path="url(#pdf6471ffec)" style="fill: none; stroke: #3366aa; stroke-width: 1.2; stroke-linecap: square"/>
    <defs>
     <path id="m5b42af0c88" d="M 0 2.5 
C 0.663008 2.5 1.29895 2.236584 1.767767 1.767767 
C 2.236584 1.29895 2.5 0.663008 2.5 0 
C 2.5 -0.663008 2.236584 -1.29895 1.767767 -1.767767 
C 1.29895 -2.236584 0.663008 -2.5 0 -2.5 
C -0.663008 -2.5 -1.29895 -2.236584 -1.767767 -1.767767 
C -2.236584 -1.29895 -2.5 -0.663008 -2.5 0 
C -2.5 0.663008 -2.236584 1.29895 -1.767767 1.767767 
C -1.29895 2.236584 -0.663008 2.5 0 2.5 
z
" style="stroke: #ffffff; stroke-width: 0.5"/>
    </defs>
    <g clip-path="url(#pdf6471ffec)">
     <use xlink:href="#m5b42af0c88" x="182.157037" y="162.79382" style="fill: #3366aa; stroke: #ffffff; stroke-width: 0.5"/>
     <use xlink:href="#m5b42af0c88" x="280.924257" y="53.31351" style="fill: #3366aa; stroke: #ffffff; stroke-width: 0.5"/>
     <use xlink:href="#m5b42af0c88" x="302.42347" y="34.883958" style="fill: #3366aa; stroke: #ffffff; stroke-width: 0.5"/>
    </g>
   </g>
   <g id="text_29">
    <!-- n=126 -->
    <g style="fill: #999999" transform="translate(174.433834 154.500522) scale(0.055 -0.055)">
     <use xlink:href="#ArialMT-6e"/>
     <use xlink:href="#ArialMT-3d" transform="translate(55.615234 0)"/>
     <use xlink:href="#ArialMT-31" transform="translate(114.013672 0)"/>
     <use xlink:href="#ArialMT-32" transform="translate(169.628906 0)"/>
     <use xlink:href="#ArialMT-36" transform="translate(225.244141 0)"/>
    </g>
   </g>
   <g id="text_30">
    <!-- n=5 -->
    <g style="fill: #999999" transform="translate(276.259569 45.020212) scale(0.055 -0.055)">
     <use xlink:href="#ArialMT-6e"/>
     <use xlink:href="#ArialMT-3d" transform="translate(55.615234 0)"/>
     <use xlink:href="#ArialMT-35" transform="translate(114.013672 0)"/>
    </g>
   </g>
   <g id="text_31">
    <!-- n=60 -->
    <g style="fill: #999999" transform="translate(296.229525 45.941689) scale(0.055 -0.055)">
     <use xlink:href="#ArialMT-6e"/>
     <use xlink:href="#ArialMT-3d" transform="translate(55.615234 0)"/>
     <use xlink:href="#ArialMT-36" transform="translate(114.013672 0)"/>
     <use xlink:href="#ArialMT-30" transform="translate(169.628906 0)"/>
    </g>
   </g>
  </g>
  <g id="axes_3">
   <g id="patch_8">
    <path d="M 329.062549 166.65525 
L 463.554633 166.65525 
L 463.554633 22.90475 
L 329.062549 22.90475 
z
" style="fill: #ffffff"/>
   </g>
   <g id="line2d_29">
    <path d="M 331.648935 163.890817 
L 460.968247 25.669183 
" clip-path="url(#p6c13d3f3d8)" style="fill: none; stroke-dasharray: 2.22,0.96; stroke-dashoffset: 0; stroke: #bbbbbb; stroke-width: 0.6"/>
   </g>
   <g id="matplotlib.axis_5">
    <g id="xtick_13">
     <g id="line2d_30">
      <g>
       <use xlink:href="#m8f2bc90c0d" x="331.648935" y="166.65525" style="stroke: #000000; stroke-width: 0.8"/>
      </g>
     </g>
     <g id="text_32">
      <!-- 0.0 -->
      <g transform="translate(326.783935 175.165719) scale(0.07 -0.07)">
       <use xlink:href="#ArialMT-30"/>
       <use xlink:href="#ArialMT-2e" transform="translate(55.615234 0)"/>
       <use xlink:href="#ArialMT-30" transform="translate(83.398438 0)"/>
      </g>
     </g>
    </g>
    <g id="xtick_14">
     <g id="line2d_31">
      <g>
       <use xlink:href="#m8f2bc90c0d" x="357.512798" y="166.65525" style="stroke: #000000; stroke-width: 0.8"/>
      </g>
     </g>
     <g id="text_33">
      <!-- 0.2 -->
      <g transform="translate(352.647798 175.165719) scale(0.07 -0.07)">
       <use xlink:href="#ArialMT-30"/>
       <use xlink:href="#ArialMT-2e" transform="translate(55.615234 0)"/>
       <use xlink:href="#ArialMT-32" transform="translate(83.398438 0)"/>
      </g>
     </g>
    </g>
    <g id="xtick_15">
     <g id="line2d_32">
      <g>
       <use xlink:href="#m8f2bc90c0d" x="383.37666" y="166.65525" style="stroke: #000000; stroke-width: 0.8"/>
      </g>
     </g>
     <g id="text_34">
      <!-- 0.4 -->
      <g transform="translate(378.51166 175.165719) scale(0.07 -0.07)">
       <use xlink:href="#ArialMT-30"/>
       <use xlink:href="#ArialMT-2e" transform="translate(55.615234 0)"/>
       <use xlink:href="#ArialMT-34" transform="translate(83.398438 0)"/>
      </g>
     </g>
    </g>
    <g id="xtick_16">
     <g id="line2d_33">
      <g>
       <use xlink:href="#m8f2bc90c0d" x="409.240522" y="166.65525" style="stroke: #000000; stroke-width: 0.8"/>
      </g>
     </g>
     <g id="text_35">
      <!-- 0.6 -->
      <g transform="translate(404.375522 175.165719) scale(0.07 -0.07)">
       <use xlink:href="#ArialMT-30"/>
       <use xlink:href="#ArialMT-2e" transform="translate(55.615234 0)"/>
       <use xlink:href="#ArialMT-36" transform="translate(83.398438 0)"/>
      </g>
     </g>
    </g>
    <g id="xtick_17">
     <g id="line2d_34">
      <g>
       <use xlink:href="#m8f2bc90c0d" x="435.104385" y="166.65525" style="stroke: #000000; stroke-width: 0.8"/>
      </g>
     </g>
     <g id="text_36">
      <!-- 0.8 -->
      <g transform="translate(430.239385 175.165719) scale(0.07 -0.07)">
       <use xlink:href="#ArialMT-30"/>
       <use xlink:href="#ArialMT-2e" transform="translate(55.615234 0)"/>
       <use xlink:href="#ArialMT-38" transform="translate(83.398438 0)"/>
      </g>
     </g>
    </g>
    <g id="xtick_18">
     <g id="line2d_35">
      <g>
       <use xlink:href="#m8f2bc90c0d" x="460.968247" y="166.65525" style="stroke: #000000; stroke-width: 0.8"/>
      </g>
     </g>
     <g id="text_37">
      <!-- 1.0 -->
      <g transform="translate(456.103247 175.165719) scale(0.07 -0.07)">
       <use xlink:href="#ArialMT-31"/>
       <use xlink:href="#ArialMT-2e" transform="translate(55.615234 0)"/>
       <use xlink:href="#ArialMT-30" transform="translate(83.398438 0)"/>
      </g>
     </g>
    </g>
    <g id="text_38">
     <!-- Predicted probability -->
     <g transform="translate(360.068591 186.283219) scale(0.08 -0.08)">
      <use xlink:href="#ArialMT-50"/>
      <use xlink:href="#ArialMT-72" transform="translate(66.699219 0)"/>
      <use xlink:href="#ArialMT-65" transform="translate(100 0)"/>
      <use xlink:href="#ArialMT-64" transform="translate(155.615234 0)"/>
      <use xlink:href="#ArialMT-69" transform="translate(211.230469 0)"/>
      <use xlink:href="#ArialMT-63" transform="translate(233.447266 0)"/>
      <use xlink:href="#ArialMT-74" transform="translate(283.447266 0)"/>
      <use xlink:href="#ArialMT-65" transform="translate(311.230469 0)"/>
      <use xlink:href="#ArialMT-64" transform="translate(366.845703 0)"/>
      <use xlink:href="#ArialMT-20" transform="translate(422.460938 0)"/>
      <use xlink:href="#ArialMT-70" transform="translate(450.244141 0)"/>
      <use xlink:href="#ArialMT-72" transform="translate(505.859375 0)"/>
      <use xlink:href="#ArialMT-6f" transform="translate(539.160156 0)"/>
      <use xlink:href="#ArialMT-62" transform="translate(594.775391 0)"/>
      <use xlink:href="#ArialMT-61" transform="translate(650.390625 0)"/>
      <use xlink:href="#ArialMT-62" transform="translate(706.005859 0)"/>
      <use xlink:href="#ArialMT-69" transform="translate(761.621094 0)"/>
      <use xlink:href="#ArialMT-6c" transform="translate(783.837891 0)"/>
      <use xlink:href="#ArialMT-69" transform="translate(806.054688 0)"/>
      <use xlink:href="#ArialMT-74" transform="translate(828.271484 0)"/>
      <use xlink:href="#ArialMT-79" transform="translate(856.054688 0)"/>
     </g>
    </g>
   </g>
   <g id="matplotlib.axis_6">
    <g id="ytick_13">
     <g id="line2d_36">
      <g>
       <use xlink:href="#md1c7e1430f" x="329.062549" y="163.890817" style="stroke: #000000; stroke-width: 0.8"/>
      </g>
     </g>
    </g>
    <g id="ytick_14">
     <g id="line2d_37">
      <g>
       <use xlink:href="#md1c7e1430f" x="329.062549" y="136.24649" style="stroke: #000000; stroke-width: 0.8"/>
      </g>
     </g>
    </g>
    <g id="ytick_15">
     <g id="line2d_38">
      <g>
       <use xlink:href="#md1c7e1430f" x="329.062549" y="108.602163" style="stroke: #000000; stroke-width: 0.8"/>
      </g>
     </g>
    </g>
    <g id="ytick_16">
     <g id="line2d_39">
      <g>
       <use xlink:href="#md1c7e1430f" x="329.062549" y="80.957837" style="stroke: #000000; stroke-width: 0.8"/>
      </g>
     </g>
    </g>
    <g id="ytick_17">
     <g id="line2d_40">
      <g>
       <use xlink:href="#md1c7e1430f" x="329.062549" y="53.31351" style="stroke: #000000; stroke-width: 0.8"/>
      </g>
     </g>
    </g>
    <g id="ytick_18">
     <g id="line2d_41">
      <g>
       <use xlink:href="#md1c7e1430f" x="329.062549" y="25.669183" style="stroke: #000000; stroke-width: 0.8"/>
      </g>
     </g>
    </g>
   </g>
   <g id="FillBetweenPolyCollection_3">
    <path d="M 332.502133 158.518664 
L 332.502133 163.890817 
L 456.624244 43.242753 
L 456.624244 27.855787 
L 456.624244 27.855787 
L 332.502133 158.518664 
z
" clip-path="url(#p6c13d3f3d8)" style="fill: #117733; fill-opacity: 0.25"/>
   </g>
   <g id="patch_9">
    <path d="M 329.062549 166.65525 
L 329.062549 22.90475 
" style="fill: none; stroke: #000000; stroke-width: 0.6; stroke-linejoin: miter; stroke-linecap: square"/>
   </g>
   <g id="patch_10">
    <path d="M 329.062549 166.65525 
L 463.554633 166.65525 
" style="fill: none; stroke: #000000; stroke-width: 0.6; stroke-linejoin: miter; stroke-linecap: square"/>
   </g>
   <g id="text_39">
    <!-- 48 h -->
    <g transform="translate(388.524216 9.32625) scale(0.08 -0.08)">
     <use xlink:href="#ArialMT-34"/>
     <use xlink:href="#ArialMT-38" transform="translate(55.615234 0)"/>
     <use xlink:href="#ArialMT-20" transform="translate(111.230469 0)"/>
     <use xlink:href="#ArialMT-68" transform="translate(139.013672 0)"/>
    </g>
    <!-- Brier = 0.0269  (n = 166) -->
    <g transform="translate(352.729216 17.90475) scale(0.08 -0.08)">
     <use xlink:href="#ArialMT-42"/>
     <use xlink:href="#ArialMT-72" transform="translate(66.699219 0)"/>
     <use xlink:href="#ArialMT-69" transform="translate(100 0)"/>
     <use xlink:href="#ArialMT-65" transform="translate(122.216797 0)"/>
     <use xlink:href="#ArialMT-72" transform="translate(177.832031 0)"/>
     <use xlink:href="#ArialMT-20" transform="translate(211.132812 0)"/>
     <use xlink:href="#ArialMT-3d" transform="translate(238.916016 0)"/>
     <use xlink:href="#ArialMT-20" transform="translate(297.314453 0)"/>
     <use xlink:href="#ArialMT-30" transform="translate(325.097656 0)"/>
     <use xlink:href="#ArialMT-2e" transform="translate(380.712891 0)"/>
     <use xlink:href="#ArialMT-30" transform="translate(408.496094 0)"/>
     <use xlink:href="#ArialMT-32" transform="translate(464.111328 0)"/>
     <use xlink:href="#ArialMT-36" transform="translate(519.726562 0)"/>
     <use xlink:href="#ArialMT-39" transform="translate(575.341797 0)"/>
     <use xlink:href="#ArialMT-20" transform="translate(630.957031 0)"/>
     <use xlink:href="#ArialMT-20" transform="translate(658.740234 0)"/>
     <use xlink:href="#ArialMT-28" transform="translate(686.523438 0)"/>
     <use xlink:href="#ArialMT-6e" transform="translate(719.824219 0)"/>
     <use xlink:href="#ArialMT-20" transform="translate(775.439453 0)"/>
     <use xlink:href="#ArialMT-3d" transform="translate(803.222656 0)"/>
     <use xlink:href="#ArialMT-20" transform="translate(861.621094 0)"/>
     <use xlink:href="#ArialMT-31" transform="translate(889.404297 0)"/>
     <use xlink:href="#ArialMT-36" transform="translate(945.019531 0)"/>
     <use xlink:href="#ArialMT-36" transform="translate(1000.634766 0)"/>
     <use xlink:href="#ArialMT-29" transform="translate(1056.25 0)"/>
    </g>
   </g>
   <g id="line2d_42">
    <path d="M 332.502133 163.890817 
L 456.624244 32.048643 
" clip-path="url(#p6c13d3f3d8)" style="fill: none; stroke: #117733; stroke-width: 1.2; stroke-linecap: square"/>
    <defs>
     <path id="m50a0301f48" d="M 0 2.5 
C 0.663008 2.5 1.29895 2.236584 1.767767 1.767767 
C 2.236584 1.29895 2.5 0.663008 2.5 0 
C 2.5 -0.663008 2.236584 -1.29895 1.767767 -1.767767 
C 1.29895 -2.236584 0.663008 -2.5 0 -2.5 
C -0.663008 -2.5 -1.29895 -2.236584 -1.767767 -1.767767 
C -2.236584 -1.29895 -2.5 -0.663008 -2.5 0 
C -2.5 0.663008 -2.236584 1.29895 -1.767767 1.767767 
C -1.29895 2.236584 -0.663008 2.5 0 2.5 
z
" style="stroke: #ffffff; stroke-width: 0.5"/>
    </defs>
    <g clip-path="url(#p6c13d3f3d8)">
     <use xlink:href="#m50a0301f48" x="332.502133" y="163.890817" style="fill: #117733; stroke: #ffffff; stroke-width: 0.5"/>
     <use xlink:href="#m50a0301f48" x="456.624244" y="32.048643" style="fill: #117733; stroke: #ffffff; stroke-width: 0.5"/>
    </g>
   </g>
   <g id="text_40">
    <!-- n=95 -->
    <g style="fill: #999999" transform="translate(326.308187 155.597519) scale(0.055 -0.055)">
     <use xlink:href="#ArialMT-6e"/>
     <use xlink:href="#ArialMT-3d" transform="translate(55.615234 0)"/>
     <use xlink:href="#ArialMT-39" transform="translate(114.013672 0)"/>
     <use xlink:href="#ArialMT-35" transform="translate(169.628906 0)"/>
    </g>
   </g>
   <g id="text_41">
    <!-- n=65 -->
    <g style="fill: #999999" transform="translate(450.430299 43.106374) scale(0.055 -0.055)">
     <use xlink:href="#ArialMT-6e"/>
     <use xlink:href="#ArialMT-3d" transform="translate(55.615234 0)"/>
     <use xlink:href="#ArialMT-36" transform="translate(114.013672 0)"/>
     <use xlink:href="#ArialMT-35" transform="translate(169.628906 0)"/>
    </g>
   </g>
  </g>
  <g id="axes_4">
   <g id="patch_11">
    <path d="M 30.732636 166.65525 
L 56.596499 166.65525 
L 56.596499 9.275454 
L 30.732636 9.275454 
z
" clip-path="url(#p1bf6b63751)" style="fill: #cc4466; opacity: 0.18"/>
   </g>
   <g id="patch_12">
    <path d="M 56.596499 166.65525 
L 82.460361 166.65525 
L 82.460361 156.368989 
L 56.596499 156.368989 
z
" clip-path="url(#p1bf6b63751)" style="fill: #cc4466; opacity: 0.18"/>
   </g>
   <g id="patch_13">
    <path d="M 82.460361 166.65525 
L 108.324223 166.65525 
L 108.324223 161.512119 
L 82.460361 161.512119 
z
" clip-path="url(#p1bf6b63751)" style="fill: #cc4466; opacity: 0.18"/>
   </g>
   <g id="patch_14">
    <path d="M 108.324223 166.65525 
L 134.188086 166.65525 
L 134.188086 151.225858 
L 108.324223 151.225858 
z
" clip-path="url(#p1bf6b63751)" style="fill: #cc4466; opacity: 0.18"/>
   </g>
   <g id="patch_15">
    <path d="M 134.188086 166.65525 
L 160.051948 166.65525 
L 160.051948 133.739214 
L 134.188086 133.739214 
z
" clip-path="url(#p1bf6b63751)" style="fill: #cc4466; opacity: 0.18"/>
   </g>
   <g id="matplotlib.axis_7"/>
   <g id="patch_16">
    <path d="M 28.14625 166.65525 
L 28.14625 22.90475 
" style="fill: none; stroke: #000000; stroke-width: 0.6; stroke-linejoin: miter; stroke-linecap: square"/>
   </g>
   <g id="patch_17">
    <path d="M 28.14625 166.65525 
L 162.638334 166.65525 
" style="fill: none; stroke: #000000; stroke-width: 0.6; stroke-linejoin: miter; stroke-linecap: square"/>
   </g>
  </g>
  <g id="axes_5">
   <g id="patch_18">
    <path d="M 181.190786 166.65525 
L 202.744004 166.65525 
L 202.744004 24.484426 
L 181.190786 24.484426 
z
" clip-path="url(#pdf6471ffec)" style="fill: #3366aa; opacity: 0.18"/>
   </g>
   <g id="patch_19">
    <path d="M 202.744004 166.65525 
L 224.297223 166.65525 
L 224.297223 165.52691 
L 202.744004 165.52691 
z
" clip-path="url(#pdf6471ffec)" style="fill: #3366aa; opacity: 0.18"/>
   </g>
   <g id="patch_20">
    <path d="M 224.297223 166.65525 
L 245.850442 166.65525 
L 245.850442 164.39857 
L 224.297223 164.39857 
z
" clip-path="url(#pdf6471ffec)" style="fill: #3366aa; opacity: 0.18"/>
   </g>
   <g id="patch_21">
    <path d="M 245.850442 166.65525 
L 267.40366 166.65525 
L 267.40366 164.39857 
L 245.850442 164.39857 
z
" clip-path="url(#pdf6471ffec)" style="fill: #3366aa; opacity: 0.18"/>
   </g>
   <g id="patch_22">
    <path d="M 267.40366 166.65525 
L 288.956879 166.65525 
L 288.956879 161.013551 
L 267.40366 161.013551 
z
" clip-path="url(#pdf6471ffec)" style="fill: #3366aa; opacity: 0.18"/>
   </g>
   <g id="patch_23">
    <path d="M 288.956879 166.65525 
L 310.510098 166.65525 
L 310.510098 98.954858 
L 288.956879 98.954858 
z
" clip-path="url(#pdf6471ffec)" style="fill: #3366aa; opacity: 0.18"/>
   </g>
   <g id="matplotlib.axis_8"/>
   <g id="patch_24">
    <path d="M 178.6044 166.65525 
L 178.6044 22.90475 
" style="fill: none; stroke: #000000; stroke-width: 0.6; stroke-linejoin: miter; stroke-linecap: square"/>
   </g>
   <g id="patch_25">
    <path d="M 178.6044 166.65525 
L 313.096484 166.65525 
" style="fill: none; stroke: #000000; stroke-width: 0.6; stroke-linejoin: miter; stroke-linecap: square"/>
   </g>
  </g>
  <g id="axes_6">
   <g id="patch_26">
    <path d="M 331.648935 166.65525 
L 353.202154 166.65525 
L 353.202154 40.090862 
L 331.648935 40.090862 
z
" clip-path="url(#p6c13d3f3d8)" style="fill: #117733; opacity: 0.18"/>
   </g>
   <g id="patch_27">
    <path d="M 353.202154 166.65525 
L 374.755373 166.65525 
L 374.755373 165.322993 
L 353.202154 165.322993 
z
" clip-path="url(#p6c13d3f3d8)" style="fill: #117733; opacity: 0.18"/>
   </g>
   <g id="patch_28">
    <path d="M 374.755373 166.65525 
L 396.308591 166.65525 
L 396.308591 163.990737 
L 374.755373 163.990737 
z
" clip-path="url(#p6c13d3f3d8)" style="fill: #117733; opacity: 0.18"/>
   </g>
   <g id="patch_29">
    <path d="M 396.308591 166.65525 
L 417.86181 166.65525 
L 417.86181 165.322993 
L 396.308591 165.322993 
z
" clip-path="url(#p6c13d3f3d8)" style="fill: #117733; opacity: 0.18"/>
   </g>
   <g id="patch_30">
    <path d="M 417.86181 166.65525 
L 439.415029 166.65525 
L 439.415029 163.990737 
L 417.86181 163.990737 
z
" clip-path="url(#p6c13d3f3d8)" style="fill: #117733; opacity: 0.18"/>
   </g>
   <g id="patch_31">
    <path d="M 439.415029 166.65525 
L 460.968247 166.65525 
L 460.968247 80.058563 
L 439.415029 80.058563 
z
" clip-path="url(#p6c13d3f3d8)" style="fill: #117733; opacity: 0.18"/>
   </g>
   <g id="matplotlib.axis_9"/>
   <g id="patch_32">
    <path d="M 329.062549 166.65525 
L 329.062549 22.90475 
" style="fill: none; stroke: #000000; stroke-width: 0.6; stroke-linejoin: miter; stroke-linecap: square"/>
   </g>
   <g id="patch_33">
    <path d="M 329.062549 166.65525 
L 463.554633 166.65525 
" style="fill: none; stroke: #000000; stroke-width: 0.6; stroke-linejoin: miter; stroke-linecap: square"/>
   </g>
  </g>
 </g>
 <defs>
  <clipPath id="p1bf6b63751">
   <rect x="28.14625" y="22.90475" width="134.492084" height="143.7505"/>
  </clipPath>
  <clipPath id="pdf6471ffec">
   <rect x="178.6044" y="22.90475" width="134.492084" height="143.7505"/>
  </clipPath>
  <clipPath id="p6c13d3f3d8">
   <rect x="329.062549" y="22.90475" width="134.492084" height="143.7505"/>
  </clipPath>
 </defs>
</svg>
