<?xml version="1.0" encoding="utf-8" standalone="no"?>
<!DOCTYPE svg PUBLIC "-//W3C//DTD SVG 1.1//EN"
  "http://www.w3.org/Graphics/SVG/1.1/DTD/svg11.dtd">
<svg xmlns:xlink="http://www.w3.org/1999/xlink" width="396.068886pt" height="184.643592pt" viewBox="0 0 396.068886 184.643592" xmlns="http://www.w3.org/2000/svg" version="1.1">
 <metadata>
  <rdf:RDF xmlns:dc="http://purl.org/dc/elements/1.1/" xmlns:cc="http://creativecommons.org/ns#" xmlns:rdf="http://www.w3.org/1999/02/22-rdf-syntax-ns#">
   <cc:Work>
    <dc:type rdf:resource="http://purl.org/dc/dcmitype/StillImage"/>
    <dc:date>2026-04-01T22:53:44.369941</dc:date>
    <dc:format>image/svg+xml</dc:format>
    <dc:creator>
     <cc:Agent>
      <dc:title>Matplotlib v3.10.5, https://matplotlib.org/</dc:title>
     </cc:Agent>
    </dc:creator>
   </cc:Work>
  </rdf:RDF>
 </metadata>
 <defs>
  <style type="text/css">*{stroke-linejoin: round; stroke-linecap: butt}</style>
 </defs>
 <g id="figure_1">
  <g id="patch_1">
   <path d="M 0 184.643592 
L 396.068886 184.643592 
L 396.068886 0 
L 0 0 
z
" style="fill: #ffffff"/>
  </g>
  <g id="axes_1">
   <g id="FillBetweenPolyCollection_1">
    <defs>
     <path id="m62ca624a98" d="M 141.583103 -150.25728 
L 141.583103 -131.33376 
L 202.696278 -131.33376 
L 202.696278 -150.25728 
L 202.696278 -150.25728 
L 141.583103 -150.25728 
z
" style="stroke: #cc4466; stroke-opacity: 0.1; stroke-width: 0.6"/>
    </defs>
    <g clip-path="url(#pc5a7ab1b48)">
     <use xlink:href="#m62ca624a98" x="0" y="184.643592" style="fill: #cc4466; fill-opacity: 0.1; stroke: #cc4466; stroke-opacity: 0.1; stroke-width: 0.6"/>
    </g>
   </g>
   <g id="FillBetweenPolyCollection_2">
    <defs>
     <path id="mfbc7033629" d="M 202.696278 -150.25728 
L 202.696278 -131.33376 
L 261.546002 -131.33376 
L 261.546002 -150.25728 
L 261.546002 -150.25728 
L 202.696278 -150.25728 
z
" style="stroke: #3366aa; stroke-opacity: 0.1; stroke-width: 0.6"/>
    </defs>
    <g clip-path="url(#pc5a7ab1b48)">
     <use xlink:href="#mfbc7033629" x="0" y="184.643592" style="fill: #3366aa; fill-opacity: 0.1; stroke: #3366aa; stroke-opacity: 0.1; stroke-width: 0.6"/>
    </g>
   </g>
   <g id="FillBetweenPolyCollection_3">
    <defs>
     <path id="mda2c6d7066" d="M 261.546002 -150.25728 
L 261.546002 -131.33376 
L 352.084038 -131.33376 
L 352.084038 -150.25728 
L 352.084038 -150.25728 
L 261.546002 -150.25728 
z
" style="stroke: #117733; stroke-opacity: 0.1; stroke-width: 0.6"/>
    </defs>
    <g clip-path="url(#pc5a7ab1b48)">
     <use xlink:href="#mda2c6d7066" x="0" y="184.643592" style="fill: #117733; fill-opacity: 0.1; stroke: #117733; stroke-opacity: 0.1; stroke-width: 0.6"/>
    </g>
   </g>
   <g id="patch_2">
    <path d="M 34.937476 43.848072 
Q 203.828671 43.848072 371.601831 43.848072 
" style="fill: none; stroke: #555555; stroke-linecap: round"/>
    <path d="M 366.801831 41.448072 
L 371.601831 43.848072 
L 366.801831 46.248072 
z
" style="fill: #555555; stroke: #555555; stroke-linecap: round"/>
   </g>
   <g id="text_1">
    <!-- time -->
    <g style="fill: #777777" transform="translate(379.245449 45.657681) scale(0.07 -0.07)">
     <defs>
      <path id="Arial-ItalicMT-74" d="M 1534 459 
L 1441 -3 
Q 1238 -56 1047 -56 
Q 709 -56 509 109 
Q 359 234 359 450 
Q 359 559 441 953 
L 844 2881 
L 397 2881 
L 488 3319 
L 934 3319 
L 1106 4134 
L 1753 4525 
L 1500 3319 
L 2056 3319 
L 1963 2881 
L 1409 2881 
L 1025 1047 
Q 953 697 953 628 
Q 953 528 1011 475 
Q 1069 422 1200 422 
Q 1388 422 1534 459 
z
" transform="scale(0.015625)"/>
      <path id="Arial-ItalicMT-69" d="M 1016 3941 
L 1150 4581 
L 1713 4581 
L 1578 3941 
L 1016 3941 
z
M 191 0 
L 884 3319 
L 1450 3319 
L 756 0 
L 191 0 
z
" transform="scale(0.015625)"/>
      <path id="Arial-ItalicMT-6d" d="M 209 0 
L 903 3319 
L 1469 3319 
L 1353 2772 
Q 1669 3125 1917 3259 
Q 2166 3394 2456 3394 
Q 2766 3394 2973 3230 
Q 3181 3066 3247 2772 
Q 3500 3084 3779 3239 
Q 4059 3394 4369 3394 
Q 4784 3394 4992 3197 
Q 5200 3000 5200 2644 
Q 5200 2491 5128 2138 
L 4681 0 
L 4116 0 
L 4572 2194 
Q 4631 2463 4631 2578 
Q 4631 2741 4528 2834 
Q 4425 2928 4238 2928 
Q 3984 2928 3721 2775 
Q 3459 2622 3314 2373 
Q 3169 2125 3059 1609 
L 2722 0 
L 2156 0 
L 2625 2241 
Q 2675 2469 2675 2566 
Q 2675 2728 2573 2828 
Q 2472 2928 2309 2928 
Q 2069 2928 1805 2775 
Q 1541 2622 1375 2348 
Q 1209 2075 1103 1569 
L 775 0 
L 209 0 
z
" transform="scale(0.015625)"/>
      <path id="Arial-ItalicMT-65" d="M 2650 1128 
L 3200 1072 
Q 3081 663 2654 294 
Q 2228 -75 1638 -75 
Q 1269 -75 961 95 
Q 653 266 492 591 
Q 331 916 331 1331 
Q 331 1875 582 2386 
Q 834 2897 1234 3145 
Q 1634 3394 2100 3394 
Q 2694 3394 3048 3025 
Q 3403 2656 3403 2019 
Q 3403 1775 3359 1519 
L 916 1519 
Q 903 1422 903 1344 
Q 903 878 1117 633 
Q 1331 388 1641 388 
Q 1931 388 2212 578 
Q 2494 769 2650 1128 
z
M 1006 1950 
L 2869 1950 
Q 2872 2038 2872 2075 
Q 2872 2500 2659 2726 
Q 2447 2953 2113 2953 
Q 1750 2953 1451 2703 
Q 1153 2453 1006 1950 
z
" transform="scale(0.015625)"/>
     </defs>
     <use xlink:href="#Arial-ItalicMT-74"/>
     <use xlink:href="#Arial-ItalicMT-69" transform="translate(27.783203 0)"/>
     <use xlink:href="#Arial-ItalicMT-6d" transform="translate(50 0)"/>
     <use xlink:href="#Arial-ItalicMT-65" transform="translate(133.300781 0)"/>
    </g>
   </g>
   <g id="patch_3">
    <path d="M 62.362322 55.202184 
L 141.583103 55.202184 
Q 143.393864 55.202184 143.393864 53.309832 
L 143.393864 34.386312 
Q 143.393864 32.49396 141.583103 32.49396 
L 62.362322 32.49396 
Q 60.551561 32.49396 60.551561 34.386312 
L 60.551561 53.309832 
Q 60.551561 55.202184 62.362322 55.202184 
z
" clip-path="url(#pc5a7ab1b48)" style="fill: #e3f2fd; opacity: 0.85; stroke: #1565c0; stroke-linejoin: miter"/>
   </g>
   <g id="text_2">
    <!-- $t_0$ -->
    <g style="fill: #cc3311" transform="translate(59.597322 65.84924) scale(0.07 -0.07)">
     <defs>
      <path id="Arial-BoldMT-74" d="M 1981 3319 
L 1981 2619 
L 1381 2619 
L 1381 1281 
Q 1381 875 1398 808 
Q 1416 741 1477 697 
Q 1538 653 1625 653 
Q 1747 653 1978 738 
L 2053 56 
Q 1747 -75 1359 -75 
Q 1122 -75 931 4 
Q 741 84 652 211 
Q 563 338 528 553 
Q 500 706 500 1172 
L 500 2619 
L 97 2619 
L 97 3319 
L 500 3319 
L 500 3978 
L 1381 4491 
L 1381 3319 
L 1981 3319 
z
" transform="scale(0.015625)"/>
      <path id="Arial-BoldMT-30" d="M 1756 4600 
Q 2422 4600 2797 4125 
Q 3244 3563 3244 2259 
Q 3244 959 2794 391 
Q 2422 -78 1756 -78 
Q 1088 -78 678 436 
Q 269 950 269 2269 
Q 269 3563 719 4131 
Q 1091 4600 1756 4600 
z
M 1756 3872 
Q 1597 3872 1472 3770 
Q 1347 3669 1278 3406 
Q 1188 3066 1188 2259 
Q 1188 1453 1269 1151 
Q 1350 850 1473 750 
Q 1597 650 1756 650 
Q 1916 650 2041 751 
Q 2166 853 2234 1116 
Q 2325 1453 2325 2259 
Q 2325 3066 2244 3367 
Q 2163 3669 2039 3770 
Q 1916 3872 1756 3872 
z
" transform="scale(0.015625)"/>
     </defs>
     <use xlink:href="#Arial-BoldMT-74" transform="translate(0 0.828125)"/>
     <use xlink:href="#Arial-BoldMT-30" transform="translate(35.043125 -29.040625) scale(0.7)"/>
    </g>
    <!-- (ignition) -->
    <g style="fill: #cc3311" transform="translate(47.398181 74.643756) scale(0.07 -0.07)">
     <defs>
      <path id="Arial-BoldMT-28" d="M 1916 -1347 
L 1313 -1347 
Q 834 -625 584 153 
Q 334 931 334 1659 
Q 334 2563 644 3369 
Q 913 4069 1325 4659 
L 1925 4659 
Q 1497 3713 1336 3048 
Q 1175 2384 1175 1641 
Q 1175 1128 1270 590 
Q 1366 53 1531 -431 
Q 1641 -750 1916 -1347 
z
" transform="scale(0.015625)"/>
      <path id="Arial-BoldMT-69" d="M 459 3769 
L 459 4581 
L 1338 4581 
L 1338 3769 
L 459 3769 
z
M 459 0 
L 459 3319 
L 1338 3319 
L 1338 0 
L 459 0 
z
" transform="scale(0.015625)"/>
      <path id="Arial-BoldMT-67" d="M 378 -219 
L 1381 -341 
Q 1406 -516 1497 -581 
Q 1622 -675 1891 -675 
Q 2234 -675 2406 -572 
Q 2522 -503 2581 -350 
Q 2622 -241 2622 53 
L 2622 538 
Q 2228 0 1628 0 
Q 959 0 569 566 
Q 263 1013 263 1678 
Q 263 2513 664 2953 
Q 1066 3394 1663 3394 
Q 2278 3394 2678 2853 
L 2678 3319 
L 3500 3319 
L 3500 341 
Q 3500 -247 3403 -537 
Q 3306 -828 3131 -993 
Q 2956 -1159 2664 -1253 
Q 2372 -1347 1925 -1347 
Q 1081 -1347 728 -1058 
Q 375 -769 375 -325 
Q 375 -281 378 -219 
z
M 1163 1728 
Q 1163 1200 1367 954 
Q 1572 709 1872 709 
Q 2194 709 2416 961 
Q 2638 1213 2638 1706 
Q 2638 2222 2425 2472 
Q 2213 2722 1888 2722 
Q 1572 2722 1367 2476 
Q 1163 2231 1163 1728 
z
" transform="scale(0.015625)"/>
      <path id="Arial-BoldMT-6e" d="M 3478 0 
L 2600 0 
L 2600 1694 
Q 2600 2231 2544 2389 
Q 2488 2547 2361 2634 
Q 2234 2722 2056 2722 
Q 1828 2722 1647 2597 
Q 1466 2472 1398 2265 
Q 1331 2059 1331 1503 
L 1331 0 
L 453 0 
L 453 3319 
L 1269 3319 
L 1269 2831 
Q 1703 3394 2363 3394 
Q 2653 3394 2893 3289 
Q 3134 3184 3257 3021 
Q 3381 2859 3429 2653 
Q 3478 2447 3478 2063 
L 3478 0 
z
" transform="scale(0.015625)"/>
      <path id="Arial-BoldMT-6f" d="M 256 1706 
Q 256 2144 472 2553 
Q 688 2963 1083 3178 
Q 1478 3394 1966 3394 
Q 2719 3394 3200 2905 
Q 3681 2416 3681 1669 
Q 3681 916 3195 420 
Q 2709 -75 1972 -75 
Q 1516 -75 1102 131 
Q 688 338 472 736 
Q 256 1134 256 1706 
z
M 1156 1659 
Q 1156 1166 1390 903 
Q 1625 641 1969 641 
Q 2313 641 2545 903 
Q 2778 1166 2778 1666 
Q 2778 2153 2545 2415 
Q 2313 2678 1969 2678 
Q 1625 2678 1390 2415 
Q 1156 2153 1156 1659 
z
" transform="scale(0.015625)"/>
      <path id="Arial-BoldMT-29" d="M 216 -1347 
Q 475 -791 581 -494 
Q 688 -197 778 190 
Q 869 578 912 926 
Q 956 1275 956 1641 
Q 956 2384 797 3048 
Q 638 3713 209 4659 
L 806 4659 
Q 1278 3988 1539 3234 
Q 1800 2481 1800 1706 
Q 1800 1053 1594 306 
Q 1359 -531 822 -1347 
L 216 -1347 
z
" transform="scale(0.015625)"/>
     </defs>
     <use xlink:href="#Arial-BoldMT-28"/>
     <use xlink:href="#Arial-BoldMT-69" transform="translate(33.300781 0)"/>
     <use xlink:href="#Arial-BoldMT-67" transform="translate(61.083984 0)"/>
     <use xlink:href="#Arial-BoldMT-6e" transform="translate(122.167969 0)"/>
     <use xlink:href="#Arial-BoldMT-69" transform="translate(183.251953 0)"/>
     <use xlink:href="#Arial-BoldMT-74" transform="translate(211.035156 0)"/>
     <use xlink:href="#Arial-BoldMT-69" transform="translate(244.335938 0)"/>
     <use xlink:href="#Arial-BoldMT-6f" transform="translate(272.119141 0)"/>
     <use xlink:href="#Arial-BoldMT-6e" transform="translate(333.203125 0)"/>
     <use xlink:href="#Arial-BoldMT-29" transform="translate(394.287109 0)"/>
    </g>
   </g>
   <g id="text_3">
    <!-- $t_p = t_0 + 5$ h -->
    <g style="fill: #e65100" transform="translate(125.300603 65.55924) scale(0.065 -0.065)">
     <defs>
      <path id="Arial-BoldMT-70" d="M 434 3319 
L 1253 3319 
L 1253 2831 
Q 1413 3081 1684 3237 
Q 1956 3394 2288 3394 
Q 2866 3394 3269 2941 
Q 3672 2488 3672 1678 
Q 3672 847 3265 386 
Q 2859 -75 2281 -75 
Q 2006 -75 1782 34 
Q 1559 144 1313 409 
L 1313 -1263 
L 434 -1263 
L 434 3319 
z
M 1303 1716 
Q 1303 1156 1525 889 
Q 1747 622 2066 622 
Q 2372 622 2575 867 
Q 2778 1113 2778 1672 
Q 2778 2194 2568 2447 
Q 2359 2700 2050 2700 
Q 1728 2700 1515 2451 
Q 1303 2203 1303 1716 
z
" transform="scale(0.015625)"/>
      <path id="Arial-BoldMT-3d" d="M 266 2550 
L 266 3356 
L 3469 3356 
L 3469 2550 
L 266 2550 
z
M 266 1163 
L 266 1972 
L 3469 1972 
L 3469 1163 
L 266 1163 
z
" transform="scale(0.015625)"/>
      <path id="Arial-BoldMT-2b" d="M 1466 659 
L 1466 1850 
L 266 1850 
L 266 2672 
L 1466 2672 
L 1466 3863 
L 2266 3863 
L 2266 2672 
L 3469 2672 
L 3469 1850 
L 2266 1850 
L 2266 659 
L 1466 659 
z
" transform="scale(0.015625)"/>
      <path id="Arial-BoldMT-35" d="M 284 1178 
L 1159 1269 
Q 1197 972 1381 798 
Q 1566 625 1806 625 
Q 2081 625 2272 848 
Q 2463 1072 2463 1522 
Q 2463 1944 2273 2155 
Q 2084 2366 1781 2366 
Q 1403 2366 1103 2031 
L 391 2134 
L 841 4519 
L 3163 4519 
L 3163 3697 
L 1506 3697 
L 1369 2919 
Q 1663 3066 1969 3066 
Q 2553 3066 2959 2641 
Q 3366 2216 3366 1538 
Q 3366 972 3038 528 
Q 2591 -78 1797 -78 
Q 1163 -78 763 262 
Q 363 603 284 1178 
z
" transform="scale(0.015625)"/>
      <path id="Arial-BoldMT-20" transform="scale(0.015625)"/>
      <path id="Arial-BoldMT-68" d="M 1334 4581 
L 1334 2897 
Q 1759 3394 2350 3394 
Q 2653 3394 2897 3281 
Q 3141 3169 3264 2994 
Q 3388 2819 3433 2606 
Q 3478 2394 3478 1947 
L 3478 0 
L 2600 0 
L 2600 1753 
Q 2600 2275 2550 2415 
Q 2500 2556 2373 2639 
Q 2247 2722 2056 2722 
Q 1838 2722 1666 2615 
Q 1494 2509 1414 2295 
Q 1334 2081 1334 1663 
L 1334 0 
L 456 0 
L 456 4581 
L 1334 4581 
z
" transform="scale(0.015625)"/>
     </defs>
     <use xlink:href="#Arial-BoldMT-74" transform="translate(0 0.421875)"/>
     <use xlink:href="#Arial-BoldMT-70" transform="translate(35.043125 -29.446875) scale(0.7)"/>
     <use xlink:href="#Arial-BoldMT-3d" transform="translate(102.262461 0.421875)"/>
     <use xlink:href="#Arial-BoldMT-74" transform="translate(180.14332 0.421875)"/>
     <use xlink:href="#Arial-BoldMT-30" transform="translate(215.186445 -29.446875) scale(0.7)"/>
     <use xlink:href="#Arial-BoldMT-2b" transform="translate(278.577656 0.421875)"/>
     <use xlink:href="#Arial-BoldMT-35" transform="translate(356.458516 0.421875)"/>
     <use xlink:href="#Arial-BoldMT-20" transform="translate(412.07375 0.421875)"/>
     <use xlink:href="#Arial-BoldMT-68" transform="translate(439.856953 0.421875)"/>
    </g>
    <!-- (prediction time) -->
    <g style="fill: #e65100" transform="translate(116.125955 74.570576) scale(0.065 -0.065)">
     <defs>
      <path id="Arial-BoldMT-72" d="M 1300 0 
L 422 0 
L 422 3319 
L 1238 3319 
L 1238 2847 
Q 1447 3181 1614 3287 
Q 1781 3394 1994 3394 
Q 2294 3394 2572 3228 
L 2300 2463 
Q 2078 2606 1888 2606 
Q 1703 2606 1575 2504 
Q 1447 2403 1373 2137 
Q 1300 1872 1300 1025 
L 1300 0 
z
" transform="scale(0.015625)"/>
      <path id="Arial-BoldMT-65" d="M 2381 1056 
L 3256 909 
Q 3088 428 2723 176 
Q 2359 -75 1813 -75 
Q 947 -75 531 491 
Q 203 944 203 1634 
Q 203 2459 634 2926 
Q 1066 3394 1725 3394 
Q 2466 3394 2894 2905 
Q 3322 2416 3303 1406 
L 1103 1406 
Q 1113 1016 1316 798 
Q 1519 581 1822 581 
Q 2028 581 2168 693 
Q 2309 806 2381 1056 
z
M 2431 1944 
Q 2422 2325 2234 2523 
Q 2047 2722 1778 2722 
Q 1491 2722 1303 2513 
Q 1116 2303 1119 1944 
L 2431 1944 
z
" transform="scale(0.015625)"/>
      <path id="Arial-BoldMT-64" d="M 3503 0 
L 2688 0 
L 2688 488 
Q 2484 203 2207 64 
Q 1931 -75 1650 -75 
Q 1078 -75 670 386 
Q 263 847 263 1672 
Q 263 2516 659 2955 
Q 1056 3394 1663 3394 
Q 2219 3394 2625 2931 
L 2625 4581 
L 3503 4581 
L 3503 0 
z
M 1159 1731 
Q 1159 1200 1306 963 
Q 1519 619 1900 619 
Q 2203 619 2415 876 
Q 2628 1134 2628 1647 
Q 2628 2219 2422 2470 
Q 2216 2722 1894 2722 
Q 1581 2722 1370 2473 
Q 1159 2225 1159 1731 
z
" transform="scale(0.015625)"/>
      <path id="Arial-BoldMT-63" d="M 3353 2338 
L 2488 2181 
Q 2444 2441 2289 2572 
Q 2134 2703 1888 2703 
Q 1559 2703 1364 2476 
Q 1169 2250 1169 1719 
Q 1169 1128 1367 884 
Q 1566 641 1900 641 
Q 2150 641 2309 783 
Q 2469 925 2534 1272 
L 3397 1125 
Q 3263 531 2881 228 
Q 2500 -75 1859 -75 
Q 1131 -75 698 384 
Q 266 844 266 1656 
Q 266 2478 700 2936 
Q 1134 3394 1875 3394 
Q 2481 3394 2839 3133 
Q 3197 2872 3353 2338 
z
" transform="scale(0.015625)"/>
      <path id="Arial-BoldMT-6d" d="M 394 3319 
L 1203 3319 
L 1203 2866 
Q 1638 3394 2238 3394 
Q 2556 3394 2790 3262 
Q 3025 3131 3175 2866 
Q 3394 3131 3647 3262 
Q 3900 3394 4188 3394 
Q 4553 3394 4806 3245 
Q 5059 3097 5184 2809 
Q 5275 2597 5275 2122 
L 5275 0 
L 4397 0 
L 4397 1897 
Q 4397 2391 4306 2534 
Q 4184 2722 3931 2722 
Q 3747 2722 3584 2609 
Q 3422 2497 3350 2280 
Q 3278 2063 3278 1594 
L 3278 0 
L 2400 0 
L 2400 1819 
Q 2400 2303 2353 2443 
Q 2306 2584 2207 2653 
Q 2109 2722 1941 2722 
Q 1738 2722 1575 2612 
Q 1413 2503 1342 2297 
Q 1272 2091 1272 1613 
L 1272 0 
L 394 0 
L 394 3319 
z
" transform="scale(0.015625)"/>
     </defs>
     <use xlink:href="#Arial-BoldMT-28"/>
     <use xlink:href="#Arial-BoldMT-70" transform="translate(33.300781 0)"/>
     <use xlink:href="#Arial-BoldMT-72" transform="translate(94.384766 0)"/>
     <use xlink:href="#Arial-BoldMT-65" transform="translate(133.300781 0)"/>
     <use xlink:href="#Arial-BoldMT-64" transform="translate(188.916016 0)"/>
     <use xlink:href="#Arial-BoldMT-69" transform="translate(250 0)"/>
     <use xlink:href="#Arial-BoldMT-63" transform="translate(277.783203 0)"/>
     <use xlink:href="#Arial-BoldMT-74" transform="translate(333.398438 0)"/>
     <use xlink:href="#Arial-BoldMT-69" transform="translate(366.699219 0)"/>
     <use xlink:href="#Arial-BoldMT-6f" transform="translate(394.482422 0)"/>
     <use xlink:href="#Arial-BoldMT-6e" transform="translate(455.566406 0)"/>
     <use xlink:href="#Arial-BoldMT-20" transform="translate(516.650391 0)"/>
     <use xlink:href="#Arial-BoldMT-74" transform="translate(544.433594 0)"/>
     <use xlink:href="#Arial-BoldMT-69" transform="translate(577.734375 0)"/>
     <use xlink:href="#Arial-BoldMT-6d" transform="translate(605.517578 0)"/>
     <use xlink:href="#Arial-BoldMT-65" transform="translate(694.433594 0)"/>
     <use xlink:href="#Arial-BoldMT-29" transform="translate(750.048828 0)"/>
    </g>
   </g>
   <g id="patch_4">
    <path d="M 144.366797 15.462792 
Q 246.833538 15.462792 349.300279 15.462792 
" style="fill: none; stroke: #666666; stroke-width: 0.7; stroke-linecap: round"/>
    <path d="M 147.566797 17.062792 
L 144.366797 15.462792 
L 147.566797 13.862792 
" style="fill: none; stroke: #666666; stroke-width: 0.7; stroke-linecap: round"/>
    <path d="M 346.100279 13.862792 
L 349.300279 15.462792 
L 346.100279 17.062792 
" style="fill: none; stroke: #666666; stroke-width: 0.7; stroke-linecap: round"/>
   </g>
   <g id="text_4">
    <!-- Horizons measured from $t_p$ -->
    <g style="fill: #555555" transform="translate(207.931071 8.345) scale(0.065 -0.065)">
     <defs>
      <path id="Arial-ItalicMT-48" d="M 269 0 
L 1228 4581 
L 1838 4581 
L 1441 2678 
L 3816 2678 
L 4213 4581 
L 4825 4581 
L 3869 0 
L 3256 0 
L 3706 2159 
L 1334 2159 
L 881 0 
L 269 0 
z
" transform="scale(0.015625)"/>
      <path id="Arial-ItalicMT-6f" d="M 313 1259 
Q 313 2231 884 2869 
Q 1356 3394 2122 3394 
Q 2722 3394 3089 3019 
Q 3456 2644 3456 2006 
Q 3456 1434 3225 942 
Q 2994 450 2567 187 
Q 2141 -75 1669 -75 
Q 1281 -75 964 90 
Q 647 256 480 559 
Q 313 863 313 1259 
z
M 878 1316 
Q 878 847 1103 605 
Q 1328 363 1675 363 
Q 1856 363 2034 436 
Q 2213 509 2366 659 
Q 2519 809 2626 1001 
Q 2734 1194 2800 1416 
Q 2897 1725 2897 2009 
Q 2897 2459 2670 2707 
Q 2444 2956 2100 2956 
Q 1834 2956 1615 2829 
Q 1397 2703 1220 2459 
Q 1044 2216 961 1892 
Q 878 1569 878 1316 
z
" transform="scale(0.015625)"/>
      <path id="Arial-ItalicMT-72" d="M 213 0 
L 906 3319 
L 1406 3319 
L 1266 2641 
Q 1522 3025 1767 3209 
Q 2013 3394 2269 3394 
Q 2438 3394 2684 3272 
L 2453 2747 
Q 2306 2853 2131 2853 
Q 1834 2853 1521 2522 
Q 1209 2191 1031 1331 
L 750 0 
L 213 0 
z
" transform="scale(0.015625)"/>
      <path id="Arial-ItalicMT-7a" d="M 125 0 
L 216 438 
L 2000 2447 
Q 2191 2659 2425 2888 
Q 2022 2847 1847 2847 
L 613 2847 
L 713 3319 
L 3278 3319 
L 3203 2963 
L 1403 941 
Q 1250 769 947 469 
Q 1419 497 1594 497 
L 2900 497 
L 2797 0 
L 125 0 
z
" transform="scale(0.015625)"/>
      <path id="Arial-ItalicMT-6e" d="M 213 0 
L 906 3319 
L 1419 3319 
L 1297 2741 
Q 1631 3081 1922 3237 
Q 2213 3394 2516 3394 
Q 2919 3394 3148 3175 
Q 3378 2956 3378 2591 
Q 3378 2406 3297 2009 
L 2875 0 
L 2309 0 
L 2750 2103 
Q 2816 2409 2816 2556 
Q 2816 2722 2702 2825 
Q 2588 2928 2372 2928 
Q 1938 2928 1598 2615 
Q 1259 2303 1100 1544 
L 778 0 
L 213 0 
z
" transform="scale(0.015625)"/>
      <path id="Arial-ItalicMT-73" d="M 266 1134 
L 831 1169 
Q 831 925 906 753 
Q 981 581 1182 472 
Q 1384 363 1653 363 
Q 2028 363 2215 513 
Q 2403 663 2403 866 
Q 2403 1013 2291 1144 
Q 2175 1275 1726 1467 
Q 1278 1659 1153 1738 
Q 944 1866 837 2039 
Q 731 2213 731 2438 
Q 731 2831 1043 3112 
Q 1356 3394 1919 3394 
Q 2544 3394 2870 3105 
Q 3197 2816 3209 2344 
L 2656 2306 
Q 2644 2606 2444 2781 
Q 2244 2956 1878 2956 
Q 1584 2956 1421 2822 
Q 1259 2688 1259 2531 
Q 1259 2375 1400 2256 
Q 1494 2175 1884 2006 
Q 2534 1725 2703 1563 
Q 2972 1303 2972 931 
Q 2972 684 2820 446 
Q 2669 209 2358 67 
Q 2047 -75 1625 -75 
Q 1050 -75 647 209 
Q 244 494 266 1134 
z
" transform="scale(0.015625)"/>
      <path id="Arial-ItalicMT-20" transform="scale(0.015625)"/>
      <path id="Arial-ItalicMT-61" d="M 2450 413 
Q 2156 159 1884 42 
Q 1613 -75 1303 -75 
Q 844 -75 562 195 
Q 281 466 281 888 
Q 281 1166 407 1380 
Q 534 1594 743 1723 
Q 953 1853 1256 1909 
Q 1447 1947 1980 1969 
Q 2513 1991 2744 2081 
Q 2809 2313 2809 2466 
Q 2809 2663 2666 2775 
Q 2469 2931 2091 2931 
Q 1734 2931 1507 2773 
Q 1281 2616 1178 2325 
L 606 2375 
Q 781 2869 1161 3131 
Q 1541 3394 2119 3394 
Q 2734 3394 3094 3100 
Q 3369 2881 3369 2531 
Q 3369 2266 3291 1916 
L 3106 1091 
Q 3019 697 3019 450 
Q 3019 294 3088 0 
L 2516 0 
Q 2469 163 2450 413 
z
M 2659 1681 
Q 2541 1634 2405 1609 
Q 2269 1584 1950 1556 
Q 1456 1513 1253 1445 
Q 1050 1378 947 1231 
Q 844 1084 844 906 
Q 844 669 1008 516 
Q 1172 363 1475 363 
Q 1756 363 2015 511 
Q 2275 659 2425 925 
Q 2575 1191 2659 1681 
z
" transform="scale(0.015625)"/>
      <path id="Arial-ItalicMT-75" d="M 2478 600 
Q 1881 -75 1256 -75 
Q 872 -75 636 145 
Q 400 366 400 684 
Q 400 894 506 1403 
L 906 3319 
L 1472 3319 
L 1028 1197 
Q 972 931 972 784 
Q 972 597 1086 492 
Q 1200 388 1422 388 
Q 1659 388 1886 503 
Q 2113 619 2277 816 
Q 2441 1013 2544 1281 
Q 2613 1453 2703 1884 
L 3003 3319 
L 3569 3319 
L 2875 0 
L 2353 0 
L 2478 600 
z
" transform="scale(0.015625)"/>
      <path id="Arial-ItalicMT-64" d="M 2450 481 
Q 1966 -75 1438 -75 
Q 966 -75 652 273 
Q 338 622 338 1284 
Q 338 1891 586 2392 
Q 834 2894 1207 3144 
Q 1581 3394 1956 3394 
Q 2575 3394 2891 2797 
L 3266 4581 
L 3828 4581 
L 2872 0 
L 2350 0 
L 2450 481 
z
M 900 1391 
Q 900 1044 969 844 
Q 1038 644 1203 511 
Q 1369 378 1600 378 
Q 1984 378 2297 778 
Q 2716 1309 2716 2091 
Q 2716 2484 2509 2706 
Q 2303 2928 1991 2928 
Q 1788 2928 1620 2837 
Q 1453 2747 1289 2530 
Q 1125 2313 1012 1978 
Q 900 1644 900 1391 
z
" transform="scale(0.015625)"/>
      <path id="Arial-ItalicMT-66" d="M 291 0 
L 894 2881 
L 388 2881 
L 478 3319 
L 984 3319 
L 1081 3791 
Q 1156 4144 1236 4300 
Q 1316 4456 1495 4557 
Q 1675 4659 1984 4659 
Q 2200 4659 2609 4569 
L 2506 4075 
Q 2219 4150 2025 4150 
Q 1859 4150 1773 4067 
Q 1688 3984 1625 3675 
L 1550 3319 
L 2181 3319 
L 2091 2881 
L 1459 2881 
L 856 0 
L 291 0 
z
" transform="scale(0.015625)"/>
      <path id="Arial-ItalicMT-70" d="M -66 -1272 
L 894 3319 
L 1416 3319 
L 1319 2856 
Q 1609 3159 1839 3276 
Q 2069 3394 2325 3394 
Q 2800 3394 3112 3048 
Q 3425 2703 3425 2059 
Q 3425 1541 3253 1114 
Q 3081 688 2831 428 
Q 2581 169 2325 47 
Q 2069 -75 1800 -75 
Q 1203 -75 875 531 
L 500 -1272 
L -66 -1272 
z
M 1053 1356 
Q 1053 984 1106 841 
Q 1184 638 1362 513 
Q 1541 388 1775 388 
Q 2263 388 2563 936 
Q 2863 1484 2863 2056 
Q 2863 2478 2661 2708 
Q 2459 2938 2159 2938 
Q 1944 2938 1759 2823 
Q 1575 2709 1417 2482 
Q 1259 2256 1156 1928 
Q 1053 1600 1053 1356 
z
" transform="scale(0.015625)"/>
     </defs>
     <use xlink:href="#Arial-ItalicMT-48" transform="translate(0 0.203125)"/>
     <use xlink:href="#Arial-ItalicMT-6f" transform="translate(72.216797 0.203125)"/>
     <use xlink:href="#Arial-ItalicMT-72" transform="translate(127.832031 0.203125)"/>
     <use xlink:href="#Arial-ItalicMT-69" transform="translate(161.132812 0.203125)"/>
     <use xlink:href="#Arial-ItalicMT-7a" transform="translate(183.349609 0.203125)"/>
     <use xlink:href="#Arial-ItalicMT-6f" transform="translate(233.349609 0.203125)"/>
     <use xlink:href="#Arial-ItalicMT-6e" transform="translate(288.964844 0.203125)"/>
     <use xlink:href="#Arial-ItalicMT-73" transform="translate(344.580078 0.203125)"/>
     <use xlink:href="#Arial-ItalicMT-20" transform="translate(394.580078 0.203125)"/>
     <use xlink:href="#Arial-ItalicMT-6d" transform="translate(422.363281 0.203125)"/>
     <use xlink:href="#Arial-ItalicMT-65" transform="translate(505.664062 0.203125)"/>
     <use xlink:href="#Arial-ItalicMT-61" transform="translate(561.279297 0.203125)"/>
     <use xlink:href="#Arial-ItalicMT-73" transform="translate(616.894531 0.203125)"/>
     <use xlink:href="#Arial-ItalicMT-75" transform="translate(666.894531 0.203125)"/>
     <use xlink:href="#Arial-ItalicMT-72" transform="translate(722.509766 0.203125)"/>
     <use xlink:href="#Arial-ItalicMT-65" transform="translate(755.810547 0.203125)"/>
     <use xlink:href="#Arial-ItalicMT-64" transform="translate(811.425781 0.203125)"/>
     <use xlink:href="#Arial-ItalicMT-20" transform="translate(867.041016 0.203125)"/>
     <use xlink:href="#Arial-ItalicMT-66" transform="translate(894.824219 0.203125)"/>
     <use xlink:href="#Arial-ItalicMT-72" transform="translate(922.607422 0.203125)"/>
     <use xlink:href="#Arial-ItalicMT-6f" transform="translate(955.908203 0.203125)"/>
     <use xlink:href="#Arial-ItalicMT-6d" transform="translate(1011.523438 0.203125)"/>
     <use xlink:href="#Arial-ItalicMT-20" transform="translate(1094.824219 0.203125)"/>
     <use xlink:href="#Arial-ItalicMT-74" transform="translate(1122.607422 0.203125)"/>
     <use xlink:href="#Arial-ItalicMT-70" transform="translate(1152.132969 -29.665625) scale(0.7)"/>
    </g>
   </g>
   <g id="patch_5">
    <path d="M 39.727813 108.897672 
L 361.137842 108.897672 
Q 363.401292 108.897672 363.401292 106.532232 
L 363.401292 89.974152 
Q 363.401292 87.608712 361.137842 87.608712 
L 39.727813 87.608712 
Q 37.464362 87.608712 37.464362 89.974152 
L 37.464362 106.532232 
Q 37.464362 108.897672 39.727813 108.897672 
z
" clip-path="url(#pc5a7ab1b48)" style="fill: #fff8e1; opacity: 0.9; stroke: #f57f17; stroke-width: 0.8; stroke-linejoin: miter"/>
   </g>
   <g id="patch_6">
    <path d="M 39.727813 130.186632 
L 361.137842 130.186632 
Q 363.401292 130.186632 363.401292 127.821192 
L 363.401292 111.263112 
Q 363.401292 108.897672 361.137842 108.897672 
L 39.727813 108.897672 
Q 37.464362 108.897672 37.464362 111.263112 
L 37.464362 127.821192 
Q 37.464362 130.186632 39.727813 130.186632 
z
" clip-path="url(#pc5a7ab1b48)" style="fill: #f3e5f5; opacity: 0.9; stroke: #7b1fa2; stroke-width: 0.8; stroke-linejoin: miter"/>
   </g>
   <g id="text_5">
    <!-- Event case: -->
    <g style="fill: #f57f17" transform="translate(3.6 153.160514) scale(0.065 -0.065)">
     <defs>
      <path id="Arial-BoldMT-45" d="M 466 0 
L 466 4581 
L 3863 4581 
L 3863 3806 
L 1391 3806 
L 1391 2791 
L 3691 2791 
L 3691 2019 
L 1391 2019 
L 1391 772 
L 3950 772 
L 3950 0 
L 466 0 
z
" transform="scale(0.015625)"/>
      <path id="Arial-BoldMT-76" d="M 1372 0 
L 34 3319 
L 956 3319 
L 1581 1625 
L 1763 1059 
Q 1834 1275 1853 1344 
Q 1897 1484 1947 1625 
L 2578 3319 
L 3481 3319 
L 2163 0 
L 1372 0 
z
" transform="scale(0.015625)"/>
      <path id="Arial-BoldMT-61" d="M 1116 2306 
L 319 2450 
Q 453 2931 781 3162 
Q 1109 3394 1756 3394 
Q 2344 3394 2631 3255 
Q 2919 3116 3036 2902 
Q 3153 2688 3153 2116 
L 3144 1091 
Q 3144 653 3186 445 
Q 3228 238 3344 0 
L 2475 0 
Q 2441 88 2391 259 
Q 2369 338 2359 363 
Q 2134 144 1878 34 
Q 1622 -75 1331 -75 
Q 819 -75 523 203 
Q 228 481 228 906 
Q 228 1188 362 1408 
Q 497 1628 739 1745 
Q 981 1863 1438 1950 
Q 2053 2066 2291 2166 
L 2291 2253 
Q 2291 2506 2166 2614 
Q 2041 2722 1694 2722 
Q 1459 2722 1328 2630 
Q 1197 2538 1116 2306 
z
M 2291 1594 
Q 2122 1538 1756 1459 
Q 1391 1381 1278 1306 
Q 1106 1184 1106 997 
Q 1106 813 1243 678 
Q 1381 544 1594 544 
Q 1831 544 2047 700 
Q 2206 819 2256 991 
Q 2291 1103 2291 1419 
L 2291 1594 
z
" transform="scale(0.015625)"/>
      <path id="Arial-BoldMT-73" d="M 150 947 
L 1031 1081 
Q 1088 825 1259 692 
Q 1431 559 1741 559 
Q 2081 559 2253 684 
Q 2369 772 2369 919 
Q 2369 1019 2306 1084 
Q 2241 1147 2013 1200 
Q 950 1434 666 1628 
Q 272 1897 272 2375 
Q 272 2806 612 3100 
Q 953 3394 1669 3394 
Q 2350 3394 2681 3172 
Q 3013 2950 3138 2516 
L 2309 2363 
Q 2256 2556 2107 2659 
Q 1959 2763 1684 2763 
Q 1338 2763 1188 2666 
Q 1088 2597 1088 2488 
Q 1088 2394 1175 2328 
Q 1294 2241 1995 2081 
Q 2697 1922 2975 1691 
Q 3250 1456 3250 1038 
Q 3250 581 2869 253 
Q 2488 -75 1741 -75 
Q 1063 -75 667 200 
Q 272 475 150 947 
z
" transform="scale(0.015625)"/>
      <path id="Arial-BoldMT-3a" d="M 628 2441 
L 628 3319 
L 1506 3319 
L 1506 2441 
L 628 2441 
z
M 628 0 
L 628 878 
L 1506 878 
L 1506 0 
L 628 0 
z
" transform="scale(0.015625)"/>
     </defs>
     <use xlink:href="#Arial-BoldMT-45"/>
     <use xlink:href="#Arial-BoldMT-76" transform="translate(66.699219 0)"/>
     <use xlink:href="#Arial-BoldMT-65" transform="translate(122.314453 0)"/>
     <use xlink:href="#Arial-BoldMT-6e" transform="translate(177.929688 0)"/>
     <use xlink:href="#Arial-BoldMT-74" transform="translate(239.013672 0)"/>
     <use xlink:href="#Arial-BoldMT-20" transform="translate(272.314453 0)"/>
     <use xlink:href="#Arial-BoldMT-63" transform="translate(300.097656 0)"/>
     <use xlink:href="#Arial-BoldMT-61" transform="translate(355.712891 0)"/>
     <use xlink:href="#Arial-BoldMT-73" transform="translate(411.328125 0)"/>
     <use xlink:href="#Arial-BoldMT-65" transform="translate(466.943359 0)"/>
     <use xlink:href="#Arial-BoldMT-3a" transform="translate(522.558594 0)"/>
    </g>
   </g>
   <g id="text_6">
    <!-- $T \leq h$  (fire arrives) -->
    <g style="fill: #f57f17" transform="translate(186.852122 153.133092) scale(0.065 -0.065)">
     <defs>
      <path id="ArialMT-54" d="M 1659 0 
L 1659 4041 
L 150 4041 
L 150 4581 
L 3781 4581 
L 3781 4041 
L 2266 4041 
L 2266 0 
L 1659 0 
z
" transform="scale(0.015625)"/>
      <path id="ArialMT-2264" d="M 241 2381 
L 241 2906 
L 3275 4188 
L 3275 3625 
L 869 2641 
L 3275 1644 
L 3275 1084 
L 241 2381 
z
M 3269 331 
L 244 331 
L 244 853 
L 3269 853 
L 3269 331 
z
" transform="scale(0.015625)"/>
      <path id="ArialMT-68" d="M 422 0 
L 422 4581 
L 984 4581 
L 984 2938 
Q 1378 3394 1978 3394 
Q 2347 3394 2619 3248 
Q 2891 3103 3008 2847 
Q 3125 2591 3125 2103 
L 3125 0 
L 2563 0 
L 2563 2103 
Q 2563 2525 2380 2717 
Q 2197 2909 1863 2909 
Q 1613 2909 1392 2779 
Q 1172 2650 1078 2428 
Q 984 2206 984 1816 
L 984 0 
L 422 0 
z
" transform="scale(0.015625)"/>
      <path id="ArialMT-20" transform="scale(0.015625)"/>
      <path id="ArialMT-28" d="M 1497 -1347 
Q 1031 -759 709 28 
Q 388 816 388 1659 
Q 388 2403 628 3084 
Q 909 3875 1497 4659 
L 1900 4659 
Q 1522 4009 1400 3731 
Q 1209 3300 1100 2831 
Q 966 2247 966 1656 
Q 966 153 1900 -1347 
L 1497 -1347 
z
" transform="scale(0.015625)"/>
      <path id="ArialMT-66" d="M 556 0 
L 556 2881 
L 59 2881 
L 59 3319 
L 556 3319 
L 556 3672 
Q 556 4006 616 4169 
Q 697 4388 901 4523 
Q 1106 4659 1475 4659 
Q 1713 4659 2000 4603 
L 1916 4113 
Q 1741 4144 1584 4144 
Q 1328 4144 1222 4034 
Q 1116 3925 1116 3625 
L 1116 3319 
L 1763 3319 
L 1763 2881 
L 1116 2881 
L 1116 0 
L 556 0 
z
" transform="scale(0.015625)"/>
      <path id="ArialMT-69" d="M 425 3934 
L 425 4581 
L 988 4581 
L 988 3934 
L 425 3934 
z
M 425 0 
L 425 3319 
L 988 3319 
L 988 0 
L 425 0 
z
" transform="scale(0.015625)"/>
      <path id="ArialMT-72" d="M 416 0 
L 416 3319 
L 922 3319 
L 922 2816 
Q 1116 3169 1280 3281 
Q 1444 3394 1641 3394 
Q 1925 3394 2219 3213 
L 2025 2691 
Q 1819 2813 1613 2813 
Q 1428 2813 1281 2702 
Q 1134 2591 1072 2394 
Q 978 2094 978 1738 
L 978 0 
L 416 0 
z
" transform="scale(0.015625)"/>
      <path id="ArialMT-65" d="M 2694 1069 
L 3275 997 
Q 3138 488 2766 206 
Q 2394 -75 1816 -75 
Q 1088 -75 661 373 
Q 234 822 234 1631 
Q 234 2469 665 2931 
Q 1097 3394 1784 3394 
Q 2450 3394 2872 2941 
Q 3294 2488 3294 1666 
Q 3294 1616 3291 1516 
L 816 1516 
Q 847 969 1125 678 
Q 1403 388 1819 388 
Q 2128 388 2347 550 
Q 2566 713 2694 1069 
z
M 847 1978 
L 2700 1978 
Q 2663 2397 2488 2606 
Q 2219 2931 1791 2931 
Q 1403 2931 1139 2672 
Q 875 2413 847 1978 
z
" transform="scale(0.015625)"/>
      <path id="ArialMT-61" d="M 2588 409 
Q 2275 144 1986 34 
Q 1697 -75 1366 -75 
Q 819 -75 525 192 
Q 231 459 231 875 
Q 231 1119 342 1320 
Q 453 1522 633 1644 
Q 813 1766 1038 1828 
Q 1203 1872 1538 1913 
Q 2219 1994 2541 2106 
Q 2544 2222 2544 2253 
Q 2544 2597 2384 2738 
Q 2169 2928 1744 2928 
Q 1347 2928 1158 2789 
Q 969 2650 878 2297 
L 328 2372 
Q 403 2725 575 2942 
Q 747 3159 1072 3276 
Q 1397 3394 1825 3394 
Q 2250 3394 2515 3294 
Q 2781 3194 2906 3042 
Q 3031 2891 3081 2659 
Q 3109 2516 3109 2141 
L 3109 1391 
Q 3109 606 3145 398 
Q 3181 191 3288 0 
L 2700 0 
Q 2613 175 2588 409 
z
M 2541 1666 
Q 2234 1541 1622 1453 
Q 1275 1403 1131 1340 
Q 988 1278 909 1158 
Q 831 1038 831 891 
Q 831 666 1001 516 
Q 1172 366 1500 366 
Q 1825 366 2078 508 
Q 2331 650 2450 897 
Q 2541 1088 2541 1459 
L 2541 1666 
z
" transform="scale(0.015625)"/>
      <path id="ArialMT-76" d="M 1344 0 
L 81 3319 
L 675 3319 
L 1388 1331 
Q 1503 1009 1600 663 
Q 1675 925 1809 1294 
L 2547 3319 
L 3125 3319 
L 1869 0 
L 1344 0 
z
" transform="scale(0.015625)"/>
      <path id="ArialMT-73" d="M 197 991 
L 753 1078 
Q 800 744 1014 566 
Q 1228 388 1613 388 
Q 2000 388 2187 545 
Q 2375 703 2375 916 
Q 2375 1106 2209 1216 
Q 2094 1291 1634 1406 
Q 1016 1563 777 1677 
Q 538 1791 414 1992 
Q 291 2194 291 2438 
Q 291 2659 392 2848 
Q 494 3038 669 3163 
Q 800 3259 1026 3326 
Q 1253 3394 1513 3394 
Q 1903 3394 2198 3281 
Q 2494 3169 2634 2976 
Q 2775 2784 2828 2463 
L 2278 2388 
Q 2241 2644 2061 2787 
Q 1881 2931 1553 2931 
Q 1166 2931 1000 2803 
Q 834 2675 834 2503 
Q 834 2394 903 2306 
Q 972 2216 1119 2156 
Q 1203 2125 1616 2013 
Q 2213 1853 2448 1751 
Q 2684 1650 2818 1456 
Q 2953 1263 2953 975 
Q 2953 694 2789 445 
Q 2625 197 2315 61 
Q 2006 -75 1616 -75 
Q 969 -75 630 194 
Q 291 463 197 991 
z
" transform="scale(0.015625)"/>
      <path id="ArialMT-29" d="M 791 -1347 
L 388 -1347 
Q 1322 153 1322 1656 
Q 1322 2244 1188 2822 
Q 1081 3291 891 3722 
Q 769 4003 388 4659 
L 791 4659 
Q 1378 3875 1659 3084 
Q 1900 2403 1900 1659 
Q 1900 816 1576 28 
Q 1253 -759 791 -1347 
z
" transform="scale(0.015625)"/>
     </defs>
     <use xlink:href="#ArialMT-54" transform="translate(0 0.203125)"/>
     <use xlink:href="#ArialMT-2264" transform="translate(80.566406 0.203125)"/>
     <use xlink:href="#ArialMT-68" transform="translate(154.931641 0.203125)"/>
     <use xlink:href="#ArialMT-20" transform="translate(210.546875 0.203125)"/>
     <use xlink:href="#ArialMT-20" transform="translate(238.330078 0.203125)"/>
     <use xlink:href="#ArialMT-28" transform="translate(266.113281 0.203125)"/>
     <use xlink:href="#ArialMT-66" transform="translate(299.414062 0.203125)"/>
     <use xlink:href="#ArialMT-69" transform="translate(327.197266 0.203125)"/>
     <use xlink:href="#ArialMT-72" transform="translate(349.414062 0.203125)"/>
     <use xlink:href="#ArialMT-65" transform="translate(382.714844 0.203125)"/>
     <use xlink:href="#ArialMT-20" transform="translate(438.330078 0.203125)"/>
     <use xlink:href="#ArialMT-61" transform="translate(466.113281 0.203125)"/>
     <use xlink:href="#ArialMT-72" transform="translate(521.728516 0.203125)"/>
     <use xlink:href="#ArialMT-72" transform="translate(555.029297 0.203125)"/>
     <use xlink:href="#ArialMT-69" transform="translate(588.330078 0.203125)"/>
     <use xlink:href="#ArialMT-76" transform="translate(610.546875 0.203125)"/>
     <use xlink:href="#ArialMT-65" transform="translate(660.546875 0.203125)"/>
     <use xlink:href="#ArialMT-73" transform="translate(716.162109 0.203125)"/>
     <use xlink:href="#ArialMT-29" transform="translate(766.162109 0.203125)"/>
    </g>
   </g>
   <g id="text_7">
    <!-- Censored: -->
    <g style="fill: #7b1fa2" transform="translate(7.585313 169.718594) scale(0.065 -0.065)">
     <defs>
      <path id="Arial-BoldMT-43" d="M 3397 1684 
L 4294 1400 
Q 4088 650 3608 286 
Q 3128 -78 2391 -78 
Q 1478 -78 890 545 
Q 303 1169 303 2250 
Q 303 3394 893 4026 
Q 1484 4659 2447 4659 
Q 3288 4659 3813 4163 
Q 4125 3869 4281 3319 
L 3366 3100 
Q 3284 3456 3026 3662 
Q 2769 3869 2400 3869 
Q 1891 3869 1573 3503 
Q 1256 3138 1256 2319 
Q 1256 1450 1568 1081 
Q 1881 713 2381 713 
Q 2750 713 3015 947 
Q 3281 1181 3397 1684 
z
" transform="scale(0.015625)"/>
     </defs>
     <use xlink:href="#Arial-BoldMT-43"/>
     <use xlink:href="#Arial-BoldMT-65" transform="translate(72.216797 0)"/>
     <use xlink:href="#Arial-BoldMT-6e" transform="translate(127.832031 0)"/>
     <use xlink:href="#Arial-BoldMT-73" transform="translate(188.916016 0)"/>
     <use xlink:href="#Arial-BoldMT-6f" transform="translate(244.53125 0)"/>
     <use xlink:href="#Arial-BoldMT-72" transform="translate(305.615234 0)"/>
     <use xlink:href="#Arial-BoldMT-65" transform="translate(344.53125 0)"/>
     <use xlink:href="#Arial-BoldMT-64" transform="translate(400.146484 0)"/>
     <use xlink:href="#Arial-BoldMT-3a" transform="translate(461.230469 0)"/>
    </g>
   </g>
   <g id="text_8">
    <!-- $T_c \geq t_p$  (monitoring ends) -->
    <g style="fill: #7b1fa2" transform="translate(243.438394 168.976172) scale(0.065 -0.065)">
     <defs>
      <path id="ArialMT-63" d="M 2588 1216 
L 3141 1144 
Q 3050 572 2676 248 
Q 2303 -75 1759 -75 
Q 1078 -75 664 370 
Q 250 816 250 1647 
Q 250 2184 428 2587 
Q 606 2991 970 3192 
Q 1334 3394 1763 3394 
Q 2303 3394 2647 3120 
Q 2991 2847 3088 2344 
L 2541 2259 
Q 2463 2594 2264 2762 
Q 2066 2931 1784 2931 
Q 1359 2931 1093 2626 
Q 828 2322 828 1663 
Q 828 994 1084 691 
Q 1341 388 1753 388 
Q 2084 388 2306 591 
Q 2528 794 2588 1216 
z
" transform="scale(0.015625)"/>
      <path id="ArialMT-2265" d="M 3275 2381 
L 241 1084 
L 241 1644 
L 2644 2641 
L 241 3625 
L 241 4188 
L 3275 2906 
L 3275 2381 
z
M 3269 331 
L 244 331 
L 244 853 
L 3269 853 
L 3269 331 
z
" transform="scale(0.015625)"/>
      <path id="ArialMT-74" d="M 1650 503 
L 1731 6 
Q 1494 -44 1306 -44 
Q 1000 -44 831 53 
Q 663 150 594 308 
Q 525 466 525 972 
L 525 2881 
L 113 2881 
L 113 3319 
L 525 3319 
L 525 4141 
L 1084 4478 
L 1084 3319 
L 1650 3319 
L 1650 2881 
L 1084 2881 
L 1084 941 
Q 1084 700 1114 631 
Q 1144 563 1211 522 
Q 1278 481 1403 481 
Q 1497 481 1650 503 
z
" transform="scale(0.015625)"/>
      <path id="ArialMT-70" d="M 422 -1272 
L 422 3319 
L 934 3319 
L 934 2888 
Q 1116 3141 1344 3267 
Q 1572 3394 1897 3394 
Q 2322 3394 2647 3175 
Q 2972 2956 3137 2557 
Q 3303 2159 3303 1684 
Q 3303 1175 3120 767 
Q 2938 359 2589 142 
Q 2241 -75 1856 -75 
Q 1575 -75 1351 44 
Q 1128 163 984 344 
L 984 -1272 
L 422 -1272 
z
M 931 1641 
Q 931 1000 1190 694 
Q 1450 388 1819 388 
Q 2194 388 2461 705 
Q 2728 1022 2728 1688 
Q 2728 2322 2467 2637 
Q 2206 2953 1844 2953 
Q 1484 2953 1207 2617 
Q 931 2281 931 1641 
z
" transform="scale(0.015625)"/>
      <path id="ArialMT-6d" d="M 422 0 
L 422 3319 
L 925 3319 
L 925 2853 
Q 1081 3097 1340 3245 
Q 1600 3394 1931 3394 
Q 2300 3394 2536 3241 
Q 2772 3088 2869 2813 
Q 3263 3394 3894 3394 
Q 4388 3394 4653 3120 
Q 4919 2847 4919 2278 
L 4919 0 
L 4359 0 
L 4359 2091 
Q 4359 2428 4304 2576 
Q 4250 2725 4106 2815 
Q 3963 2906 3769 2906 
Q 3419 2906 3187 2673 
Q 2956 2441 2956 1928 
L 2956 0 
L 2394 0 
L 2394 2156 
Q 2394 2531 2256 2718 
Q 2119 2906 1806 2906 
Q 1569 2906 1367 2781 
Q 1166 2656 1075 2415 
Q 984 2175 984 1722 
L 984 0 
L 422 0 
z
" transform="scale(0.015625)"/>
      <path id="ArialMT-6f" d="M 213 1659 
Q 213 2581 725 3025 
Q 1153 3394 1769 3394 
Q 2453 3394 2887 2945 
Q 3322 2497 3322 1706 
Q 3322 1066 3130 698 
Q 2938 331 2570 128 
Q 2203 -75 1769 -75 
Q 1072 -75 642 372 
Q 213 819 213 1659 
z
M 791 1659 
Q 791 1022 1069 705 
Q 1347 388 1769 388 
Q 2188 388 2466 706 
Q 2744 1025 2744 1678 
Q 2744 2294 2464 2611 
Q 2184 2928 1769 2928 
Q 1347 2928 1069 2612 
Q 791 2297 791 1659 
z
" transform="scale(0.015625)"/>
      <path id="ArialMT-6e" d="M 422 0 
L 422 3319 
L 928 3319 
L 928 2847 
Q 1294 3394 1984 3394 
Q 2284 3394 2536 3286 
Q 2788 3178 2913 3003 
Q 3038 2828 3088 2588 
Q 3119 2431 3119 2041 
L 3119 0 
L 2556 0 
L 2556 2019 
Q 2556 2363 2490 2533 
Q 2425 2703 2258 2804 
Q 2091 2906 1866 2906 
Q 1506 2906 1245 2678 
Q 984 2450 984 1813 
L 984 0 
L 422 0 
z
" transform="scale(0.015625)"/>
      <path id="ArialMT-67" d="M 319 -275 
L 866 -356 
Q 900 -609 1056 -725 
Q 1266 -881 1628 -881 
Q 2019 -881 2231 -725 
Q 2444 -569 2519 -288 
Q 2563 -116 2559 434 
Q 2191 0 1641 0 
Q 956 0 581 494 
Q 206 988 206 1678 
Q 206 2153 378 2554 
Q 550 2956 876 3175 
Q 1203 3394 1644 3394 
Q 2231 3394 2613 2919 
L 2613 3319 
L 3131 3319 
L 3131 450 
Q 3131 -325 2973 -648 
Q 2816 -972 2473 -1159 
Q 2131 -1347 1631 -1347 
Q 1038 -1347 672 -1080 
Q 306 -813 319 -275 
z
M 784 1719 
Q 784 1066 1043 766 
Q 1303 466 1694 466 
Q 2081 466 2343 764 
Q 2606 1063 2606 1700 
Q 2606 2309 2336 2618 
Q 2066 2928 1684 2928 
Q 1309 2928 1046 2623 
Q 784 2319 784 1719 
z
" transform="scale(0.015625)"/>
      <path id="ArialMT-64" d="M 2575 0 
L 2575 419 
Q 2259 -75 1647 -75 
Q 1250 -75 917 144 
Q 584 363 401 755 
Q 219 1147 219 1656 
Q 219 2153 384 2558 
Q 550 2963 881 3178 
Q 1213 3394 1622 3394 
Q 1922 3394 2156 3267 
Q 2391 3141 2538 2938 
L 2538 4581 
L 3097 4581 
L 3097 0 
L 2575 0 
z
M 797 1656 
Q 797 1019 1065 703 
Q 1334 388 1700 388 
Q 2069 388 2326 689 
Q 2584 991 2584 1609 
Q 2584 2291 2321 2609 
Q 2059 2928 1675 2928 
Q 1300 2928 1048 2622 
Q 797 2316 797 1656 
z
" transform="scale(0.015625)"/>
     </defs>
     <use xlink:href="#ArialMT-54" transform="translate(0 0.203125)"/>
     <use xlink:href="#ArialMT-63" transform="translate(62.826328 -29.665625) scale(0.7)"/>
     <use xlink:href="#ArialMT-2265" transform="translate(122.286875 0.203125)"/>
     <use xlink:href="#ArialMT-74" transform="translate(196.652109 0.203125)"/>
     <use xlink:href="#ArialMT-70" transform="translate(226.177656 -29.665625) scale(0.7)"/>
     <use xlink:href="#ArialMT-20" transform="translate(270.086445 0.203125)"/>
     <use xlink:href="#ArialMT-20" transform="translate(297.869648 0.203125)"/>
     <use xlink:href="#ArialMT-28" transform="translate(325.652852 0.203125)"/>
     <use xlink:href="#ArialMT-6d" transform="translate(358.953633 0.203125)"/>
     <use xlink:href="#ArialMT-6f" transform="translate(442.254414 0.203125)"/>
     <use xlink:href="#ArialMT-6e" transform="translate(497.869648 0.203125)"/>
     <use xlink:href="#ArialMT-69" transform="translate(553.484883 0.203125)"/>
     <use xlink:href="#ArialMT-74" transform="translate(575.70168 0.203125)"/>
     <use xlink:href="#ArialMT-6f" transform="translate(603.484883 0.203125)"/>
     <use xlink:href="#ArialMT-72" transform="translate(659.100117 0.203125)"/>
     <use xlink:href="#ArialMT-69" transform="translate(692.400898 0.203125)"/>
     <use xlink:href="#ArialMT-6e" transform="translate(714.617695 0.203125)"/>
     <use xlink:href="#ArialMT-67" transform="translate(770.23293 0.203125)"/>
     <use xlink:href="#ArialMT-20" transform="translate(825.848164 0.203125)"/>
     <use xlink:href="#ArialMT-65" transform="translate(853.631367 0.203125)"/>
     <use xlink:href="#ArialMT-6e" transform="translate(909.246602 0.203125)"/>
     <use xlink:href="#ArialMT-64" transform="translate(964.861836 0.203125)"/>
     <use xlink:href="#ArialMT-73" transform="translate(1020.47707 0.203125)"/>
     <use xlink:href="#ArialMT-29" transform="translate(1070.47707 0.203125)"/>
    </g>
   </g>
   <g id="text_9">
    <!-- Feature window -->
    <g style="fill: #1565c0" transform="translate(75.528025 41.868494) scale(0.07 -0.07)">
     <defs>
      <path id="Arial-BoldMT-46" d="M 472 0 
L 472 4581 
L 3613 4581 
L 3613 3806 
L 1397 3806 
L 1397 2722 
L 3309 2722 
L 3309 1947 
L 1397 1947 
L 1397 0 
L 472 0 
z
" transform="scale(0.015625)"/>
      <path id="Arial-BoldMT-75" d="M 2644 0 
L 2644 497 
Q 2463 231 2167 78 
Q 1872 -75 1544 -75 
Q 1209 -75 943 72 
Q 678 219 559 484 
Q 441 750 441 1219 
L 441 3319 
L 1319 3319 
L 1319 1794 
Q 1319 1094 1367 936 
Q 1416 778 1544 686 
Q 1672 594 1869 594 
Q 2094 594 2272 717 
Q 2450 841 2515 1023 
Q 2581 1206 2581 1919 
L 2581 3319 
L 3459 3319 
L 3459 0 
L 2644 0 
z
" transform="scale(0.015625)"/>
      <path id="Arial-BoldMT-77" d="M 1078 0 
L 28 3319 
L 881 3319 
L 1503 1144 
L 2075 3319 
L 2922 3319 
L 3475 1144 
L 4109 3319 
L 4975 3319 
L 3909 0 
L 3066 0 
L 2494 2134 
L 1931 0 
L 1078 0 
z
" transform="scale(0.015625)"/>
     </defs>
     <use xlink:href="#Arial-BoldMT-46"/>
     <use xlink:href="#Arial-BoldMT-65" transform="translate(61.083984 0)"/>
     <use xlink:href="#Arial-BoldMT-61" transform="translate(116.699219 0)"/>
     <use xlink:href="#Arial-BoldMT-74" transform="translate(172.314453 0)"/>
     <use xlink:href="#Arial-BoldMT-75" transform="translate(205.615234 0)"/>
     <use xlink:href="#Arial-BoldMT-72" transform="translate(266.699219 0)"/>
     <use xlink:href="#Arial-BoldMT-65" transform="translate(305.615234 0)"/>
     <use xlink:href="#Arial-BoldMT-20" transform="translate(361.230469 0)"/>
     <use xlink:href="#Arial-BoldMT-77" transform="translate(389.013672 0)"/>
     <use xlink:href="#Arial-BoldMT-69" transform="translate(466.796875 0)"/>
     <use xlink:href="#Arial-BoldMT-6e" transform="translate(494.580078 0)"/>
     <use xlink:href="#Arial-BoldMT-64" transform="translate(555.664062 0)"/>
     <use xlink:href="#Arial-BoldMT-6f" transform="translate(616.748047 0)"/>
     <use xlink:href="#Arial-BoldMT-77" transform="translate(677.832031 0)"/>
    </g>
    <!-- (0–5 h) -->
    <g style="fill: #1565c0" transform="translate(90.692869 49.364838) scale(0.07 -0.07)">
     <defs>
      <path id="Arial-BoldMT-2013" d="M -13 1331 
L -13 1988 
L 3547 1988 
L 3547 1331 
L -13 1331 
z
" transform="scale(0.015625)"/>
     </defs>
     <use xlink:href="#Arial-BoldMT-28"/>
     <use xlink:href="#Arial-BoldMT-30" transform="translate(33.300781 0)"/>
     <use xlink:href="#Arial-BoldMT-2013" transform="translate(88.916016 0)"/>
     <use xlink:href="#Arial-BoldMT-35" transform="translate(144.53125 0)"/>
     <use xlink:href="#Arial-BoldMT-20" transform="translate(200.146484 0)"/>
     <use xlink:href="#Arial-BoldMT-68" transform="translate(227.929688 0)"/>
     <use xlink:href="#Arial-BoldMT-29" transform="translate(289.013672 0)"/>
    </g>
   </g>
   <g id="text_10">
    <!-- Event -->
    <g style="fill: #f57f17" transform="translate(44.254714 96.519563) scale(0.07 -0.07)">
     <use xlink:href="#Arial-BoldMT-45"/>
     <use xlink:href="#Arial-BoldMT-76" transform="translate(66.699219 0)"/>
     <use xlink:href="#Arial-BoldMT-65" transform="translate(122.314453 0)"/>
     <use xlink:href="#Arial-BoldMT-6e" transform="translate(177.929688 0)"/>
     <use xlink:href="#Arial-BoldMT-74" transform="translate(239.013672 0)"/>
    </g>
   </g>
   <g id="text_11">
    <!-- — fire perimeter enters 5 km of zone centroid within $t_p + h$ -->
    <g style="fill: #555555" transform="translate(75.943027 95.647532) scale(0.065 -0.065)">
     <defs>
      <path id="DejaVuSansDisplay-2014" d="M 313 1978 
L 6088 1978 
L 6088 1528 
L 313 1528 
L 313 1978 
z
" transform="scale(0.015625)"/>
      <path id="ArialMT-35" d="M 266 1200 
L 856 1250 
Q 922 819 1161 601 
Q 1400 384 1738 384 
Q 2144 384 2425 690 
Q 2706 997 2706 1503 
Q 2706 1984 2436 2262 
Q 2166 2541 1728 2541 
Q 1456 2541 1237 2417 
Q 1019 2294 894 2097 
L 366 2166 
L 809 4519 
L 3088 4519 
L 3088 3981 
L 1259 3981 
L 1013 2750 
Q 1425 3038 1878 3038 
Q 2478 3038 2890 2622 
Q 3303 2206 3303 1553 
Q 3303 931 2941 478 
Q 2500 -78 1738 -78 
Q 1113 -78 717 272 
Q 322 622 266 1200 
z
" transform="scale(0.015625)"/>
      <path id="ArialMT-6b" d="M 425 0 
L 425 4581 
L 988 4581 
L 988 1969 
L 2319 3319 
L 3047 3319 
L 1778 2088 
L 3175 0 
L 2481 0 
L 1384 1697 
L 988 1316 
L 988 0 
L 425 0 
z
" transform="scale(0.015625)"/>
      <path id="ArialMT-7a" d="M 125 0 
L 125 456 
L 2238 2881 
Q 1878 2863 1603 2863 
L 250 2863 
L 250 3319 
L 2963 3319 
L 2963 2947 
L 1166 841 
L 819 456 
Q 1197 484 1528 484 
L 3063 484 
L 3063 0 
L 125 0 
z
" transform="scale(0.015625)"/>
      <path id="ArialMT-77" d="M 1034 0 
L 19 3319 
L 600 3319 
L 1128 1403 
L 1325 691 
Q 1338 744 1497 1375 
L 2025 3319 
L 2603 3319 
L 3100 1394 
L 3266 759 
L 3456 1400 
L 4025 3319 
L 4572 3319 
L 3534 0 
L 2950 0 
L 2422 1988 
L 2294 2553 
L 1622 0 
L 1034 0 
z
" transform="scale(0.015625)"/>
      <path id="ArialMT-2b" d="M 1603 741 
L 1603 1997 
L 356 1997 
L 356 2522 
L 1603 2522 
L 1603 3769 
L 2134 3769 
L 2134 2522 
L 3381 2522 
L 3381 1997 
L 2134 1997 
L 2134 741 
L 1603 741 
z
" transform="scale(0.015625)"/>
     </defs>
     <use xlink:href="#DejaVuSansDisplay-2014" transform="translate(0 0.203125)"/>
     <use xlink:href="#ArialMT-20" transform="translate(100 0.203125)"/>
     <use xlink:href="#ArialMT-66" transform="translate(127.783203 0.203125)"/>
     <use xlink:href="#ArialMT-69" transform="translate(155.566406 0.203125)"/>
     <use xlink:href="#ArialMT-72" transform="translate(177.783203 0.203125)"/>
     <use xlink:href="#ArialMT-65" transform="translate(211.083984 0.203125)"/>
     <use xlink:href="#ArialMT-20" transform="translate(266.699219 0.203125)"/>
     <use xlink:href="#ArialMT-70" transform="translate(294.482422 0.203125)"/>
     <use xlink:href="#ArialMT-65" transform="translate(350.097656 0.203125)"/>
     <use xlink:href="#ArialMT-72" transform="translate(405.712891 0.203125)"/>
     <use xlink:href="#ArialMT-69" transform="translate(439.013672 0.203125)"/>
     <use xlink:href="#ArialMT-6d" transform="translate(461.230469 0.203125)"/>
     <use xlink:href="#ArialMT-65" transform="translate(544.53125 0.203125)"/>
     <use xlink:href="#ArialMT-74" transform="translate(600.146484 0.203125)"/>
     <use xlink:href="#ArialMT-65" transform="translate(627.929688 0.203125)"/>
     <use xlink:href="#ArialMT-72" transform="translate(683.544922 0.203125)"/>
     <use xlink:href="#ArialMT-20" transform="translate(716.845703 0.203125)"/>
     <use xlink:href="#ArialMT-65" transform="translate(744.628906 0.203125)"/>
     <use xlink:href="#ArialMT-6e" transform="translate(800.244141 0.203125)"/>
     <use xlink:href="#ArialMT-74" transform="translate(855.859375 0.203125)"/>
     <use xlink:href="#ArialMT-65" transform="translate(883.642578 0.203125)"/>
     <use xlink:href="#ArialMT-72" transform="translate(939.257812 0.203125)"/>
     <use xlink:href="#ArialMT-73" transform="translate(972.558594 0.203125)"/>
     <use xlink:href="#ArialMT-20" transform="translate(1022.558594 0.203125)"/>
     <use xlink:href="#ArialMT-35" transform="translate(1050.341797 0.203125)"/>
     <use xlink:href="#ArialMT-20" transform="translate(1105.957031 0.203125)"/>
     <use xlink:href="#ArialMT-6b" transform="translate(1133.740234 0.203125)"/>
     <use xlink:href="#ArialMT-6d" transform="translate(1183.740234 0.203125)"/>
     <use xlink:href="#ArialMT-20" transform="translate(1267.041016 0.203125)"/>
     <use xlink:href="#ArialMT-6f" transform="translate(1294.824219 0.203125)"/>
     <use xlink:href="#ArialMT-66" transform="translate(1350.439453 0.203125)"/>
     <use xlink:href="#ArialMT-20" transform="translate(1378.222656 0.203125)"/>
     <use xlink:href="#ArialMT-7a" transform="translate(1406.005859 0.203125)"/>
     <use xlink:href="#ArialMT-6f" transform="translate(1456.005859 0.203125)"/>
     <use xlink:href="#ArialMT-6e" transform="translate(1511.621094 0.203125)"/>
     <use xlink:href="#ArialMT-65" transform="translate(1567.236328 0.203125)"/>
     <use xlink:href="#ArialMT-20" transform="translate(1622.851562 0.203125)"/>
     <use xlink:href="#ArialMT-63" transform="translate(1650.634766 0.203125)"/>
     <use xlink:href="#ArialMT-65" transform="translate(1700.634766 0.203125)"/>
     <use xlink:href="#ArialMT-6e" transform="translate(1756.25 0.203125)"/>
     <use xlink:href="#ArialMT-74" transform="translate(1811.865234 0.203125)"/>
     <use xlink:href="#ArialMT-72" transform="translate(1839.648438 0.203125)"/>
     <use xlink:href="#ArialMT-6f" transform="translate(1872.949219 0.203125)"/>
     <use xlink:href="#ArialMT-69" transform="translate(1928.564453 0.203125)"/>
     <use xlink:href="#ArialMT-64" transform="translate(1950.78125 0.203125)"/>
     <use xlink:href="#ArialMT-20" transform="translate(2006.396484 0.203125)"/>
     <use xlink:href="#ArialMT-77" transform="translate(2034.179688 0.203125)"/>
     <use xlink:href="#ArialMT-69" transform="translate(2106.396484 0.203125)"/>
     <use xlink:href="#ArialMT-74" transform="translate(2128.613281 0.203125)"/>
     <use xlink:href="#ArialMT-68" transform="translate(2156.396484 0.203125)"/>
     <use xlink:href="#ArialMT-69" transform="translate(2212.011719 0.203125)"/>
     <use xlink:href="#ArialMT-6e" transform="translate(2234.228516 0.203125)"/>
     <use xlink:href="#ArialMT-20" transform="translate(2289.84375 0.203125)"/>
     <use xlink:href="#ArialMT-74" transform="translate(2317.626953 0.203125)"/>
     <use xlink:href="#ArialMT-70" transform="translate(2347.1525 -29.665625) scale(0.7)"/>
     <use xlink:href="#ArialMT-2b" transform="translate(2410.543711 0.203125)"/>
     <use xlink:href="#ArialMT-68" transform="translate(2488.42457 0.203125)"/>
    </g>
   </g>
   <g id="text_12">
    <!-- Right censoring -->
    <g style="fill: #7b1fa2" transform="translate(44.254714 117.762586) scale(0.07 -0.07)">
     <defs>
      <path id="Arial-BoldMT-52" d="M 469 0 
L 469 4581 
L 2416 4581 
Q 3150 4581 3483 4457 
Q 3816 4334 4016 4018 
Q 4216 3703 4216 3297 
Q 4216 2781 3912 2445 
Q 3609 2109 3006 2022 
Q 3306 1847 3501 1637 
Q 3697 1428 4028 894 
L 4588 0 
L 3481 0 
L 2813 997 
Q 2456 1531 2325 1670 
Q 2194 1809 2047 1861 
Q 1900 1913 1581 1913 
L 1394 1913 
L 1394 0 
L 469 0 
z
M 1394 2644 
L 2078 2644 
Q 2744 2644 2909 2700 
Q 3075 2756 3169 2893 
Q 3263 3031 3263 3238 
Q 3263 3469 3139 3611 
Q 3016 3753 2791 3791 
Q 2678 3806 2116 3806 
L 1394 3806 
L 1394 2644 
z
" transform="scale(0.015625)"/>
     </defs>
     <use xlink:href="#Arial-BoldMT-52"/>
     <use xlink:href="#Arial-BoldMT-69" transform="translate(72.216797 0)"/>
     <use xlink:href="#Arial-BoldMT-67" transform="translate(100 0)"/>
     <use xlink:href="#Arial-BoldMT-68" transform="translate(161.083984 0)"/>
     <use xlink:href="#Arial-BoldMT-74" transform="translate(222.167969 0)"/>
     <use xlink:href="#Arial-BoldMT-20" transform="translate(255.46875 0)"/>
     <use xlink:href="#Arial-BoldMT-63" transform="translate(283.251953 0)"/>
     <use xlink:href="#Arial-BoldMT-65" transform="translate(338.867188 0)"/>
     <use xlink:href="#Arial-BoldMT-6e" transform="translate(394.482422 0)"/>
     <use xlink:href="#Arial-BoldMT-73" transform="translate(455.566406 0)"/>
     <use xlink:href="#Arial-BoldMT-6f" transform="translate(511.181641 0)"/>
     <use xlink:href="#Arial-BoldMT-72" transform="translate(572.265625 0)"/>
     <use xlink:href="#Arial-BoldMT-69" transform="translate(611.181641 0)"/>
     <use xlink:href="#Arial-BoldMT-6e" transform="translate(638.964844 0)"/>
     <use xlink:href="#Arial-BoldMT-67" transform="translate(700.048828 0)"/>
    </g>
   </g>
   <g id="text_13">
    <!-- — monitoring ends before event at time $T_c \geq t_p$ -->
    <g style="fill: #555555" transform="translate(118.948594 116.936492) scale(0.065 -0.065)">
     <defs>
      <path id="ArialMT-62" d="M 941 0 
L 419 0 
L 419 4581 
L 981 4581 
L 981 2947 
Q 1338 3394 1891 3394 
Q 2197 3394 2470 3270 
Q 2744 3147 2920 2923 
Q 3097 2700 3197 2384 
Q 3297 2069 3297 1709 
Q 3297 856 2875 390 
Q 2453 -75 1863 -75 
Q 1275 -75 941 416 
L 941 0 
z
M 934 1684 
Q 934 1088 1097 822 
Q 1363 388 1816 388 
Q 2184 388 2453 708 
Q 2722 1028 2722 1663 
Q 2722 2313 2464 2622 
Q 2206 2931 1841 2931 
Q 1472 2931 1203 2611 
Q 934 2291 934 1684 
z
" transform="scale(0.015625)"/>
     </defs>
     <use xlink:href="#DejaVuSansDisplay-2014" transform="translate(0 0.203125)"/>
     <use xlink:href="#ArialMT-20" transform="translate(100 0.203125)"/>
     <use xlink:href="#ArialMT-6d" transform="translate(127.783203 0.203125)"/>
     <use xlink:href="#ArialMT-6f" transform="translate(211.083984 0.203125)"/>
     <use xlink:href="#ArialMT-6e" transform="translate(266.699219 0.203125)"/>
     <use xlink:href="#ArialMT-69" transform="translate(322.314453 0.203125)"/>
     <use xlink:href="#ArialMT-74" transform="translate(344.53125 0.203125)"/>
     <use xlink:href="#ArialMT-6f" transform="translate(372.314453 0.203125)"/>
     <use xlink:href="#ArialMT-72" transform="translate(427.929688 0.203125)"/>
     <use xlink:href="#ArialMT-69" transform="translate(461.230469 0.203125)"/>
     <use xlink:href="#ArialMT-6e" transform="translate(483.447266 0.203125)"/>
     <use xlink:href="#ArialMT-67" transform="translate(539.0625 0.203125)"/>
     <use xlink:href="#ArialMT-20" transform="translate(594.677734 0.203125)"/>
     <use xlink:href="#ArialMT-65" transform="translate(622.460938 0.203125)"/>
     <use xlink:href="#ArialMT-6e" transform="translate(678.076172 0.203125)"/>
     <use xlink:href="#ArialMT-64" transform="translate(733.691406 0.203125)"/>
     <use xlink:href="#ArialMT-73" transform="translate(789.306641 0.203125)"/>
     <use xlink:href="#ArialMT-20" transform="translate(839.306641 0.203125)"/>
     <use xlink:href="#ArialMT-62" transform="translate(867.089844 0.203125)"/>
     <use xlink:href="#ArialMT-65" transform="translate(922.705078 0.203125)"/>
     <use xlink:href="#ArialMT-66" transform="translate(978.320312 0.203125)"/>
     <use xlink:href="#ArialMT-6f" transform="translate(1006.103516 0.203125)"/>
     <use xlink:href="#ArialMT-72" transform="translate(1061.71875 0.203125)"/>
     <use xlink:href="#ArialMT-65" transform="translate(1095.019531 0.203125)"/>
     <use xlink:href="#ArialMT-20" transform="translate(1150.634766 0.203125)"/>
     <use xlink:href="#ArialMT-65" transform="translate(1178.417969 0.203125)"/>
     <use xlink:href="#ArialMT-76" transform="translate(1234.033203 0.203125)"/>
     <use xlink:href="#ArialMT-65" transform="translate(1284.033203 0.203125)"/>
     <use xlink:href="#ArialMT-6e" transform="translate(1339.648438 0.203125)"/>
     <use xlink:href="#ArialMT-74" transform="translate(1395.263672 0.203125)"/>
     <use xlink:href="#ArialMT-20" transform="translate(1423.046875 0.203125)"/>
     <use xlink:href="#ArialMT-61" transform="translate(1450.830078 0.203125)"/>
     <use xlink:href="#ArialMT-74" transform="translate(1506.445312 0.203125)"/>
     <use xlink:href="#ArialMT-20" transform="translate(1534.228516 0.203125)"/>
     <use xlink:href="#ArialMT-74" transform="translate(1562.011719 0.203125)"/>
     <use xlink:href="#ArialMT-69" transform="translate(1589.794922 0.203125)"/>
     <use xlink:href="#ArialMT-6d" transform="translate(1612.011719 0.203125)"/>
     <use xlink:href="#ArialMT-65" transform="translate(1695.3125 0.203125)"/>
     <use xlink:href="#ArialMT-20" transform="translate(1750.927734 0.203125)"/>
     <use xlink:href="#ArialMT-54" transform="translate(1778.710938 0.203125)"/>
     <use xlink:href="#ArialMT-63" transform="translate(1841.537266 -29.665625) scale(0.7)"/>
     <use xlink:href="#ArialMT-2265" transform="translate(1900.997813 0.203125)"/>
     <use xlink:href="#ArialMT-74" transform="translate(1975.363047 0.203125)"/>
     <use xlink:href="#ArialMT-70" transform="translate(2004.888594 -29.665625) scale(0.7)"/>
    </g>
   </g>
   <g id="line2d_1">
    <path d="M 46.518165 151.475592 
L 175.534867 151.475592 
" clip-path="url(#pc5a7ab1b48)" style="fill: none; stroke: #f57f17; stroke-width: 1.8; stroke-linecap: round"/>
   </g>
   <g id="line2d_2">
    <path d="M 46.518165 168.033672 
L 232.12114 168.033672 
" clip-path="url(#pc5a7ab1b48)" style="fill: none; stroke: #7b1fa2; stroke-width: 1.8; stroke-linecap: round"/>
   </g>
   <g id="line2d_3">
    <path d="M 202.696278 56.14836 
L 202.696278 31.547784 
" clip-path="url(#pc5a7ab1b48)" style="fill: none; stroke-dasharray: 4.44,1.92; stroke-dashoffset: 0; stroke: #cc4466; stroke-width: 1.2"/>
   </g>
   <g id="text_14">
    <!-- 12 h -->
    <g style="fill: #cc4466" transform="translate(195.193348 26.283002) scale(0.075 -0.075)">
     <defs>
      <path id="Arial-BoldMT-31" d="M 2519 0 
L 1641 0 
L 1641 3309 
Q 1159 2859 506 2644 
L 506 3441 
Q 850 3553 1253 3867 
Q 1656 4181 1806 4600 
L 2519 4600 
L 2519 0 
z
" transform="scale(0.015625)"/>
      <path id="Arial-BoldMT-32" d="M 3238 816 
L 3238 0 
L 159 0 
Q 209 463 459 877 
Q 709 1291 1447 1975 
Q 2041 2528 2175 2725 
Q 2356 2997 2356 3263 
Q 2356 3556 2198 3714 
Q 2041 3872 1763 3872 
Q 1488 3872 1325 3706 
Q 1163 3541 1138 3156 
L 263 3244 
Q 341 3969 753 4284 
Q 1166 4600 1784 4600 
Q 2463 4600 2850 4234 
Q 3238 3869 3238 3325 
Q 3238 3016 3127 2736 
Q 3016 2456 2775 2150 
Q 2616 1947 2200 1565 
Q 1784 1184 1673 1059 
Q 1563 934 1494 816 
L 3238 816 
z
" transform="scale(0.015625)"/>
     </defs>
     <use xlink:href="#Arial-BoldMT-31"/>
     <use xlink:href="#Arial-BoldMT-32" transform="translate(55.615234 0)"/>
     <use xlink:href="#Arial-BoldMT-20" transform="translate(111.230469 0)"/>
     <use xlink:href="#Arial-BoldMT-68" transform="translate(139.013672 0)"/>
    </g>
   </g>
   <g id="line2d_4">
    <path d="M 261.546002 56.14836 
L 261.546002 31.547784 
" clip-path="url(#pc5a7ab1b48)" style="fill: none; stroke-dasharray: 4.44,1.92; stroke-dashoffset: 0; stroke: #3366aa; stroke-width: 1.2"/>
   </g>
   <g id="text_15">
    <!-- 24 h -->
    <g style="fill: #3366aa" transform="translate(254.043072 26.283002) scale(0.075 -0.075)">
     <defs>
      <path id="Arial-BoldMT-34" d="M 1994 0 
L 1994 922 
L 119 922 
L 119 1691 
L 2106 4600 
L 2844 4600 
L 2844 1694 
L 3413 1694 
L 3413 922 
L 2844 922 
L 2844 0 
L 1994 0 
z
M 1994 1694 
L 1994 3259 
L 941 1694 
L 1994 1694 
z
" transform="scale(0.015625)"/>
     </defs>
     <use xlink:href="#Arial-BoldMT-32"/>
     <use xlink:href="#Arial-BoldMT-34" transform="translate(55.615234 0)"/>
     <use xlink:href="#Arial-BoldMT-20" transform="translate(111.230469 0)"/>
     <use xlink:href="#Arial-BoldMT-68" transform="translate(139.013672 0)"/>
    </g>
   </g>
   <g id="line2d_5">
    <path d="M 352.084038 56.14836 
L 352.084038 31.547784 
" clip-path="url(#pc5a7ab1b48)" style="fill: none; stroke-dasharray: 4.44,1.92; stroke-dashoffset: 0; stroke: #117733; stroke-width: 1.2"/>
   </g>
   <g id="text_16">
    <!-- 48 h -->
    <g style="fill: #117733" transform="translate(344.581108 26.283002) scale(0.075 -0.075)">
     <defs>
      <path id="Arial-BoldMT-38" d="M 1025 2472 
Q 684 2616 529 2867 
Q 375 3119 375 3419 
Q 375 3931 733 4265 
Q 1091 4600 1750 4600 
Q 2403 4600 2764 4265 
Q 3125 3931 3125 3419 
Q 3125 3100 2959 2851 
Q 2794 2603 2494 2472 
Q 2875 2319 3073 2025 
Q 3272 1731 3272 1347 
Q 3272 713 2867 316 
Q 2463 -81 1791 -81 
Q 1166 -81 750 247 
Q 259 634 259 1309 
Q 259 1681 443 1992 
Q 628 2303 1025 2472 
z
M 1206 3356 
Q 1206 3094 1354 2947 
Q 1503 2800 1750 2800 
Q 2000 2800 2150 2948 
Q 2300 3097 2300 3359 
Q 2300 3606 2151 3754 
Q 2003 3903 1759 3903 
Q 1506 3903 1356 3753 
Q 1206 3603 1206 3356 
z
M 1125 1394 
Q 1125 1031 1311 828 
Q 1497 625 1775 625 
Q 2047 625 2225 820 
Q 2403 1016 2403 1384 
Q 2403 1706 2222 1901 
Q 2041 2097 1763 2097 
Q 1441 2097 1283 1875 
Q 1125 1653 1125 1394 
z
" transform="scale(0.015625)"/>
     </defs>
     <use xlink:href="#Arial-BoldMT-34"/>
     <use xlink:href="#Arial-BoldMT-38" transform="translate(55.615234 0)"/>
     <use xlink:href="#Arial-BoldMT-20" transform="translate(111.230469 0)"/>
     <use xlink:href="#Arial-BoldMT-68" transform="translate(139.013672 0)"/>
    </g>
   </g>
   <g id="line2d_6">
    <defs>
     <path id="mf342265813" d="M -4 4 
L 4 -4 
M -4 -4 
L 4 4 
" style="stroke: #f57f17; stroke-width: 2"/>
    </defs>
    <g clip-path="url(#pc5a7ab1b48)">
     <use xlink:href="#mf342265813" x="175.534867" y="151.475592" style="fill: #f57f17; stroke: #f57f17; stroke-width: 2"/>
    </g>
   </g>
   <g id="line2d_7">
    <defs>
     <path id="m50ebffbfb9" d="M 0 6 
L 0 -6 
" style="stroke: #7b1fa2; stroke-width: 2"/>
    </defs>
    <g clip-path="url(#pc5a7ab1b48)">
     <use xlink:href="#m50ebffbfb9" x="232.12114" y="168.033672" style="fill: #7b1fa2; stroke: #7b1fa2; stroke-width: 2"/>
    </g>
   </g>
   <g id="line2d_8">
    <defs>
     <path id="m6889b1a04c" d="M 0 3 
C 0.795609 3 1.55874 2.683901 2.12132 2.12132 
C 2.683901 1.55874 3 0.795609 3 0 
C 3 -0.795609 2.683901 -1.55874 2.12132 -2.12132 
C 1.55874 -2.683901 0.795609 -3 0 -3 
C -0.795609 -3 -1.55874 -2.683901 -2.12132 -2.12132 
C -2.683901 -1.55874 -3 -0.795609 -3 0 
C -3 0.795609 -2.683901 1.55874 -2.12132 2.12132 
C -1.55874 2.683901 -0.795609 3 0 3 
z
" style="stroke: #ffffff; stroke-width: 0.8"/>
    </defs>
    <g clip-path="url(#pc5a7ab1b48)">
     <use xlink:href="#m6889b1a04c" x="62.362322" y="43.848072" style="fill: #cc3311; stroke: #ffffff; stroke-width: 0.8"/>
    </g>
   </g>
   <g id="line2d_9">
    <defs>
     <path id="m2ba5bc3322" d="M 0 3.889087 
L 3.889087 0 
L 0 -3.889087 
L -3.889087 0 
z
" style="stroke: #ffffff; stroke-width: 0.8; stroke-linejoin: miter"/>
    </defs>
    <g clip-path="url(#pc5a7ab1b48)">
     <use xlink:href="#m2ba5bc3322" x="141.583103" y="43.848072" style="fill: #e65100; stroke: #ffffff; stroke-width: 0.8; stroke-linejoin: miter"/>
    </g>
   </g>
  </g>
 </g>
 <defs>
  <clipPath id="pc5a7ab1b48">
   <rect x="17.093303" y="3.635592" width="373.4694" height="177.408"/>
  </clipPath>
 </defs>
</svg>
