<?xml version="1.0" encoding="utf-8" standalone="no"?>
<!DOCTYPE svg PUBLIC "-//W3C//DTD SVG 1.1//EN"
  "http://www.w3.org/Graphics/SVG/1.1/DTD/svg11.dtd">
<svg xmlns:xlink="http://www.w3.org/1999/xlink" width="471.816pt" height="161.667047pt" viewBox="0 0 471.816 161.667047" xmlns="http://www.w3.org/2000/svg" version="1.1">
 <metadata>
  <rdf:RDF xmlns:dc="http://purl.org/dc/elements/1.1/" xmlns:cc="http://creativecommons.org/ns#" xmlns:rdf="http://www.w3.org/1999/02/22-rdf-syntax-ns#">
   <cc:Work>
    <dc:type rdf:resource="http://purl.org/dc/dcmitype/StillImage"/>
    <dc:date>2026-04-01T22:14:05.007866</dc:date>
    <dc:format>image/svg+xml</dc:format>
    <dc:creator>
     <cc:Agent>
      <dc:title>Matplotlib v3.10.5, https://matplotlib.org/</dc:title>
     </cc:Agent>
    </dc:creator>
   </cc:Work>
  </rdf:RDF>
 </metadata>
 <defs>
  <style type="text/css">*{stroke-linejoin: round; stroke-linecap: butt}</style>
 </defs>
 <g id="figure_1">
  <g id="patch_1">
   <path d="M 0 161.667047 
L 471.816 161.667047 
L 471.816 0 
L 0 0 
z
" style="fill: #ffffff"/>
  </g>
  <g id="axes_1">
   <g id="patch_2">
    <path d="M 3.6 129.633375 
L 87.586295 129.633375 
L 87.586295 22.029375 
L 3.6 22.029375 
z
" style="fill: #ffffff"/>
   </g>
   <g id="patch_3">
    <path d="M 7.417559 129.633375 
L 9.962598 129.633375 
L 9.962598 128.675103 
L 7.417559 128.675103 
z
" clip-path="url(#p8d7c0435c8)" style="fill: #cc3311; opacity: 0.45; stroke: #ffffff; stroke-width: 0.3; stroke-linejoin: miter"/>
   </g>
   <g id="patch_4">
    <path d="M 9.962598 129.633375 
L 12.507637 129.633375 
L 12.507637 129.633375 
L 9.962598 129.633375 
z
" clip-path="url(#p8d7c0435c8)" style="fill: #cc3311; opacity: 0.45; stroke: #ffffff; stroke-width: 0.3; stroke-linejoin: miter"/>
   </g>
   <g id="patch_5">
    <path d="M 12.507637 129.633375 
L 15.052677 129.633375 
L 15.052677 128.675103 
L 12.507637 128.675103 
z
" clip-path="url(#p8d7c0435c8)" style="fill: #cc3311; opacity: 0.45; stroke: #ffffff; stroke-width: 0.3; stroke-linejoin: miter"/>
   </g>
   <g id="patch_6">
    <path d="M 15.052677 129.633375 
L 17.597716 129.633375 
L 17.597716 125.800287 
L 15.052677 125.800287 
z
" clip-path="url(#p8d7c0435c8)" style="fill: #cc3311; opacity: 0.45; stroke: #ffffff; stroke-width: 0.3; stroke-linejoin: miter"/>
   </g>
   <g id="patch_7">
    <path d="M 17.597716 129.633375 
L 20.142755 129.633375 
L 20.142755 123.883743 
L 17.597716 123.883743 
z
" clip-path="url(#p8d7c0435c8)" style="fill: #cc3311; opacity: 0.45; stroke: #ffffff; stroke-width: 0.3; stroke-linejoin: miter"/>
   </g>
   <g id="patch_8">
    <path d="M 20.142755 129.633375 
L 22.687794 129.633375 
L 22.687794 123.883743 
L 20.142755 123.883743 
z
" clip-path="url(#p8d7c0435c8)" style="fill: #cc3311; opacity: 0.45; stroke: #ffffff; stroke-width: 0.3; stroke-linejoin: miter"/>
   </g>
   <g id="patch_9">
    <path d="M 22.687794 129.633375 
L 25.232834 129.633375 
L 25.232834 125.800287 
L 22.687794 125.800287 
z
" clip-path="url(#p8d7c0435c8)" style="fill: #cc3311; opacity: 0.45; stroke: #ffffff; stroke-width: 0.3; stroke-linejoin: miter"/>
   </g>
   <g id="patch_10">
    <path d="M 25.232834 129.633375 
L 27.777873 129.633375 
L 27.777873 118.134111 
L 25.232834 118.134111 
z
" clip-path="url(#p8d7c0435c8)" style="fill: #cc3311; opacity: 0.45; stroke: #ffffff; stroke-width: 0.3; stroke-linejoin: miter"/>
   </g>
   <g id="patch_11">
    <path d="M 27.777873 129.633375 
L 30.322912 129.633375 
L 30.322912 104.718304 
L 27.777873 104.718304 
z
" clip-path="url(#p8d7c0435c8)" style="fill: #cc3311; opacity: 0.45; stroke: #ffffff; stroke-width: 0.3; stroke-linejoin: miter"/>
   </g>
   <g id="patch_12">
    <path d="M 30.322912 129.633375 
L 32.867951 129.633375 
L 32.867951 98.968672 
L 30.322912 98.968672 
z
" clip-path="url(#p8d7c0435c8)" style="fill: #cc3311; opacity: 0.45; stroke: #ffffff; stroke-width: 0.3; stroke-linejoin: miter"/>
   </g>
   <g id="patch_13">
    <path d="M 32.867951 129.633375 
L 35.41299 129.633375 
L 35.41299 75.970145 
L 32.867951 75.970145 
z
" clip-path="url(#p8d7c0435c8)" style="fill: #cc3311; opacity: 0.45; stroke: #ffffff; stroke-width: 0.3; stroke-linejoin: miter"/>
   </g>
   <g id="patch_14">
    <path d="M 35.41299 129.633375 
L 37.95803 129.633375 
L 37.95803 80.761505 
L 35.41299 80.761505 
z
" clip-path="url(#p8d7c0435c8)" style="fill: #cc3311; opacity: 0.45; stroke: #ffffff; stroke-width: 0.3; stroke-linejoin: miter"/>
   </g>
   <g id="patch_15">
    <path d="M 37.95803 129.633375 
L 40.503069 129.633375 
L 40.503069 68.303969 
L 37.95803 68.303969 
z
" clip-path="url(#p8d7c0435c8)" style="fill: #cc3311; opacity: 0.45; stroke: #ffffff; stroke-width: 0.3; stroke-linejoin: miter"/>
   </g>
   <g id="patch_16">
    <path d="M 40.503069 129.633375 
L 43.048108 129.633375 
L 43.048108 58.721249 
L 40.503069 58.721249 
z
" clip-path="url(#p8d7c0435c8)" style="fill: #cc3311; opacity: 0.45; stroke: #ffffff; stroke-width: 0.3; stroke-linejoin: miter"/>
   </g>
   <g id="patch_17">
    <path d="M 43.048108 129.633375 
L 45.593147 129.633375 
L 45.593147 52.971618 
L 43.048108 52.971618 
z
" clip-path="url(#p8d7c0435c8)" style="fill: #cc3311; opacity: 0.45; stroke: #ffffff; stroke-width: 0.3; stroke-linejoin: miter"/>
   </g>
   <g id="patch_18">
    <path d="M 45.593147 129.633375 
L 48.138187 129.633375 
L 48.138187 36.680994 
L 45.593147 36.680994 
z
" clip-path="url(#p8d7c0435c8)" style="fill: #cc3311; opacity: 0.45; stroke: #ffffff; stroke-width: 0.3; stroke-linejoin: miter"/>
   </g>
   <g id="patch_19">
    <path d="M 48.138187 129.633375 
L 50.683226 129.633375 
L 50.683226 54.888161 
L 48.138187 54.888161 
z
" clip-path="url(#p8d7c0435c8)" style="fill: #cc3311; opacity: 0.45; stroke: #ffffff; stroke-width: 0.3; stroke-linejoin: miter"/>
   </g>
   <g id="patch_20">
    <path d="M 50.683226 129.633375 
L 53.228265 129.633375 
L 53.228265 59.679521 
L 50.683226 59.679521 
z
" clip-path="url(#p8d7c0435c8)" style="fill: #cc3311; opacity: 0.45; stroke: #ffffff; stroke-width: 0.3; stroke-linejoin: miter"/>
   </g>
   <g id="patch_21">
    <path d="M 53.228265 129.633375 
L 55.773304 129.633375 
L 55.773304 62.554337 
L 53.228265 62.554337 
z
" clip-path="url(#p8d7c0435c8)" style="fill: #cc3311; opacity: 0.45; stroke: #ffffff; stroke-width: 0.3; stroke-linejoin: miter"/>
   </g>
   <g id="patch_22">
    <path d="M 55.773304 129.633375 
L 58.318344 129.633375 
L 58.318344 79.803233 
L 55.773304 79.803233 
z
" clip-path="url(#p8d7c0435c8)" style="fill: #cc3311; opacity: 0.45; stroke: #ffffff; stroke-width: 0.3; stroke-linejoin: miter"/>
   </g>
   <g id="patch_23">
    <path d="M 58.318344 129.633375 
L 60.863383 129.633375 
L 60.863383 75.011873 
L 58.318344 75.011873 
z
" clip-path="url(#p8d7c0435c8)" style="fill: #cc3311; opacity: 0.45; stroke: #ffffff; stroke-width: 0.3; stroke-linejoin: miter"/>
   </g>
   <g id="patch_24">
    <path d="M 60.863383 129.633375 
L 63.408422 129.633375 
L 63.408422 93.21904 
L 60.863383 93.21904 
z
" clip-path="url(#p8d7c0435c8)" style="fill: #cc3311; opacity: 0.45; stroke: #ffffff; stroke-width: 0.3; stroke-linejoin: miter"/>
   </g>
   <g id="patch_25">
    <path d="M 63.408422 129.633375 
L 65.953461 129.633375 
L 65.953461 90.344224 
L 63.408422 90.344224 
z
" clip-path="url(#p8d7c0435c8)" style="fill: #cc3311; opacity: 0.45; stroke: #ffffff; stroke-width: 0.3; stroke-linejoin: miter"/>
   </g>
   <g id="patch_26">
    <path d="M 65.953461 129.633375 
L 68.498501 129.633375 
L 68.498501 104.718304 
L 65.953461 104.718304 
z
" clip-path="url(#p8d7c0435c8)" style="fill: #cc3311; opacity: 0.45; stroke: #ffffff; stroke-width: 0.3; stroke-linejoin: miter"/>
   </g>
   <g id="patch_27">
    <path d="M 68.498501 129.633375 
L 71.04354 129.633375 
L 71.04354 116.217567 
L 68.498501 116.217567 
z
" clip-path="url(#p8d7c0435c8)" style="fill: #cc3311; opacity: 0.45; stroke: #ffffff; stroke-width: 0.3; stroke-linejoin: miter"/>
   </g>
   <g id="patch_28">
    <path d="M 71.04354 129.633375 
L 73.588579 129.633375 
L 73.588579 114.301024 
L 71.04354 114.301024 
z
" clip-path="url(#p8d7c0435c8)" style="fill: #cc3311; opacity: 0.45; stroke: #ffffff; stroke-width: 0.3; stroke-linejoin: miter"/>
   </g>
   <g id="patch_29">
    <path d="M 73.588579 129.633375 
L 76.133618 129.633375 
L 76.133618 120.050655 
L 73.588579 120.050655 
z
" clip-path="url(#p8d7c0435c8)" style="fill: #cc3311; opacity: 0.45; stroke: #ffffff; stroke-width: 0.3; stroke-linejoin: miter"/>
   </g>
   <g id="patch_30">
    <path d="M 76.133618 129.633375 
L 78.678657 129.633375 
L 78.678657 122.925471 
L 76.133618 122.925471 
z
" clip-path="url(#p8d7c0435c8)" style="fill: #cc3311; opacity: 0.45; stroke: #ffffff; stroke-width: 0.3; stroke-linejoin: miter"/>
   </g>
   <g id="patch_31">
    <path d="M 78.678657 129.633375 
L 81.223697 129.633375 
L 81.223697 127.716831 
L 78.678657 127.716831 
z
" clip-path="url(#p8d7c0435c8)" style="fill: #cc3311; opacity: 0.45; stroke: #ffffff; stroke-width: 0.3; stroke-linejoin: miter"/>
   </g>
   <g id="patch_32">
    <path d="M 81.223697 129.633375 
L 83.768736 129.633375 
L 83.768736 127.716831 
L 81.223697 127.716831 
z
" clip-path="url(#p8d7c0435c8)" style="fill: #cc3311; opacity: 0.45; stroke: #ffffff; stroke-width: 0.3; stroke-linejoin: miter"/>
   </g>
   <g id="FillBetweenPolyCollection_1">
    <defs>
     <path id="m29ca9391e5" d="M 72.815528 -32.033672 
L 26.473058 -32.033672 
L 26.473058 -134.513672 
L 72.815528 -134.513672 
L 72.815528 -134.513672 
L 72.815528 -32.033672 
z
" style="stroke: #cc3311; stroke-opacity: 0.15; stroke-width: 0.6"/>
    </defs>
    <g clip-path="url(#p8d7c0435c8)">
     <use xlink:href="#m29ca9391e5" x="0" y="161.667047" style="fill: #cc3311; fill-opacity: 0.15; stroke: #cc3311; stroke-opacity: 0.15; stroke-width: 0.6"/>
    </g>
   </g>
   <g id="matplotlib.axis_1">
    <g id="xtick_1">
     <g id="line2d_1">
      <defs>
       <path id="m0e7f179d3a" d="M 0 0 
L 0 -2.5 
" style="stroke: #000000; stroke-width: 0.8"/>
      </defs>
      <g>
       <use xlink:href="#m0e7f179d3a" x="14.79381" y="129.633375" style="stroke: #000000; stroke-width: 0.8"/>
      </g>
     </g>
     <g id="text_1">
      <!-- 0.92 -->
      <g transform="translate(8.469005 137.785953) scale(0.065 -0.065)">
       <defs>
        <path id="ArialMT-30" d="M 266 2259 
Q 266 3072 433 3567 
Q 600 4063 929 4331 
Q 1259 4600 1759 4600 
Q 2128 4600 2406 4451 
Q 2684 4303 2865 4023 
Q 3047 3744 3150 3342 
Q 3253 2941 3253 2259 
Q 3253 1453 3087 958 
Q 2922 463 2592 192 
Q 2263 -78 1759 -78 
Q 1097 -78 719 397 
Q 266 969 266 2259 
z
M 844 2259 
Q 844 1131 1108 757 
Q 1372 384 1759 384 
Q 2147 384 2411 759 
Q 2675 1134 2675 2259 
Q 2675 3391 2411 3762 
Q 2147 4134 1753 4134 
Q 1366 4134 1134 3806 
Q 844 3388 844 2259 
z
" transform="scale(0.015625)"/>
        <path id="ArialMT-2e" d="M 581 0 
L 581 641 
L 1222 641 
L 1222 0 
L 581 0 
z
" transform="scale(0.015625)"/>
        <path id="ArialMT-39" d="M 350 1059 
L 891 1109 
Q 959 728 1153 556 
Q 1347 384 1650 384 
Q 1909 384 2104 503 
Q 2300 622 2425 820 
Q 2550 1019 2634 1356 
Q 2719 1694 2719 2044 
Q 2719 2081 2716 2156 
Q 2547 1888 2255 1720 
Q 1963 1553 1622 1553 
Q 1053 1553 659 1965 
Q 266 2378 266 3053 
Q 266 3750 677 4175 
Q 1088 4600 1706 4600 
Q 2153 4600 2523 4359 
Q 2894 4119 3086 3673 
Q 3278 3228 3278 2384 
Q 3278 1506 3087 986 
Q 2897 466 2520 194 
Q 2144 -78 1638 -78 
Q 1100 -78 759 220 
Q 419 519 350 1059 
z
M 2653 3081 
Q 2653 3566 2395 3850 
Q 2138 4134 1775 4134 
Q 1400 4134 1122 3828 
Q 844 3522 844 3034 
Q 844 2597 1108 2323 
Q 1372 2050 1759 2050 
Q 2150 2050 2401 2323 
Q 2653 2597 2653 3081 
z
" transform="scale(0.015625)"/>
        <path id="ArialMT-32" d="M 3222 541 
L 3222 0 
L 194 0 
Q 188 203 259 391 
Q 375 700 629 1000 
Q 884 1300 1366 1694 
Q 2113 2306 2375 2664 
Q 2638 3022 2638 3341 
Q 2638 3675 2398 3904 
Q 2159 4134 1775 4134 
Q 1369 4134 1125 3890 
Q 881 3647 878 3216 
L 300 3275 
Q 359 3922 746 4261 
Q 1134 4600 1788 4600 
Q 2447 4600 2831 4234 
Q 3216 3869 3216 3328 
Q 3216 3053 3103 2787 
Q 2991 2522 2730 2228 
Q 2469 1934 1863 1422 
Q 1356 997 1212 845 
Q 1069 694 975 541 
L 3222 541 
z
" transform="scale(0.015625)"/>
       </defs>
       <use xlink:href="#ArialMT-30"/>
       <use xlink:href="#ArialMT-2e" transform="translate(55.615234 0)"/>
       <use xlink:href="#ArialMT-39" transform="translate(83.398438 0)"/>
       <use xlink:href="#ArialMT-32" transform="translate(139.013672 0)"/>
      </g>
     </g>
    </g>
    <g id="xtick_2">
     <g id="line2d_2">
      <g>
       <use xlink:href="#m0e7f179d3a" x="48.249931" y="129.633375" style="stroke: #000000; stroke-width: 0.8"/>
      </g>
     </g>
     <g id="text_2">
      <!-- 0.94 -->
      <g transform="translate(41.925126 137.785953) scale(0.065 -0.065)">
       <defs>
        <path id="ArialMT-34" d="M 2069 0 
L 2069 1097 
L 81 1097 
L 81 1613 
L 2172 4581 
L 2631 4581 
L 2631 1613 
L 3250 1613 
L 3250 1097 
L 2631 1097 
L 2631 0 
L 2069 0 
z
M 2069 1613 
L 2069 3678 
L 634 1613 
L 2069 1613 
z
" transform="scale(0.015625)"/>
       </defs>
       <use xlink:href="#ArialMT-30"/>
       <use xlink:href="#ArialMT-2e" transform="translate(55.615234 0)"/>
       <use xlink:href="#ArialMT-39" transform="translate(83.398438 0)"/>
       <use xlink:href="#ArialMT-34" transform="translate(139.013672 0)"/>
      </g>
     </g>
    </g>
    <g id="xtick_3">
     <g id="line2d_3">
      <g>
       <use xlink:href="#m0e7f179d3a" x="81.706051" y="129.633375" style="stroke: #000000; stroke-width: 0.8"/>
      </g>
     </g>
     <g id="text_3">
      <!-- 0.96 -->
      <g transform="translate(75.381247 137.785953) scale(0.065 -0.065)">
       <defs>
        <path id="ArialMT-36" d="M 3184 3459 
L 2625 3416 
Q 2550 3747 2413 3897 
Q 2184 4138 1850 4138 
Q 1581 4138 1378 3988 
Q 1113 3794 959 3422 
Q 806 3050 800 2363 
Q 1003 2672 1297 2822 
Q 1591 2972 1913 2972 
Q 2475 2972 2870 2558 
Q 3266 2144 3266 1488 
Q 3266 1056 3080 686 
Q 2894 316 2569 119 
Q 2244 -78 1831 -78 
Q 1128 -78 684 439 
Q 241 956 241 2144 
Q 241 3472 731 4075 
Q 1159 4600 1884 4600 
Q 2425 4600 2770 4297 
Q 3116 3994 3184 3459 
z
M 888 1484 
Q 888 1194 1011 928 
Q 1134 663 1356 523 
Q 1578 384 1822 384 
Q 2178 384 2434 671 
Q 2691 959 2691 1453 
Q 2691 1928 2437 2201 
Q 2184 2475 1800 2475 
Q 1419 2475 1153 2201 
Q 888 1928 888 1484 
z
" transform="scale(0.015625)"/>
       </defs>
       <use xlink:href="#ArialMT-30"/>
       <use xlink:href="#ArialMT-2e" transform="translate(55.615234 0)"/>
       <use xlink:href="#ArialMT-39" transform="translate(83.398438 0)"/>
       <use xlink:href="#ArialMT-36" transform="translate(139.013672 0)"/>
      </g>
     </g>
    </g>
    <g id="text_4">
     <!-- C-index -->
     <g transform="translate(32.672054 148.446187) scale(0.075 -0.075)">
      <defs>
       <path id="ArialMT-43" d="M 3763 1606 
L 4369 1453 
Q 4178 706 3683 314 
Q 3188 -78 2472 -78 
Q 1731 -78 1267 223 
Q 803 525 561 1097 
Q 319 1669 319 2325 
Q 319 3041 592 3573 
Q 866 4106 1370 4382 
Q 1875 4659 2481 4659 
Q 3169 4659 3637 4309 
Q 4106 3959 4291 3325 
L 3694 3184 
Q 3534 3684 3231 3912 
Q 2928 4141 2469 4141 
Q 1941 4141 1586 3887 
Q 1231 3634 1087 3207 
Q 944 2781 944 2328 
Q 944 1744 1114 1308 
Q 1284 872 1643 656 
Q 2003 441 2422 441 
Q 2931 441 3284 734 
Q 3638 1028 3763 1606 
z
" transform="scale(0.015625)"/>
       <path id="ArialMT-2d" d="M 203 1375 
L 203 1941 
L 1931 1941 
L 1931 1375 
L 203 1375 
z
" transform="scale(0.015625)"/>
       <path id="ArialMT-69" d="M 425 3934 
L 425 4581 
L 988 4581 
L 988 3934 
L 425 3934 
z
M 425 0 
L 425 3319 
L 988 3319 
L 988 0 
L 425 0 
z
" transform="scale(0.015625)"/>
       <path id="ArialMT-6e" d="M 422 0 
L 422 3319 
L 928 3319 
L 928 2847 
Q 1294 3394 1984 3394 
Q 2284 3394 2536 3286 
Q 2788 3178 2913 3003 
Q 3038 2828 3088 2588 
Q 3119 2431 3119 2041 
L 3119 0 
L 2556 0 
L 2556 2019 
Q 2556 2363 2490 2533 
Q 2425 2703 2258 2804 
Q 2091 2906 1866 2906 
Q 1506 2906 1245 2678 
Q 984 2450 984 1813 
L 984 0 
L 422 0 
z
" transform="scale(0.015625)"/>
       <path id="ArialMT-64" d="M 2575 0 
L 2575 419 
Q 2259 -75 1647 -75 
Q 1250 -75 917 144 
Q 584 363 401 755 
Q 219 1147 219 1656 
Q 219 2153 384 2558 
Q 550 2963 881 3178 
Q 1213 3394 1622 3394 
Q 1922 3394 2156 3267 
Q 2391 3141 2538 2938 
L 2538 4581 
L 3097 4581 
L 3097 0 
L 2575 0 
z
M 797 1656 
Q 797 1019 1065 703 
Q 1334 388 1700 388 
Q 2069 388 2326 689 
Q 2584 991 2584 1609 
Q 2584 2291 2321 2609 
Q 2059 2928 1675 2928 
Q 1300 2928 1048 2622 
Q 797 2316 797 1656 
z
" transform="scale(0.015625)"/>
       <path id="ArialMT-65" d="M 2694 1069 
L 3275 997 
Q 3138 488 2766 206 
Q 2394 -75 1816 -75 
Q 1088 -75 661 373 
Q 234 822 234 1631 
Q 234 2469 665 2931 
Q 1097 3394 1784 3394 
Q 2450 3394 2872 2941 
Q 3294 2488 3294 1666 
Q 3294 1616 3291 1516 
L 816 1516 
Q 847 969 1125 678 
Q 1403 388 1819 388 
Q 2128 388 2347 550 
Q 2566 713 2694 1069 
z
M 847 1978 
L 2700 1978 
Q 2663 2397 2488 2606 
Q 2219 2931 1791 2931 
Q 1403 2931 1139 2672 
Q 875 2413 847 1978 
z
" transform="scale(0.015625)"/>
       <path id="ArialMT-78" d="M 47 0 
L 1259 1725 
L 138 3319 
L 841 3319 
L 1350 2541 
Q 1494 2319 1581 2169 
Q 1719 2375 1834 2534 
L 2394 3319 
L 3066 3319 
L 1919 1756 
L 3153 0 
L 2463 0 
L 1781 1031 
L 1600 1309 
L 728 0 
L 47 0 
z
" transform="scale(0.015625)"/>
      </defs>
      <use xlink:href="#ArialMT-43"/>
      <use xlink:href="#ArialMT-2d" transform="translate(72.216797 0)"/>
      <use xlink:href="#ArialMT-69" transform="translate(105.517578 0)"/>
      <use xlink:href="#ArialMT-6e" transform="translate(127.734375 0)"/>
      <use xlink:href="#ArialMT-64" transform="translate(183.349609 0)"/>
      <use xlink:href="#ArialMT-65" transform="translate(238.964844 0)"/>
      <use xlink:href="#ArialMT-78" transform="translate(294.580078 0)"/>
     </g>
    </g>
   </g>
   <g id="matplotlib.axis_2"/>
   <g id="patch_33">
    <path d="M 3.6 129.633375 
L 3.6 22.029375 
" style="fill: none; stroke: #000000; stroke-width: 0.6; stroke-linejoin: miter; stroke-linecap: square"/>
   </g>
   <g id="patch_34">
    <path d="M 3.6 129.633375 
L 87.586295 129.633375 
" style="fill: none; stroke: #000000; stroke-width: 0.6; stroke-linejoin: miter; stroke-linecap: square"/>
   </g>
   <g id="text_5">
    <!-- 0.9398 -->
    <g transform="translate(34.889163 8.610469) scale(0.07 -0.07)">
     <defs>
      <path id="Arial-BoldMT-30" d="M 1756 4600 
Q 2422 4600 2797 4125 
Q 3244 3563 3244 2259 
Q 3244 959 2794 391 
Q 2422 -78 1756 -78 
Q 1088 -78 678 436 
Q 269 950 269 2269 
Q 269 3563 719 4131 
Q 1091 4600 1756 4600 
z
M 1756 3872 
Q 1597 3872 1472 3770 
Q 1347 3669 1278 3406 
Q 1188 3066 1188 2259 
Q 1188 1453 1269 1151 
Q 1350 850 1473 750 
Q 1597 650 1756 650 
Q 1916 650 2041 751 
Q 2166 853 2234 1116 
Q 2325 1453 2325 2259 
Q 2325 3066 2244 3367 
Q 2163 3669 2039 3770 
Q 1916 3872 1756 3872 
z
" transform="scale(0.015625)"/>
      <path id="Arial-BoldMT-2e" d="M 459 0 
L 459 878 
L 1338 878 
L 1338 0 
L 459 0 
z
" transform="scale(0.015625)"/>
      <path id="Arial-BoldMT-39" d="M 291 1059 
L 1141 1153 
Q 1172 894 1303 769 
Q 1434 644 1650 644 
Q 1922 644 2112 894 
Q 2303 1144 2356 1931 
Q 2025 1547 1528 1547 
Q 988 1547 595 1964 
Q 203 2381 203 3050 
Q 203 3747 617 4173 
Q 1031 4600 1672 4600 
Q 2369 4600 2816 4061 
Q 3263 3522 3263 2288 
Q 3263 1031 2797 475 
Q 2331 -81 1584 -81 
Q 1047 -81 715 205 
Q 384 491 291 1059 
z
M 2278 2978 
Q 2278 3403 2083 3637 
Q 1888 3872 1631 3872 
Q 1388 3872 1227 3680 
Q 1066 3488 1066 3050 
Q 1066 2606 1241 2398 
Q 1416 2191 1678 2191 
Q 1931 2191 2104 2391 
Q 2278 2591 2278 2978 
z
" transform="scale(0.015625)"/>
      <path id="Arial-BoldMT-33" d="M 241 1216 
L 1091 1319 
Q 1131 994 1309 822 
Q 1488 650 1741 650 
Q 2013 650 2198 856 
Q 2384 1063 2384 1413 
Q 2384 1744 2206 1937 
Q 2028 2131 1772 2131 
Q 1603 2131 1369 2066 
L 1466 2781 
Q 1822 2772 2009 2936 
Q 2197 3100 2197 3372 
Q 2197 3603 2059 3740 
Q 1922 3878 1694 3878 
Q 1469 3878 1309 3722 
Q 1150 3566 1116 3266 
L 306 3403 
Q 391 3819 561 4067 
Q 731 4316 1036 4458 
Q 1341 4600 1719 4600 
Q 2366 4600 2756 4188 
Q 3078 3850 3078 3425 
Q 3078 2822 2419 2463 
Q 2813 2378 3048 2084 
Q 3284 1791 3284 1375 
Q 3284 772 2843 347 
Q 2403 -78 1747 -78 
Q 1125 -78 715 280 
Q 306 638 241 1216 
z
" transform="scale(0.015625)"/>
      <path id="Arial-BoldMT-38" d="M 1025 2472 
Q 684 2616 529 2867 
Q 375 3119 375 3419 
Q 375 3931 733 4265 
Q 1091 4600 1750 4600 
Q 2403 4600 2764 4265 
Q 3125 3931 3125 3419 
Q 3125 3100 2959 2851 
Q 2794 2603 2494 2472 
Q 2875 2319 3073 2025 
Q 3272 1731 3272 1347 
Q 3272 713 2867 316 
Q 2463 -81 1791 -81 
Q 1166 -81 750 247 
Q 259 634 259 1309 
Q 259 1681 443 1992 
Q 628 2303 1025 2472 
z
M 1206 3356 
Q 1206 3094 1354 2947 
Q 1503 2800 1750 2800 
Q 2000 2800 2150 2948 
Q 2300 3097 2300 3359 
Q 2300 3606 2151 3754 
Q 2003 3903 1759 3903 
Q 1506 3903 1356 3753 
Q 1206 3603 1206 3356 
z
M 1125 1394 
Q 1125 1031 1311 828 
Q 1497 625 1775 625 
Q 2047 625 2225 820 
Q 2403 1016 2403 1384 
Q 2403 1706 2222 1901 
Q 2041 2097 1763 2097 
Q 1441 2097 1283 1875 
Q 1125 1653 1125 1394 
z
" transform="scale(0.015625)"/>
     </defs>
     <use xlink:href="#Arial-BoldMT-30"/>
     <use xlink:href="#Arial-BoldMT-2e" transform="translate(55.615234 0)"/>
     <use xlink:href="#Arial-BoldMT-39" transform="translate(83.398438 0)"/>
     <use xlink:href="#Arial-BoldMT-33" transform="translate(139.013672 0)"/>
     <use xlink:href="#Arial-BoldMT-39" transform="translate(194.628906 0)"/>
     <use xlink:href="#Arial-BoldMT-38" transform="translate(250.244141 0)"/>
    </g>
    <!-- [0.9270, 0.9547] -->
    <g transform="translate(19.90971 16.029375) scale(0.07 -0.07)">
     <defs>
      <path id="Arial-BoldMT-5b" d="M 456 -1291 
L 456 4581 
L 2013 4581 
L 2013 3891 
L 1291 3891 
L 1291 -600 
L 2013 -600 
L 2013 -1291 
L 456 -1291 
z
" transform="scale(0.015625)"/>
      <path id="Arial-BoldMT-32" d="M 3238 816 
L 3238 0 
L 159 0 
Q 209 463 459 877 
Q 709 1291 1447 1975 
Q 2041 2528 2175 2725 
Q 2356 2997 2356 3263 
Q 2356 3556 2198 3714 
Q 2041 3872 1763 3872 
Q 1488 3872 1325 3706 
Q 1163 3541 1138 3156 
L 263 3244 
Q 341 3969 753 4284 
Q 1166 4600 1784 4600 
Q 2463 4600 2850 4234 
Q 3238 3869 3238 3325 
Q 3238 3016 3127 2736 
Q 3016 2456 2775 2150 
Q 2616 1947 2200 1565 
Q 1784 1184 1673 1059 
Q 1563 934 1494 816 
L 3238 816 
z
" transform="scale(0.015625)"/>
      <path id="Arial-BoldMT-37" d="M 272 3703 
L 272 4519 
L 3275 4519 
L 3275 3881 
Q 2903 3516 2518 2831 
Q 2134 2147 1932 1376 
Q 1731 606 1734 0 
L 888 0 
Q 909 950 1279 1937 
Q 1650 2925 2269 3703 
L 272 3703 
z
" transform="scale(0.015625)"/>
      <path id="Arial-BoldMT-2c" d="M 438 878 
L 1316 878 
L 1316 250 
Q 1316 -131 1250 -351 
Q 1184 -572 1001 -747 
Q 819 -922 538 -1022 
L 366 -659 
Q 631 -572 743 -419 
Q 856 -266 863 0 
L 438 0 
L 438 878 
z
" transform="scale(0.015625)"/>
      <path id="Arial-BoldMT-20" transform="scale(0.015625)"/>
      <path id="Arial-BoldMT-35" d="M 284 1178 
L 1159 1269 
Q 1197 972 1381 798 
Q 1566 625 1806 625 
Q 2081 625 2272 848 
Q 2463 1072 2463 1522 
Q 2463 1944 2273 2155 
Q 2084 2366 1781 2366 
Q 1403 2366 1103 2031 
L 391 2134 
L 841 4519 
L 3163 4519 
L 3163 3697 
L 1506 3697 
L 1369 2919 
Q 1663 3066 1969 3066 
Q 2553 3066 2959 2641 
Q 3366 2216 3366 1538 
Q 3366 972 3038 528 
Q 2591 -78 1797 -78 
Q 1163 -78 763 262 
Q 363 603 284 1178 
z
" transform="scale(0.015625)"/>
      <path id="Arial-BoldMT-34" d="M 1994 0 
L 1994 922 
L 119 922 
L 119 1691 
L 2106 4600 
L 2844 4600 
L 2844 1694 
L 3413 1694 
L 3413 922 
L 2844 922 
L 2844 0 
L 1994 0 
z
M 1994 1694 
L 1994 3259 
L 941 1694 
L 1994 1694 
z
" transform="scale(0.015625)"/>
      <path id="Arial-BoldMT-5d" d="M 1675 4581 
L 1675 -1291 
L 119 -1291 
L 119 -600 
L 841 -600 
L 841 3897 
L 119 3897 
L 119 4581 
L 1675 4581 
z
" transform="scale(0.015625)"/>
     </defs>
     <use xlink:href="#Arial-BoldMT-5b"/>
     <use xlink:href="#Arial-BoldMT-30" transform="translate(33.300781 0)"/>
     <use xlink:href="#Arial-BoldMT-2e" transform="translate(88.916016 0)"/>
     <use xlink:href="#Arial-BoldMT-39" transform="translate(116.699219 0)"/>
     <use xlink:href="#Arial-BoldMT-32" transform="translate(172.314453 0)"/>
     <use xlink:href="#Arial-BoldMT-37" transform="translate(227.929688 0)"/>
     <use xlink:href="#Arial-BoldMT-30" transform="translate(283.544922 0)"/>
     <use xlink:href="#Arial-BoldMT-2c" transform="translate(339.160156 0)"/>
     <use xlink:href="#Arial-BoldMT-20" transform="translate(366.943359 0)"/>
     <use xlink:href="#Arial-BoldMT-30" transform="translate(394.726562 0)"/>
     <use xlink:href="#Arial-BoldMT-2e" transform="translate(450.341797 0)"/>
     <use xlink:href="#Arial-BoldMT-39" transform="translate(478.125 0)"/>
     <use xlink:href="#Arial-BoldMT-35" transform="translate(533.740234 0)"/>
     <use xlink:href="#Arial-BoldMT-34" transform="translate(589.355469 0)"/>
     <use xlink:href="#Arial-BoldMT-37" transform="translate(644.970703 0)"/>
     <use xlink:href="#Arial-BoldMT-5d" transform="translate(700.585938 0)"/>
    </g>
   </g>
   <g id="line2d_4">
    <path d="M 47.846667 129.633375 
L 47.846667 22.029375 
" clip-path="url(#p8d7c0435c8)" style="fill: none; stroke: #cc3311; stroke-width: 1.3; stroke-linecap: square"/>
   </g>
   <g id="line2d_5">
    <path d="M 26.473058 129.633375 
L 26.473058 22.029375 
" clip-path="url(#p8d7c0435c8)" style="fill: none; stroke-dasharray: 2.96,1.28; stroke-dashoffset: 0; stroke: #cc3311; stroke-opacity: 0.8; stroke-width: 0.8"/>
   </g>
   <g id="line2d_6">
    <path d="M 72.815528 129.633375 
L 72.815528 22.029375 
" clip-path="url(#p8d7c0435c8)" style="fill: none; stroke-dasharray: 2.96,1.28; stroke-dashoffset: 0; stroke: #cc3311; stroke-opacity: 0.8; stroke-width: 0.8"/>
   </g>
  </g>
  <g id="axes_2">
   <g id="patch_35">
    <path d="M 98.757426 129.633375 
L 182.743721 129.633375 
L 182.743721 22.029375 
L 98.757426 22.029375 
z
" style="fill: #ffffff"/>
   </g>
   <g id="patch_36">
    <path d="M 102.574985 129.633375 
L 105.120024 129.633375 
L 105.120024 128.64452 
L 102.574985 128.64452 
z
" clip-path="url(#pa14b56b2bc)" style="fill: #3366aa; opacity: 0.45; stroke: #ffffff; stroke-width: 0.3; stroke-linejoin: miter"/>
   </g>
   <g id="patch_37">
    <path d="M 105.120024 129.633375 
L 107.665064 129.633375 
L 107.665064 128.64452 
L 105.120024 128.64452 
z
" clip-path="url(#pa14b56b2bc)" style="fill: #3366aa; opacity: 0.45; stroke: #ffffff; stroke-width: 0.3; stroke-linejoin: miter"/>
   </g>
   <g id="patch_38">
    <path d="M 107.665064 129.633375 
L 110.210103 129.633375 
L 110.210103 126.66681 
L 107.665064 126.66681 
z
" clip-path="url(#pa14b56b2bc)" style="fill: #3366aa; opacity: 0.45; stroke: #ffffff; stroke-width: 0.3; stroke-linejoin: miter"/>
   </g>
   <g id="patch_39">
    <path d="M 110.210103 129.633375 
L 112.755142 129.633375 
L 112.755142 125.677955 
L 110.210103 125.677955 
z
" clip-path="url(#pa14b56b2bc)" style="fill: #3366aa; opacity: 0.45; stroke: #ffffff; stroke-width: 0.3; stroke-linejoin: miter"/>
   </g>
   <g id="patch_40">
    <path d="M 112.755142 129.633375 
L 115.300181 129.633375 
L 115.300181 114.800548 
L 112.755142 114.800548 
z
" clip-path="url(#pa14b56b2bc)" style="fill: #3366aa; opacity: 0.45; stroke: #ffffff; stroke-width: 0.3; stroke-linejoin: miter"/>
   </g>
   <g id="patch_41">
    <path d="M 115.300181 129.633375 
L 117.845221 129.633375 
L 117.845221 108.867418 
L 115.300181 108.867418 
z
" clip-path="url(#pa14b56b2bc)" style="fill: #3366aa; opacity: 0.45; stroke: #ffffff; stroke-width: 0.3; stroke-linejoin: miter"/>
   </g>
   <g id="patch_42">
    <path d="M 117.845221 129.633375 
L 120.39026 129.633375 
L 120.39026 96.012301 
L 117.845221 96.012301 
z
" clip-path="url(#pa14b56b2bc)" style="fill: #3366aa; opacity: 0.45; stroke: #ffffff; stroke-width: 0.3; stroke-linejoin: miter"/>
   </g>
   <g id="patch_43">
    <path d="M 120.39026 129.633375 
L 122.935299 129.633375 
L 122.935299 106.889707 
L 120.39026 106.889707 
z
" clip-path="url(#pa14b56b2bc)" style="fill: #3366aa; opacity: 0.45; stroke: #ffffff; stroke-width: 0.3; stroke-linejoin: miter"/>
   </g>
   <g id="patch_44">
    <path d="M 122.935299 129.633375 
L 125.480338 129.633375 
L 125.480338 62.391227 
L 122.935299 62.391227 
z
" clip-path="url(#pa14b56b2bc)" style="fill: #3366aa; opacity: 0.45; stroke: #ffffff; stroke-width: 0.3; stroke-linejoin: miter"/>
   </g>
   <g id="patch_45">
    <path d="M 125.480338 129.633375 
L 128.025378 129.633375 
L 128.025378 67.335503 
L 125.480338 67.335503 
z
" clip-path="url(#pa14b56b2bc)" style="fill: #3366aa; opacity: 0.45; stroke: #ffffff; stroke-width: 0.3; stroke-linejoin: miter"/>
   </g>
   <g id="patch_46">
    <path d="M 128.025378 129.633375 
L 130.570417 129.633375 
L 130.570417 36.680994 
L 128.025378 36.680994 
z
" clip-path="url(#pa14b56b2bc)" style="fill: #3366aa; opacity: 0.45; stroke: #ffffff; stroke-width: 0.3; stroke-linejoin: miter"/>
   </g>
   <g id="patch_47">
    <path d="M 130.570417 129.633375 
L 133.115456 129.633375 
L 133.115456 51.513821 
L 130.570417 51.513821 
z
" clip-path="url(#pa14b56b2bc)" style="fill: #3366aa; opacity: 0.45; stroke: #ffffff; stroke-width: 0.3; stroke-linejoin: miter"/>
   </g>
   <g id="patch_48">
    <path d="M 133.115456 129.633375 
L 135.660495 129.633375 
L 135.660495 47.5584 
L 133.115456 47.5584 
z
" clip-path="url(#pa14b56b2bc)" style="fill: #3366aa; opacity: 0.45; stroke: #ffffff; stroke-width: 0.3; stroke-linejoin: miter"/>
   </g>
   <g id="patch_49">
    <path d="M 135.660495 129.633375 
L 138.205534 129.633375 
L 138.205534 50.524966 
L 135.660495 50.524966 
z
" clip-path="url(#pa14b56b2bc)" style="fill: #3366aa; opacity: 0.45; stroke: #ffffff; stroke-width: 0.3; stroke-linejoin: miter"/>
   </g>
   <g id="patch_50">
    <path d="M 138.205534 129.633375 
L 140.750574 129.633375 
L 140.750574 40.636415 
L 138.205534 40.636415 
z
" clip-path="url(#pa14b56b2bc)" style="fill: #3366aa; opacity: 0.45; stroke: #ffffff; stroke-width: 0.3; stroke-linejoin: miter"/>
   </g>
   <g id="patch_51">
    <path d="M 140.750574 129.633375 
L 143.295613 129.633375 
L 143.295613 50.524966 
L 140.750574 50.524966 
z
" clip-path="url(#pa14b56b2bc)" style="fill: #3366aa; opacity: 0.45; stroke: #ffffff; stroke-width: 0.3; stroke-linejoin: miter"/>
   </g>
   <g id="patch_52">
    <path d="M 143.295613 129.633375 
L 145.840652 129.633375 
L 145.840652 73.268633 
L 143.295613 73.268633 
z
" clip-path="url(#pa14b56b2bc)" style="fill: #3366aa; opacity: 0.45; stroke: #ffffff; stroke-width: 0.3; stroke-linejoin: miter"/>
   </g>
   <g id="patch_53">
    <path d="M 145.840652 129.633375 
L 148.385691 129.633375 
L 148.385691 70.302068 
L 145.840652 70.302068 
z
" clip-path="url(#pa14b56b2bc)" style="fill: #3366aa; opacity: 0.45; stroke: #ffffff; stroke-width: 0.3; stroke-linejoin: miter"/>
   </g>
   <g id="patch_54">
    <path d="M 148.385691 129.633375 
L 150.930731 129.633375 
L 150.930731 88.10146 
L 148.385691 88.10146 
z
" clip-path="url(#pa14b56b2bc)" style="fill: #3366aa; opacity: 0.45; stroke: #ffffff; stroke-width: 0.3; stroke-linejoin: miter"/>
   </g>
   <g id="patch_55">
    <path d="M 150.930731 129.633375 
L 153.47577 129.633375 
L 153.47577 99.967722 
L 150.930731 99.967722 
z
" clip-path="url(#pa14b56b2bc)" style="fill: #3366aa; opacity: 0.45; stroke: #ffffff; stroke-width: 0.3; stroke-linejoin: miter"/>
   </g>
   <g id="patch_56">
    <path d="M 153.47577 129.633375 
L 156.020809 129.633375 
L 156.020809 103.923142 
L 153.47577 103.923142 
z
" clip-path="url(#pa14b56b2bc)" style="fill: #3366aa; opacity: 0.45; stroke: #ffffff; stroke-width: 0.3; stroke-linejoin: miter"/>
   </g>
   <g id="patch_57">
    <path d="M 156.020809 129.633375 
L 158.565848 129.633375 
L 158.565848 118.755969 
L 156.020809 118.755969 
z
" clip-path="url(#pa14b56b2bc)" style="fill: #3366aa; opacity: 0.45; stroke: #ffffff; stroke-width: 0.3; stroke-linejoin: miter"/>
   </g>
   <g id="patch_58">
    <path d="M 158.565848 129.633375 
L 161.110888 129.633375 
L 161.110888 116.778258 
L 158.565848 116.778258 
z
" clip-path="url(#pa14b56b2bc)" style="fill: #3366aa; opacity: 0.45; stroke: #ffffff; stroke-width: 0.3; stroke-linejoin: miter"/>
   </g>
   <g id="patch_59">
    <path d="M 161.110888 129.633375 
L 163.655927 129.633375 
L 163.655927 118.755969 
L 161.110888 118.755969 
z
" clip-path="url(#pa14b56b2bc)" style="fill: #3366aa; opacity: 0.45; stroke: #ffffff; stroke-width: 0.3; stroke-linejoin: miter"/>
   </g>
   <g id="patch_60">
    <path d="M 163.655927 129.633375 
L 166.200966 129.633375 
L 166.200966 125.677955 
L 163.655927 125.677955 
z
" clip-path="url(#pa14b56b2bc)" style="fill: #3366aa; opacity: 0.45; stroke: #ffffff; stroke-width: 0.3; stroke-linejoin: miter"/>
   </g>
   <g id="patch_61">
    <path d="M 166.200966 129.633375 
L 168.746005 129.633375 
L 168.746005 124.689099 
L 166.200966 124.689099 
z
" clip-path="url(#pa14b56b2bc)" style="fill: #3366aa; opacity: 0.45; stroke: #ffffff; stroke-width: 0.3; stroke-linejoin: miter"/>
   </g>
   <g id="patch_62">
    <path d="M 168.746005 129.633375 
L 171.291045 129.633375 
L 171.291045 128.64452 
L 168.746005 128.64452 
z
" clip-path="url(#pa14b56b2bc)" style="fill: #3366aa; opacity: 0.45; stroke: #ffffff; stroke-width: 0.3; stroke-linejoin: miter"/>
   </g>
   <g id="patch_63">
    <path d="M 171.291045 129.633375 
L 173.836084 129.633375 
L 173.836084 129.633375 
L 171.291045 129.633375 
z
" clip-path="url(#pa14b56b2bc)" style="fill: #3366aa; opacity: 0.45; stroke: #ffffff; stroke-width: 0.3; stroke-linejoin: miter"/>
   </g>
   <g id="patch_64">
    <path d="M 173.836084 129.633375 
L 176.381123 129.633375 
L 176.381123 129.633375 
L 173.836084 129.633375 
z
" clip-path="url(#pa14b56b2bc)" style="fill: #3366aa; opacity: 0.45; stroke: #ffffff; stroke-width: 0.3; stroke-linejoin: miter"/>
   </g>
   <g id="patch_65">
    <path d="M 176.381123 129.633375 
L 178.926162 129.633375 
L 178.926162 128.64452 
L 176.381123 128.64452 
z
" clip-path="url(#pa14b56b2bc)" style="fill: #3366aa; opacity: 0.45; stroke: #ffffff; stroke-width: 0.3; stroke-linejoin: miter"/>
   </g>
   <g id="FillBetweenPolyCollection_2">
    <defs>
     <path id="m50e17b1cd1" d="M 160.164468 -32.033672 
L 115.437537 -32.033672 
L 115.437537 -134.513672 
L 160.164468 -134.513672 
L 160.164468 -134.513672 
L 160.164468 -32.033672 
z
" style="stroke: #cc3311; stroke-opacity: 0.15; stroke-width: 0.6"/>
    </defs>
    <g clip-path="url(#pa14b56b2bc)">
     <use xlink:href="#m50e17b1cd1" x="0" y="161.667047" style="fill: #cc3311; fill-opacity: 0.15; stroke: #cc3311; stroke-opacity: 0.15; stroke-width: 0.6"/>
    </g>
   </g>
   <g id="matplotlib.axis_3">
    <g id="xtick_4">
     <g id="line2d_7">
      <g>
       <use xlink:href="#m0e7f179d3a" x="108.039291" y="129.633375" style="stroke: #000000; stroke-width: 0.8"/>
      </g>
     </g>
     <g id="text_6">
      <!-- 0.02 -->
      <g transform="translate(101.714486 137.785953) scale(0.065 -0.065)">
       <use xlink:href="#ArialMT-30"/>
       <use xlink:href="#ArialMT-2e" transform="translate(55.615234 0)"/>
       <use xlink:href="#ArialMT-30" transform="translate(83.398438 0)"/>
       <use xlink:href="#ArialMT-32" transform="translate(139.013672 0)"/>
      </g>
     </g>
    </g>
    <g id="xtick_5">
     <g id="line2d_8">
      <g>
       <use xlink:href="#m0e7f179d3a" x="135.565256" y="129.633375" style="stroke: #000000; stroke-width: 0.8"/>
      </g>
     </g>
     <g id="text_7">
      <!-- 0.04 -->
      <g transform="translate(129.240452 137.785953) scale(0.065 -0.065)">
       <use xlink:href="#ArialMT-30"/>
       <use xlink:href="#ArialMT-2e" transform="translate(55.615234 0)"/>
       <use xlink:href="#ArialMT-30" transform="translate(83.398438 0)"/>
       <use xlink:href="#ArialMT-34" transform="translate(139.013672 0)"/>
      </g>
     </g>
    </g>
    <g id="xtick_6">
     <g id="line2d_9">
      <g>
       <use xlink:href="#m0e7f179d3a" x="163.091222" y="129.633375" style="stroke: #000000; stroke-width: 0.8"/>
      </g>
     </g>
     <g id="text_8">
      <!-- 0.06 -->
      <g transform="translate(156.766417 137.785953) scale(0.065 -0.065)">
       <use xlink:href="#ArialMT-30"/>
       <use xlink:href="#ArialMT-2e" transform="translate(55.615234 0)"/>
       <use xlink:href="#ArialMT-30" transform="translate(83.398438 0)"/>
       <use xlink:href="#ArialMT-36" transform="translate(139.013672 0)"/>
      </g>
     </g>
    </g>
    <g id="text_9">
     <!-- Mean Brier -->
     <g transform="translate(122.411902 148.446187) scale(0.075 -0.075)">
      <defs>
       <path id="ArialMT-4d" d="M 475 0 
L 475 4581 
L 1388 4581 
L 2472 1338 
Q 2622 884 2691 659 
Q 2769 909 2934 1394 
L 4031 4581 
L 4847 4581 
L 4847 0 
L 4263 0 
L 4263 3834 
L 2931 0 
L 2384 0 
L 1059 3900 
L 1059 0 
L 475 0 
z
" transform="scale(0.015625)"/>
       <path id="ArialMT-61" d="M 2588 409 
Q 2275 144 1986 34 
Q 1697 -75 1366 -75 
Q 819 -75 525 192 
Q 231 459 231 875 
Q 231 1119 342 1320 
Q 453 1522 633 1644 
Q 813 1766 1038 1828 
Q 1203 1872 1538 1913 
Q 2219 1994 2541 2106 
Q 2544 2222 2544 2253 
Q 2544 2597 2384 2738 
Q 2169 2928 1744 2928 
Q 1347 2928 1158 2789 
Q 969 2650 878 2297 
L 328 2372 
Q 403 2725 575 2942 
Q 747 3159 1072 3276 
Q 1397 3394 1825 3394 
Q 2250 3394 2515 3294 
Q 2781 3194 2906 3042 
Q 3031 2891 3081 2659 
Q 3109 2516 3109 2141 
L 3109 1391 
Q 3109 606 3145 398 
Q 3181 191 3288 0 
L 2700 0 
Q 2613 175 2588 409 
z
M 2541 1666 
Q 2234 1541 1622 1453 
Q 1275 1403 1131 1340 
Q 988 1278 909 1158 
Q 831 1038 831 891 
Q 831 666 1001 516 
Q 1172 366 1500 366 
Q 1825 366 2078 508 
Q 2331 650 2450 897 
Q 2541 1088 2541 1459 
L 2541 1666 
z
" transform="scale(0.015625)"/>
       <path id="ArialMT-20" transform="scale(0.015625)"/>
       <path id="ArialMT-42" d="M 469 0 
L 469 4581 
L 2188 4581 
Q 2713 4581 3030 4442 
Q 3347 4303 3526 4014 
Q 3706 3725 3706 3409 
Q 3706 3116 3547 2856 
Q 3388 2597 3066 2438 
Q 3481 2316 3704 2022 
Q 3928 1728 3928 1328 
Q 3928 1006 3792 729 
Q 3656 453 3456 303 
Q 3256 153 2954 76 
Q 2653 0 2216 0 
L 469 0 
z
M 1075 2656 
L 2066 2656 
Q 2469 2656 2644 2709 
Q 2875 2778 2992 2937 
Q 3109 3097 3109 3338 
Q 3109 3566 3000 3739 
Q 2891 3913 2687 3977 
Q 2484 4041 1991 4041 
L 1075 4041 
L 1075 2656 
z
M 1075 541 
L 2216 541 
Q 2509 541 2628 563 
Q 2838 600 2978 687 
Q 3119 775 3209 942 
Q 3300 1109 3300 1328 
Q 3300 1584 3169 1773 
Q 3038 1963 2805 2039 
Q 2572 2116 2134 2116 
L 1075 2116 
L 1075 541 
z
" transform="scale(0.015625)"/>
       <path id="ArialMT-72" d="M 416 0 
L 416 3319 
L 922 3319 
L 922 2816 
Q 1116 3169 1280 3281 
Q 1444 3394 1641 3394 
Q 1925 3394 2219 3213 
L 2025 2691 
Q 1819 2813 1613 2813 
Q 1428 2813 1281 2702 
Q 1134 2591 1072 2394 
Q 978 2094 978 1738 
L 978 0 
L 416 0 
z
" transform="scale(0.015625)"/>
      </defs>
      <use xlink:href="#ArialMT-4d"/>
      <use xlink:href="#ArialMT-65" transform="translate(83.300781 0)"/>
      <use xlink:href="#ArialMT-61" transform="translate(138.916016 0)"/>
      <use xlink:href="#ArialMT-6e" transform="translate(194.53125 0)"/>
      <use xlink:href="#ArialMT-20" transform="translate(250.146484 0)"/>
      <use xlink:href="#ArialMT-42" transform="translate(277.929688 0)"/>
      <use xlink:href="#ArialMT-72" transform="translate(344.628906 0)"/>
      <use xlink:href="#ArialMT-69" transform="translate(377.929688 0)"/>
      <use xlink:href="#ArialMT-65" transform="translate(400.146484 0)"/>
      <use xlink:href="#ArialMT-72" transform="translate(455.761719 0)"/>
     </g>
     <!-- (IBS proxy) -->
     <g transform="translate(121.997644 156.488531) scale(0.075 -0.075)">
      <defs>
       <path id="ArialMT-28" d="M 1497 -1347 
Q 1031 -759 709 28 
Q 388 816 388 1659 
Q 388 2403 628 3084 
Q 909 3875 1497 4659 
L 1900 4659 
Q 1522 4009 1400 3731 
Q 1209 3300 1100 2831 
Q 966 2247 966 1656 
Q 966 153 1900 -1347 
L 1497 -1347 
z
" transform="scale(0.015625)"/>
       <path id="ArialMT-49" d="M 597 0 
L 597 4581 
L 1203 4581 
L 1203 0 
L 597 0 
z
" transform="scale(0.015625)"/>
       <path id="ArialMT-53" d="M 288 1472 
L 859 1522 
Q 900 1178 1048 958 
Q 1197 738 1509 602 
Q 1822 466 2213 466 
Q 2559 466 2825 569 
Q 3091 672 3220 851 
Q 3350 1031 3350 1244 
Q 3350 1459 3225 1620 
Q 3100 1781 2813 1891 
Q 2628 1963 1997 2114 
Q 1366 2266 1113 2400 
Q 784 2572 623 2826 
Q 463 3081 463 3397 
Q 463 3744 659 4045 
Q 856 4347 1234 4503 
Q 1613 4659 2075 4659 
Q 2584 4659 2973 4495 
Q 3363 4331 3572 4012 
Q 3781 3694 3797 3291 
L 3216 3247 
Q 3169 3681 2898 3903 
Q 2628 4125 2100 4125 
Q 1550 4125 1298 3923 
Q 1047 3722 1047 3438 
Q 1047 3191 1225 3031 
Q 1400 2872 2139 2705 
Q 2878 2538 3153 2413 
Q 3553 2228 3743 1945 
Q 3934 1663 3934 1294 
Q 3934 928 3725 604 
Q 3516 281 3123 101 
Q 2731 -78 2241 -78 
Q 1619 -78 1198 103 
Q 778 284 539 648 
Q 300 1013 288 1472 
z
" transform="scale(0.015625)"/>
       <path id="ArialMT-70" d="M 422 -1272 
L 422 3319 
L 934 3319 
L 934 2888 
Q 1116 3141 1344 3267 
Q 1572 3394 1897 3394 
Q 2322 3394 2647 3175 
Q 2972 2956 3137 2557 
Q 3303 2159 3303 1684 
Q 3303 1175 3120 767 
Q 2938 359 2589 142 
Q 2241 -75 1856 -75 
Q 1575 -75 1351 44 
Q 1128 163 984 344 
L 984 -1272 
L 422 -1272 
z
M 931 1641 
Q 931 1000 1190 694 
Q 1450 388 1819 388 
Q 2194 388 2461 705 
Q 2728 1022 2728 1688 
Q 2728 2322 2467 2637 
Q 2206 2953 1844 2953 
Q 1484 2953 1207 2617 
Q 931 2281 931 1641 
z
" transform="scale(0.015625)"/>
       <path id="ArialMT-6f" d="M 213 1659 
Q 213 2581 725 3025 
Q 1153 3394 1769 3394 
Q 2453 3394 2887 2945 
Q 3322 2497 3322 1706 
Q 3322 1066 3130 698 
Q 2938 331 2570 128 
Q 2203 -75 1769 -75 
Q 1072 -75 642 372 
Q 213 819 213 1659 
z
M 791 1659 
Q 791 1022 1069 705 
Q 1347 388 1769 388 
Q 2188 388 2466 706 
Q 2744 1025 2744 1678 
Q 2744 2294 2464 2611 
Q 2184 2928 1769 2928 
Q 1347 2928 1069 2612 
Q 791 2297 791 1659 
z
" transform="scale(0.015625)"/>
       <path id="ArialMT-79" d="M 397 -1278 
L 334 -750 
Q 519 -800 656 -800 
Q 844 -800 956 -737 
Q 1069 -675 1141 -563 
Q 1194 -478 1313 -144 
Q 1328 -97 1363 -6 
L 103 3319 
L 709 3319 
L 1400 1397 
Q 1534 1031 1641 628 
Q 1738 1016 1872 1384 
L 2581 3319 
L 3144 3319 
L 1881 -56 
Q 1678 -603 1566 -809 
Q 1416 -1088 1222 -1217 
Q 1028 -1347 759 -1347 
Q 597 -1347 397 -1278 
z
" transform="scale(0.015625)"/>
       <path id="ArialMT-29" d="M 791 -1347 
L 388 -1347 
Q 1322 153 1322 1656 
Q 1322 2244 1188 2822 
Q 1081 3291 891 3722 
Q 769 4003 388 4659 
L 791 4659 
Q 1378 3875 1659 3084 
Q 1900 2403 1900 1659 
Q 1900 816 1576 28 
Q 1253 -759 791 -1347 
z
" transform="scale(0.015625)"/>
      </defs>
      <use xlink:href="#ArialMT-28"/>
      <use xlink:href="#ArialMT-49" transform="translate(33.300781 0)"/>
      <use xlink:href="#ArialMT-42" transform="translate(61.083984 0)"/>
      <use xlink:href="#ArialMT-53" transform="translate(127.783203 0)"/>
      <use xlink:href="#ArialMT-20" transform="translate(194.482422 0)"/>
      <use xlink:href="#ArialMT-70" transform="translate(222.265625 0)"/>
      <use xlink:href="#ArialMT-72" transform="translate(277.880859 0)"/>
      <use xlink:href="#ArialMT-6f" transform="translate(311.181641 0)"/>
      <use xlink:href="#ArialMT-78" transform="translate(366.796875 0)"/>
      <use xlink:href="#ArialMT-79" transform="translate(416.796875 0)"/>
      <use xlink:href="#ArialMT-29" transform="translate(466.796875 0)"/>
     </g>
    </g>
   </g>
   <g id="matplotlib.axis_4"/>
   <g id="patch_66">
    <path d="M 98.757426 129.633375 
L 98.757426 22.029375 
" style="fill: none; stroke: #000000; stroke-width: 0.6; stroke-linejoin: miter; stroke-linecap: square"/>
   </g>
   <g id="patch_67">
    <path d="M 98.757426 129.633375 
L 182.743721 129.633375 
" style="fill: none; stroke: #000000; stroke-width: 0.6; stroke-linejoin: miter; stroke-linecap: square"/>
   </g>
   <g id="text_10">
    <!-- 0.0403 -->
    <g transform="translate(130.046589 8.610469) scale(0.07 -0.07)">
     <use xlink:href="#Arial-BoldMT-30"/>
     <use xlink:href="#Arial-BoldMT-2e" transform="translate(55.615234 0)"/>
     <use xlink:href="#Arial-BoldMT-30" transform="translate(83.398438 0)"/>
     <use xlink:href="#Arial-BoldMT-34" transform="translate(139.013672 0)"/>
     <use xlink:href="#Arial-BoldMT-30" transform="translate(194.628906 0)"/>
     <use xlink:href="#Arial-BoldMT-33" transform="translate(250.244141 0)"/>
    </g>
    <!-- [0.0254, 0.0579] -->
    <g transform="translate(115.067136 16.029375) scale(0.07 -0.07)">
     <use xlink:href="#Arial-BoldMT-5b"/>
     <use xlink:href="#Arial-BoldMT-30" transform="translate(33.300781 0)"/>
     <use xlink:href="#Arial-BoldMT-2e" transform="translate(88.916016 0)"/>
     <use xlink:href="#Arial-BoldMT-30" transform="translate(116.699219 0)"/>
     <use xlink:href="#Arial-BoldMT-32" transform="translate(172.314453 0)"/>
     <use xlink:href="#Arial-BoldMT-35" transform="translate(227.929688 0)"/>
     <use xlink:href="#Arial-BoldMT-34" transform="translate(283.544922 0)"/>
     <use xlink:href="#Arial-BoldMT-2c" transform="translate(339.160156 0)"/>
     <use xlink:href="#Arial-BoldMT-20" transform="translate(366.943359 0)"/>
     <use xlink:href="#Arial-BoldMT-30" transform="translate(394.726562 0)"/>
     <use xlink:href="#Arial-BoldMT-2e" transform="translate(450.341797 0)"/>
     <use xlink:href="#Arial-BoldMT-30" transform="translate(478.125 0)"/>
     <use xlink:href="#Arial-BoldMT-35" transform="translate(533.740234 0)"/>
     <use xlink:href="#Arial-BoldMT-37" transform="translate(589.355469 0)"/>
     <use xlink:href="#Arial-BoldMT-39" transform="translate(644.970703 0)"/>
     <use xlink:href="#Arial-BoldMT-5d" transform="translate(700.585938 0)"/>
    </g>
   </g>
   <g id="line2d_10">
    <path d="M 135.99846 129.633375 
L 135.99846 22.029375 
" clip-path="url(#pa14b56b2bc)" style="fill: none; stroke: #cc3311; stroke-width: 1.3; stroke-linecap: square"/>
   </g>
   <g id="line2d_11">
    <path d="M 115.437537 129.633375 
L 115.437537 22.029375 
" clip-path="url(#pa14b56b2bc)" style="fill: none; stroke-dasharray: 2.96,1.28; stroke-dashoffset: 0; stroke: #cc3311; stroke-opacity: 0.8; stroke-width: 0.8"/>
   </g>
   <g id="line2d_12">
    <path d="M 160.164468 129.633375 
L 160.164468 22.029375 
" clip-path="url(#pa14b56b2bc)" style="fill: none; stroke-dasharray: 2.96,1.28; stroke-dashoffset: 0; stroke: #cc3311; stroke-opacity: 0.8; stroke-width: 0.8"/>
   </g>
  </g>
  <g id="axes_3">
   <g id="patch_68">
    <path d="M 193.914853 129.633375 
L 277.901147 129.633375 
L 277.901147 22.029375 
L 193.914853 22.029375 
z
" style="fill: #ffffff"/>
   </g>
   <g id="patch_69">
    <path d="M 197.732411 129.633375 
L 200.277451 129.633375 
L 200.277451 127.590466 
L 197.732411 127.590466 
z
" clip-path="url(#p112256d4c4)" style="fill: #cc4466; opacity: 0.45; stroke: #ffffff; stroke-width: 0.3; stroke-linejoin: miter"/>
   </g>
   <g id="patch_70">
    <path d="M 200.277451 129.633375 
L 202.82249 129.633375 
L 202.82249 128.61192 
L 200.277451 128.61192 
z
" clip-path="url(#p112256d4c4)" style="fill: #cc4466; opacity: 0.45; stroke: #ffffff; stroke-width: 0.3; stroke-linejoin: miter"/>
   </g>
   <g id="patch_71">
    <path d="M 202.82249 129.633375 
L 205.367529 129.633375 
L 205.367529 126.569011 
L 202.82249 126.569011 
z
" clip-path="url(#p112256d4c4)" style="fill: #cc4466; opacity: 0.45; stroke: #ffffff; stroke-width: 0.3; stroke-linejoin: miter"/>
   </g>
   <g id="patch_72">
    <path d="M 205.367529 129.633375 
L 207.912568 129.633375 
L 207.912568 123.504647 
L 205.367529 123.504647 
z
" clip-path="url(#p112256d4c4)" style="fill: #cc4466; opacity: 0.45; stroke: #ffffff; stroke-width: 0.3; stroke-linejoin: miter"/>
   </g>
   <g id="patch_73">
    <path d="M 207.912568 129.633375 
L 210.457608 129.633375 
L 210.457608 117.375918 
L 207.912568 117.375918 
z
" clip-path="url(#p112256d4c4)" style="fill: #cc4466; opacity: 0.45; stroke: #ffffff; stroke-width: 0.3; stroke-linejoin: miter"/>
   </g>
   <g id="patch_74">
    <path d="M 210.457608 129.633375 
L 213.002647 129.633375 
L 213.002647 111.24719 
L 210.457608 111.24719 
z
" clip-path="url(#p112256d4c4)" style="fill: #cc4466; opacity: 0.45; stroke: #ffffff; stroke-width: 0.3; stroke-linejoin: miter"/>
   </g>
   <g id="patch_75">
    <path d="M 213.002647 129.633375 
L 215.547686 129.633375 
L 215.547686 98.989733 
L 213.002647 98.989733 
z
" clip-path="url(#p112256d4c4)" style="fill: #cc4466; opacity: 0.45; stroke: #ffffff; stroke-width: 0.3; stroke-linejoin: miter"/>
   </g>
   <g id="patch_76">
    <path d="M 215.547686 129.633375 
L 218.092725 129.633375 
L 218.092725 82.646457 
L 215.547686 82.646457 
z
" clip-path="url(#p112256d4c4)" style="fill: #cc4466; opacity: 0.45; stroke: #ffffff; stroke-width: 0.3; stroke-linejoin: miter"/>
   </g>
   <g id="patch_77">
    <path d="M 218.092725 129.633375 
L 220.637765 129.633375 
L 220.637765 76.517729 
L 218.092725 76.517729 
z
" clip-path="url(#p112256d4c4)" style="fill: #cc4466; opacity: 0.45; stroke: #ffffff; stroke-width: 0.3; stroke-linejoin: miter"/>
   </g>
   <g id="patch_78">
    <path d="M 220.637765 129.633375 
L 223.182804 129.633375 
L 223.182804 72.43191 
L 220.637765 72.43191 
z
" clip-path="url(#p112256d4c4)" style="fill: #cc4466; opacity: 0.45; stroke: #ffffff; stroke-width: 0.3; stroke-linejoin: miter"/>
   </g>
   <g id="patch_79">
    <path d="M 223.182804 129.633375 
L 225.727843 129.633375 
L 225.727843 59.152998 
L 223.182804 59.152998 
z
" clip-path="url(#p112256d4c4)" style="fill: #cc4466; opacity: 0.45; stroke: #ffffff; stroke-width: 0.3; stroke-linejoin: miter"/>
   </g>
   <g id="patch_80">
    <path d="M 225.727843 129.633375 
L 228.272882 129.633375 
L 228.272882 36.680994 
L 225.727843 36.680994 
z
" clip-path="url(#p112256d4c4)" style="fill: #cc4466; opacity: 0.45; stroke: #ffffff; stroke-width: 0.3; stroke-linejoin: miter"/>
   </g>
   <g id="patch_81">
    <path d="M 228.272882 129.633375 
L 230.817922 129.633375 
L 230.817922 38.723904 
L 228.272882 38.723904 
z
" clip-path="url(#p112256d4c4)" style="fill: #cc4466; opacity: 0.45; stroke: #ffffff; stroke-width: 0.3; stroke-linejoin: miter"/>
   </g>
   <g id="patch_82">
    <path d="M 230.817922 129.633375 
L 233.362961 129.633375 
L 233.362961 37.702449 
L 230.817922 37.702449 
z
" clip-path="url(#p112256d4c4)" style="fill: #cc4466; opacity: 0.45; stroke: #ffffff; stroke-width: 0.3; stroke-linejoin: miter"/>
   </g>
   <g id="patch_83">
    <path d="M 233.362961 129.633375 
L 235.908 129.633375 
L 235.908 47.916996 
L 233.362961 47.916996 
z
" clip-path="url(#p112256d4c4)" style="fill: #cc4466; opacity: 0.45; stroke: #ffffff; stroke-width: 0.3; stroke-linejoin: miter"/>
   </g>
   <g id="patch_84">
    <path d="M 235.908 129.633375 
L 238.453039 129.633375 
L 238.453039 48.938451 
L 235.908 48.938451 
z
" clip-path="url(#p112256d4c4)" style="fill: #cc4466; opacity: 0.45; stroke: #ffffff; stroke-width: 0.3; stroke-linejoin: miter"/>
   </g>
   <g id="patch_85">
    <path d="M 238.453039 129.633375 
L 240.998078 129.633375 
L 240.998078 72.43191 
L 238.453039 72.43191 
z
" clip-path="url(#p112256d4c4)" style="fill: #cc4466; opacity: 0.45; stroke: #ffffff; stroke-width: 0.3; stroke-linejoin: miter"/>
   </g>
   <g id="patch_86">
    <path d="M 240.998078 129.633375 
L 243.543118 129.633375 
L 243.543118 70.389 
L 240.998078 70.389 
z
" clip-path="url(#p112256d4c4)" style="fill: #cc4466; opacity: 0.45; stroke: #ffffff; stroke-width: 0.3; stroke-linejoin: miter"/>
   </g>
   <g id="patch_87">
    <path d="M 243.543118 129.633375 
L 246.088157 129.633375 
L 246.088157 88.775186 
L 243.543118 88.775186 
z
" clip-path="url(#p112256d4c4)" style="fill: #cc4466; opacity: 0.45; stroke: #ffffff; stroke-width: 0.3; stroke-linejoin: miter"/>
   </g>
   <g id="patch_88">
    <path d="M 246.088157 129.633375 
L 248.633196 129.633375 
L 248.633196 89.79664 
L 246.088157 89.79664 
z
" clip-path="url(#p112256d4c4)" style="fill: #cc4466; opacity: 0.45; stroke: #ffffff; stroke-width: 0.3; stroke-linejoin: miter"/>
   </g>
   <g id="patch_89">
    <path d="M 248.633196 129.633375 
L 251.178235 129.633375 
L 251.178235 98.989733 
L 248.633196 98.989733 
z
" clip-path="url(#p112256d4c4)" style="fill: #cc4466; opacity: 0.45; stroke: #ffffff; stroke-width: 0.3; stroke-linejoin: miter"/>
   </g>
   <g id="patch_90">
    <path d="M 251.178235 129.633375 
L 253.723275 129.633375 
L 253.723275 113.290099 
L 251.178235 113.290099 
z
" clip-path="url(#p112256d4c4)" style="fill: #cc4466; opacity: 0.45; stroke: #ffffff; stroke-width: 0.3; stroke-linejoin: miter"/>
   </g>
   <g id="patch_91">
    <path d="M 253.723275 129.633375 
L 256.268314 129.633375 
L 256.268314 121.461737 
L 253.723275 121.461737 
z
" clip-path="url(#p112256d4c4)" style="fill: #cc4466; opacity: 0.45; stroke: #ffffff; stroke-width: 0.3; stroke-linejoin: miter"/>
   </g>
   <g id="patch_92">
    <path d="M 256.268314 129.633375 
L 258.813353 129.633375 
L 258.813353 121.461737 
L 256.268314 121.461737 
z
" clip-path="url(#p112256d4c4)" style="fill: #cc4466; opacity: 0.45; stroke: #ffffff; stroke-width: 0.3; stroke-linejoin: miter"/>
   </g>
   <g id="patch_93">
    <path d="M 258.813353 129.633375 
L 261.358392 129.633375 
L 261.358392 121.461737 
L 258.813353 121.461737 
z
" clip-path="url(#p112256d4c4)" style="fill: #cc4466; opacity: 0.45; stroke: #ffffff; stroke-width: 0.3; stroke-linejoin: miter"/>
   </g>
   <g id="patch_94">
    <path d="M 261.358392 129.633375 
L 263.903432 129.633375 
L 263.903432 124.526101 
L 261.358392 124.526101 
z
" clip-path="url(#p112256d4c4)" style="fill: #cc4466; opacity: 0.45; stroke: #ffffff; stroke-width: 0.3; stroke-linejoin: miter"/>
   </g>
   <g id="patch_95">
    <path d="M 263.903432 129.633375 
L 266.448471 129.633375 
L 266.448471 126.569011 
L 263.903432 126.569011 
z
" clip-path="url(#p112256d4c4)" style="fill: #cc4466; opacity: 0.45; stroke: #ffffff; stroke-width: 0.3; stroke-linejoin: miter"/>
   </g>
   <g id="patch_96">
    <path d="M 266.448471 129.633375 
L 268.99351 129.633375 
L 268.99351 126.569011 
L 266.448471 126.569011 
z
" clip-path="url(#p112256d4c4)" style="fill: #cc4466; opacity: 0.45; stroke: #ffffff; stroke-width: 0.3; stroke-linejoin: miter"/>
   </g>
   <g id="patch_97">
    <path d="M 268.99351 129.633375 
L 271.538549 129.633375 
L 271.538549 128.61192 
L 268.99351 128.61192 
z
" clip-path="url(#p112256d4c4)" style="fill: #cc4466; opacity: 0.45; stroke: #ffffff; stroke-width: 0.3; stroke-linejoin: miter"/>
   </g>
   <g id="patch_98">
    <path d="M 271.538549 129.633375 
L 274.083589 129.633375 
L 274.083589 128.61192 
L 271.538549 128.61192 
z
" clip-path="url(#p112256d4c4)" style="fill: #cc4466; opacity: 0.45; stroke: #ffffff; stroke-width: 0.3; stroke-linejoin: miter"/>
   </g>
   <g id="FillBetweenPolyCollection_3">
    <defs>
     <path id="m3a5447818b" d="M 257.587659 -32.033672 
L 210.552972 -32.033672 
L 210.552972 -134.513672 
L 257.587659 -134.513672 
L 257.587659 -134.513672 
L 257.587659 -32.033672 
z
" style="stroke: #cc3311; stroke-opacity: 0.15; stroke-width: 0.6"/>
    </defs>
    <g clip-path="url(#p112256d4c4)">
     <use xlink:href="#m3a5447818b" x="0" y="161.667047" style="fill: #cc3311; fill-opacity: 0.15; stroke: #cc3311; stroke-opacity: 0.15; stroke-width: 0.6"/>
    </g>
   </g>
   <g id="matplotlib.axis_5">
    <g id="xtick_7">
     <g id="line2d_13">
      <g>
       <use xlink:href="#m0e7f179d3a" x="212.664904" y="129.633375" style="stroke: #000000; stroke-width: 0.8"/>
      </g>
     </g>
     <g id="text_11">
      <!-- 0.04 -->
      <g transform="translate(206.3401 137.785953) scale(0.065 -0.065)">
       <use xlink:href="#ArialMT-30"/>
       <use xlink:href="#ArialMT-2e" transform="translate(55.615234 0)"/>
       <use xlink:href="#ArialMT-30" transform="translate(83.398438 0)"/>
       <use xlink:href="#ArialMT-34" transform="translate(139.013672 0)"/>
      </g>
     </g>
    </g>
    <g id="xtick_8">
     <g id="line2d_14">
      <g>
       <use xlink:href="#m0e7f179d3a" x="232.07382" y="129.633375" style="stroke: #000000; stroke-width: 0.8"/>
      </g>
     </g>
     <g id="text_12">
      <!-- 0.06 -->
      <g transform="translate(225.749016 137.785953) scale(0.065 -0.065)">
       <use xlink:href="#ArialMT-30"/>
       <use xlink:href="#ArialMT-2e" transform="translate(55.615234 0)"/>
       <use xlink:href="#ArialMT-30" transform="translate(83.398438 0)"/>
       <use xlink:href="#ArialMT-36" transform="translate(139.013672 0)"/>
      </g>
     </g>
    </g>
    <g id="xtick_9">
     <g id="line2d_15">
      <g>
       <use xlink:href="#m0e7f179d3a" x="251.482736" y="129.633375" style="stroke: #000000; stroke-width: 0.8"/>
      </g>
     </g>
     <g id="text_13">
      <!-- 0.08 -->
      <g transform="translate(245.157931 137.785953) scale(0.065 -0.065)">
       <defs>
        <path id="ArialMT-38" d="M 1131 2484 
Q 781 2613 612 2850 
Q 444 3088 444 3419 
Q 444 3919 803 4259 
Q 1163 4600 1759 4600 
Q 2359 4600 2725 4251 
Q 3091 3903 3091 3403 
Q 3091 3084 2923 2848 
Q 2756 2613 2416 2484 
Q 2838 2347 3058 2040 
Q 3278 1734 3278 1309 
Q 3278 722 2862 322 
Q 2447 -78 1769 -78 
Q 1091 -78 675 323 
Q 259 725 259 1325 
Q 259 1772 486 2073 
Q 713 2375 1131 2484 
z
M 1019 3438 
Q 1019 3113 1228 2906 
Q 1438 2700 1772 2700 
Q 2097 2700 2305 2904 
Q 2513 3109 2513 3406 
Q 2513 3716 2298 3927 
Q 2084 4138 1766 4138 
Q 1444 4138 1231 3931 
Q 1019 3725 1019 3438 
z
M 838 1322 
Q 838 1081 952 856 
Q 1066 631 1291 507 
Q 1516 384 1775 384 
Q 2178 384 2440 643 
Q 2703 903 2703 1303 
Q 2703 1709 2433 1975 
Q 2163 2241 1756 2241 
Q 1359 2241 1098 1978 
Q 838 1716 838 1322 
z
" transform="scale(0.015625)"/>
       </defs>
       <use xlink:href="#ArialMT-30"/>
       <use xlink:href="#ArialMT-2e" transform="translate(55.615234 0)"/>
       <use xlink:href="#ArialMT-30" transform="translate(83.398438 0)"/>
       <use xlink:href="#ArialMT-38" transform="translate(139.013672 0)"/>
      </g>
     </g>
    </g>
    <g id="xtick_10">
     <g id="line2d_16">
      <g>
       <use xlink:href="#m0e7f179d3a" x="270.891652" y="129.633375" style="stroke: #000000; stroke-width: 0.8"/>
      </g>
     </g>
     <g id="text_14">
      <!-- 0.10 -->
      <g transform="translate(264.566847 137.785953) scale(0.065 -0.065)">
       <defs>
        <path id="ArialMT-31" d="M 2384 0 
L 1822 0 
L 1822 3584 
Q 1619 3391 1289 3197 
Q 959 3003 697 2906 
L 697 3450 
Q 1169 3672 1522 3987 
Q 1875 4303 2022 4600 
L 2384 4600 
L 2384 0 
z
" transform="scale(0.015625)"/>
       </defs>
       <use xlink:href="#ArialMT-30"/>
       <use xlink:href="#ArialMT-2e" transform="translate(55.615234 0)"/>
       <use xlink:href="#ArialMT-31" transform="translate(83.398438 0)"/>
       <use xlink:href="#ArialMT-30" transform="translate(139.013672 0)"/>
      </g>
     </g>
    </g>
    <g id="text_15">
     <!-- Brier@12h -->
     <g transform="translate(217.927922 148.545797) scale(0.075 -0.075)">
      <defs>
       <path id="ArialMT-40" d="M 3628 509 
Q 3425 275 3173 133 
Q 2922 -9 2669 -9 
Q 2391 -9 2128 153 
Q 1866 316 1702 653 
Q 1538 991 1538 1394 
Q 1538 1891 1792 2389 
Q 2047 2888 2425 3138 
Q 2803 3388 3159 3388 
Q 3431 3388 3678 3245 
Q 3925 3103 4103 2813 
L 4209 3297 
L 4769 3297 
L 4319 1200 
Q 4225 763 4225 716 
Q 4225 631 4289 570 
Q 4353 509 4444 509 
Q 4609 509 4878 700 
Q 5234 950 5442 1370 
Q 5650 1791 5650 2238 
Q 5650 2759 5383 3212 
Q 5116 3666 4586 3937 
Q 4056 4209 3416 4209 
Q 2684 4209 2079 3867 
Q 1475 3525 1142 2886 
Q 809 2247 809 1516 
Q 809 750 1142 197 
Q 1475 -356 2104 -620 
Q 2734 -884 3500 -884 
Q 4319 -884 4872 -609 
Q 5425 -334 5700 59 
L 6266 59 
Q 6106 -269 5718 -609 
Q 5331 -950 4797 -1148 
Q 4263 -1347 3509 -1347 
Q 2816 -1347 2230 -1169 
Q 1644 -991 1231 -633 
Q 819 -275 609 191 
Q 347 781 347 1466 
Q 347 2228 659 2919 
Q 1041 3766 1742 4216 
Q 2444 4666 3444 4666 
Q 4219 4666 4836 4348 
Q 5453 4031 5809 3403 
Q 6113 2863 6113 2228 
Q 6113 1322 5475 619 
Q 4906 -13 4231 -13 
Q 4016 -13 3883 53 
Q 3750 119 3688 241 
Q 3647 319 3628 509 
z
M 2116 1356 
Q 2116 928 2319 690 
Q 2522 453 2784 453 
Q 2959 453 3153 558 
Q 3347 663 3523 869 
Q 3700 1075 3812 1392 
Q 3925 1709 3925 2028 
Q 3925 2453 3714 2687 
Q 3503 2922 3200 2922 
Q 3000 2922 2823 2820 
Q 2647 2719 2481 2494 
Q 2316 2269 2216 1947 
Q 2116 1625 2116 1356 
z
" transform="scale(0.015625)"/>
       <path id="ArialMT-68" d="M 422 0 
L 422 4581 
L 984 4581 
L 984 2938 
Q 1378 3394 1978 3394 
Q 2347 3394 2619 3248 
Q 2891 3103 3008 2847 
Q 3125 2591 3125 2103 
L 3125 0 
L 2563 0 
L 2563 2103 
Q 2563 2525 2380 2717 
Q 2197 2909 1863 2909 
Q 1613 2909 1392 2779 
Q 1172 2650 1078 2428 
Q 984 2206 984 1816 
L 984 0 
L 422 0 
z
" transform="scale(0.015625)"/>
      </defs>
      <use xlink:href="#ArialMT-42"/>
      <use xlink:href="#ArialMT-72" transform="translate(66.699219 0)"/>
      <use xlink:href="#ArialMT-69" transform="translate(100 0)"/>
      <use xlink:href="#ArialMT-65" transform="translate(122.216797 0)"/>
      <use xlink:href="#ArialMT-72" transform="translate(177.832031 0)"/>
      <use xlink:href="#ArialMT-40" transform="translate(211.132812 0)"/>
      <use xlink:href="#ArialMT-31" transform="translate(312.646484 0)"/>
      <use xlink:href="#ArialMT-32" transform="translate(368.261719 0)"/>
      <use xlink:href="#ArialMT-68" transform="translate(423.876953 0)"/>
     </g>
    </g>
   </g>
   <g id="matplotlib.axis_6"/>
   <g id="patch_99">
    <path d="M 193.914853 129.633375 
L 193.914853 22.029375 
" style="fill: none; stroke: #000000; stroke-width: 0.6; stroke-linejoin: miter; stroke-linecap: square"/>
   </g>
   <g id="patch_100">
    <path d="M 193.914853 129.633375 
L 277.901147 129.633375 
" style="fill: none; stroke: #000000; stroke-width: 0.6; stroke-linejoin: miter; stroke-linecap: square"/>
   </g>
   <g id="text_16">
    <!-- 0.0594 -->
    <g transform="translate(225.204016 8.610469) scale(0.07 -0.07)">
     <use xlink:href="#Arial-BoldMT-30"/>
     <use xlink:href="#Arial-BoldMT-2e" transform="translate(55.615234 0)"/>
     <use xlink:href="#Arial-BoldMT-30" transform="translate(83.398438 0)"/>
     <use xlink:href="#Arial-BoldMT-35" transform="translate(139.013672 0)"/>
     <use xlink:href="#Arial-BoldMT-39" transform="translate(194.628906 0)"/>
     <use xlink:href="#Arial-BoldMT-34" transform="translate(250.244141 0)"/>
    </g>
    <!-- [0.0378, 0.0863] -->
    <g transform="translate(210.224562 16.029375) scale(0.07 -0.07)">
     <defs>
      <path id="Arial-BoldMT-36" d="M 3247 3459 
L 2397 3366 
Q 2366 3628 2234 3753 
Q 2103 3878 1894 3878 
Q 1616 3878 1423 3628 
Q 1231 3378 1181 2588 
Q 1509 2975 1997 2975 
Q 2547 2975 2939 2556 
Q 3331 2138 3331 1475 
Q 3331 772 2918 347 
Q 2506 -78 1859 -78 
Q 1166 -78 719 461 
Q 272 1000 272 2228 
Q 272 3488 737 4044 
Q 1203 4600 1947 4600 
Q 2469 4600 2811 4308 
Q 3153 4016 3247 3459 
z
M 1256 1544 
Q 1256 1116 1453 883 
Q 1650 650 1903 650 
Q 2147 650 2309 840 
Q 2472 1031 2472 1466 
Q 2472 1913 2297 2120 
Q 2122 2328 1859 2328 
Q 1606 2328 1431 2129 
Q 1256 1931 1256 1544 
z
" transform="scale(0.015625)"/>
     </defs>
     <use xlink:href="#Arial-BoldMT-5b"/>
     <use xlink:href="#Arial-BoldMT-30" transform="translate(33.300781 0)"/>
     <use xlink:href="#Arial-BoldMT-2e" transform="translate(88.916016 0)"/>
     <use xlink:href="#Arial-BoldMT-30" transform="translate(116.699219 0)"/>
     <use xlink:href="#Arial-BoldMT-33" transform="translate(172.314453 0)"/>
     <use xlink:href="#Arial-BoldMT-37" transform="translate(227.929688 0)"/>
     <use xlink:href="#Arial-BoldMT-38" transform="translate(283.544922 0)"/>
     <use xlink:href="#Arial-BoldMT-2c" transform="translate(339.160156 0)"/>
     <use xlink:href="#Arial-BoldMT-20" transform="translate(366.943359 0)"/>
     <use xlink:href="#Arial-BoldMT-30" transform="translate(394.726562 0)"/>
     <use xlink:href="#Arial-BoldMT-2e" transform="translate(450.341797 0)"/>
     <use xlink:href="#Arial-BoldMT-30" transform="translate(478.125 0)"/>
     <use xlink:href="#Arial-BoldMT-38" transform="translate(533.740234 0)"/>
     <use xlink:href="#Arial-BoldMT-36" transform="translate(589.355469 0)"/>
     <use xlink:href="#Arial-BoldMT-33" transform="translate(644.970703 0)"/>
     <use xlink:href="#Arial-BoldMT-5d" transform="translate(700.585938 0)"/>
    </g>
   </g>
   <g id="line2d_17">
    <path d="M 231.525643 129.633375 
L 231.525643 22.029375 
" clip-path="url(#p112256d4c4)" style="fill: none; stroke: #cc3311; stroke-width: 1.3; stroke-linecap: square"/>
   </g>
   <g id="line2d_18">
    <path d="M 210.552972 129.633375 
L 210.552972 22.029375 
" clip-path="url(#p112256d4c4)" style="fill: none; stroke-dasharray: 2.96,1.28; stroke-dashoffset: 0; stroke: #cc3311; stroke-opacity: 0.8; stroke-width: 0.8"/>
   </g>
   <g id="line2d_19">
    <path d="M 257.587659 129.633375 
L 257.587659 22.029375 
" clip-path="url(#p112256d4c4)" style="fill: none; stroke-dasharray: 2.96,1.28; stroke-dashoffset: 0; stroke: #cc3311; stroke-opacity: 0.8; stroke-width: 0.8"/>
   </g>
  </g>
  <g id="axes_4">
   <g id="patch_101">
    <path d="M 289.072279 129.633375 
L 373.058574 129.633375 
L 373.058574 22.029375 
L 289.072279 22.029375 
z
" style="fill: #ffffff"/>
   </g>
   <g id="patch_102">
    <path d="M 292.889838 129.633375 
L 295.434877 129.633375 
L 295.434877 126.698037 
L 292.889838 126.698037 
z
" clip-path="url(#p6b19e34bd7)" style="fill: #3366aa; opacity: 0.45; stroke: #ffffff; stroke-width: 0.3; stroke-linejoin: miter"/>
   </g>
   <g id="patch_103">
    <path d="M 295.434877 129.633375 
L 297.979916 129.633375 
L 297.979916 124.741144 
L 295.434877 124.741144 
z
" clip-path="url(#p6b19e34bd7)" style="fill: #3366aa; opacity: 0.45; stroke: #ffffff; stroke-width: 0.3; stroke-linejoin: miter"/>
   </g>
   <g id="patch_104">
    <path d="M 297.979916 129.633375 
L 300.524955 129.633375 
L 300.524955 123.762698 
L 297.979916 123.762698 
z
" clip-path="url(#p6b19e34bd7)" style="fill: #3366aa; opacity: 0.45; stroke: #ffffff; stroke-width: 0.3; stroke-linejoin: miter"/>
   </g>
   <g id="patch_105">
    <path d="M 300.524955 129.633375 
L 303.069995 129.633375 
L 303.069995 119.848914 
L 300.524955 119.848914 
z
" clip-path="url(#p6b19e34bd7)" style="fill: #3366aa; opacity: 0.45; stroke: #ffffff; stroke-width: 0.3; stroke-linejoin: miter"/>
   </g>
   <g id="patch_106">
    <path d="M 303.069995 129.633375 
L 305.615034 129.633375 
L 305.615034 105.172222 
L 303.069995 105.172222 
z
" clip-path="url(#p6b19e34bd7)" style="fill: #3366aa; opacity: 0.45; stroke: #ffffff; stroke-width: 0.3; stroke-linejoin: miter"/>
   </g>
   <g id="patch_107">
    <path d="M 305.615034 129.633375 
L 308.160073 129.633375 
L 308.160073 86.581746 
L 305.615034 86.581746 
z
" clip-path="url(#p6b19e34bd7)" style="fill: #3366aa; opacity: 0.45; stroke: #ffffff; stroke-width: 0.3; stroke-linejoin: miter"/>
   </g>
   <g id="patch_108">
    <path d="M 308.160073 129.633375 
L 310.705112 129.633375 
L 310.705112 86.581746 
L 308.160073 86.581746 
z
" clip-path="url(#p6b19e34bd7)" style="fill: #3366aa; opacity: 0.45; stroke: #ffffff; stroke-width: 0.3; stroke-linejoin: miter"/>
   </g>
   <g id="patch_109">
    <path d="M 310.705112 129.633375 
L 313.250152 129.633375 
L 313.250152 76.797285 
L 310.705112 76.797285 
z
" clip-path="url(#p6b19e34bd7)" style="fill: #3366aa; opacity: 0.45; stroke: #ffffff; stroke-width: 0.3; stroke-linejoin: miter"/>
   </g>
   <g id="patch_110">
    <path d="M 313.250152 129.633375 
L 315.795191 129.633375 
L 315.795191 67.99127 
L 313.250152 67.99127 
z
" clip-path="url(#p6b19e34bd7)" style="fill: #3366aa; opacity: 0.45; stroke: #ffffff; stroke-width: 0.3; stroke-linejoin: miter"/>
   </g>
   <g id="patch_111">
    <path d="M 315.795191 129.633375 
L 318.34023 129.633375 
L 318.34023 49.400794 
L 315.795191 49.400794 
z
" clip-path="url(#p6b19e34bd7)" style="fill: #3366aa; opacity: 0.45; stroke: #ffffff; stroke-width: 0.3; stroke-linejoin: miter"/>
   </g>
   <g id="patch_112">
    <path d="M 318.34023 129.633375 
L 320.885269 129.633375 
L 320.885269 36.680994 
L 318.34023 36.680994 
z
" clip-path="url(#p6b19e34bd7)" style="fill: #3366aa; opacity: 0.45; stroke: #ffffff; stroke-width: 0.3; stroke-linejoin: miter"/>
   </g>
   <g id="patch_113">
    <path d="M 320.885269 129.633375 
L 323.430309 129.633375 
L 323.430309 48.422347 
L 320.885269 48.422347 
z
" clip-path="url(#p6b19e34bd7)" style="fill: #3366aa; opacity: 0.45; stroke: #ffffff; stroke-width: 0.3; stroke-linejoin: miter"/>
   </g>
   <g id="patch_114">
    <path d="M 323.430309 129.633375 
L 325.975348 129.633375 
L 325.975348 45.487009 
L 323.430309 45.487009 
z
" clip-path="url(#p6b19e34bd7)" style="fill: #3366aa; opacity: 0.45; stroke: #ffffff; stroke-width: 0.3; stroke-linejoin: miter"/>
   </g>
   <g id="patch_115">
    <path d="M 325.975348 129.633375 
L 328.520387 129.633375 
L 328.520387 69.948162 
L 325.975348 69.948162 
z
" clip-path="url(#p6b19e34bd7)" style="fill: #3366aa; opacity: 0.45; stroke: #ffffff; stroke-width: 0.3; stroke-linejoin: miter"/>
   </g>
   <g id="patch_116">
    <path d="M 328.520387 129.633375 
L 331.065426 129.633375 
L 331.065426 59.185255 
L 328.520387 59.185255 
z
" clip-path="url(#p6b19e34bd7)" style="fill: #3366aa; opacity: 0.45; stroke: #ffffff; stroke-width: 0.3; stroke-linejoin: miter"/>
   </g>
   <g id="patch_117">
    <path d="M 331.065426 129.633375 
L 333.610466 129.633375 
L 333.610466 73.861946 
L 331.065426 73.861946 
z
" clip-path="url(#p6b19e34bd7)" style="fill: #3366aa; opacity: 0.45; stroke: #ffffff; stroke-width: 0.3; stroke-linejoin: miter"/>
   </g>
   <g id="patch_118">
    <path d="M 333.610466 129.633375 
L 336.155505 129.633375 
L 336.155505 76.797285 
L 333.610466 76.797285 
z
" clip-path="url(#p6b19e34bd7)" style="fill: #3366aa; opacity: 0.45; stroke: #ffffff; stroke-width: 0.3; stroke-linejoin: miter"/>
   </g>
   <g id="patch_119">
    <path d="M 336.155505 129.633375 
L 338.700544 129.633375 
L 338.700544 93.430869 
L 336.155505 93.430869 
z
" clip-path="url(#p6b19e34bd7)" style="fill: #3366aa; opacity: 0.45; stroke: #ffffff; stroke-width: 0.3; stroke-linejoin: miter"/>
   </g>
   <g id="patch_120">
    <path d="M 338.700544 129.633375 
L 341.245583 129.633375 
L 341.245583 95.387761 
L 338.700544 95.387761 
z
" clip-path="url(#p6b19e34bd7)" style="fill: #3366aa; opacity: 0.45; stroke: #ffffff; stroke-width: 0.3; stroke-linejoin: miter"/>
   </g>
   <g id="patch_121">
    <path d="M 341.245583 129.633375 
L 343.790622 129.633375 
L 343.790622 101.258438 
L 341.245583 101.258438 
z
" clip-path="url(#p6b19e34bd7)" style="fill: #3366aa; opacity: 0.45; stroke: #ffffff; stroke-width: 0.3; stroke-linejoin: miter"/>
   </g>
   <g id="patch_122">
    <path d="M 343.790622 129.633375 
L 346.335662 129.633375 
L 346.335662 112.021345 
L 343.790622 112.021345 
z
" clip-path="url(#p6b19e34bd7)" style="fill: #3366aa; opacity: 0.45; stroke: #ffffff; stroke-width: 0.3; stroke-linejoin: miter"/>
   </g>
   <g id="patch_123">
    <path d="M 346.335662 129.633375 
L 348.880701 129.633375 
L 348.880701 121.805806 
L 346.335662 121.805806 
z
" clip-path="url(#p6b19e34bd7)" style="fill: #3366aa; opacity: 0.45; stroke: #ffffff; stroke-width: 0.3; stroke-linejoin: miter"/>
   </g>
   <g id="patch_124">
    <path d="M 348.880701 129.633375 
L 351.42574 129.633375 
L 351.42574 117.892022 
L 348.880701 117.892022 
z
" clip-path="url(#p6b19e34bd7)" style="fill: #3366aa; opacity: 0.45; stroke: #ffffff; stroke-width: 0.3; stroke-linejoin: miter"/>
   </g>
   <g id="patch_125">
    <path d="M 351.42574 129.633375 
L 353.970779 129.633375 
L 353.970779 121.805806 
L 351.42574 121.805806 
z
" clip-path="url(#p6b19e34bd7)" style="fill: #3366aa; opacity: 0.45; stroke: #ffffff; stroke-width: 0.3; stroke-linejoin: miter"/>
   </g>
   <g id="patch_126">
    <path d="M 353.970779 129.633375 
L 356.515819 129.633375 
L 356.515819 127.676483 
L 353.970779 127.676483 
z
" clip-path="url(#p6b19e34bd7)" style="fill: #3366aa; opacity: 0.45; stroke: #ffffff; stroke-width: 0.3; stroke-linejoin: miter"/>
   </g>
   <g id="patch_127">
    <path d="M 356.515819 129.633375 
L 359.060858 129.633375 
L 359.060858 127.676483 
L 356.515819 127.676483 
z
" clip-path="url(#p6b19e34bd7)" style="fill: #3366aa; opacity: 0.45; stroke: #ffffff; stroke-width: 0.3; stroke-linejoin: miter"/>
   </g>
   <g id="patch_128">
    <path d="M 359.060858 129.633375 
L 361.605897 129.633375 
L 361.605897 128.654929 
L 359.060858 128.654929 
z
" clip-path="url(#p6b19e34bd7)" style="fill: #3366aa; opacity: 0.45; stroke: #ffffff; stroke-width: 0.3; stroke-linejoin: miter"/>
   </g>
   <g id="patch_129">
    <path d="M 361.605897 129.633375 
L 364.150936 129.633375 
L 364.150936 128.654929 
L 361.605897 128.654929 
z
" clip-path="url(#p6b19e34bd7)" style="fill: #3366aa; opacity: 0.45; stroke: #ffffff; stroke-width: 0.3; stroke-linejoin: miter"/>
   </g>
   <g id="patch_130">
    <path d="M 364.150936 129.633375 
L 366.695976 129.633375 
L 366.695976 129.633375 
L 364.150936 129.633375 
z
" clip-path="url(#p6b19e34bd7)" style="fill: #3366aa; opacity: 0.45; stroke: #ffffff; stroke-width: 0.3; stroke-linejoin: miter"/>
   </g>
   <g id="patch_131">
    <path d="M 366.695976 129.633375 
L 369.241015 129.633375 
L 369.241015 126.698037 
L 366.695976 126.698037 
z
" clip-path="url(#p6b19e34bd7)" style="fill: #3366aa; opacity: 0.45; stroke: #ffffff; stroke-width: 0.3; stroke-linejoin: miter"/>
   </g>
   <g id="FillBetweenPolyCollection_4">
    <defs>
     <path id="md5884b911e" d="M 349.864147 -32.033672 
L 303.28879 -32.033672 
L 303.28879 -134.513672 
L 349.864147 -134.513672 
L 349.864147 -134.513672 
L 349.864147 -32.033672 
z
" style="stroke: #cc3311; stroke-opacity: 0.15; stroke-width: 0.6"/>
    </defs>
    <g clip-path="url(#p6b19e34bd7)">
     <use xlink:href="#md5884b911e" x="0" y="161.667047" style="fill: #cc3311; fill-opacity: 0.15; stroke: #cc3311; stroke-opacity: 0.15; stroke-width: 0.6"/>
    </g>
   </g>
   <g id="matplotlib.axis_7">
    <g id="xtick_11">
     <g id="line2d_20">
      <g>
       <use xlink:href="#m0e7f179d3a" x="307.258512" y="129.633375" style="stroke: #000000; stroke-width: 0.8"/>
      </g>
     </g>
     <g id="text_17">
      <!-- 0.02 -->
      <g transform="translate(300.933708 137.785953) scale(0.065 -0.065)">
       <use xlink:href="#ArialMT-30"/>
       <use xlink:href="#ArialMT-2e" transform="translate(55.615234 0)"/>
       <use xlink:href="#ArialMT-30" transform="translate(83.398438 0)"/>
       <use xlink:href="#ArialMT-32" transform="translate(139.013672 0)"/>
      </g>
     </g>
    </g>
    <g id="xtick_12">
     <g id="line2d_21">
      <g>
       <use xlink:href="#m0e7f179d3a" x="329.869559" y="129.633375" style="stroke: #000000; stroke-width: 0.8"/>
      </g>
     </g>
     <g id="text_18">
      <!-- 0.04 -->
      <g transform="translate(323.544754 137.785953) scale(0.065 -0.065)">
       <use xlink:href="#ArialMT-30"/>
       <use xlink:href="#ArialMT-2e" transform="translate(55.615234 0)"/>
       <use xlink:href="#ArialMT-30" transform="translate(83.398438 0)"/>
       <use xlink:href="#ArialMT-34" transform="translate(139.013672 0)"/>
      </g>
     </g>
    </g>
    <g id="xtick_13">
     <g id="line2d_22">
      <g>
       <use xlink:href="#m0e7f179d3a" x="352.480605" y="129.633375" style="stroke: #000000; stroke-width: 0.8"/>
      </g>
     </g>
     <g id="text_19">
      <!-- 0.06 -->
      <g transform="translate(346.155801 137.785953) scale(0.065 -0.065)">
       <use xlink:href="#ArialMT-30"/>
       <use xlink:href="#ArialMT-2e" transform="translate(55.615234 0)"/>
       <use xlink:href="#ArialMT-30" transform="translate(83.398438 0)"/>
       <use xlink:href="#ArialMT-36" transform="translate(139.013672 0)"/>
      </g>
     </g>
    </g>
    <g id="text_20">
     <!-- Brier@24h -->
     <g transform="translate(313.085348 148.545797) scale(0.075 -0.075)">
      <use xlink:href="#ArialMT-42"/>
      <use xlink:href="#ArialMT-72" transform="translate(66.699219 0)"/>
      <use xlink:href="#ArialMT-69" transform="translate(100 0)"/>
      <use xlink:href="#ArialMT-65" transform="translate(122.216797 0)"/>
      <use xlink:href="#ArialMT-72" transform="translate(177.832031 0)"/>
      <use xlink:href="#ArialMT-40" transform="translate(211.132812 0)"/>
      <use xlink:href="#ArialMT-32" transform="translate(312.646484 0)"/>
      <use xlink:href="#ArialMT-34" transform="translate(368.261719 0)"/>
      <use xlink:href="#ArialMT-68" transform="translate(423.876953 0)"/>
     </g>
    </g>
   </g>
   <g id="matplotlib.axis_8"/>
   <g id="patch_132">
    <path d="M 289.072279 129.633375 
L 289.072279 22.029375 
" style="fill: none; stroke: #000000; stroke-width: 0.6; stroke-linejoin: miter; stroke-linecap: square"/>
   </g>
   <g id="patch_133">
    <path d="M 289.072279 129.633375 
L 373.058574 129.633375 
" style="fill: none; stroke: #000000; stroke-width: 0.6; stroke-linejoin: miter; stroke-linecap: square"/>
   </g>
   <g id="text_21">
    <!-- 0.0339 -->
    <g transform="translate(320.361442 8.610469) scale(0.07 -0.07)">
     <use xlink:href="#Arial-BoldMT-30"/>
     <use xlink:href="#Arial-BoldMT-2e" transform="translate(55.615234 0)"/>
     <use xlink:href="#Arial-BoldMT-30" transform="translate(83.398438 0)"/>
     <use xlink:href="#Arial-BoldMT-33" transform="translate(139.013672 0)"/>
     <use xlink:href="#Arial-BoldMT-33" transform="translate(194.628906 0)"/>
     <use xlink:href="#Arial-BoldMT-39" transform="translate(250.244141 0)"/>
    </g>
    <!-- [0.0165, 0.0577] -->
    <g transform="translate(305.381989 16.029375) scale(0.07 -0.07)">
     <defs>
      <path id="Arial-BoldMT-31" d="M 2519 0 
L 1641 0 
L 1641 3309 
Q 1159 2859 506 2644 
L 506 3441 
Q 850 3553 1253 3867 
Q 1656 4181 1806 4600 
L 2519 4600 
L 2519 0 
z
" transform="scale(0.015625)"/>
     </defs>
     <use xlink:href="#Arial-BoldMT-5b"/>
     <use xlink:href="#Arial-BoldMT-30" transform="translate(33.300781 0)"/>
     <use xlink:href="#Arial-BoldMT-2e" transform="translate(88.916016 0)"/>
     <use xlink:href="#Arial-BoldMT-30" transform="translate(116.699219 0)"/>
     <use xlink:href="#Arial-BoldMT-31" transform="translate(172.314453 0)"/>
     <use xlink:href="#Arial-BoldMT-36" transform="translate(227.929688 0)"/>
     <use xlink:href="#Arial-BoldMT-35" transform="translate(283.544922 0)"/>
     <use xlink:href="#Arial-BoldMT-2c" transform="translate(339.160156 0)"/>
     <use xlink:href="#Arial-BoldMT-20" transform="translate(366.943359 0)"/>
     <use xlink:href="#Arial-BoldMT-30" transform="translate(394.726562 0)"/>
     <use xlink:href="#Arial-BoldMT-2e" transform="translate(450.341797 0)"/>
     <use xlink:href="#Arial-BoldMT-30" transform="translate(478.125 0)"/>
     <use xlink:href="#Arial-BoldMT-35" transform="translate(533.740234 0)"/>
     <use xlink:href="#Arial-BoldMT-37" transform="translate(589.355469 0)"/>
     <use xlink:href="#Arial-BoldMT-37" transform="translate(644.970703 0)"/>
     <use xlink:href="#Arial-BoldMT-5d" transform="translate(700.585938 0)"/>
    </g>
   </g>
   <g id="line2d_23">
    <path d="M 322.982021 129.633375 
L 322.982021 22.029375 
" clip-path="url(#p6b19e34bd7)" style="fill: none; stroke: #cc3311; stroke-width: 1.3; stroke-linecap: square"/>
   </g>
   <g id="line2d_24">
    <path d="M 303.28879 129.633375 
L 303.28879 22.029375 
" clip-path="url(#p6b19e34bd7)" style="fill: none; stroke-dasharray: 2.96,1.28; stroke-dashoffset: 0; stroke: #cc3311; stroke-opacity: 0.8; stroke-width: 0.8"/>
   </g>
   <g id="line2d_25">
    <path d="M 349.864147 129.633375 
L 349.864147 22.029375 
" clip-path="url(#p6b19e34bd7)" style="fill: none; stroke-dasharray: 2.96,1.28; stroke-dashoffset: 0; stroke: #cc3311; stroke-opacity: 0.8; stroke-width: 0.8"/>
   </g>
  </g>
  <g id="axes_5">
   <g id="patch_134">
    <path d="M 384.229705 129.633375 
L 468.216 129.633375 
L 468.216 22.029375 
L 384.229705 22.029375 
z
" style="fill: #ffffff"/>
   </g>
   <g id="patch_135">
    <path d="M 388.047264 129.633375 
L 390.592303 129.633375 
L 390.592303 127.634399 
L 388.047264 127.634399 
z
" clip-path="url(#p4b249abe04)" style="fill: #117733; opacity: 0.45; stroke: #ffffff; stroke-width: 0.3; stroke-linejoin: miter"/>
   </g>
   <g id="patch_136">
    <path d="M 390.592303 129.633375 
L 393.137343 129.633375 
L 393.137343 125.635423 
L 390.592303 125.635423 
z
" clip-path="url(#p4b249abe04)" style="fill: #117733; opacity: 0.45; stroke: #ffffff; stroke-width: 0.3; stroke-linejoin: miter"/>
   </g>
   <g id="patch_137">
    <path d="M 393.137343 129.633375 
L 395.682382 129.633375 
L 395.682382 111.642592 
L 393.137343 111.642592 
z
" clip-path="url(#p4b249abe04)" style="fill: #117733; opacity: 0.45; stroke: #ffffff; stroke-width: 0.3; stroke-linejoin: miter"/>
   </g>
   <g id="patch_138">
    <path d="M 395.682382 129.633375 
L 398.227421 129.633375 
L 398.227421 110.643104 
L 395.682382 110.643104 
z
" clip-path="url(#p4b249abe04)" style="fill: #117733; opacity: 0.45; stroke: #ffffff; stroke-width: 0.3; stroke-linejoin: miter"/>
   </g>
   <g id="patch_139">
    <path d="M 398.227421 129.633375 
L 400.77246 129.633375 
L 400.77246 94.651296 
L 398.227421 94.651296 
z
" clip-path="url(#p4b249abe04)" style="fill: #117733; opacity: 0.45; stroke: #ffffff; stroke-width: 0.3; stroke-linejoin: miter"/>
   </g>
   <g id="patch_140">
    <path d="M 400.77246 129.633375 
L 403.317499 129.633375 
L 403.317499 77.660001 
L 400.77246 77.660001 
z
" clip-path="url(#p4b249abe04)" style="fill: #117733; opacity: 0.45; stroke: #ffffff; stroke-width: 0.3; stroke-linejoin: miter"/>
   </g>
   <g id="patch_141">
    <path d="M 403.317499 129.633375 
L 405.862539 129.633375 
L 405.862539 53.672289 
L 403.317499 53.672289 
z
" clip-path="url(#p4b249abe04)" style="fill: #117733; opacity: 0.45; stroke: #ffffff; stroke-width: 0.3; stroke-linejoin: miter"/>
   </g>
   <g id="patch_142">
    <path d="M 405.862539 129.633375 
L 408.407578 129.633375 
L 408.407578 67.665121 
L 405.862539 67.665121 
z
" clip-path="url(#p4b249abe04)" style="fill: #117733; opacity: 0.45; stroke: #ffffff; stroke-width: 0.3; stroke-linejoin: miter"/>
   </g>
   <g id="patch_143">
    <path d="M 408.407578 129.633375 
L 410.952617 129.633375 
L 410.952617 58.669729 
L 408.407578 58.669729 
z
" clip-path="url(#p4b249abe04)" style="fill: #117733; opacity: 0.45; stroke: #ffffff; stroke-width: 0.3; stroke-linejoin: miter"/>
   </g>
   <g id="patch_144">
    <path d="M 410.952617 129.633375 
L 413.497656 129.633375 
L 413.497656 36.680994 
L 410.952617 36.680994 
z
" clip-path="url(#p4b249abe04)" style="fill: #117733; opacity: 0.45; stroke: #ffffff; stroke-width: 0.3; stroke-linejoin: miter"/>
   </g>
   <g id="patch_145">
    <path d="M 413.497656 129.633375 
L 416.042696 129.633375 
L 416.042696 42.677922 
L 413.497656 42.677922 
z
" clip-path="url(#p4b249abe04)" style="fill: #117733; opacity: 0.45; stroke: #ffffff; stroke-width: 0.3; stroke-linejoin: miter"/>
   </g>
   <g id="patch_146">
    <path d="M 416.042696 129.633375 
L 418.587735 129.633375 
L 418.587735 59.669217 
L 416.042696 59.669217 
z
" clip-path="url(#p4b249abe04)" style="fill: #117733; opacity: 0.45; stroke: #ffffff; stroke-width: 0.3; stroke-linejoin: miter"/>
   </g>
   <g id="patch_147">
    <path d="M 418.587735 129.633375 
L 421.132774 129.633375 
L 421.132774 57.670241 
L 418.587735 57.670241 
z
" clip-path="url(#p4b249abe04)" style="fill: #117733; opacity: 0.45; stroke: #ffffff; stroke-width: 0.3; stroke-linejoin: miter"/>
   </g>
   <g id="patch_148">
    <path d="M 421.132774 129.633375 
L 423.677813 129.633375 
L 423.677813 55.671265 
L 421.132774 55.671265 
z
" clip-path="url(#p4b249abe04)" style="fill: #117733; opacity: 0.45; stroke: #ffffff; stroke-width: 0.3; stroke-linejoin: miter"/>
   </g>
   <g id="patch_149">
    <path d="M 423.677813 129.633375 
L 426.222853 129.633375 
L 426.222853 78.659489 
L 423.677813 78.659489 
z
" clip-path="url(#p4b249abe04)" style="fill: #117733; opacity: 0.45; stroke: #ffffff; stroke-width: 0.3; stroke-linejoin: miter"/>
   </g>
   <g id="patch_150">
    <path d="M 426.222853 129.633375 
L 428.767892 129.633375 
L 428.767892 76.660513 
L 426.222853 76.660513 
z
" clip-path="url(#p4b249abe04)" style="fill: #117733; opacity: 0.45; stroke: #ffffff; stroke-width: 0.3; stroke-linejoin: miter"/>
   </g>
   <g id="patch_151">
    <path d="M 428.767892 129.633375 
L 431.312931 129.633375 
L 431.312931 87.65488 
L 428.767892 87.65488 
z
" clip-path="url(#p4b249abe04)" style="fill: #117733; opacity: 0.45; stroke: #ffffff; stroke-width: 0.3; stroke-linejoin: miter"/>
   </g>
   <g id="patch_152">
    <path d="M 431.312931 129.633375 
L 433.85797 129.633375 
L 433.85797 88.654368 
L 431.312931 88.654368 
z
" clip-path="url(#p4b249abe04)" style="fill: #117733; opacity: 0.45; stroke: #ffffff; stroke-width: 0.3; stroke-linejoin: miter"/>
   </g>
   <g id="patch_153">
    <path d="M 433.85797 129.633375 
L 436.40301 129.633375 
L 436.40301 110.643104 
L 433.85797 110.643104 
z
" clip-path="url(#p4b249abe04)" style="fill: #117733; opacity: 0.45; stroke: #ffffff; stroke-width: 0.3; stroke-linejoin: miter"/>
   </g>
   <g id="patch_154">
    <path d="M 436.40301 129.633375 
L 438.948049 129.633375 
L 438.948049 112.64208 
L 436.40301 112.64208 
z
" clip-path="url(#p4b249abe04)" style="fill: #117733; opacity: 0.45; stroke: #ffffff; stroke-width: 0.3; stroke-linejoin: miter"/>
   </g>
   <g id="patch_155">
    <path d="M 438.948049 129.633375 
L 441.493088 129.633375 
L 441.493088 117.639519 
L 438.948049 117.639519 
z
" clip-path="url(#p4b249abe04)" style="fill: #117733; opacity: 0.45; stroke: #ffffff; stroke-width: 0.3; stroke-linejoin: miter"/>
   </g>
   <g id="patch_156">
    <path d="M 441.493088 129.633375 
L 444.038127 129.633375 
L 444.038127 120.637983 
L 441.493088 120.637983 
z
" clip-path="url(#p4b249abe04)" style="fill: #117733; opacity: 0.45; stroke: #ffffff; stroke-width: 0.3; stroke-linejoin: miter"/>
   </g>
   <g id="patch_157">
    <path d="M 444.038127 129.633375 
L 446.583166 129.633375 
L 446.583166 121.637471 
L 444.038127 121.637471 
z
" clip-path="url(#p4b249abe04)" style="fill: #117733; opacity: 0.45; stroke: #ffffff; stroke-width: 0.3; stroke-linejoin: miter"/>
   </g>
   <g id="patch_158">
    <path d="M 446.583166 129.633375 
L 449.128206 129.633375 
L 449.128206 126.634911 
L 446.583166 126.634911 
z
" clip-path="url(#p4b249abe04)" style="fill: #117733; opacity: 0.45; stroke: #ffffff; stroke-width: 0.3; stroke-linejoin: miter"/>
   </g>
   <g id="patch_159">
    <path d="M 449.128206 129.633375 
L 451.673245 129.633375 
L 451.673245 126.634911 
L 449.128206 126.634911 
z
" clip-path="url(#p4b249abe04)" style="fill: #117733; opacity: 0.45; stroke: #ffffff; stroke-width: 0.3; stroke-linejoin: miter"/>
   </g>
   <g id="patch_160">
    <path d="M 451.673245 129.633375 
L 454.218284 129.633375 
L 454.218284 127.634399 
L 451.673245 127.634399 
z
" clip-path="url(#p4b249abe04)" style="fill: #117733; opacity: 0.45; stroke: #ffffff; stroke-width: 0.3; stroke-linejoin: miter"/>
   </g>
   <g id="patch_161">
    <path d="M 454.218284 129.633375 
L 456.763323 129.633375 
L 456.763323 127.634399 
L 454.218284 127.634399 
z
" clip-path="url(#p4b249abe04)" style="fill: #117733; opacity: 0.45; stroke: #ffffff; stroke-width: 0.3; stroke-linejoin: miter"/>
   </g>
   <g id="patch_162">
    <path d="M 456.763323 129.633375 
L 459.308363 129.633375 
L 459.308363 129.633375 
L 456.763323 129.633375 
z
" clip-path="url(#p4b249abe04)" style="fill: #117733; opacity: 0.45; stroke: #ffffff; stroke-width: 0.3; stroke-linejoin: miter"/>
   </g>
   <g id="patch_163">
    <path d="M 459.308363 129.633375 
L 461.853402 129.633375 
L 461.853402 128.633887 
L 459.308363 128.633887 
z
" clip-path="url(#p4b249abe04)" style="fill: #117733; opacity: 0.45; stroke: #ffffff; stroke-width: 0.3; stroke-linejoin: miter"/>
   </g>
   <g id="patch_164">
    <path d="M 461.853402 129.633375 
L 464.398441 129.633375 
L 464.398441 127.634399 
L 461.853402 127.634399 
z
" clip-path="url(#p4b249abe04)" style="fill: #117733; opacity: 0.45; stroke: #ffffff; stroke-width: 0.3; stroke-linejoin: miter"/>
   </g>
   <g id="FillBetweenPolyCollection_5">
    <defs>
     <path id="m73afc0172b" d="M 442.936894 -32.033672 
L 395.775298 -32.033672 
L 395.775298 -134.513672 
L 442.936894 -134.513672 
L 442.936894 -134.513672 
L 442.936894 -32.033672 
z
" style="stroke: #cc3311; stroke-opacity: 0.15; stroke-width: 0.6"/>
    </defs>
    <g clip-path="url(#p4b249abe04)">
     <use xlink:href="#m73afc0172b" x="0" y="161.667047" style="fill: #cc3311; fill-opacity: 0.15; stroke: #cc3311; stroke-opacity: 0.15; stroke-width: 0.6"/>
    </g>
   </g>
   <g id="matplotlib.axis_9">
    <g id="xtick_14">
     <g id="line2d_26">
      <g>
       <use xlink:href="#m0e7f179d3a" x="385.180377" y="129.633375" style="stroke: #000000; stroke-width: 0.8"/>
      </g>
     </g>
     <g id="text_22">
      <!-- 0.00 -->
      <g transform="translate(378.855572 137.785953) scale(0.065 -0.065)">
       <use xlink:href="#ArialMT-30"/>
       <use xlink:href="#ArialMT-2e" transform="translate(55.615234 0)"/>
       <use xlink:href="#ArialMT-30" transform="translate(83.398438 0)"/>
       <use xlink:href="#ArialMT-30" transform="translate(139.013672 0)"/>
      </g>
     </g>
    </g>
    <g id="xtick_15">
     <g id="line2d_27">
      <g>
       <use xlink:href="#m0e7f179d3a" x="408.413287" y="129.633375" style="stroke: #000000; stroke-width: 0.8"/>
      </g>
     </g>
     <g id="text_23">
      <!-- 0.02 -->
      <g transform="translate(402.088482 137.785953) scale(0.065 -0.065)">
       <use xlink:href="#ArialMT-30"/>
       <use xlink:href="#ArialMT-2e" transform="translate(55.615234 0)"/>
       <use xlink:href="#ArialMT-30" transform="translate(83.398438 0)"/>
       <use xlink:href="#ArialMT-32" transform="translate(139.013672 0)"/>
      </g>
     </g>
    </g>
    <g id="xtick_16">
     <g id="line2d_28">
      <g>
       <use xlink:href="#m0e7f179d3a" x="431.646197" y="129.633375" style="stroke: #000000; stroke-width: 0.8"/>
      </g>
     </g>
     <g id="text_24">
      <!-- 0.04 -->
      <g transform="translate(425.321392 137.785953) scale(0.065 -0.065)">
       <use xlink:href="#ArialMT-30"/>
       <use xlink:href="#ArialMT-2e" transform="translate(55.615234 0)"/>
       <use xlink:href="#ArialMT-30" transform="translate(83.398438 0)"/>
       <use xlink:href="#ArialMT-34" transform="translate(139.013672 0)"/>
      </g>
     </g>
    </g>
    <g id="xtick_17">
     <g id="line2d_29">
      <g>
       <use xlink:href="#m0e7f179d3a" x="454.879107" y="129.633375" style="stroke: #000000; stroke-width: 0.8"/>
      </g>
     </g>
     <g id="text_25">
      <!-- 0.06 -->
      <g transform="translate(448.554302 137.785953) scale(0.065 -0.065)">
       <use xlink:href="#ArialMT-30"/>
       <use xlink:href="#ArialMT-2e" transform="translate(55.615234 0)"/>
       <use xlink:href="#ArialMT-30" transform="translate(83.398438 0)"/>
       <use xlink:href="#ArialMT-36" transform="translate(139.013672 0)"/>
      </g>
     </g>
    </g>
    <g id="text_26">
     <!-- Brier@48h -->
     <g transform="translate(408.242774 148.545797) scale(0.075 -0.075)">
      <use xlink:href="#ArialMT-42"/>
      <use xlink:href="#ArialMT-72" transform="translate(66.699219 0)"/>
      <use xlink:href="#ArialMT-69" transform="translate(100 0)"/>
      <use xlink:href="#ArialMT-65" transform="translate(122.216797 0)"/>
      <use xlink:href="#ArialMT-72" transform="translate(177.832031 0)"/>
      <use xlink:href="#ArialMT-40" transform="translate(211.132812 0)"/>
      <use xlink:href="#ArialMT-34" transform="translate(312.646484 0)"/>
      <use xlink:href="#ArialMT-38" transform="translate(368.261719 0)"/>
      <use xlink:href="#ArialMT-68" transform="translate(423.876953 0)"/>
     </g>
    </g>
   </g>
   <g id="matplotlib.axis_10"/>
   <g id="patch_165">
    <path d="M 384.229705 129.633375 
L 384.229705 22.029375 
" style="fill: none; stroke: #000000; stroke-width: 0.6; stroke-linejoin: miter; stroke-linecap: square"/>
   </g>
   <g id="patch_166">
    <path d="M 384.229705 129.633375 
L 468.216 129.633375 
" style="fill: none; stroke: #000000; stroke-width: 0.6; stroke-linejoin: miter; stroke-linecap: square"/>
   </g>
   <g id="text_27">
    <!-- 0.0261 -->
    <g transform="translate(415.518868 8.610469) scale(0.07 -0.07)">
     <use xlink:href="#Arial-BoldMT-30"/>
     <use xlink:href="#Arial-BoldMT-2e" transform="translate(55.615234 0)"/>
     <use xlink:href="#Arial-BoldMT-30" transform="translate(83.398438 0)"/>
     <use xlink:href="#Arial-BoldMT-32" transform="translate(139.013672 0)"/>
     <use xlink:href="#Arial-BoldMT-36" transform="translate(194.628906 0)"/>
     <use xlink:href="#Arial-BoldMT-31" transform="translate(250.244141 0)"/>
    </g>
    <!-- [0.0091, 0.0497] -->
    <g transform="translate(400.539415 16.029375) scale(0.07 -0.07)">
     <use xlink:href="#Arial-BoldMT-5b"/>
     <use xlink:href="#Arial-BoldMT-30" transform="translate(33.300781 0)"/>
     <use xlink:href="#Arial-BoldMT-2e" transform="translate(88.916016 0)"/>
     <use xlink:href="#Arial-BoldMT-30" transform="translate(116.699219 0)"/>
     <use xlink:href="#Arial-BoldMT-30" transform="translate(172.314453 0)"/>
     <use xlink:href="#Arial-BoldMT-39" transform="translate(227.929688 0)"/>
     <use xlink:href="#Arial-BoldMT-31" transform="translate(283.544922 0)"/>
     <use xlink:href="#Arial-BoldMT-2c" transform="translate(339.160156 0)"/>
     <use xlink:href="#Arial-BoldMT-20" transform="translate(366.943359 0)"/>
     <use xlink:href="#Arial-BoldMT-30" transform="translate(394.726562 0)"/>
     <use xlink:href="#Arial-BoldMT-2e" transform="translate(450.341797 0)"/>
     <use xlink:href="#Arial-BoldMT-30" transform="translate(478.125 0)"/>
     <use xlink:href="#Arial-BoldMT-34" transform="translate(533.740234 0)"/>
     <use xlink:href="#Arial-BoldMT-39" transform="translate(589.355469 0)"/>
     <use xlink:href="#Arial-BoldMT-37" transform="translate(644.970703 0)"/>
     <use xlink:href="#Arial-BoldMT-5d" transform="translate(700.585938 0)"/>
    </g>
   </g>
   <g id="line2d_30">
    <path d="M 415.469539 129.633375 
L 415.469539 22.029375 
" clip-path="url(#p4b249abe04)" style="fill: none; stroke: #cc3311; stroke-width: 1.3; stroke-linecap: square"/>
   </g>
   <g id="line2d_31">
    <path d="M 395.775298 129.633375 
L 395.775298 22.029375 
" clip-path="url(#p4b249abe04)" style="fill: none; stroke-dasharray: 2.96,1.28; stroke-dashoffset: 0; stroke: #cc3311; stroke-opacity: 0.8; stroke-width: 0.8"/>
   </g>
   <g id="line2d_32">
    <path d="M 442.936894 129.633375 
L 442.936894 22.029375 
" clip-path="url(#p4b249abe04)" style="fill: none; stroke-dasharray: 2.96,1.28; stroke-dashoffset: 0; stroke: #cc3311; stroke-opacity: 0.8; stroke-width: 0.8"/>
   </g>
  </g>
 </g>
 <defs>
  <clipPath id="p8d7c0435c8">
   <rect x="3.6" y="22.029375" width="83.986295" height="107.604"/>
  </clipPath>
  <clipPath id="pa14b56b2bc">
   <rect x="98.757426" y="22.029375" width="83.986295" height="107.604"/>
  </clipPath>
  <clipPath id="p112256d4c4">
   <rect x="193.914853" y="22.029375" width="83.986295" height="107.604"/>
  </clipPath>
  <clipPath id="p6b19e34bd7">
   <rect x="289.072279" y="22.029375" width="83.986295" height="107.604"/>
  </clipPath>
  <clipPath id="p4b249abe04">
   <rect x="384.229705" y="22.029375" width="83.986295" height="107.604"/>
  </clipPath>
 </defs>
</svg>
