<?xml version="1.0" encoding="utf-8" standalone="no"?>
<!DOCTYPE svg PUBLIC "-//W3C//DTD SVG 1.1//EN"
  "http://www.w3.org/Graphics/SVG/1.1/DTD/svg11.dtd">
<svg xmlns:xlink="http://www.w3.org/1999/xlink" width="369.9pt" height="242.405814pt" viewBox="0 0 369.9 242.405814" xmlns="http://www.w3.org/2000/svg" version="1.1">
 <metadata>
  <rdf:RDF xmlns:dc="http://purl.org/dc/elements/1.1/" xmlns:cc="http://creativecommons.org/ns#" xmlns:rdf="http://www.w3.org/1999/02/22-rdf-syntax-ns#">
   <cc:Work>
    <dc:type rdf:resource="http://purl.org/dc/dcmitype/StillImage"/>
    <dc:date>2026-04-01T22:53:47.639461</dc:date>
    <dc:format>image/svg+xml</dc:format>
    <dc:creator>
     <cc:Agent>
      <dc:title>Matplotlib v3.10.5, https://matplotlib.org/</dc:title>
     </cc:Agent>
    </dc:creator>
   </cc:Work>
  </rdf:RDF>
 </metadata>
 <defs>
  <style type="text/css">*{stroke-linejoin: round; stroke-linecap: butt}</style>
 </defs>
 <g id="figure_1">
  <g id="patch_1">
   <path d="M 0 242.405814 
L 369.9 242.405814 
L 369.9 0 
L 0 0 
z
" style="fill: #ffffff"/>
  </g>
  <g id="axes_1">
   <g id="patch_2">
    <path d="M 11.97 132.51755 
L 101.25 132.51755 
Q 104.598 132.51755 104.598 129.230284 
L 104.598 68.963743 
Q 104.598 65.676477 101.25 65.676477 
L 11.97 65.676477 
Q 8.622 65.676477 8.622 68.963743 
L 8.622 129.230284 
Q 8.622 132.51755 11.97 132.51755 
z
" clip-path="url(#p301b51effa)" style="fill: #bbdefb; stroke: #1565c0; stroke-width: 1.2; stroke-linejoin: miter"/>
   </g>
   <g id="patch_3">
    <path d="M 123.57 132.51755 
L 212.85 132.51755 
Q 216.198 132.51755 216.198 129.230284 
L 216.198 68.963743 
Q 216.198 65.676477 212.85 65.676477 
L 123.57 65.676477 
Q 120.222 65.676477 120.222 68.963743 
L 120.222 129.230284 
Q 120.222 132.51755 123.57 132.51755 
z
" clip-path="url(#p301b51effa)" style="fill: #ffe0b2; stroke: #e65100; stroke-width: 1.2; stroke-linejoin: miter"/>
   </g>
   <g id="patch_4">
    <path d="M 235.17 132.51755 
L 324.45 132.51755 
Q 327.798 132.51755 327.798 129.230284 
L 327.798 68.963743 
Q 327.798 65.676477 324.45 65.676477 
L 235.17 65.676477 
Q 231.822 65.676477 231.822 68.963743 
L 231.822 129.230284 
Q 231.822 132.51755 235.17 132.51755 
z
" clip-path="url(#p301b51effa)" style="fill: #f8bbd0; stroke: #c62828; stroke-width: 1.2; stroke-linejoin: miter"/>
   </g>
   <g id="text_1">
    <!-- Gate-Informed Survival–Probability Fusion -->
    <g style="fill: #2b2b2b" transform="translate(73.407422 11.607656) scale(0.11 -0.11)">
     <defs>
      <path id="Arial-BoldMT-47" d="M 2597 1684 
L 2597 2456 
L 4591 2456 
L 4591 631 
Q 4300 350 3748 136 
Q 3197 -78 2631 -78 
Q 1913 -78 1378 223 
Q 844 525 575 1086 
Q 306 1647 306 2306 
Q 306 3022 606 3578 
Q 906 4134 1484 4431 
Q 1925 4659 2581 4659 
Q 3434 4659 3914 4301 
Q 4394 3944 4531 3313 
L 3613 3141 
Q 3516 3478 3248 3673 
Q 2981 3869 2581 3869 
Q 1975 3869 1617 3484 
Q 1259 3100 1259 2344 
Q 1259 1528 1621 1120 
Q 1984 713 2572 713 
Q 2863 713 3155 827 
Q 3447 941 3656 1103 
L 3656 1684 
L 2597 1684 
z
" transform="scale(0.015625)"/>
      <path id="Arial-BoldMT-61" d="M 1116 2306 
L 319 2450 
Q 453 2931 781 3162 
Q 1109 3394 1756 3394 
Q 2344 3394 2631 3255 
Q 2919 3116 3036 2902 
Q 3153 2688 3153 2116 
L 3144 1091 
Q 3144 653 3186 445 
Q 3228 238 3344 0 
L 2475 0 
Q 2441 88 2391 259 
Q 2369 338 2359 363 
Q 2134 144 1878 34 
Q 1622 -75 1331 -75 
Q 819 -75 523 203 
Q 228 481 228 906 
Q 228 1188 362 1408 
Q 497 1628 739 1745 
Q 981 1863 1438 1950 
Q 2053 2066 2291 2166 
L 2291 2253 
Q 2291 2506 2166 2614 
Q 2041 2722 1694 2722 
Q 1459 2722 1328 2630 
Q 1197 2538 1116 2306 
z
M 2291 1594 
Q 2122 1538 1756 1459 
Q 1391 1381 1278 1306 
Q 1106 1184 1106 997 
Q 1106 813 1243 678 
Q 1381 544 1594 544 
Q 1831 544 2047 700 
Q 2206 819 2256 991 
Q 2291 1103 2291 1419 
L 2291 1594 
z
" transform="scale(0.015625)"/>
      <path id="Arial-BoldMT-74" d="M 1981 3319 
L 1981 2619 
L 1381 2619 
L 1381 1281 
Q 1381 875 1398 808 
Q 1416 741 1477 697 
Q 1538 653 1625 653 
Q 1747 653 1978 738 
L 2053 56 
Q 1747 -75 1359 -75 
Q 1122 -75 931 4 
Q 741 84 652 211 
Q 563 338 528 553 
Q 500 706 500 1172 
L 500 2619 
L 97 2619 
L 97 3319 
L 500 3319 
L 500 3978 
L 1381 4491 
L 1381 3319 
L 1981 3319 
z
" transform="scale(0.015625)"/>
      <path id="Arial-BoldMT-65" d="M 2381 1056 
L 3256 909 
Q 3088 428 2723 176 
Q 2359 -75 1813 -75 
Q 947 -75 531 491 
Q 203 944 203 1634 
Q 203 2459 634 2926 
Q 1066 3394 1725 3394 
Q 2466 3394 2894 2905 
Q 3322 2416 3303 1406 
L 1103 1406 
Q 1113 1016 1316 798 
Q 1519 581 1822 581 
Q 2028 581 2168 693 
Q 2309 806 2381 1056 
z
M 2431 1944 
Q 2422 2325 2234 2523 
Q 2047 2722 1778 2722 
Q 1491 2722 1303 2513 
Q 1116 2303 1119 1944 
L 2431 1944 
z
" transform="scale(0.015625)"/>
      <path id="Arial-BoldMT-2d" d="M 359 1222 
L 359 2100 
L 2084 2100 
L 2084 1222 
L 359 1222 
z
" transform="scale(0.015625)"/>
      <path id="Arial-BoldMT-49" d="M 438 0 
L 438 4581 
L 1363 4581 
L 1363 0 
L 438 0 
z
" transform="scale(0.015625)"/>
      <path id="Arial-BoldMT-6e" d="M 3478 0 
L 2600 0 
L 2600 1694 
Q 2600 2231 2544 2389 
Q 2488 2547 2361 2634 
Q 2234 2722 2056 2722 
Q 1828 2722 1647 2597 
Q 1466 2472 1398 2265 
Q 1331 2059 1331 1503 
L 1331 0 
L 453 0 
L 453 3319 
L 1269 3319 
L 1269 2831 
Q 1703 3394 2363 3394 
Q 2653 3394 2893 3289 
Q 3134 3184 3257 3021 
Q 3381 2859 3429 2653 
Q 3478 2447 3478 2063 
L 3478 0 
z
" transform="scale(0.015625)"/>
      <path id="Arial-BoldMT-66" d="M 75 3319 
L 563 3319 
L 563 3569 
Q 563 3988 652 4194 
Q 741 4400 980 4529 
Q 1219 4659 1584 4659 
Q 1959 4659 2319 4547 
L 2200 3934 
Q 1991 3984 1797 3984 
Q 1606 3984 1523 3895 
Q 1441 3806 1441 3553 
L 1441 3319 
L 2097 3319 
L 2097 2628 
L 1441 2628 
L 1441 0 
L 563 0 
L 563 2628 
L 75 2628 
L 75 3319 
z
" transform="scale(0.015625)"/>
      <path id="Arial-BoldMT-6f" d="M 256 1706 
Q 256 2144 472 2553 
Q 688 2963 1083 3178 
Q 1478 3394 1966 3394 
Q 2719 3394 3200 2905 
Q 3681 2416 3681 1669 
Q 3681 916 3195 420 
Q 2709 -75 1972 -75 
Q 1516 -75 1102 131 
Q 688 338 472 736 
Q 256 1134 256 1706 
z
M 1156 1659 
Q 1156 1166 1390 903 
Q 1625 641 1969 641 
Q 2313 641 2545 903 
Q 2778 1166 2778 1666 
Q 2778 2153 2545 2415 
Q 2313 2678 1969 2678 
Q 1625 2678 1390 2415 
Q 1156 2153 1156 1659 
z
" transform="scale(0.015625)"/>
      <path id="Arial-BoldMT-72" d="M 1300 0 
L 422 0 
L 422 3319 
L 1238 3319 
L 1238 2847 
Q 1447 3181 1614 3287 
Q 1781 3394 1994 3394 
Q 2294 3394 2572 3228 
L 2300 2463 
Q 2078 2606 1888 2606 
Q 1703 2606 1575 2504 
Q 1447 2403 1373 2137 
Q 1300 1872 1300 1025 
L 1300 0 
z
" transform="scale(0.015625)"/>
      <path id="Arial-BoldMT-6d" d="M 394 3319 
L 1203 3319 
L 1203 2866 
Q 1638 3394 2238 3394 
Q 2556 3394 2790 3262 
Q 3025 3131 3175 2866 
Q 3394 3131 3647 3262 
Q 3900 3394 4188 3394 
Q 4553 3394 4806 3245 
Q 5059 3097 5184 2809 
Q 5275 2597 5275 2122 
L 5275 0 
L 4397 0 
L 4397 1897 
Q 4397 2391 4306 2534 
Q 4184 2722 3931 2722 
Q 3747 2722 3584 2609 
Q 3422 2497 3350 2280 
Q 3278 2063 3278 1594 
L 3278 0 
L 2400 0 
L 2400 1819 
Q 2400 2303 2353 2443 
Q 2306 2584 2207 2653 
Q 2109 2722 1941 2722 
Q 1738 2722 1575 2612 
Q 1413 2503 1342 2297 
Q 1272 2091 1272 1613 
L 1272 0 
L 394 0 
L 394 3319 
z
" transform="scale(0.015625)"/>
      <path id="Arial-BoldMT-64" d="M 3503 0 
L 2688 0 
L 2688 488 
Q 2484 203 2207 64 
Q 1931 -75 1650 -75 
Q 1078 -75 670 386 
Q 263 847 263 1672 
Q 263 2516 659 2955 
Q 1056 3394 1663 3394 
Q 2219 3394 2625 2931 
L 2625 4581 
L 3503 4581 
L 3503 0 
z
M 1159 1731 
Q 1159 1200 1306 963 
Q 1519 619 1900 619 
Q 2203 619 2415 876 
Q 2628 1134 2628 1647 
Q 2628 2219 2422 2470 
Q 2216 2722 1894 2722 
Q 1581 2722 1370 2473 
Q 1159 2225 1159 1731 
z
" transform="scale(0.015625)"/>
      <path id="Arial-BoldMT-20" transform="scale(0.015625)"/>
      <path id="Arial-BoldMT-53" d="M 231 1491 
L 1131 1578 
Q 1213 1125 1461 912 
Q 1709 700 2131 700 
Q 2578 700 2804 889 
Q 3031 1078 3031 1331 
Q 3031 1494 2936 1608 
Q 2841 1722 2603 1806 
Q 2441 1863 1863 2006 
Q 1119 2191 819 2459 
Q 397 2838 397 3381 
Q 397 3731 595 4036 
Q 794 4341 1167 4500 
Q 1541 4659 2069 4659 
Q 2931 4659 3367 4281 
Q 3803 3903 3825 3272 
L 2900 3231 
Q 2841 3584 2645 3739 
Q 2450 3894 2059 3894 
Q 1656 3894 1428 3728 
Q 1281 3622 1281 3444 
Q 1281 3281 1419 3166 
Q 1594 3019 2269 2859 
Q 2944 2700 3267 2529 
Q 3591 2359 3773 2064 
Q 3956 1769 3956 1334 
Q 3956 941 3737 597 
Q 3519 253 3119 86 
Q 2719 -81 2122 -81 
Q 1253 -81 787 320 
Q 322 722 231 1491 
z
" transform="scale(0.015625)"/>
      <path id="Arial-BoldMT-75" d="M 2644 0 
L 2644 497 
Q 2463 231 2167 78 
Q 1872 -75 1544 -75 
Q 1209 -75 943 72 
Q 678 219 559 484 
Q 441 750 441 1219 
L 441 3319 
L 1319 3319 
L 1319 1794 
Q 1319 1094 1367 936 
Q 1416 778 1544 686 
Q 1672 594 1869 594 
Q 2094 594 2272 717 
Q 2450 841 2515 1023 
Q 2581 1206 2581 1919 
L 2581 3319 
L 3459 3319 
L 3459 0 
L 2644 0 
z
" transform="scale(0.015625)"/>
      <path id="Arial-BoldMT-76" d="M 1372 0 
L 34 3319 
L 956 3319 
L 1581 1625 
L 1763 1059 
Q 1834 1275 1853 1344 
Q 1897 1484 1947 1625 
L 2578 3319 
L 3481 3319 
L 2163 0 
L 1372 0 
z
" transform="scale(0.015625)"/>
      <path id="Arial-BoldMT-69" d="M 459 3769 
L 459 4581 
L 1338 4581 
L 1338 3769 
L 459 3769 
z
M 459 0 
L 459 3319 
L 1338 3319 
L 1338 0 
L 459 0 
z
" transform="scale(0.015625)"/>
      <path id="Arial-BoldMT-6c" d="M 459 0 
L 459 4581 
L 1338 4581 
L 1338 0 
L 459 0 
z
" transform="scale(0.015625)"/>
      <path id="Arial-BoldMT-2013" d="M -13 1331 
L -13 1988 
L 3547 1988 
L 3547 1331 
L -13 1331 
z
" transform="scale(0.015625)"/>
      <path id="Arial-BoldMT-50" d="M 466 0 
L 466 4581 
L 1950 4581 
Q 2794 4581 3050 4513 
Q 3444 4409 3709 4064 
Q 3975 3719 3975 3172 
Q 3975 2750 3822 2462 
Q 3669 2175 3433 2011 
Q 3197 1847 2953 1794 
Q 2622 1728 1994 1728 
L 1391 1728 
L 1391 0 
L 466 0 
z
M 1391 3806 
L 1391 2506 
L 1897 2506 
Q 2444 2506 2628 2578 
Q 2813 2650 2917 2803 
Q 3022 2956 3022 3159 
Q 3022 3409 2875 3571 
Q 2728 3734 2503 3775 
Q 2338 3806 1838 3806 
L 1391 3806 
z
" transform="scale(0.015625)"/>
      <path id="Arial-BoldMT-62" d="M 422 0 
L 422 4581 
L 1300 4581 
L 1300 2931 
Q 1706 3394 2263 3394 
Q 2869 3394 3266 2955 
Q 3663 2516 3663 1694 
Q 3663 844 3258 384 
Q 2853 -75 2275 -75 
Q 1991 -75 1714 67 
Q 1438 209 1238 488 
L 1238 0 
L 422 0 
z
M 1294 1731 
Q 1294 1216 1456 969 
Q 1684 619 2063 619 
Q 2353 619 2558 867 
Q 2763 1116 2763 1650 
Q 2763 2219 2556 2470 
Q 2350 2722 2028 2722 
Q 1713 2722 1503 2476 
Q 1294 2231 1294 1731 
z
" transform="scale(0.015625)"/>
      <path id="Arial-BoldMT-79" d="M 44 3319 
L 978 3319 
L 1772 963 
L 2547 3319 
L 3456 3319 
L 2284 125 
L 2075 -453 
Q 1959 -744 1854 -897 
Q 1750 -1050 1614 -1145 
Q 1478 -1241 1279 -1294 
Q 1081 -1347 831 -1347 
Q 578 -1347 334 -1294 
L 256 -606 
Q 463 -647 628 -647 
Q 934 -647 1081 -467 
Q 1228 -288 1306 -9 
L 44 3319 
z
" transform="scale(0.015625)"/>
      <path id="Arial-BoldMT-46" d="M 472 0 
L 472 4581 
L 3613 4581 
L 3613 3806 
L 1397 3806 
L 1397 2722 
L 3309 2722 
L 3309 1947 
L 1397 1947 
L 1397 0 
L 472 0 
z
" transform="scale(0.015625)"/>
      <path id="Arial-BoldMT-73" d="M 150 947 
L 1031 1081 
Q 1088 825 1259 692 
Q 1431 559 1741 559 
Q 2081 559 2253 684 
Q 2369 772 2369 919 
Q 2369 1019 2306 1084 
Q 2241 1147 2013 1200 
Q 950 1434 666 1628 
Q 272 1897 272 2375 
Q 272 2806 612 3100 
Q 953 3394 1669 3394 
Q 2350 3394 2681 3172 
Q 3013 2950 3138 2516 
L 2309 2363 
Q 2256 2556 2107 2659 
Q 1959 2763 1684 2763 
Q 1338 2763 1188 2666 
Q 1088 2597 1088 2488 
Q 1088 2394 1175 2328 
Q 1294 2241 1995 2081 
Q 2697 1922 2975 1691 
Q 3250 1456 3250 1038 
Q 3250 581 2869 253 
Q 2488 -75 1741 -75 
Q 1063 -75 667 200 
Q 272 475 150 947 
z
" transform="scale(0.015625)"/>
     </defs>
     <use xlink:href="#Arial-BoldMT-47"/>
     <use xlink:href="#Arial-BoldMT-61" transform="translate(77.783203 0)"/>
     <use xlink:href="#Arial-BoldMT-74" transform="translate(133.398438 0)"/>
     <use xlink:href="#Arial-BoldMT-65" transform="translate(166.699219 0)"/>
     <use xlink:href="#Arial-BoldMT-2d" transform="translate(222.314453 0)"/>
     <use xlink:href="#Arial-BoldMT-49" transform="translate(255.615234 0)"/>
     <use xlink:href="#Arial-BoldMT-6e" transform="translate(283.398438 0)"/>
     <use xlink:href="#Arial-BoldMT-66" transform="translate(344.482422 0)"/>
     <use xlink:href="#Arial-BoldMT-6f" transform="translate(377.783203 0)"/>
     <use xlink:href="#Arial-BoldMT-72" transform="translate(438.867188 0)"/>
     <use xlink:href="#Arial-BoldMT-6d" transform="translate(477.783203 0)"/>
     <use xlink:href="#Arial-BoldMT-65" transform="translate(566.699219 0)"/>
     <use xlink:href="#Arial-BoldMT-64" transform="translate(622.314453 0)"/>
     <use xlink:href="#Arial-BoldMT-20" transform="translate(683.398438 0)"/>
     <use xlink:href="#Arial-BoldMT-53" transform="translate(711.181641 0)"/>
     <use xlink:href="#Arial-BoldMT-75" transform="translate(777.880859 0)"/>
     <use xlink:href="#Arial-BoldMT-72" transform="translate(838.964844 0)"/>
     <use xlink:href="#Arial-BoldMT-76" transform="translate(877.880859 0)"/>
     <use xlink:href="#Arial-BoldMT-69" transform="translate(933.496094 0)"/>
     <use xlink:href="#Arial-BoldMT-76" transform="translate(961.279297 0)"/>
     <use xlink:href="#Arial-BoldMT-61" transform="translate(1016.894531 0)"/>
     <use xlink:href="#Arial-BoldMT-6c" transform="translate(1072.509766 0)"/>
     <use xlink:href="#Arial-BoldMT-2013" transform="translate(1100.292969 0)"/>
     <use xlink:href="#Arial-BoldMT-50" transform="translate(1155.908203 0)"/>
     <use xlink:href="#Arial-BoldMT-72" transform="translate(1222.607422 0)"/>
     <use xlink:href="#Arial-BoldMT-6f" transform="translate(1261.523438 0)"/>
     <use xlink:href="#Arial-BoldMT-62" transform="translate(1322.607422 0)"/>
     <use xlink:href="#Arial-BoldMT-61" transform="translate(1383.691406 0)"/>
     <use xlink:href="#Arial-BoldMT-62" transform="translate(1439.306641 0)"/>
     <use xlink:href="#Arial-BoldMT-69" transform="translate(1500.390625 0)"/>
     <use xlink:href="#Arial-BoldMT-6c" transform="translate(1528.173828 0)"/>
     <use xlink:href="#Arial-BoldMT-69" transform="translate(1555.957031 0)"/>
     <use xlink:href="#Arial-BoldMT-74" transform="translate(1583.740234 0)"/>
     <use xlink:href="#Arial-BoldMT-79" transform="translate(1617.041016 0)"/>
     <use xlink:href="#Arial-BoldMT-20" transform="translate(1672.65625 0)"/>
     <use xlink:href="#Arial-BoldMT-46" transform="translate(1700.439453 0)"/>
     <use xlink:href="#Arial-BoldMT-75" transform="translate(1761.523438 0)"/>
     <use xlink:href="#Arial-BoldMT-73" transform="translate(1822.607422 0)"/>
     <use xlink:href="#Arial-BoldMT-69" transform="translate(1878.222656 0)"/>
     <use xlink:href="#Arial-BoldMT-6f" transform="translate(1906.005859 0)"/>
     <use xlink:href="#Arial-BoldMT-6e" transform="translate(1967.089844 0)"/>
    </g>
    <!-- for Multi-Horizon Wildfire Threat Forecasting -->
    <g style="fill: #2b2b2b" transform="translate(68.282969 25.133531) scale(0.11 -0.11)">
     <defs>
      <path id="Arial-BoldMT-4d" d="M 453 0 
L 453 4581 
L 1838 4581 
L 2669 1456 
L 3491 4581 
L 4878 4581 
L 4878 0 
L 4019 0 
L 4019 3606 
L 3109 0 
L 2219 0 
L 1313 3606 
L 1313 0 
L 453 0 
z
" transform="scale(0.015625)"/>
      <path id="Arial-BoldMT-48" d="M 469 0 
L 469 4581 
L 1394 4581 
L 1394 2778 
L 3206 2778 
L 3206 4581 
L 4131 4581 
L 4131 0 
L 3206 0 
L 3206 2003 
L 1394 2003 
L 1394 0 
L 469 0 
z
" transform="scale(0.015625)"/>
      <path id="Arial-BoldMT-7a" d="M 106 0 
L 106 684 
L 1350 2113 
Q 1656 2463 1803 2609 
Q 1650 2600 1400 2597 
L 228 2591 
L 228 3319 
L 2972 3319 
L 2972 2697 
L 1703 1234 
L 1256 750 
Q 1622 772 1709 772 
L 3069 772 
L 3069 0 
L 106 0 
z
" transform="scale(0.015625)"/>
      <path id="Arial-BoldMT-57" d="M 1116 0 
L 22 4581 
L 969 4581 
L 1659 1434 
L 2497 4581 
L 3597 4581 
L 4400 1381 
L 5103 4581 
L 6034 4581 
L 4922 0 
L 3941 0 
L 3028 3425 
L 2119 0 
L 1116 0 
z
" transform="scale(0.015625)"/>
      <path id="Arial-BoldMT-54" d="M 1497 0 
L 1497 3806 
L 138 3806 
L 138 4581 
L 3778 4581 
L 3778 3806 
L 2422 3806 
L 2422 0 
L 1497 0 
z
" transform="scale(0.015625)"/>
      <path id="Arial-BoldMT-68" d="M 1334 4581 
L 1334 2897 
Q 1759 3394 2350 3394 
Q 2653 3394 2897 3281 
Q 3141 3169 3264 2994 
Q 3388 2819 3433 2606 
Q 3478 2394 3478 1947 
L 3478 0 
L 2600 0 
L 2600 1753 
Q 2600 2275 2550 2415 
Q 2500 2556 2373 2639 
Q 2247 2722 2056 2722 
Q 1838 2722 1666 2615 
Q 1494 2509 1414 2295 
Q 1334 2081 1334 1663 
L 1334 0 
L 456 0 
L 456 4581 
L 1334 4581 
z
" transform="scale(0.015625)"/>
      <path id="Arial-BoldMT-63" d="M 3353 2338 
L 2488 2181 
Q 2444 2441 2289 2572 
Q 2134 2703 1888 2703 
Q 1559 2703 1364 2476 
Q 1169 2250 1169 1719 
Q 1169 1128 1367 884 
Q 1566 641 1900 641 
Q 2150 641 2309 783 
Q 2469 925 2534 1272 
L 3397 1125 
Q 3263 531 2881 228 
Q 2500 -75 1859 -75 
Q 1131 -75 698 384 
Q 266 844 266 1656 
Q 266 2478 700 2936 
Q 1134 3394 1875 3394 
Q 2481 3394 2839 3133 
Q 3197 2872 3353 2338 
z
" transform="scale(0.015625)"/>
      <path id="Arial-BoldMT-67" d="M 378 -219 
L 1381 -341 
Q 1406 -516 1497 -581 
Q 1622 -675 1891 -675 
Q 2234 -675 2406 -572 
Q 2522 -503 2581 -350 
Q 2622 -241 2622 53 
L 2622 538 
Q 2228 0 1628 0 
Q 959 0 569 566 
Q 263 1013 263 1678 
Q 263 2513 664 2953 
Q 1066 3394 1663 3394 
Q 2278 3394 2678 2853 
L 2678 3319 
L 3500 3319 
L 3500 341 
Q 3500 -247 3403 -537 
Q 3306 -828 3131 -993 
Q 2956 -1159 2664 -1253 
Q 2372 -1347 1925 -1347 
Q 1081 -1347 728 -1058 
Q 375 -769 375 -325 
Q 375 -281 378 -219 
z
M 1163 1728 
Q 1163 1200 1367 954 
Q 1572 709 1872 709 
Q 2194 709 2416 961 
Q 2638 1213 2638 1706 
Q 2638 2222 2425 2472 
Q 2213 2722 1888 2722 
Q 1572 2722 1367 2476 
Q 1163 2231 1163 1728 
z
" transform="scale(0.015625)"/>
     </defs>
     <use xlink:href="#Arial-BoldMT-66"/>
     <use xlink:href="#Arial-BoldMT-6f" transform="translate(33.300781 0)"/>
     <use xlink:href="#Arial-BoldMT-72" transform="translate(94.384766 0)"/>
     <use xlink:href="#Arial-BoldMT-20" transform="translate(133.300781 0)"/>
     <use xlink:href="#Arial-BoldMT-4d" transform="translate(161.083984 0)"/>
     <use xlink:href="#Arial-BoldMT-75" transform="translate(244.384766 0)"/>
     <use xlink:href="#Arial-BoldMT-6c" transform="translate(305.46875 0)"/>
     <use xlink:href="#Arial-BoldMT-74" transform="translate(333.251953 0)"/>
     <use xlink:href="#Arial-BoldMT-69" transform="translate(366.552734 0)"/>
     <use xlink:href="#Arial-BoldMT-2d" transform="translate(394.335938 0)"/>
     <use xlink:href="#Arial-BoldMT-48" transform="translate(427.636719 0)"/>
     <use xlink:href="#Arial-BoldMT-6f" transform="translate(499.853516 0)"/>
     <use xlink:href="#Arial-BoldMT-72" transform="translate(560.9375 0)"/>
     <use xlink:href="#Arial-BoldMT-69" transform="translate(599.853516 0)"/>
     <use xlink:href="#Arial-BoldMT-7a" transform="translate(627.636719 0)"/>
     <use xlink:href="#Arial-BoldMT-6f" transform="translate(677.636719 0)"/>
     <use xlink:href="#Arial-BoldMT-6e" transform="translate(738.720703 0)"/>
     <use xlink:href="#Arial-BoldMT-20" transform="translate(799.804688 0)"/>
     <use xlink:href="#Arial-BoldMT-57" transform="translate(827.587891 0)"/>
     <use xlink:href="#Arial-BoldMT-69" transform="translate(921.097656 0)"/>
     <use xlink:href="#Arial-BoldMT-6c" transform="translate(948.880859 0)"/>
     <use xlink:href="#Arial-BoldMT-64" transform="translate(976.664062 0)"/>
     <use xlink:href="#Arial-BoldMT-66" transform="translate(1037.748047 0)"/>
     <use xlink:href="#Arial-BoldMT-69" transform="translate(1071.048828 0)"/>
     <use xlink:href="#Arial-BoldMT-72" transform="translate(1098.832031 0)"/>
     <use xlink:href="#Arial-BoldMT-65" transform="translate(1137.748047 0)"/>
     <use xlink:href="#Arial-BoldMT-20" transform="translate(1193.363281 0)"/>
     <use xlink:href="#Arial-BoldMT-54" transform="translate(1221.146484 0)"/>
     <use xlink:href="#Arial-BoldMT-68" transform="translate(1282.230469 0)"/>
     <use xlink:href="#Arial-BoldMT-72" transform="translate(1343.314453 0)"/>
     <use xlink:href="#Arial-BoldMT-65" transform="translate(1382.230469 0)"/>
     <use xlink:href="#Arial-BoldMT-61" transform="translate(1437.845703 0)"/>
     <use xlink:href="#Arial-BoldMT-74" transform="translate(1493.460938 0)"/>
     <use xlink:href="#Arial-BoldMT-20" transform="translate(1526.761719 0)"/>
     <use xlink:href="#Arial-BoldMT-46" transform="translate(1554.544922 0)"/>
     <use xlink:href="#Arial-BoldMT-6f" transform="translate(1615.628906 0)"/>
     <use xlink:href="#Arial-BoldMT-72" transform="translate(1676.712891 0)"/>
     <use xlink:href="#Arial-BoldMT-65" transform="translate(1715.628906 0)"/>
     <use xlink:href="#Arial-BoldMT-63" transform="translate(1771.244141 0)"/>
     <use xlink:href="#Arial-BoldMT-61" transform="translate(1826.859375 0)"/>
     <use xlink:href="#Arial-BoldMT-73" transform="translate(1882.474609 0)"/>
     <use xlink:href="#Arial-BoldMT-74" transform="translate(1938.089844 0)"/>
     <use xlink:href="#Arial-BoldMT-69" transform="translate(1971.390625 0)"/>
     <use xlink:href="#Arial-BoldMT-6e" transform="translate(1999.173828 0)"/>
     <use xlink:href="#Arial-BoldMT-67" transform="translate(2060.257812 0)"/>
    </g>
   </g>
   <g id="text_2">
    <!-- Gate Prior -->
    <g style="fill: #1565c0" transform="translate(39.688047 89.069021) scale(0.07 -0.07)">
     <use xlink:href="#Arial-BoldMT-47"/>
     <use xlink:href="#Arial-BoldMT-61" transform="translate(77.783203 0)"/>
     <use xlink:href="#Arial-BoldMT-74" transform="translate(133.398438 0)"/>
     <use xlink:href="#Arial-BoldMT-65" transform="translate(166.699219 0)"/>
     <use xlink:href="#Arial-BoldMT-20" transform="translate(222.314453 0)"/>
     <use xlink:href="#Arial-BoldMT-50" transform="translate(250.097656 0)"/>
     <use xlink:href="#Arial-BoldMT-72" transform="translate(316.796875 0)"/>
     <use xlink:href="#Arial-BoldMT-69" transform="translate(355.712891 0)"/>
     <use xlink:href="#Arial-BoldMT-6f" transform="translate(383.496094 0)"/>
     <use xlink:href="#Arial-BoldMT-72" transform="translate(444.580078 0)"/>
    </g>
    <!-- + -->
    <g style="fill: #1565c0" transform="translate(54.565781 96.964037) scale(0.07 -0.07)">
     <defs>
      <path id="Arial-BoldMT-2b" d="M 1466 659 
L 1466 1850 
L 266 1850 
L 266 2672 
L 1466 2672 
L 1466 3863 
L 2266 3863 
L 2266 2672 
L 3469 2672 
L 3469 1850 
L 2266 1850 
L 2266 659 
L 1466 659 
z
" transform="scale(0.015625)"/>
     </defs>
     <use xlink:href="#Arial-BoldMT-2b"/>
    </g>
    <!-- AFT / Cox -->
    <g style="fill: #1565c0" transform="translate(40.278125 104.859053) scale(0.07 -0.07)">
     <defs>
      <path id="Arial-BoldMT-41" d="M 4597 0 
L 3591 0 
L 3191 1041 
L 1359 1041 
L 981 0 
L 0 0 
L 1784 4581 
L 2763 4581 
L 4597 0 
z
M 2894 1813 
L 2263 3513 
L 1644 1813 
L 2894 1813 
z
" transform="scale(0.015625)"/>
      <path id="Arial-BoldMT-2f" d="M -9 -78 
L 1125 4659 
L 1784 4659 
L 638 -78 
L -9 -78 
z
" transform="scale(0.015625)"/>
      <path id="Arial-BoldMT-43" d="M 3397 1684 
L 4294 1400 
Q 4088 650 3608 286 
Q 3128 -78 2391 -78 
Q 1478 -78 890 545 
Q 303 1169 303 2250 
Q 303 3394 893 4026 
Q 1484 4659 2447 4659 
Q 3288 4659 3813 4163 
Q 4125 3869 4281 3319 
L 3366 3100 
Q 3284 3456 3026 3662 
Q 2769 3869 2400 3869 
Q 1891 3869 1573 3503 
Q 1256 3138 1256 2319 
Q 1256 1450 1568 1081 
Q 1881 713 2381 713 
Q 2750 713 3015 947 
Q 3281 1181 3397 1684 
z
" transform="scale(0.015625)"/>
      <path id="Arial-BoldMT-78" d="M 38 0 
L 1234 1709 
L 88 3319 
L 1159 3319 
L 1747 2406 
L 2366 3319 
L 3397 3319 
L 2272 1747 
L 3500 0 
L 2422 0 
L 1747 1028 
L 1066 0 
L 38 0 
z
" transform="scale(0.015625)"/>
     </defs>
     <use xlink:href="#Arial-BoldMT-41"/>
     <use xlink:href="#Arial-BoldMT-46" transform="translate(72.216797 0)"/>
     <use xlink:href="#Arial-BoldMT-54" transform="translate(133.300781 0)"/>
     <use xlink:href="#Arial-BoldMT-20" transform="translate(194.384766 0)"/>
     <use xlink:href="#Arial-BoldMT-2f" transform="translate(222.167969 0)"/>
     <use xlink:href="#Arial-BoldMT-20" transform="translate(249.951172 0)"/>
     <use xlink:href="#Arial-BoldMT-43" transform="translate(277.734375 0)"/>
     <use xlink:href="#Arial-BoldMT-6f" transform="translate(349.951172 0)"/>
     <use xlink:href="#Arial-BoldMT-78" transform="translate(411.035156 0)"/>
    </g>
    <!-- Survival Backbone -->
    <g style="fill: #1565c0" transform="translate(25.293203 112.754068) scale(0.07 -0.07)">
     <defs>
      <path id="Arial-BoldMT-42" d="M 469 4581 
L 2300 4581 
Q 2844 4581 3111 4536 
Q 3378 4491 3589 4347 
Q 3800 4203 3940 3964 
Q 4081 3725 4081 3428 
Q 4081 3106 3907 2837 
Q 3734 2569 3438 2434 
Q 3856 2313 4081 2019 
Q 4306 1725 4306 1328 
Q 4306 1016 4161 720 
Q 4016 425 3764 248 
Q 3513 72 3144 31 
Q 2913 6 2028 0 
L 469 0 
L 469 4581 
z
M 1394 3819 
L 1394 2759 
L 2000 2759 
Q 2541 2759 2672 2775 
Q 2909 2803 3045 2939 
Q 3181 3075 3181 3297 
Q 3181 3509 3064 3642 
Q 2947 3775 2716 3803 
Q 2578 3819 1925 3819 
L 1394 3819 
z
M 1394 1997 
L 1394 772 
L 2250 772 
Q 2750 772 2884 800 
Q 3091 838 3220 983 
Q 3350 1128 3350 1372 
Q 3350 1578 3250 1722 
Q 3150 1866 2961 1931 
Q 2772 1997 2141 1997 
L 1394 1997 
z
" transform="scale(0.015625)"/>
      <path id="Arial-BoldMT-6b" d="M 428 0 
L 428 4581 
L 1306 4581 
L 1306 2150 
L 2334 3319 
L 3416 3319 
L 2281 2106 
L 3497 0 
L 2550 0 
L 1716 1491 
L 1306 1063 
L 1306 0 
L 428 0 
z
" transform="scale(0.015625)"/>
     </defs>
     <use xlink:href="#Arial-BoldMT-53"/>
     <use xlink:href="#Arial-BoldMT-75" transform="translate(66.699219 0)"/>
     <use xlink:href="#Arial-BoldMT-72" transform="translate(127.783203 0)"/>
     <use xlink:href="#Arial-BoldMT-76" transform="translate(166.699219 0)"/>
     <use xlink:href="#Arial-BoldMT-69" transform="translate(222.314453 0)"/>
     <use xlink:href="#Arial-BoldMT-76" transform="translate(250.097656 0)"/>
     <use xlink:href="#Arial-BoldMT-61" transform="translate(305.712891 0)"/>
     <use xlink:href="#Arial-BoldMT-6c" transform="translate(361.328125 0)"/>
     <use xlink:href="#Arial-BoldMT-20" transform="translate(389.111328 0)"/>
     <use xlink:href="#Arial-BoldMT-42" transform="translate(416.894531 0)"/>
     <use xlink:href="#Arial-BoldMT-61" transform="translate(489.111328 0)"/>
     <use xlink:href="#Arial-BoldMT-63" transform="translate(544.726562 0)"/>
     <use xlink:href="#Arial-BoldMT-6b" transform="translate(600.341797 0)"/>
     <use xlink:href="#Arial-BoldMT-62" transform="translate(655.957031 0)"/>
     <use xlink:href="#Arial-BoldMT-6f" transform="translate(717.041016 0)"/>
     <use xlink:href="#Arial-BoldMT-6e" transform="translate(778.125 0)"/>
     <use xlink:href="#Arial-BoldMT-65" transform="translate(839.208984 0)"/>
    </g>
   </g>
   <g id="text_3">
    <!-- Calibrated -->
    <g style="fill: #e65100" transform="translate(151.095547 89.069021) scale(0.07 -0.07)">
     <use xlink:href="#Arial-BoldMT-43"/>
     <use xlink:href="#Arial-BoldMT-61" transform="translate(72.216797 0)"/>
     <use xlink:href="#Arial-BoldMT-6c" transform="translate(127.832031 0)"/>
     <use xlink:href="#Arial-BoldMT-69" transform="translate(155.615234 0)"/>
     <use xlink:href="#Arial-BoldMT-62" transform="translate(183.398438 0)"/>
     <use xlink:href="#Arial-BoldMT-72" transform="translate(244.482422 0)"/>
     <use xlink:href="#Arial-BoldMT-61" transform="translate(283.398438 0)"/>
     <use xlink:href="#Arial-BoldMT-74" transform="translate(339.013672 0)"/>
     <use xlink:href="#Arial-BoldMT-65" transform="translate(372.314453 0)"/>
     <use xlink:href="#Arial-BoldMT-64" transform="translate(427.929688 0)"/>
    </g>
    <!-- Horizon Heads -->
    <g style="fill: #e65100" transform="translate(143.707813 96.964037) scale(0.07 -0.07)">
     <use xlink:href="#Arial-BoldMT-48"/>
     <use xlink:href="#Arial-BoldMT-6f" transform="translate(72.216797 0)"/>
     <use xlink:href="#Arial-BoldMT-72" transform="translate(133.300781 0)"/>
     <use xlink:href="#Arial-BoldMT-69" transform="translate(172.216797 0)"/>
     <use xlink:href="#Arial-BoldMT-7a" transform="translate(200 0)"/>
     <use xlink:href="#Arial-BoldMT-6f" transform="translate(250 0)"/>
     <use xlink:href="#Arial-BoldMT-6e" transform="translate(311.083984 0)"/>
     <use xlink:href="#Arial-BoldMT-20" transform="translate(372.167969 0)"/>
     <use xlink:href="#Arial-BoldMT-48" transform="translate(399.951172 0)"/>
     <use xlink:href="#Arial-BoldMT-65" transform="translate(472.167969 0)"/>
     <use xlink:href="#Arial-BoldMT-61" transform="translate(527.783203 0)"/>
     <use xlink:href="#Arial-BoldMT-64" transform="translate(583.398438 0)"/>
     <use xlink:href="#Arial-BoldMT-73" transform="translate(644.482422 0)"/>
    </g>
    <!-- 12 / 24 / 48 h -->
    <g style="fill: #e65100" transform="translate(147.587891 104.859053) scale(0.07 -0.07)">
     <defs>
      <path id="Arial-BoldMT-31" d="M 2519 0 
L 1641 0 
L 1641 3309 
Q 1159 2859 506 2644 
L 506 3441 
Q 850 3553 1253 3867 
Q 1656 4181 1806 4600 
L 2519 4600 
L 2519 0 
z
" transform="scale(0.015625)"/>
      <path id="Arial-BoldMT-32" d="M 3238 816 
L 3238 0 
L 159 0 
Q 209 463 459 877 
Q 709 1291 1447 1975 
Q 2041 2528 2175 2725 
Q 2356 2997 2356 3263 
Q 2356 3556 2198 3714 
Q 2041 3872 1763 3872 
Q 1488 3872 1325 3706 
Q 1163 3541 1138 3156 
L 263 3244 
Q 341 3969 753 4284 
Q 1166 4600 1784 4600 
Q 2463 4600 2850 4234 
Q 3238 3869 3238 3325 
Q 3238 3016 3127 2736 
Q 3016 2456 2775 2150 
Q 2616 1947 2200 1565 
Q 1784 1184 1673 1059 
Q 1563 934 1494 816 
L 3238 816 
z
" transform="scale(0.015625)"/>
      <path id="Arial-BoldMT-34" d="M 1994 0 
L 1994 922 
L 119 922 
L 119 1691 
L 2106 4600 
L 2844 4600 
L 2844 1694 
L 3413 1694 
L 3413 922 
L 2844 922 
L 2844 0 
L 1994 0 
z
M 1994 1694 
L 1994 3259 
L 941 1694 
L 1994 1694 
z
" transform="scale(0.015625)"/>
      <path id="Arial-BoldMT-38" d="M 1025 2472 
Q 684 2616 529 2867 
Q 375 3119 375 3419 
Q 375 3931 733 4265 
Q 1091 4600 1750 4600 
Q 2403 4600 2764 4265 
Q 3125 3931 3125 3419 
Q 3125 3100 2959 2851 
Q 2794 2603 2494 2472 
Q 2875 2319 3073 2025 
Q 3272 1731 3272 1347 
Q 3272 713 2867 316 
Q 2463 -81 1791 -81 
Q 1166 -81 750 247 
Q 259 634 259 1309 
Q 259 1681 443 1992 
Q 628 2303 1025 2472 
z
M 1206 3356 
Q 1206 3094 1354 2947 
Q 1503 2800 1750 2800 
Q 2000 2800 2150 2948 
Q 2300 3097 2300 3359 
Q 2300 3606 2151 3754 
Q 2003 3903 1759 3903 
Q 1506 3903 1356 3753 
Q 1206 3603 1206 3356 
z
M 1125 1394 
Q 1125 1031 1311 828 
Q 1497 625 1775 625 
Q 2047 625 2225 820 
Q 2403 1016 2403 1384 
Q 2403 1706 2222 1901 
Q 2041 2097 1763 2097 
Q 1441 2097 1283 1875 
Q 1125 1653 1125 1394 
z
" transform="scale(0.015625)"/>
     </defs>
     <use xlink:href="#Arial-BoldMT-31"/>
     <use xlink:href="#Arial-BoldMT-32" transform="translate(55.615234 0)"/>
     <use xlink:href="#Arial-BoldMT-20" transform="translate(111.230469 0)"/>
     <use xlink:href="#Arial-BoldMT-2f" transform="translate(139.013672 0)"/>
     <use xlink:href="#Arial-BoldMT-20" transform="translate(166.796875 0)"/>
     <use xlink:href="#Arial-BoldMT-32" transform="translate(194.580078 0)"/>
     <use xlink:href="#Arial-BoldMT-34" transform="translate(250.195312 0)"/>
     <use xlink:href="#Arial-BoldMT-20" transform="translate(305.810547 0)"/>
     <use xlink:href="#Arial-BoldMT-2f" transform="translate(333.59375 0)"/>
     <use xlink:href="#Arial-BoldMT-20" transform="translate(361.376953 0)"/>
     <use xlink:href="#Arial-BoldMT-34" transform="translate(389.160156 0)"/>
     <use xlink:href="#Arial-BoldMT-38" transform="translate(444.775391 0)"/>
     <use xlink:href="#Arial-BoldMT-20" transform="translate(500.390625 0)"/>
     <use xlink:href="#Arial-BoldMT-68" transform="translate(528.173828 0)"/>
    </g>
    <!-- + Beta Cal. -->
    <g style="fill: #e65100" transform="translate(150.216719 112.754068) scale(0.07 -0.07)">
     <defs>
      <path id="Arial-BoldMT-2e" d="M 459 0 
L 459 878 
L 1338 878 
L 1338 0 
L 459 0 
z
" transform="scale(0.015625)"/>
     </defs>
     <use xlink:href="#Arial-BoldMT-2b"/>
     <use xlink:href="#Arial-BoldMT-20" transform="translate(58.398438 0)"/>
     <use xlink:href="#Arial-BoldMT-42" transform="translate(86.181641 0)"/>
     <use xlink:href="#Arial-BoldMT-65" transform="translate(158.398438 0)"/>
     <use xlink:href="#Arial-BoldMT-74" transform="translate(214.013672 0)"/>
     <use xlink:href="#Arial-BoldMT-61" transform="translate(247.314453 0)"/>
     <use xlink:href="#Arial-BoldMT-20" transform="translate(302.929688 0)"/>
     <use xlink:href="#Arial-BoldMT-43" transform="translate(330.712891 0)"/>
     <use xlink:href="#Arial-BoldMT-61" transform="translate(402.929688 0)"/>
     <use xlink:href="#Arial-BoldMT-6c" transform="translate(458.544922 0)"/>
     <use xlink:href="#Arial-BoldMT-2e" transform="translate(486.328125 0)"/>
    </g>
   </g>
   <g id="text_4">
    <!-- Simplex Stacking -->
    <g style="fill: #c62828" transform="translate(250.828906 88.921748) scale(0.07 -0.07)">
     <defs>
      <path id="Arial-BoldMT-70" d="M 434 3319 
L 1253 3319 
L 1253 2831 
Q 1413 3081 1684 3237 
Q 1956 3394 2288 3394 
Q 2866 3394 3269 2941 
Q 3672 2488 3672 1678 
Q 3672 847 3265 386 
Q 2859 -75 2281 -75 
Q 2006 -75 1782 34 
Q 1559 144 1313 409 
L 1313 -1263 
L 434 -1263 
L 434 3319 
z
M 1303 1716 
Q 1303 1156 1525 889 
Q 1747 622 2066 622 
Q 2372 622 2575 867 
Q 2778 1113 2778 1672 
Q 2778 2194 2568 2447 
Q 2359 2700 2050 2700 
Q 1728 2700 1515 2451 
Q 1303 2203 1303 1716 
z
" transform="scale(0.015625)"/>
     </defs>
     <use xlink:href="#Arial-BoldMT-53"/>
     <use xlink:href="#Arial-BoldMT-69" transform="translate(66.699219 0)"/>
     <use xlink:href="#Arial-BoldMT-6d" transform="translate(94.482422 0)"/>
     <use xlink:href="#Arial-BoldMT-70" transform="translate(183.398438 0)"/>
     <use xlink:href="#Arial-BoldMT-6c" transform="translate(244.482422 0)"/>
     <use xlink:href="#Arial-BoldMT-65" transform="translate(272.265625 0)"/>
     <use xlink:href="#Arial-BoldMT-78" transform="translate(327.880859 0)"/>
     <use xlink:href="#Arial-BoldMT-20" transform="translate(383.496094 0)"/>
     <use xlink:href="#Arial-BoldMT-53" transform="translate(411.279297 0)"/>
     <use xlink:href="#Arial-BoldMT-74" transform="translate(477.978516 0)"/>
     <use xlink:href="#Arial-BoldMT-61" transform="translate(511.279297 0)"/>
     <use xlink:href="#Arial-BoldMT-63" transform="translate(566.894531 0)"/>
     <use xlink:href="#Arial-BoldMT-6b" transform="translate(622.509766 0)"/>
     <use xlink:href="#Arial-BoldMT-69" transform="translate(678.125 0)"/>
     <use xlink:href="#Arial-BoldMT-6e" transform="translate(705.908203 0)"/>
     <use xlink:href="#Arial-BoldMT-67" transform="translate(766.992188 0)"/>
    </g>
    <!-- + -->
    <g style="fill: #c62828" transform="translate(277.765781 96.908639) scale(0.07 -0.07)">
     <use xlink:href="#Arial-BoldMT-2b"/>
    </g>
    <!-- Monotone Fusion -->
    <g style="fill: #c62828" transform="translate(250.652266 104.803654) scale(0.07 -0.07)">
     <use xlink:href="#Arial-BoldMT-4d"/>
     <use xlink:href="#Arial-BoldMT-6f" transform="translate(83.300781 0)"/>
     <use xlink:href="#Arial-BoldMT-6e" transform="translate(144.384766 0)"/>
     <use xlink:href="#Arial-BoldMT-6f" transform="translate(205.46875 0)"/>
     <use xlink:href="#Arial-BoldMT-74" transform="translate(266.552734 0)"/>
     <use xlink:href="#Arial-BoldMT-6f" transform="translate(299.853516 0)"/>
     <use xlink:href="#Arial-BoldMT-6e" transform="translate(360.9375 0)"/>
     <use xlink:href="#Arial-BoldMT-65" transform="translate(422.021484 0)"/>
     <use xlink:href="#Arial-BoldMT-20" transform="translate(477.636719 0)"/>
     <use xlink:href="#Arial-BoldMT-46" transform="translate(505.419922 0)"/>
     <use xlink:href="#Arial-BoldMT-75" transform="translate(566.503906 0)"/>
     <use xlink:href="#Arial-BoldMT-73" transform="translate(627.587891 0)"/>
     <use xlink:href="#Arial-BoldMT-69" transform="translate(683.203125 0)"/>
     <use xlink:href="#Arial-BoldMT-6f" transform="translate(710.986328 0)"/>
     <use xlink:href="#Arial-BoldMT-6e" transform="translate(772.070312 0)"/>
    </g>
    <!-- $P(12h) \leq P(24h) \leq P(48h)$ -->
    <g style="fill: #c62828" transform="translate(241.135 112.82806) scale(0.07 -0.07)">
     <defs>
      <path id="Arial-BoldMT-28" d="M 1916 -1347 
L 1313 -1347 
Q 834 -625 584 153 
Q 334 931 334 1659 
Q 334 2563 644 3369 
Q 913 4069 1325 4659 
L 1925 4659 
Q 1497 3713 1336 3048 
Q 1175 2384 1175 1641 
Q 1175 1128 1270 590 
Q 1366 53 1531 -431 
Q 1641 -750 1916 -1347 
z
" transform="scale(0.015625)"/>
      <path id="Arial-BoldMT-29" d="M 216 -1347 
Q 475 -791 581 -494 
Q 688 -197 778 190 
Q 869 578 912 926 
Q 956 1275 956 1641 
Q 956 2384 797 3048 
Q 638 3713 209 4659 
L 806 4659 
Q 1278 3988 1539 3234 
Q 1800 2481 1800 1706 
Q 1800 1053 1594 306 
Q 1359 -531 822 -1347 
L 216 -1347 
z
" transform="scale(0.015625)"/>
      <path id="Arial-BoldMT-2264" d="M 3328 1050 
L 188 2416 
L 188 3172 
L 3328 4531 
L 3328 3641 
L 1138 2803 
L 3328 1931 
L 3328 1050 
z
M 188 0 
L 188 822 
L 3328 822 
L 3328 0 
L 188 0 
z
" transform="scale(0.015625)"/>
     </defs>
     <use xlink:href="#Arial-BoldMT-50" transform="translate(0 0.203125)"/>
     <use xlink:href="#Arial-BoldMT-28" transform="translate(66.699219 0.203125)"/>
     <use xlink:href="#Arial-BoldMT-31" transform="translate(100 0.203125)"/>
     <use xlink:href="#Arial-BoldMT-32" transform="translate(155.615234 0.203125)"/>
     <use xlink:href="#Arial-BoldMT-68" transform="translate(211.230469 0.203125)"/>
     <use xlink:href="#Arial-BoldMT-29" transform="translate(272.314453 0.203125)"/>
     <use xlink:href="#Arial-BoldMT-2264" transform="translate(325.097656 0.203125)"/>
     <use xlink:href="#Arial-BoldMT-50" transform="translate(399.462891 0.203125)"/>
     <use xlink:href="#Arial-BoldMT-28" transform="translate(466.162109 0.203125)"/>
     <use xlink:href="#Arial-BoldMT-32" transform="translate(499.462891 0.203125)"/>
     <use xlink:href="#Arial-BoldMT-34" transform="translate(555.078125 0.203125)"/>
     <use xlink:href="#Arial-BoldMT-68" transform="translate(610.693359 0.203125)"/>
     <use xlink:href="#Arial-BoldMT-29" transform="translate(671.777344 0.203125)"/>
     <use xlink:href="#Arial-BoldMT-2264" transform="translate(724.560547 0.203125)"/>
     <use xlink:href="#Arial-BoldMT-50" transform="translate(798.925781 0.203125)"/>
     <use xlink:href="#Arial-BoldMT-28" transform="translate(865.625 0.203125)"/>
     <use xlink:href="#Arial-BoldMT-34" transform="translate(898.925781 0.203125)"/>
     <use xlink:href="#Arial-BoldMT-38" transform="translate(954.541016 0.203125)"/>
     <use xlink:href="#Arial-BoldMT-68" transform="translate(1010.15625 0.203125)"/>
     <use xlink:href="#Arial-BoldMT-29" transform="translate(1071.240234 0.203125)"/>
    </g>
   </g>
   <g id="patch_5">
    <path d="M 103.252588 99.097014 
Q 112.411792 99.097014 120.452963 99.097014 
" style="fill: none; stroke: #444444; stroke-linecap: round"/>
    <path d="M 117.252963 97.497014 
L 120.452963 99.097014 
L 117.252963 100.697014 
z
" style="fill: #444444; stroke: #444444; stroke-linecap: round"/>
   </g>
   <g id="patch_6">
    <path d="M 214.852588 99.097014 
Q 224.011792 99.097014 232.052963 99.097014 
" style="fill: none; stroke: #444444; stroke-linecap: round"/>
    <path d="M 228.852963 97.497014 
L 232.052963 99.097014 
L 228.852963 100.697014 
z
" style="fill: #444444; stroke: #444444; stroke-linecap: round"/>
   </g>
   <g id="text_5">
    <g id="patch_7">
     <path d="M 60.878672 173.075938 
L 309.021328 173.075938 
Q 312.621328 173.075938 312.621328 169.475938 
L 312.621328 161.024376 
Q 312.621328 157.424376 309.021328 157.424376 
L 60.878672 157.424376 
Q 57.278672 157.424376 57.278672 161.024376 
L 57.278672 169.475938 
Q 57.278672 173.075938 60.878672 173.075938 
z
" style="fill: #fff8e1; stroke: #cc3311; stroke-width: 1.2; stroke-linejoin: miter"/>
    </g>
    <!-- C-index = 0.940     Mean Brier = 0.041     Brier@24h = 0.035 -->
    <g transform="translate(60.878672 167.581719) scale(0.09 -0.09)">
     <defs>
      <path id="Arial-BoldMT-3d" d="M 266 2550 
L 266 3356 
L 3469 3356 
L 3469 2550 
L 266 2550 
z
M 266 1163 
L 266 1972 
L 3469 1972 
L 3469 1163 
L 266 1163 
z
" transform="scale(0.015625)"/>
      <path id="Arial-BoldMT-30" d="M 1756 4600 
Q 2422 4600 2797 4125 
Q 3244 3563 3244 2259 
Q 3244 959 2794 391 
Q 2422 -78 1756 -78 
Q 1088 -78 678 436 
Q 269 950 269 2269 
Q 269 3563 719 4131 
Q 1091 4600 1756 4600 
z
M 1756 3872 
Q 1597 3872 1472 3770 
Q 1347 3669 1278 3406 
Q 1188 3066 1188 2259 
Q 1188 1453 1269 1151 
Q 1350 850 1473 750 
Q 1597 650 1756 650 
Q 1916 650 2041 751 
Q 2166 853 2234 1116 
Q 2325 1453 2325 2259 
Q 2325 3066 2244 3367 
Q 2163 3669 2039 3770 
Q 1916 3872 1756 3872 
z
" transform="scale(0.015625)"/>
      <path id="Arial-BoldMT-39" d="M 291 1059 
L 1141 1153 
Q 1172 894 1303 769 
Q 1434 644 1650 644 
Q 1922 644 2112 894 
Q 2303 1144 2356 1931 
Q 2025 1547 1528 1547 
Q 988 1547 595 1964 
Q 203 2381 203 3050 
Q 203 3747 617 4173 
Q 1031 4600 1672 4600 
Q 2369 4600 2816 4061 
Q 3263 3522 3263 2288 
Q 3263 1031 2797 475 
Q 2331 -81 1584 -81 
Q 1047 -81 715 205 
Q 384 491 291 1059 
z
M 2278 2978 
Q 2278 3403 2083 3637 
Q 1888 3872 1631 3872 
Q 1388 3872 1227 3680 
Q 1066 3488 1066 3050 
Q 1066 2606 1241 2398 
Q 1416 2191 1678 2191 
Q 1931 2191 2104 2391 
Q 2278 2591 2278 2978 
z
" transform="scale(0.015625)"/>
      <path id="Arial-BoldMT-40" d="M 5553 59 
L 6219 59 
Q 5906 -575 5259 -934 
Q 4519 -1347 3453 -1347 
Q 2422 -1347 1672 -998 
Q 922 -650 556 29 
Q 191 709 191 1509 
Q 191 2388 606 3145 
Q 1022 3903 1744 4283 
Q 2466 4663 3394 4663 
Q 4181 4663 4793 4356 
Q 5406 4050 5729 3486 
Q 6053 2922 6053 2253 
Q 6053 1456 5563 813 
Q 4947 0 3984 0 
Q 3725 0 3594 90 
Q 3463 181 3419 356 
Q 3050 0 2569 0 
Q 2050 0 1708 358 
Q 1366 716 1366 1309 
Q 1366 2044 1778 2650 
Q 2278 3388 3059 3388 
Q 3616 3388 3881 2963 
L 3959 3309 
L 4784 3309 
L 4313 1069 
Q 4269 856 4269 794 
Q 4269 716 4305 677 
Q 4341 638 4391 638 
Q 4541 638 4778 819 
Q 5097 1056 5294 1456 
Q 5491 1856 5491 2284 
Q 5491 3053 4934 3570 
Q 4378 4088 3381 4088 
Q 2534 4088 1945 3742 
Q 1356 3397 1057 2770 
Q 759 2144 759 1466 
Q 759 806 1092 265 
Q 1425 -275 2026 -523 
Q 2628 -772 3403 -772 
Q 4150 -772 4687 -564 
Q 5225 -356 5553 59 
z
M 2175 1344 
Q 2175 947 2336 759 
Q 2497 572 2734 572 
Q 2913 572 3069 659 
Q 3188 722 3303 856 
Q 3469 1047 3589 1412 
Q 3709 1778 3709 2094 
Q 3709 2447 3545 2636 
Q 3381 2825 3131 2825 
Q 2863 2825 2634 2617 
Q 2406 2409 2290 2025 
Q 2175 1641 2175 1344 
z
" transform="scale(0.015625)"/>
      <path id="Arial-BoldMT-33" d="M 241 1216 
L 1091 1319 
Q 1131 994 1309 822 
Q 1488 650 1741 650 
Q 2013 650 2198 856 
Q 2384 1063 2384 1413 
Q 2384 1744 2206 1937 
Q 2028 2131 1772 2131 
Q 1603 2131 1369 2066 
L 1466 2781 
Q 1822 2772 2009 2936 
Q 2197 3100 2197 3372 
Q 2197 3603 2059 3740 
Q 1922 3878 1694 3878 
Q 1469 3878 1309 3722 
Q 1150 3566 1116 3266 
L 306 3403 
Q 391 3819 561 4067 
Q 731 4316 1036 4458 
Q 1341 4600 1719 4600 
Q 2366 4600 2756 4188 
Q 3078 3850 3078 3425 
Q 3078 2822 2419 2463 
Q 2813 2378 3048 2084 
Q 3284 1791 3284 1375 
Q 3284 772 2843 347 
Q 2403 -78 1747 -78 
Q 1125 -78 715 280 
Q 306 638 241 1216 
z
" transform="scale(0.015625)"/>
      <path id="Arial-BoldMT-35" d="M 284 1178 
L 1159 1269 
Q 1197 972 1381 798 
Q 1566 625 1806 625 
Q 2081 625 2272 848 
Q 2463 1072 2463 1522 
Q 2463 1944 2273 2155 
Q 2084 2366 1781 2366 
Q 1403 2366 1103 2031 
L 391 2134 
L 841 4519 
L 3163 4519 
L 3163 3697 
L 1506 3697 
L 1369 2919 
Q 1663 3066 1969 3066 
Q 2553 3066 2959 2641 
Q 3366 2216 3366 1538 
Q 3366 972 3038 528 
Q 2591 -78 1797 -78 
Q 1163 -78 763 262 
Q 363 603 284 1178 
z
" transform="scale(0.015625)"/>
     </defs>
     <use xlink:href="#Arial-BoldMT-43"/>
     <use xlink:href="#Arial-BoldMT-2d" transform="translate(72.216797 0)"/>
     <use xlink:href="#Arial-BoldMT-69" transform="translate(105.517578 0)"/>
     <use xlink:href="#Arial-BoldMT-6e" transform="translate(133.300781 0)"/>
     <use xlink:href="#Arial-BoldMT-64" transform="translate(194.384766 0)"/>
     <use xlink:href="#Arial-BoldMT-65" transform="translate(255.46875 0)"/>
     <use xlink:href="#Arial-BoldMT-78" transform="translate(311.083984 0)"/>
     <use xlink:href="#Arial-BoldMT-20" transform="translate(366.699219 0)"/>
     <use xlink:href="#Arial-BoldMT-3d" transform="translate(394.482422 0)"/>
     <use xlink:href="#Arial-BoldMT-20" transform="translate(452.880859 0)"/>
     <use xlink:href="#Arial-BoldMT-30" transform="translate(480.664062 0)"/>
     <use xlink:href="#Arial-BoldMT-2e" transform="translate(536.279297 0)"/>
     <use xlink:href="#Arial-BoldMT-39" transform="translate(564.0625 0)"/>
     <use xlink:href="#Arial-BoldMT-34" transform="translate(619.677734 0)"/>
     <use xlink:href="#Arial-BoldMT-30" transform="translate(675.292969 0)"/>
     <use xlink:href="#Arial-BoldMT-20" transform="translate(730.908203 0)"/>
     <use xlink:href="#Arial-BoldMT-20" transform="translate(758.691406 0)"/>
     <use xlink:href="#Arial-BoldMT-20" transform="translate(786.474609 0)"/>
     <use xlink:href="#Arial-BoldMT-20" transform="translate(814.257812 0)"/>
     <use xlink:href="#Arial-BoldMT-20" transform="translate(842.041016 0)"/>
     <use xlink:href="#Arial-BoldMT-4d" transform="translate(869.824219 0)"/>
     <use xlink:href="#Arial-BoldMT-65" transform="translate(953.125 0)"/>
     <use xlink:href="#Arial-BoldMT-61" transform="translate(1008.740234 0)"/>
     <use xlink:href="#Arial-BoldMT-6e" transform="translate(1064.355469 0)"/>
     <use xlink:href="#Arial-BoldMT-20" transform="translate(1125.439453 0)"/>
     <use xlink:href="#Arial-BoldMT-42" transform="translate(1153.222656 0)"/>
     <use xlink:href="#Arial-BoldMT-72" transform="translate(1225.439453 0)"/>
     <use xlink:href="#Arial-BoldMT-69" transform="translate(1264.355469 0)"/>
     <use xlink:href="#Arial-BoldMT-65" transform="translate(1292.138672 0)"/>
     <use xlink:href="#Arial-BoldMT-72" transform="translate(1347.753906 0)"/>
     <use xlink:href="#Arial-BoldMT-20" transform="translate(1386.669922 0)"/>
     <use xlink:href="#Arial-BoldMT-3d" transform="translate(1414.453125 0)"/>
     <use xlink:href="#Arial-BoldMT-20" transform="translate(1472.851562 0)"/>
     <use xlink:href="#Arial-BoldMT-30" transform="translate(1500.634766 0)"/>
     <use xlink:href="#Arial-BoldMT-2e" transform="translate(1556.25 0)"/>
     <use xlink:href="#Arial-BoldMT-30" transform="translate(1584.033203 0)"/>
     <use xlink:href="#Arial-BoldMT-34" transform="translate(1639.648438 0)"/>
     <use xlink:href="#Arial-BoldMT-31" transform="translate(1695.263672 0)"/>
     <use xlink:href="#Arial-BoldMT-20" transform="translate(1750.878906 0)"/>
     <use xlink:href="#Arial-BoldMT-20" transform="translate(1778.662109 0)"/>
     <use xlink:href="#Arial-BoldMT-20" transform="translate(1806.445312 0)"/>
     <use xlink:href="#Arial-BoldMT-20" transform="translate(1834.228516 0)"/>
     <use xlink:href="#Arial-BoldMT-20" transform="translate(1862.011719 0)"/>
     <use xlink:href="#Arial-BoldMT-42" transform="translate(1889.794922 0)"/>
     <use xlink:href="#Arial-BoldMT-72" transform="translate(1962.011719 0)"/>
     <use xlink:href="#Arial-BoldMT-69" transform="translate(2000.927734 0)"/>
     <use xlink:href="#Arial-BoldMT-65" transform="translate(2028.710938 0)"/>
     <use xlink:href="#Arial-BoldMT-72" transform="translate(2084.326172 0)"/>
     <use xlink:href="#Arial-BoldMT-40" transform="translate(2123.242188 0)"/>
     <use xlink:href="#Arial-BoldMT-32" transform="translate(2220.751953 0)"/>
     <use xlink:href="#Arial-BoldMT-34" transform="translate(2276.367188 0)"/>
     <use xlink:href="#Arial-BoldMT-68" transform="translate(2331.982422 0)"/>
     <use xlink:href="#Arial-BoldMT-20" transform="translate(2393.066406 0)"/>
     <use xlink:href="#Arial-BoldMT-3d" transform="translate(2420.849609 0)"/>
     <use xlink:href="#Arial-BoldMT-20" transform="translate(2479.248047 0)"/>
     <use xlink:href="#Arial-BoldMT-30" transform="translate(2507.03125 0)"/>
     <use xlink:href="#Arial-BoldMT-2e" transform="translate(2562.646484 0)"/>
     <use xlink:href="#Arial-BoldMT-30" transform="translate(2590.429688 0)"/>
     <use xlink:href="#Arial-BoldMT-33" transform="translate(2646.044922 0)"/>
     <use xlink:href="#Arial-BoldMT-35" transform="translate(2701.660156 0)"/>
    </g>
   </g>
   <g id="text_6">
    <!-- Risk stratification: 0.0% (low) · 4.5% (mid) · 92.3% (high) -->
    <g style="fill: #cc3311" transform="translate(85.358203 194.975602) scale(0.075 -0.075)">
     <defs>
      <path id="Arial-BoldMT-52" d="M 469 0 
L 469 4581 
L 2416 4581 
Q 3150 4581 3483 4457 
Q 3816 4334 4016 4018 
Q 4216 3703 4216 3297 
Q 4216 2781 3912 2445 
Q 3609 2109 3006 2022 
Q 3306 1847 3501 1637 
Q 3697 1428 4028 894 
L 4588 0 
L 3481 0 
L 2813 997 
Q 2456 1531 2325 1670 
Q 2194 1809 2047 1861 
Q 1900 1913 1581 1913 
L 1394 1913 
L 1394 0 
L 469 0 
z
M 1394 2644 
L 2078 2644 
Q 2744 2644 2909 2700 
Q 3075 2756 3169 2893 
Q 3263 3031 3263 3238 
Q 3263 3469 3139 3611 
Q 3016 3753 2791 3791 
Q 2678 3806 2116 3806 
L 1394 3806 
L 1394 2644 
z
" transform="scale(0.015625)"/>
      <path id="Arial-BoldMT-3a" d="M 628 2441 
L 628 3319 
L 1506 3319 
L 1506 2441 
L 628 2441 
z
M 628 0 
L 628 878 
L 1506 878 
L 1506 0 
L 628 0 
z
" transform="scale(0.015625)"/>
      <path id="Arial-BoldMT-25" d="M 278 3450 
Q 278 4066 548 4362 
Q 819 4659 1281 4659 
Q 1759 4659 2029 4364 
Q 2300 4069 2300 3450 
Q 2300 2834 2029 2537 
Q 1759 2241 1297 2241 
Q 819 2241 548 2536 
Q 278 2831 278 3450 
z
M 963 3456 
Q 963 3009 1066 2856 
Q 1144 2744 1281 2744 
Q 1422 2744 1500 2856 
Q 1600 3009 1600 3456 
Q 1600 3903 1500 4053 
Q 1422 4169 1281 4169 
Q 1144 4169 1066 4056 
Q 963 3903 963 3456 
z
M 1950 -175 
L 1300 -175 
L 3741 4659 
L 4372 4659 
L 1950 -175 
z
M 3369 1028 
Q 3369 1644 3639 1941 
Q 3909 2238 4378 2238 
Q 4850 2238 5120 1941 
Q 5391 1644 5391 1028 
Q 5391 409 5120 112 
Q 4850 -184 4388 -184 
Q 3909 -184 3639 112 
Q 3369 409 3369 1028 
z
M 4053 1031 
Q 4053 584 4156 434 
Q 4234 319 4372 319 
Q 4513 319 4588 431 
Q 4691 584 4691 1031 
Q 4691 1478 4591 1631 
Q 4513 1744 4372 1744 
Q 4231 1744 4156 1631 
Q 4053 1478 4053 1031 
z
" transform="scale(0.015625)"/>
      <path id="Arial-BoldMT-77" d="M 1078 0 
L 28 3319 
L 881 3319 
L 1503 1144 
L 2075 3319 
L 2922 3319 
L 3475 1144 
L 4109 3319 
L 4975 3319 
L 3909 0 
L 3066 0 
L 2494 2134 
L 1931 0 
L 1078 0 
z
" transform="scale(0.015625)"/>
      <path id="Arial-BoldMT-b7" d="M 625 1791 
L 625 2669 
L 1503 2669 
L 1503 1791 
L 625 1791 
z
" transform="scale(0.015625)"/>
      <path id="Arial-BoldMT-36" d="M 3247 3459 
L 2397 3366 
Q 2366 3628 2234 3753 
Q 2103 3878 1894 3878 
Q 1616 3878 1423 3628 
Q 1231 3378 1181 2588 
Q 1509 2975 1997 2975 
Q 2547 2975 2939 2556 
Q 3331 2138 3331 1475 
Q 3331 772 2918 347 
Q 2506 -78 1859 -78 
Q 1166 -78 719 461 
Q 272 1000 272 2228 
Q 272 3488 737 4044 
Q 1203 4600 1947 4600 
Q 2469 4600 2811 4308 
Q 3153 4016 3247 3459 
z
M 1256 1544 
Q 1256 1116 1453 883 
Q 1650 650 1903 650 
Q 2147 650 2309 840 
Q 2472 1031 2472 1466 
Q 2472 1913 2297 2120 
Q 2122 2328 1859 2328 
Q 1606 2328 1431 2129 
Q 1256 1931 1256 1544 
z
" transform="scale(0.015625)"/>
     </defs>
     <use xlink:href="#Arial-BoldMT-52"/>
     <use xlink:href="#Arial-BoldMT-69" transform="translate(72.216797 0)"/>
     <use xlink:href="#Arial-BoldMT-73" transform="translate(100 0)"/>
     <use xlink:href="#Arial-BoldMT-6b" transform="translate(155.615234 0)"/>
     <use xlink:href="#Arial-BoldMT-20" transform="translate(211.230469 0)"/>
     <use xlink:href="#Arial-BoldMT-73" transform="translate(239.013672 0)"/>
     <use xlink:href="#Arial-BoldMT-74" transform="translate(294.628906 0)"/>
     <use xlink:href="#Arial-BoldMT-72" transform="translate(327.929688 0)"/>
     <use xlink:href="#Arial-BoldMT-61" transform="translate(366.845703 0)"/>
     <use xlink:href="#Arial-BoldMT-74" transform="translate(422.460938 0)"/>
     <use xlink:href="#Arial-BoldMT-69" transform="translate(455.761719 0)"/>
     <use xlink:href="#Arial-BoldMT-66" transform="translate(483.544922 0)"/>
     <use xlink:href="#Arial-BoldMT-69" transform="translate(516.845703 0)"/>
     <use xlink:href="#Arial-BoldMT-63" transform="translate(544.628906 0)"/>
     <use xlink:href="#Arial-BoldMT-61" transform="translate(600.244141 0)"/>
     <use xlink:href="#Arial-BoldMT-74" transform="translate(655.859375 0)"/>
     <use xlink:href="#Arial-BoldMT-69" transform="translate(689.160156 0)"/>
     <use xlink:href="#Arial-BoldMT-6f" transform="translate(716.943359 0)"/>
     <use xlink:href="#Arial-BoldMT-6e" transform="translate(778.027344 0)"/>
     <use xlink:href="#Arial-BoldMT-3a" transform="translate(839.111328 0)"/>
     <use xlink:href="#Arial-BoldMT-20" transform="translate(872.412109 0)"/>
     <use xlink:href="#Arial-BoldMT-30" transform="translate(900.195312 0)"/>
     <use xlink:href="#Arial-BoldMT-2e" transform="translate(955.810547 0)"/>
     <use xlink:href="#Arial-BoldMT-30" transform="translate(983.59375 0)"/>
     <use xlink:href="#Arial-BoldMT-25" transform="translate(1039.208984 0)"/>
     <use xlink:href="#Arial-BoldMT-20" transform="translate(1128.125 0)"/>
     <use xlink:href="#Arial-BoldMT-28" transform="translate(1155.908203 0)"/>
     <use xlink:href="#Arial-BoldMT-6c" transform="translate(1189.208984 0)"/>
     <use xlink:href="#Arial-BoldMT-6f" transform="translate(1216.992188 0)"/>
     <use xlink:href="#Arial-BoldMT-77" transform="translate(1278.076172 0)"/>
     <use xlink:href="#Arial-BoldMT-29" transform="translate(1355.859375 0)"/>
     <use xlink:href="#Arial-BoldMT-20" transform="translate(1389.160156 0)"/>
     <use xlink:href="#Arial-BoldMT-b7" transform="translate(1416.943359 0)"/>
     <use xlink:href="#Arial-BoldMT-20" transform="translate(1450.244141 0)"/>
     <use xlink:href="#Arial-BoldMT-34" transform="translate(1478.027344 0)"/>
     <use xlink:href="#Arial-BoldMT-2e" transform="translate(1533.642578 0)"/>
     <use xlink:href="#Arial-BoldMT-35" transform="translate(1561.425781 0)"/>
     <use xlink:href="#Arial-BoldMT-25" transform="translate(1617.041016 0)"/>
     <use xlink:href="#Arial-BoldMT-20" transform="translate(1705.957031 0)"/>
     <use xlink:href="#Arial-BoldMT-28" transform="translate(1733.740234 0)"/>
     <use xlink:href="#Arial-BoldMT-6d" transform="translate(1767.041016 0)"/>
     <use xlink:href="#Arial-BoldMT-69" transform="translate(1855.957031 0)"/>
     <use xlink:href="#Arial-BoldMT-64" transform="translate(1883.740234 0)"/>
     <use xlink:href="#Arial-BoldMT-29" transform="translate(1944.824219 0)"/>
     <use xlink:href="#Arial-BoldMT-20" transform="translate(1978.125 0)"/>
     <use xlink:href="#Arial-BoldMT-b7" transform="translate(2005.908203 0)"/>
     <use xlink:href="#Arial-BoldMT-20" transform="translate(2039.208984 0)"/>
     <use xlink:href="#Arial-BoldMT-39" transform="translate(2066.992188 0)"/>
     <use xlink:href="#Arial-BoldMT-32" transform="translate(2122.607422 0)"/>
     <use xlink:href="#Arial-BoldMT-2e" transform="translate(2178.222656 0)"/>
     <use xlink:href="#Arial-BoldMT-33" transform="translate(2206.005859 0)"/>
     <use xlink:href="#Arial-BoldMT-25" transform="translate(2261.621094 0)"/>
     <use xlink:href="#Arial-BoldMT-20" transform="translate(2350.537109 0)"/>
     <use xlink:href="#Arial-BoldMT-28" transform="translate(2378.320312 0)"/>
     <use xlink:href="#Arial-BoldMT-68" transform="translate(2411.621094 0)"/>
     <use xlink:href="#Arial-BoldMT-69" transform="translate(2472.705078 0)"/>
     <use xlink:href="#Arial-BoldMT-67" transform="translate(2500.488281 0)"/>
     <use xlink:href="#Arial-BoldMT-68" transform="translate(2561.572266 0)"/>
     <use xlink:href="#Arial-BoldMT-29" transform="translate(2622.65625 0)"/>
    </g>
   </g>
   <g id="text_7">
    <!-- Censor-aware  ·  Multi-horizon  ·  Monotone-constrained  ·  Small-sample robust -->
    <g style="fill: #555555" transform="translate(61.111797 214.151319) scale(0.07 -0.07)">
     <defs>
      <path id="Arial-ItalicMT-43" d="M 3859 1613 
L 4466 1528 
Q 4178 734 3628 328 
Q 3078 -78 2394 -78 
Q 1559 -78 1070 431 
Q 581 941 581 1891 
Q 581 3128 1325 3938 
Q 1988 4659 2972 4659 
Q 3700 4659 4151 4268 
Q 4603 3878 4675 3219 
L 4103 3166 
Q 4013 3663 3730 3908 
Q 3447 4153 3000 4153 
Q 2159 4153 1641 3406 
Q 1191 2763 1191 1878 
Q 1191 1172 1537 800 
Q 1884 428 2441 428 
Q 2916 428 3300 737 
Q 3684 1047 3859 1613 
z
" transform="scale(0.015625)"/>
      <path id="Arial-ItalicMT-65" d="M 2650 1128 
L 3200 1072 
Q 3081 663 2654 294 
Q 2228 -75 1638 -75 
Q 1269 -75 961 95 
Q 653 266 492 591 
Q 331 916 331 1331 
Q 331 1875 582 2386 
Q 834 2897 1234 3145 
Q 1634 3394 2100 3394 
Q 2694 3394 3048 3025 
Q 3403 2656 3403 2019 
Q 3403 1775 3359 1519 
L 916 1519 
Q 903 1422 903 1344 
Q 903 878 1117 633 
Q 1331 388 1641 388 
Q 1931 388 2212 578 
Q 2494 769 2650 1128 
z
M 1006 1950 
L 2869 1950 
Q 2872 2038 2872 2075 
Q 2872 2500 2659 2726 
Q 2447 2953 2113 2953 
Q 1750 2953 1451 2703 
Q 1153 2453 1006 1950 
z
" transform="scale(0.015625)"/>
      <path id="Arial-ItalicMT-6e" d="M 213 0 
L 906 3319 
L 1419 3319 
L 1297 2741 
Q 1631 3081 1922 3237 
Q 2213 3394 2516 3394 
Q 2919 3394 3148 3175 
Q 3378 2956 3378 2591 
Q 3378 2406 3297 2009 
L 2875 0 
L 2309 0 
L 2750 2103 
Q 2816 2409 2816 2556 
Q 2816 2722 2702 2825 
Q 2588 2928 2372 2928 
Q 1938 2928 1598 2615 
Q 1259 2303 1100 1544 
L 778 0 
L 213 0 
z
" transform="scale(0.015625)"/>
      <path id="Arial-ItalicMT-73" d="M 266 1134 
L 831 1169 
Q 831 925 906 753 
Q 981 581 1182 472 
Q 1384 363 1653 363 
Q 2028 363 2215 513 
Q 2403 663 2403 866 
Q 2403 1013 2291 1144 
Q 2175 1275 1726 1467 
Q 1278 1659 1153 1738 
Q 944 1866 837 2039 
Q 731 2213 731 2438 
Q 731 2831 1043 3112 
Q 1356 3394 1919 3394 
Q 2544 3394 2870 3105 
Q 3197 2816 3209 2344 
L 2656 2306 
Q 2644 2606 2444 2781 
Q 2244 2956 1878 2956 
Q 1584 2956 1421 2822 
Q 1259 2688 1259 2531 
Q 1259 2375 1400 2256 
Q 1494 2175 1884 2006 
Q 2534 1725 2703 1563 
Q 2972 1303 2972 931 
Q 2972 684 2820 446 
Q 2669 209 2358 67 
Q 2047 -75 1625 -75 
Q 1050 -75 647 209 
Q 244 494 266 1134 
z
" transform="scale(0.015625)"/>
      <path id="Arial-ItalicMT-6f" d="M 313 1259 
Q 313 2231 884 2869 
Q 1356 3394 2122 3394 
Q 2722 3394 3089 3019 
Q 3456 2644 3456 2006 
Q 3456 1434 3225 942 
Q 2994 450 2567 187 
Q 2141 -75 1669 -75 
Q 1281 -75 964 90 
Q 647 256 480 559 
Q 313 863 313 1259 
z
M 878 1316 
Q 878 847 1103 605 
Q 1328 363 1675 363 
Q 1856 363 2034 436 
Q 2213 509 2366 659 
Q 2519 809 2626 1001 
Q 2734 1194 2800 1416 
Q 2897 1725 2897 2009 
Q 2897 2459 2670 2707 
Q 2444 2956 2100 2956 
Q 1834 2956 1615 2829 
Q 1397 2703 1220 2459 
Q 1044 2216 961 1892 
Q 878 1569 878 1316 
z
" transform="scale(0.015625)"/>
      <path id="Arial-ItalicMT-72" d="M 213 0 
L 906 3319 
L 1406 3319 
L 1266 2641 
Q 1522 3025 1767 3209 
Q 2013 3394 2269 3394 
Q 2438 3394 2684 3272 
L 2453 2747 
Q 2306 2853 2131 2853 
Q 1834 2853 1521 2522 
Q 1209 2191 1031 1331 
L 750 0 
L 213 0 
z
" transform="scale(0.015625)"/>
      <path id="Arial-ItalicMT-2d" d="M 297 1375 
L 416 1941 
L 2141 1941 
L 2025 1375 
L 297 1375 
z
" transform="scale(0.015625)"/>
      <path id="Arial-ItalicMT-61" d="M 2450 413 
Q 2156 159 1884 42 
Q 1613 -75 1303 -75 
Q 844 -75 562 195 
Q 281 466 281 888 
Q 281 1166 407 1380 
Q 534 1594 743 1723 
Q 953 1853 1256 1909 
Q 1447 1947 1980 1969 
Q 2513 1991 2744 2081 
Q 2809 2313 2809 2466 
Q 2809 2663 2666 2775 
Q 2469 2931 2091 2931 
Q 1734 2931 1507 2773 
Q 1281 2616 1178 2325 
L 606 2375 
Q 781 2869 1161 3131 
Q 1541 3394 2119 3394 
Q 2734 3394 3094 3100 
Q 3369 2881 3369 2531 
Q 3369 2266 3291 1916 
L 3106 1091 
Q 3019 697 3019 450 
Q 3019 294 3088 0 
L 2516 0 
Q 2469 163 2450 413 
z
M 2659 1681 
Q 2541 1634 2405 1609 
Q 2269 1584 1950 1556 
Q 1456 1513 1253 1445 
Q 1050 1378 947 1231 
Q 844 1084 844 906 
Q 844 669 1008 516 
Q 1172 363 1475 363 
Q 1756 363 2015 511 
Q 2275 659 2425 925 
Q 2575 1191 2659 1681 
z
" transform="scale(0.015625)"/>
      <path id="Arial-ItalicMT-77" d="M 844 0 
L 497 3319 
L 1041 3319 
L 1191 1828 
L 1250 991 
Q 1256 897 1269 613 
Q 1363 931 1428 1101 
Q 1494 1272 1638 1588 
L 2428 3319 
L 3044 3319 
L 3153 1659 
Q 3178 1281 3184 650 
Q 3341 1069 3694 1813 
L 4406 3319 
L 4972 3319 
L 3350 0 
L 2763 0 
L 2638 1947 
Q 2625 2128 2619 2653 
Q 2491 2319 2316 1931 
L 1438 0 
L 844 0 
z
" transform="scale(0.015625)"/>
      <path id="Arial-ItalicMT-20" transform="scale(0.015625)"/>
      <path id="Arial-ItalicMT-b7" d="M 969 1969 
L 1103 2609 
L 1744 2609 
L 1606 1969 
L 969 1969 
z
" transform="scale(0.015625)"/>
      <path id="Arial-ItalicMT-4d" d="M 281 0 
L 1238 4581 
L 1991 4581 
L 2453 1613 
Q 2544 1028 2572 491 
Q 2763 953 3209 1744 
L 4816 4581 
L 5581 4581 
L 4625 0 
L 4022 0 
L 4500 2228 
Q 4666 3000 4975 3959 
Q 4778 3513 4488 2997 
L 2781 0 
L 2191 0 
L 1731 2938 
Q 1669 3341 1641 3878 
Q 1563 3275 1488 2922 
L 878 0 
L 281 0 
z
" transform="scale(0.015625)"/>
      <path id="Arial-ItalicMT-75" d="M 2478 600 
Q 1881 -75 1256 -75 
Q 872 -75 636 145 
Q 400 366 400 684 
Q 400 894 506 1403 
L 906 3319 
L 1472 3319 
L 1028 1197 
Q 972 931 972 784 
Q 972 597 1086 492 
Q 1200 388 1422 388 
Q 1659 388 1886 503 
Q 2113 619 2277 816 
Q 2441 1013 2544 1281 
Q 2613 1453 2703 1884 
L 3003 3319 
L 3569 3319 
L 2875 0 
L 2353 0 
L 2478 600 
z
" transform="scale(0.015625)"/>
      <path id="Arial-ItalicMT-6c" d="M 169 0 
L 1125 4581 
L 1691 4581 
L 734 0 
L 169 0 
z
" transform="scale(0.015625)"/>
      <path id="Arial-ItalicMT-74" d="M 1534 459 
L 1441 -3 
Q 1238 -56 1047 -56 
Q 709 -56 509 109 
Q 359 234 359 450 
Q 359 559 441 953 
L 844 2881 
L 397 2881 
L 488 3319 
L 934 3319 
L 1106 4134 
L 1753 4525 
L 1500 3319 
L 2056 3319 
L 1963 2881 
L 1409 2881 
L 1025 1047 
Q 953 697 953 628 
Q 953 528 1011 475 
Q 1069 422 1200 422 
Q 1388 422 1534 459 
z
" transform="scale(0.015625)"/>
      <path id="Arial-ItalicMT-69" d="M 1016 3941 
L 1150 4581 
L 1713 4581 
L 1578 3941 
L 1016 3941 
z
M 191 0 
L 884 3319 
L 1450 3319 
L 756 0 
L 191 0 
z
" transform="scale(0.015625)"/>
      <path id="Arial-ItalicMT-68" d="M 213 0 
L 1169 4581 
L 1734 4581 
L 1369 2822 
Q 1684 3128 1956 3261 
Q 2228 3394 2516 3394 
Q 2928 3394 3156 3176 
Q 3384 2959 3384 2603 
Q 3384 2428 3284 1959 
L 2875 0 
L 2309 0 
L 2731 2009 
Q 2822 2447 2822 2559 
Q 2822 2722 2709 2825 
Q 2597 2928 2384 2928 
Q 2078 2928 1800 2767 
Q 1522 2606 1364 2326 
Q 1206 2047 1075 1425 
L 778 0 
L 213 0 
z
" transform="scale(0.015625)"/>
      <path id="Arial-ItalicMT-7a" d="M 125 0 
L 216 438 
L 2000 2447 
Q 2191 2659 2425 2888 
Q 2022 2847 1847 2847 
L 613 2847 
L 713 3319 
L 3278 3319 
L 3203 2963 
L 1403 941 
Q 1250 769 947 469 
Q 1419 497 1594 497 
L 2900 497 
L 2797 0 
L 125 0 
z
" transform="scale(0.015625)"/>
      <path id="Arial-ItalicMT-63" d="M 2503 1209 
L 3069 1150 
Q 2856 528 2464 226 
Q 2072 -75 1572 -75 
Q 1031 -75 695 275 
Q 359 625 359 1253 
Q 359 1797 575 2322 
Q 791 2847 1192 3120 
Q 1594 3394 2109 3394 
Q 2644 3394 2956 3092 
Q 3269 2791 3269 2294 
L 2713 2256 
Q 2709 2572 2529 2750 
Q 2350 2928 2056 2928 
Q 1716 2928 1466 2712 
Q 1216 2497 1073 2058 
Q 931 1619 931 1213 
Q 931 788 1118 575 
Q 1306 363 1581 363 
Q 1856 363 2107 572 
Q 2359 781 2503 1209 
z
" transform="scale(0.015625)"/>
      <path id="Arial-ItalicMT-64" d="M 2450 481 
Q 1966 -75 1438 -75 
Q 966 -75 652 273 
Q 338 622 338 1284 
Q 338 1891 586 2392 
Q 834 2894 1207 3144 
Q 1581 3394 1956 3394 
Q 2575 3394 2891 2797 
L 3266 4581 
L 3828 4581 
L 2872 0 
L 2350 0 
L 2450 481 
z
M 900 1391 
Q 900 1044 969 844 
Q 1038 644 1203 511 
Q 1369 378 1600 378 
Q 1984 378 2297 778 
Q 2716 1309 2716 2091 
Q 2716 2484 2509 2706 
Q 2303 2928 1991 2928 
Q 1788 2928 1620 2837 
Q 1453 2747 1289 2530 
Q 1125 2313 1012 1978 
Q 900 1644 900 1391 
z
" transform="scale(0.015625)"/>
      <path id="Arial-ItalicMT-53" d="M 450 1481 
L 1050 1538 
L 1044 1378 
Q 1044 1113 1166 892 
Q 1288 672 1569 551 
Q 1850 431 2238 431 
Q 2788 431 3077 672 
Q 3366 913 3366 1222 
Q 3366 1438 3213 1616 
Q 3056 1791 2359 2091 
Q 1819 2325 1622 2450 
Q 1313 2653 1166 2892 
Q 1019 3131 1019 3438 
Q 1019 3791 1212 4075 
Q 1406 4359 1779 4509 
Q 2153 4659 2622 4659 
Q 3181 4659 3565 4471 
Q 3950 4284 4123 3971 
Q 4297 3659 4297 3375 
Q 4297 3347 4294 3281 
L 3703 3234 
Q 3703 3428 3669 3538 
Q 3606 3728 3475 3859 
Q 3344 3991 3114 4070 
Q 2884 4150 2600 4150 
Q 2100 4150 1822 3925 
Q 1609 3753 1609 3469 
Q 1609 3300 1696 3167 
Q 1784 3034 2013 2906 
Q 2175 2816 2784 2547 
Q 3278 2328 3466 2203 
Q 3716 2038 3850 1802 
Q 3984 1566 3984 1266 
Q 3984 894 3757 580 
Q 3531 266 3131 94 
Q 2731 -78 2216 -78 
Q 1438 -78 945 261 
Q 453 600 450 1481 
z
" transform="scale(0.015625)"/>
      <path id="Arial-ItalicMT-6d" d="M 209 0 
L 903 3319 
L 1469 3319 
L 1353 2772 
Q 1669 3125 1917 3259 
Q 2166 3394 2456 3394 
Q 2766 3394 2973 3230 
Q 3181 3066 3247 2772 
Q 3500 3084 3779 3239 
Q 4059 3394 4369 3394 
Q 4784 3394 4992 3197 
Q 5200 3000 5200 2644 
Q 5200 2491 5128 2138 
L 4681 0 
L 4116 0 
L 4572 2194 
Q 4631 2463 4631 2578 
Q 4631 2741 4528 2834 
Q 4425 2928 4238 2928 
Q 3984 2928 3721 2775 
Q 3459 2622 3314 2373 
Q 3169 2125 3059 1609 
L 2722 0 
L 2156 0 
L 2625 2241 
Q 2675 2469 2675 2566 
Q 2675 2728 2573 2828 
Q 2472 2928 2309 2928 
Q 2069 2928 1805 2775 
Q 1541 2622 1375 2348 
Q 1209 2075 1103 1569 
L 775 0 
L 209 0 
z
" transform="scale(0.015625)"/>
      <path id="Arial-ItalicMT-70" d="M -66 -1272 
L 894 3319 
L 1416 3319 
L 1319 2856 
Q 1609 3159 1839 3276 
Q 2069 3394 2325 3394 
Q 2800 3394 3112 3048 
Q 3425 2703 3425 2059 
Q 3425 1541 3253 1114 
Q 3081 688 2831 428 
Q 2581 169 2325 47 
Q 2069 -75 1800 -75 
Q 1203 -75 875 531 
L 500 -1272 
L -66 -1272 
z
M 1053 1356 
Q 1053 984 1106 841 
Q 1184 638 1362 513 
Q 1541 388 1775 388 
Q 2263 388 2563 936 
Q 2863 1484 2863 2056 
Q 2863 2478 2661 2708 
Q 2459 2938 2159 2938 
Q 1944 2938 1759 2823 
Q 1575 2709 1417 2482 
Q 1259 2256 1156 1928 
Q 1053 1600 1053 1356 
z
" transform="scale(0.015625)"/>
      <path id="Arial-ItalicMT-62" d="M 213 0 
L 1169 4581 
L 1734 4581 
L 1394 2944 
Q 1663 3191 1881 3292 
Q 2100 3394 2338 3394 
Q 2803 3394 3114 3047 
Q 3425 2700 3425 2038 
Q 3425 1597 3300 1231 
Q 3175 866 2990 617 
Q 2806 369 2609 220 
Q 2413 72 2206 -1 
Q 2000 -75 1809 -75 
Q 1481 -75 1231 98 
Q 981 272 841 628 
L 709 0 
L 213 0 
z
M 1050 1363 
L 1047 1256 
Q 1047 831 1250 609 
Q 1453 388 1756 388 
Q 2053 388 2301 595 
Q 2550 803 2709 1243 
Q 2869 1684 2869 2056 
Q 2869 2475 2667 2706 
Q 2466 2938 2169 2938 
Q 1863 2938 1606 2702 
Q 1350 2466 1178 1975 
Q 1050 1609 1050 1363 
z
" transform="scale(0.015625)"/>
     </defs>
     <use xlink:href="#Arial-ItalicMT-43"/>
     <use xlink:href="#Arial-ItalicMT-65" transform="translate(72.216797 0)"/>
     <use xlink:href="#Arial-ItalicMT-6e" transform="translate(127.832031 0)"/>
     <use xlink:href="#Arial-ItalicMT-73" transform="translate(183.447266 0)"/>
     <use xlink:href="#Arial-ItalicMT-6f" transform="translate(233.447266 0)"/>
     <use xlink:href="#Arial-ItalicMT-72" transform="translate(289.0625 0)"/>
     <use xlink:href="#Arial-ItalicMT-2d" transform="translate(320.613281 0)"/>
     <use xlink:href="#Arial-ItalicMT-61" transform="translate(353.914062 0)"/>
     <use xlink:href="#Arial-ItalicMT-77" transform="translate(409.529297 0)"/>
     <use xlink:href="#Arial-ItalicMT-61" transform="translate(481.746094 0)"/>
     <use xlink:href="#Arial-ItalicMT-72" transform="translate(537.361328 0)"/>
     <use xlink:href="#Arial-ItalicMT-65" transform="translate(570.662109 0)"/>
     <use xlink:href="#Arial-ItalicMT-20" transform="translate(626.277344 0)"/>
     <use xlink:href="#Arial-ItalicMT-20" transform="translate(654.060547 0)"/>
     <use xlink:href="#Arial-ItalicMT-b7" transform="translate(681.84375 0)"/>
     <use xlink:href="#Arial-ItalicMT-20" transform="translate(715.144531 0)"/>
     <use xlink:href="#Arial-ItalicMT-20" transform="translate(742.927734 0)"/>
     <use xlink:href="#Arial-ItalicMT-4d" transform="translate(770.710938 0)"/>
     <use xlink:href="#Arial-ItalicMT-75" transform="translate(854.011719 0)"/>
     <use xlink:href="#Arial-ItalicMT-6c" transform="translate(909.626953 0)"/>
     <use xlink:href="#Arial-ItalicMT-74" transform="translate(931.84375 0)"/>
     <use xlink:href="#Arial-ItalicMT-69" transform="translate(959.626953 0)"/>
     <use xlink:href="#Arial-ItalicMT-2d" transform="translate(981.84375 0)"/>
     <use xlink:href="#Arial-ItalicMT-68" transform="translate(1015.144531 0)"/>
     <use xlink:href="#Arial-ItalicMT-6f" transform="translate(1070.759766 0)"/>
     <use xlink:href="#Arial-ItalicMT-72" transform="translate(1126.375 0)"/>
     <use xlink:href="#Arial-ItalicMT-69" transform="translate(1159.675781 0)"/>
     <use xlink:href="#Arial-ItalicMT-7a" transform="translate(1181.892578 0)"/>
     <use xlink:href="#Arial-ItalicMT-6f" transform="translate(1231.892578 0)"/>
     <use xlink:href="#Arial-ItalicMT-6e" transform="translate(1287.507812 0)"/>
     <use xlink:href="#Arial-ItalicMT-20" transform="translate(1343.123047 0)"/>
     <use xlink:href="#Arial-ItalicMT-20" transform="translate(1370.90625 0)"/>
     <use xlink:href="#Arial-ItalicMT-b7" transform="translate(1398.689453 0)"/>
     <use xlink:href="#Arial-ItalicMT-20" transform="translate(1431.990234 0)"/>
     <use xlink:href="#Arial-ItalicMT-20" transform="translate(1459.773438 0)"/>
     <use xlink:href="#Arial-ItalicMT-4d" transform="translate(1487.556641 0)"/>
     <use xlink:href="#Arial-ItalicMT-6f" transform="translate(1570.857422 0)"/>
     <use xlink:href="#Arial-ItalicMT-6e" transform="translate(1626.472656 0)"/>
     <use xlink:href="#Arial-ItalicMT-6f" transform="translate(1682.087891 0)"/>
     <use xlink:href="#Arial-ItalicMT-74" transform="translate(1737.703125 0)"/>
     <use xlink:href="#Arial-ItalicMT-6f" transform="translate(1765.486328 0)"/>
     <use xlink:href="#Arial-ItalicMT-6e" transform="translate(1821.101562 0)"/>
     <use xlink:href="#Arial-ItalicMT-65" transform="translate(1876.716797 0)"/>
     <use xlink:href="#Arial-ItalicMT-2d" transform="translate(1932.332031 0)"/>
     <use xlink:href="#Arial-ItalicMT-63" transform="translate(1965.632812 0)"/>
     <use xlink:href="#Arial-ItalicMT-6f" transform="translate(2015.632812 0)"/>
     <use xlink:href="#Arial-ItalicMT-6e" transform="translate(2071.248047 0)"/>
     <use xlink:href="#Arial-ItalicMT-73" transform="translate(2126.863281 0)"/>
     <use xlink:href="#Arial-ItalicMT-74" transform="translate(2176.863281 0)"/>
     <use xlink:href="#Arial-ItalicMT-72" transform="translate(2204.646484 0)"/>
     <use xlink:href="#Arial-ItalicMT-61" transform="translate(2237.947266 0)"/>
     <use xlink:href="#Arial-ItalicMT-69" transform="translate(2293.5625 0)"/>
     <use xlink:href="#Arial-ItalicMT-6e" transform="translate(2315.779297 0)"/>
     <use xlink:href="#Arial-ItalicMT-65" transform="translate(2371.394531 0)"/>
     <use xlink:href="#Arial-ItalicMT-64" transform="translate(2427.009766 0)"/>
     <use xlink:href="#Arial-ItalicMT-20" transform="translate(2482.625 0)"/>
     <use xlink:href="#Arial-ItalicMT-20" transform="translate(2510.408203 0)"/>
     <use xlink:href="#Arial-ItalicMT-b7" transform="translate(2538.191406 0)"/>
     <use xlink:href="#Arial-ItalicMT-20" transform="translate(2571.492188 0)"/>
     <use xlink:href="#Arial-ItalicMT-20" transform="translate(2599.275391 0)"/>
     <use xlink:href="#Arial-ItalicMT-53" transform="translate(2627.058594 0)"/>
     <use xlink:href="#Arial-ItalicMT-6d" transform="translate(2693.757812 0)"/>
     <use xlink:href="#Arial-ItalicMT-61" transform="translate(2777.058594 0)"/>
     <use xlink:href="#Arial-ItalicMT-6c" transform="translate(2832.673828 0)"/>
     <use xlink:href="#Arial-ItalicMT-6c" transform="translate(2854.890625 0)"/>
     <use xlink:href="#Arial-ItalicMT-2d" transform="translate(2877.107422 0)"/>
     <use xlink:href="#Arial-ItalicMT-73" transform="translate(2910.408203 0)"/>
     <use xlink:href="#Arial-ItalicMT-61" transform="translate(2960.408203 0)"/>
     <use xlink:href="#Arial-ItalicMT-6d" transform="translate(3016.023438 0)"/>
     <use xlink:href="#Arial-ItalicMT-70" transform="translate(3099.324219 0)"/>
     <use xlink:href="#Arial-ItalicMT-6c" transform="translate(3154.939453 0)"/>
     <use xlink:href="#Arial-ItalicMT-65" transform="translate(3177.15625 0)"/>
     <use xlink:href="#Arial-ItalicMT-20" transform="translate(3232.771484 0)"/>
     <use xlink:href="#Arial-ItalicMT-72" transform="translate(3260.554688 0)"/>
     <use xlink:href="#Arial-ItalicMT-6f" transform="translate(3293.855469 0)"/>
     <use xlink:href="#Arial-ItalicMT-62" transform="translate(3349.470703 0)"/>
     <use xlink:href="#Arial-ItalicMT-75" transform="translate(3405.085938 0)"/>
     <use xlink:href="#Arial-ItalicMT-73" transform="translate(3460.701172 0)"/>
     <use xlink:href="#Arial-ItalicMT-74" transform="translate(3510.701172 0)"/>
    </g>
   </g>
   <g id="text_8">
    <!-- Internal validation only (nested 5-fold CV) -->
    <g style="fill: #999999" transform="translate(129.923906 230.587649) scale(0.06 -0.06)">
     <defs>
      <path id="Arial-ItalicMT-49" d="M 366 0 
L 1325 4581 
L 1934 4581 
L 978 0 
L 366 0 
z
" transform="scale(0.015625)"/>
      <path id="Arial-ItalicMT-76" d="M 1050 0 
L 506 3319 
L 1056 3319 
L 1341 1491 
Q 1388 1191 1456 513 
Q 1619 866 1872 1322 
L 2981 3319 
L 3578 3319 
L 1678 0 
L 1050 0 
z
" transform="scale(0.015625)"/>
      <path id="Arial-ItalicMT-79" d="M 0 -1281 
L 34 -750 
Q 209 -800 375 -800 
Q 547 -800 653 -722 
Q 791 -619 953 -334 
L 1134 -9 
L 581 3319 
L 1138 3319 
L 1388 1641 
Q 1463 1144 1516 647 
L 3000 3319 
L 3591 3319 
L 1475 -441 
Q 1169 -991 931 -1169 
Q 694 -1347 384 -1347 
Q 188 -1347 0 -1281 
z
" transform="scale(0.015625)"/>
      <path id="Arial-ItalicMT-28" d="M 1031 -1347 
Q 541 -272 541 863 
Q 541 1619 739 2270 
Q 938 2922 1344 3559 
Q 1613 3984 2203 4659 
L 2644 4659 
Q 2278 4269 1870 3559 
Q 1463 2850 1278 2165 
Q 1094 1481 1094 791 
Q 1094 -241 1453 -1347 
L 1031 -1347 
z
" transform="scale(0.015625)"/>
      <path id="Arial-ItalicMT-35" d="M 447 1309 
L 1022 1366 
Q 1016 1244 1016 1219 
Q 1016 1013 1120 803 
Q 1225 594 1404 483 
Q 1584 372 1784 372 
Q 2047 372 2319 553 
Q 2591 734 2759 1081 
Q 2928 1428 2928 1769 
Q 2928 2153 2701 2384 
Q 2475 2616 2106 2616 
Q 1859 2616 1639 2497 
Q 1419 2378 1228 2141 
L 734 2175 
L 1425 4519 
L 3663 4519 
L 3553 4000 
L 1813 4000 
L 1469 2834 
Q 1663 2975 1867 3045 
Q 2072 3116 2288 3116 
Q 2813 3116 3150 2769 
Q 3488 2422 3488 1819 
Q 3488 1291 3256 845 
Q 3025 400 2620 161 
Q 2216 -78 1747 -78 
Q 1353 -78 1050 100 
Q 747 278 595 590 
Q 444 903 444 1216 
Q 444 1247 447 1309 
z
" transform="scale(0.015625)"/>
      <path id="Arial-ItalicMT-66" d="M 291 0 
L 894 2881 
L 388 2881 
L 478 3319 
L 984 3319 
L 1081 3791 
Q 1156 4144 1236 4300 
Q 1316 4456 1495 4557 
Q 1675 4659 1984 4659 
Q 2200 4659 2609 4569 
L 2506 4075 
Q 2219 4150 2025 4150 
Q 1859 4150 1773 4067 
Q 1688 3984 1625 3675 
L 1550 3319 
L 2181 3319 
L 2091 2881 
L 1459 2881 
L 856 0 
L 291 0 
z
" transform="scale(0.015625)"/>
      <path id="Arial-ItalicMT-56" d="M 1675 0 
L 794 4581 
L 1384 4581 
L 1916 1850 
Q 2063 1106 2106 650 
Q 2394 1238 2578 1581 
L 4213 4581 
L 4844 4581 
L 2331 0 
L 1675 0 
z
" transform="scale(0.015625)"/>
      <path id="Arial-ItalicMT-29" d="M 1269 4659 
Q 1763 3584 1763 2453 
Q 1763 1694 1564 1044 
Q 1366 394 959 -247 
Q 688 -672 100 -1347 
L -341 -1347 
Q 22 -953 431 -243 
Q 841 466 1023 1148 
Q 1206 1831 1206 2525 
Q 1206 3556 847 4659 
L 1269 4659 
z
" transform="scale(0.015625)"/>
     </defs>
     <use xlink:href="#Arial-ItalicMT-49"/>
     <use xlink:href="#Arial-ItalicMT-6e" transform="translate(27.783203 0)"/>
     <use xlink:href="#Arial-ItalicMT-74" transform="translate(83.398438 0)"/>
     <use xlink:href="#Arial-ItalicMT-65" transform="translate(111.181641 0)"/>
     <use xlink:href="#Arial-ItalicMT-72" transform="translate(166.796875 0)"/>
     <use xlink:href="#Arial-ItalicMT-6e" transform="translate(200.097656 0)"/>
     <use xlink:href="#Arial-ItalicMT-61" transform="translate(255.712891 0)"/>
     <use xlink:href="#Arial-ItalicMT-6c" transform="translate(311.328125 0)"/>
     <use xlink:href="#Arial-ItalicMT-20" transform="translate(333.544922 0)"/>
     <use xlink:href="#Arial-ItalicMT-76" transform="translate(361.328125 0)"/>
     <use xlink:href="#Arial-ItalicMT-61" transform="translate(411.328125 0)"/>
     <use xlink:href="#Arial-ItalicMT-6c" transform="translate(466.943359 0)"/>
     <use xlink:href="#Arial-ItalicMT-69" transform="translate(489.160156 0)"/>
     <use xlink:href="#Arial-ItalicMT-64" transform="translate(511.376953 0)"/>
     <use xlink:href="#Arial-ItalicMT-61" transform="translate(566.992188 0)"/>
     <use xlink:href="#Arial-ItalicMT-74" transform="translate(622.607422 0)"/>
     <use xlink:href="#Arial-ItalicMT-69" transform="translate(650.390625 0)"/>
     <use xlink:href="#Arial-ItalicMT-6f" transform="translate(672.607422 0)"/>
     <use xlink:href="#Arial-ItalicMT-6e" transform="translate(728.222656 0)"/>
     <use xlink:href="#Arial-ItalicMT-20" transform="translate(783.837891 0)"/>
     <use xlink:href="#Arial-ItalicMT-6f" transform="translate(811.621094 0)"/>
     <use xlink:href="#Arial-ItalicMT-6e" transform="translate(867.236328 0)"/>
     <use xlink:href="#Arial-ItalicMT-6c" transform="translate(922.851562 0)"/>
     <use xlink:href="#Arial-ItalicMT-79" transform="translate(945.068359 0)"/>
     <use xlink:href="#Arial-ItalicMT-20" transform="translate(995.068359 0)"/>
     <use xlink:href="#Arial-ItalicMT-28" transform="translate(1022.851562 0)"/>
     <use xlink:href="#Arial-ItalicMT-6e" transform="translate(1056.152344 0)"/>
     <use xlink:href="#Arial-ItalicMT-65" transform="translate(1111.767578 0)"/>
     <use xlink:href="#Arial-ItalicMT-73" transform="translate(1167.382812 0)"/>
     <use xlink:href="#Arial-ItalicMT-74" transform="translate(1217.382812 0)"/>
     <use xlink:href="#Arial-ItalicMT-65" transform="translate(1245.166016 0)"/>
     <use xlink:href="#Arial-ItalicMT-64" transform="translate(1300.78125 0)"/>
     <use xlink:href="#Arial-ItalicMT-20" transform="translate(1356.396484 0)"/>
     <use xlink:href="#Arial-ItalicMT-35" transform="translate(1384.179688 0)"/>
     <use xlink:href="#Arial-ItalicMT-2d" transform="translate(1439.794922 0)"/>
     <use xlink:href="#Arial-ItalicMT-66" transform="translate(1473.095703 0)"/>
     <use xlink:href="#Arial-ItalicMT-6f" transform="translate(1500.878906 0)"/>
     <use xlink:href="#Arial-ItalicMT-6c" transform="translate(1556.494141 0)"/>
     <use xlink:href="#Arial-ItalicMT-64" transform="translate(1578.710938 0)"/>
     <use xlink:href="#Arial-ItalicMT-20" transform="translate(1634.326172 0)"/>
     <use xlink:href="#Arial-ItalicMT-43" transform="translate(1662.109375 0)"/>
     <use xlink:href="#Arial-ItalicMT-56" transform="translate(1734.326172 0)"/>
     <use xlink:href="#Arial-ItalicMT-29" transform="translate(1801.025391 0)"/>
    </g>
   </g>
  </g>
 </g>
 <defs>
  <clipPath id="p301b51effa">
   <rect x="3.6" y="5.957814" width="362.7" height="232.848"/>
  </clipPath>
 </defs>
</svg>
